<svg viewBox="-14.341 -5.075 612.128 376.345" xmlns="http://www.w3.org/2000/svg">
    <style>
          :root{
            --color1: rgb(140, 140, 140);
            --color2: rgb(133, 167, 130);
            --color3: rgb(194, 228, 191);
            --color4: rgb(230, 230, 230);
        }
        </style>
    <defs></defs>
    <path style="fill: var(--color3);" d="M 165.412 323.951 C 165.412 323.951 68.734 343.286 39.27 316.585 C 9.806 289.884 -13.212 239.242 13.489 185.839 C 40.19 132.436 126.741 130.594 131.345 128.752 C 135.949 126.91 207.767 80.873 228.944 55.093 C 250.121 29.313 321.019 -8.439 387.312 15.5 C 453.605 39.439 515.296 42.202 536.473 107.575 C 557.65 172.948 577.907 249.37 521.741 311.06 C 465.575 372.75 374.422 325.792 374.422 325.792"></path>
    <path style="fill: rgba(255, 255, 255, 0.81);" d="M 165.748 323.784 C 165.748 323.784 69.07 343.119 39.606 316.418 C 10.142 289.717 -12.876 239.075 13.825 185.672 C 40.526 132.269 127.077 130.427 131.681 128.585 C 136.285 126.743 208.103 80.706 229.28 54.926 C 250.457 29.146 321.355 -8.606 387.648 15.333 C 453.941 39.272 515.632 42.035 536.809 107.408 C 557.986 172.781 578.243 249.203 522.077 310.893 C 465.911 372.583 374.758 325.625 374.758 325.625"></path>
    <rect x="150.613" y="60.303" width="218.763" height="134.002" style="fill: var(--color2);"></rect>
    <rect x="158.686" y="67.569" width="203.022" height="119.068" style="fill: rgb(245, 245, 245);"></rect>
    <rect x="177.656" y="131.341" width="11.301" height="23.41" style="fill: var(--color1);"></rect>
    <rect x="193.397" y="122.865" width="12.512" height="31.886" style="fill: var(--color2);"></rect>
    <rect x="210.349" y="111.967" width="12.109" height="42.784" style="fill: var(--color1);"></rect>
    <rect x="227.301" y="136.588" width="11.705" height="17.759" style="fill: var(--color2);"></rect>
    <rect x="243.85" y="141.028" width="10.898" height="13.32" style="fill: var(--color1);"></rect>
    <rect x="260.802" y="115.196" width="10.898" height="40.362" style="fill: var(--color2);"></rect>
    <rect x="276.947" y="109.142" width="11.705" height="46.013" style="fill: var(--color1);"></rect>
    <rect x="293.495" y="101.877" width="12.109" height="53.278" style="fill: var(--color2);"></rect>
    <rect x="309.64" y="122.865" width="12.109" height="32.29" style="fill: none;"></rect>
    <line style="stroke: var(--color1);" x1="228.916" y1="84.521" x2="287.441" y2="84.924"></line>
    <line style="stroke: var(--color1);" x1="169.18" y1="154.751" x2="341.528" y2="154.751"></line>
    <rect x="309.64" y="121.654" width="12.916" height="32.693" style="fill: var(--color1);"></rect>
    <line style="stroke: var(--color1); stroke-dasharray: 10px;" x1="176.445" y1="162.42" x2="329.84" y2="162.42"></line>
    <line style="stroke: var(--color1);" x1="171.198" y1="86.135" x2="171.198" y2="163.228"></line>
    <path style="stroke: var(--color1); stroke-width: 0.5px; fill: rgb(245, 245, 245);" d="M 366.268 115.444 L 363.023 120.311 L 346.8 119.721 C 346.8 119.721 345.03 119.279 345.03 116.182 C 345.03 113.085 345.03 105.858 345.03 105.858 C 345.03 105.858 341.048 102.761 341.343 101.876 C 341.638 100.991 348.865 95.092 348.865 94.059 C 348.865 93.026 348.717 88.897 348.717 88.897 C 348.717 88.897 353.142 81.671 354.912 80.049 C 356.682 78.427 373.642 80.049 373.642 80.049 L 371.872 91.995 L 384.703 94.797 L 379.393 113.084 L 377.771 122.376 L 371.872 136.681 L 361.253 149.07 L 357.271 131.077 L 355.354 119.721"></path>
    <path style="stroke: var(--color1); fill: var(--color1);" d="M 328.818 215.229 L 328.818 222.431 L 323.563 236.446 L 327.65 291.337 L 394.804 291.921 C 394.804 291.921 393.052 242.675 393.441 239.95 C 393.83 237.225 390.911 220.095 390.911 220.095 C 390.911 220.095 385.071 228.465 355.874 226.908 C 326.677 225.351 328.624 215.229 328.818 215.229 Z"></path>
    <path style="fill: none; stroke: rgb(245, 245, 245);" d="M 346.92 251.628 L 365.217 256.884 L 356.069 254.354 L 357.431 291.921"></path>
    <path style="fill: var(--color4);" d="M 328.624 214.754 L 331.543 215.532 C 331.543 215.532 345.558 224.875 363.66 223.123 C 381.762 221.371 390.716 216.7 390.716 216.7 L 391.106 219.814 C 391.106 219.814 382.541 227.99 356.653 226.822 C 330.765 225.654 328.234 215.143 328.624 214.754 Z"></path>
    <path style="stroke-width: 0.5px; fill: var(--color3);" d="M 327.261 148.898 L 329.208 154.932 L 329.013 206.513 C 329.013 206.513 326.093 208.071 326.483 209.628 C 326.873 211.185 326.483 215.662 328.234 215.467 C 329.985 215.272 333.101 216.051 334.658 217.024 C 336.215 217.997 347.504 225.005 365.996 222.864 C 384.488 220.723 390.911 216.246 390.911 216.246 C 390.911 216.246 393.636 214.883 393.441 214.494 C 393.246 214.105 393.052 212.548 391.69 211.964 C 390.328 211.38 392.663 202.815 392.663 202.815 L 395.193 184.324 L 399.849 185.36 L 400.525 187.725 L 420.012 194.935 L 436.232 182.544 L 416.295 157.875 C 416.295 157.875 410.55 159.94 409.761 160.841 C 408.972 161.742 406.044 165.46 406.044 165.46 L 409.761 160.503 L 416.182 157.8 C 416.182 157.8 414.154 155.772 413.591 154.533 C 413.028 153.294 407.058 137.975 407.058 137.975 L 382.727 127.611 L 378.146 121.153 L 363.728 141.654 L 360.574 135.909 L 355.73 120.59 L 348.859 127.461 L 323.414 134.558 C 323.414 134.558 319.359 147.812 319.246 153.332 C 319.133 158.852 319.133 159.076 319.133 159.076 L 311.361 170.791 C 311.361 170.791 313.051 173.044 313.163 174.283 C 313.275 175.522 313.727 178.451 313.727 178.451 L 313.276 174.171 C 313.276 174.171 312.375 171.129 311.248 170.904 C 310.121 170.679 289.508 159.64 289.508 159.64 L 286.792 160.428 L 281.16 155.472 C 281.16 155.472 279.358 154.683 278.795 152.543 C 278.232 150.403 277.556 147.699 276.542 146.573 C 275.528 145.447 274.627 143.644 271.135 142.743 C 267.643 141.842 266.291 140.265 266.066 139.927 C 265.841 139.589 262.799 138.237 262.123 141.053 C 261.447 143.869 268.431 147.023 268.431 147.023 L 257.392 147.361 L 252.774 144.545 C 252.774 144.545 249.958 143.306 249.62 144.545 C 249.282 145.784 249.169 146.235 251.084 148.601 C 252.999 150.967 254.464 153.444 254.464 153.444 C 254.464 153.444 256.604 158.513 261.448 159.865 C 266.292 161.217 271.811 160.09 272.599 160.541 C 273.387 160.992 274.852 163.244 274.852 163.244 L 281.498 155.81 L 274.176 164.145 L 280.146 168.313 C 280.146 168.313 282.962 163.582 283.638 163.132 C 284.314 162.682 286.342 160.653 286.342 160.653 L 282.962 163.582 L 279.02 171.58 L 313.601 196.699 C 313.601 196.699 316.418 198.389 318.896 196.023 C 321.374 193.657 329.271 180.479 329.271 180.479 L 329.114 154.679"></path>
    <path style="stroke: var(--color1); fill: none; stroke-width: 0.5px;" d="M 350.874 126.76 L 351.662 145.234 L 360.899 136.785"></path>
    <line style="stroke: var(--color1); stroke-width: 0.5px;" x1="363.263" y1="141.399" x2="364.09" y2="174.476"></line>
    <path style="fill: rgb(245, 245, 245);" d="M 274.259 164.303 L 274.458 164.303 L 274.954 163.211 C 274.954 163.211 273.167 160.63 272.969 160.531 C 272.771 160.432 265.524 160.73 264.83 160.63 C 264.136 160.53 259.569 159.836 256.889 157.156 C 254.209 154.476 254.209 151.499 252.522 150.407 C 250.835 149.315 249.544 146.734 249.544 146.039 C 249.544 145.344 249.742 144.253 250.437 144.054 C 251.132 143.855 253.812 145.245 254.507 145.742 C 255.202 146.239 257.484 147.628 259.668 147.528 C 261.852 147.428 267.708 147.032 268.304 146.933 C 268.9 146.834 267.51 147.231 265.921 145.642 C 264.332 144.053 262.646 143.359 262.249 142.069 C 261.852 140.779 262.547 139.687 263.341 139.488 C 264.135 139.289 265.127 139.191 266.021 140.084 C 266.915 140.977 268.899 142.168 269.693 142.367 C 270.487 142.566 274.458 144.054 274.458 144.054 C 274.458 144.054 276.939 146.933 277.237 147.628 C 277.535 148.323 278.527 153.186 279.023 153.583 C 279.519 153.98 281.604 155.866 281.604 155.866 L 275.351 163.31"></path>
    <path style="stroke: var(--color1); fill: none; stroke-width: 0.5px;" d="M 366.644 138.7 L 375.317 146.585 L 382.414 127.661"></path>
    <path style="stroke: var(--color1); fill: none; stroke-width: 0.5px;" d="M 401.926 149.602 C 401.926 149.602 399.11 164.133 398.772 165.259 C 398.434 166.385 397.759 171.455 397.759 171.455 L 398.772 165.147 L 403.503 157.825"></path>
    <path style="stroke: var(--color1); fill: none; stroke-width: 0.5px;" d="M 406.319 154.22 L 408.009 151.517"></path>
    <path style="stroke: var(--color1); stroke-width: 0.5px; fill: rgb(245, 245, 245);" d="M 400.057 185.407 C 400.057 185.407 400.39 177.66 400.724 174.843 C 401.058 172.026 402.652 171.284 402.652 171.284 L 407.869 171.476 L 427.922 173.257 C 427.922 173.257 405.281 171.004 402.577 171.342 C 399.873 171.68 400.099 185.31 400.099 185.31 L 394.129 183.958 L 395.255 171.229 L 401.338 172.13 L 395.03 171.342 C 395.03 171.342 388.8 170.034 387.561 168.907 C 386.322 167.78 384.199 165.822 382.847 165.597 C 381.495 165.372 379.485 164.133 377.796 163.457 C 376.107 162.781 374.754 161.767 373.402 162.443 C 372.05 163.119 371.375 164.245 371.938 165.147 C 372.501 166.049 375.655 166.836 377.232 166.836 C 378.809 166.836 379.823 168.976 379.823 168.976 C 379.823 168.976 367.948 170.318 366.306 170.666 C 364.664 171.014 360.732 171.06 360.483 171.359 C 360.211 170.738 356.504 173.027 360.631 174.357 C 364.758 175.687 367.591 173.952 366.306 174.496 L 372.501 174.045 L 360.977 178.161 C 360.977 178.161 358.014 181.593 362.069 180.692 C 366.124 179.791 374.243 178.087 374.243 178.087 C 373.966 177.949 364.72 182.927 365.466 183.3 C 364.628 182.582 362.947 187.02 366.583 185.483 C 370.219 183.946 375.396 181.302 375.473 181.61 C 375.356 181.61 369.459 187.927 369.98 187.927 C 369.98 187.927 370.525 189.087 371.427 188.637 C 371.866 188.418 380.037 182.385 380.941 182.104 C 386.721 180.307 394.094 183.612 394.094 183.612"></path>
    <path style="stroke: var(--color1); stroke-width: 0.5px; fill: none;" d="M 326.971 148.57 L 328.918 154.604 L 328.723 206.185 C 328.723 206.185 325.803 207.743 326.193 209.3 C 326.583 210.857 326.193 215.334 327.944 215.139 C 329.695 214.944 332.811 215.723 334.368 216.696 C 335.925 217.669 347.214 224.677 365.706 222.536 C 384.198 220.395 390.621 215.918 390.621 215.918 C 390.621 215.918 393.346 214.555 393.151 214.166 C 392.956 213.777 392.762 212.22 391.4 211.636 C 390.038 211.052 392.373 202.487 392.373 202.487 L 394.903 183.996 L 399.559 185.032 L 400.235 187.397 L 419.722 194.607 L 435.942 182.216 L 416.005 157.547 C 416.005 157.547 410.26 159.612 409.471 160.513 C 408.682 161.414 405.754 165.132 405.754 165.132 L 409.471 160.175 L 415.892 157.472 C 415.892 157.472 413.864 155.444 413.301 154.205 C 412.738 152.966 406.768 137.647 406.768 137.647 L 382.437 127.283 L 377.856 120.825 L 363.438 141.326 L 360.284 135.581 L 355.44 120.262 L 348.569 127.133 L 323.124 134.23 C 323.124 134.23 319.069 147.484 318.956 153.004 C 318.843 158.524 318.843 158.748 318.843 158.748 L 311.071 170.463 C 311.071 170.463 312.761 172.716 312.873 173.955 C 312.985 175.194 313.437 178.123 313.437 178.123 L 312.986 173.843 C 312.986 173.843 312.085 170.801 310.958 170.576 C 309.831 170.351 289.218 159.312 289.218 159.312 L 286.502 160.1 L 280.87 155.144 C 280.87 155.144 279.068 154.355 278.505 152.215 C 277.942 150.075 277.266 147.371 276.252 146.245 C 275.238 145.119 274.337 143.316 270.845 142.415 C 267.353 141.514 266.001 139.937 265.776 139.599 C 265.551 139.261 262.509 137.909 261.833 140.725 C 261.157 143.541 268.141 146.695 268.141 146.695 L 257.102 147.033 L 252.484 144.217 C 252.484 144.217 249.668 142.978 249.33 144.217 C 248.992 145.456 248.879 145.907 250.794 148.273 C 252.709 150.639 254.174 153.116 254.174 153.116 C 254.174 153.116 256.314 158.185 261.158 159.537 C 266.002 160.889 271.521 159.762 272.309 160.213 C 273.097 160.664 274.562 162.916 274.562 162.916 L 281.208 155.482 L 273.886 163.817 L 279.856 167.985 C 279.856 167.985 282.672 163.254 283.348 162.804 C 284.024 162.354 286.052 160.325 286.052 160.325 L 282.672 163.254 L 278.73 171.252 L 313.311 196.371 C 313.311 196.371 316.128 198.061 318.606 195.695 C 321.084 193.329 328.981 180.151 328.981 180.151 L 328.824 154.351"></path>
    <path style="stroke: var(--color1); stroke-width: 0.5px; fill: none;" d="M 272.921 155.623 C 272.921 155.623 272.322 153.075 269.324 153.225 C 266.326 153.375 261.229 154.124 261.229 154.124 C 261.229 154.124 257.182 147.828 256.132 146.329 C 255.082 144.83 254.334 146.929 254.334 146.929 C 254.334 146.929 255.833 155.024 256.732 156.673"></path>
    <line style="stroke: var(--color1); stroke-width: 0.5px;" x1="392.931" y1="186.436" x2="379.588" y2="205.497"></line>
    <line style="stroke: var(--color1); stroke-width: 0.5px;" x1="377.206" y1="207.165" x2="372.917" y2="213.598"></line>
    <line style="stroke: var(--color1); stroke-width: 0.5px;" x1="390.072" y1="199.779" x2="381.971" y2="212.169"></line>
    <path style="stroke: var(--color1); stroke-width: 0.5px; fill: var(--color1);" d="M 371.51 109.159 L 380.192 113.645 C 380.192 113.645 394.083 103.805 390.465 88.756 C 386.847 73.707 370.641 72.116 370.641 72.116 C 370.641 72.116 371.075 69.801 370.207 69.511 C 369.339 69.221 367.024 67.341 364.275 68.643 C 361.526 69.945 362.538 66.473 360.223 64.881 C 357.908 63.289 355.882 65.46 354.869 66.907 C 353.856 68.354 351.541 70.235 351.251 70.235 C 350.961 70.235 347.2 75.299 350.962 78.772 C 354.724 82.245 362.972 81.232 364.564 81.811 C 366.156 82.39 368.037 83.403 367.169 83.692 C 366.301 83.981 365.866 85.139 363.117 86.586 C 360.368 88.033 361.525 88.901 363.84 90.493 C 366.155 92.085 368.616 95.268 368.037 97.004 C 367.458 98.74 365.287 103.227 367.313 103.227 C 369.339 103.227 370.497 99.464 371.654 98.596 C 372.811 97.728 376.574 95.413 377.876 96.57 C 379.178 97.727 381.928 101.345 378.889 104.674 C 375.85 108.003 371.799 109.304 371.51 109.159 Z"></path>
    <path style="fill: var(--color2);" d="M 81.156 40.483 C 81.156 40.483 79.709 47.067 75.009 48.322 C 70.308 49.576 63.799 42.992 64.883 41.111"></path>
    <path style="stroke: var(--color1); fill: var(--color1);" d="M 73.915 -5.075 L 74.217 13.933 L 69.993 14.235 L 70.596 19.062 L 65.467 19.967 L 46.158 42.897 L 101.673 42.897 L 82.665 19.062 L 78.139 18.76 L 78.743 14.536 L 74.519 13.933"></path>
    <path style="fill: var(--color2);" d="M 488.845 40.647 C 488.845 40.647 487.398 47.231 482.698 48.486 C 477.997 49.74 471.488 43.156 472.572 41.275"></path>
    <path style="stroke: var(--color1); fill: var(--color1);" d="M 481.604 -4.911 L 481.906 14.097 L 477.682 14.399 L 478.285 19.226 L 473.156 20.131 L 453.847 43.061 L 509.362 43.061 L 490.354 19.226 L 485.828 18.924 L 486.432 14.7 L 482.208 14.097"></path>
    <line style="stroke: var(--color1); stroke-width: 0.5px;" x1="-14.341" y1="343.557" x2="597.787" y2="342.788"></line>
    <path style="fill: var(--color1);" d="M 491.961 262.421 L 508.872 266.591 C 508.872 266.591 518.37 268.676 516.517 278.869 C 514.664 289.062 497.289 342.111 497.289 342.111 L 464.394 331.455"></path>
    <path style="stroke: var(--color1); fill: var(--color2); stroke-width: 0.5px;" d="M 480.012 319.562 L 478.05 332.404 L 449.87 320.098 L 452.902 317.422"></path>
    <path style="fill: var(--color1);" d="M 57.892 354.732 L 37.866 292.069 C 37.866 292.069 33.99 282.379 42.388 279.149 C 50.786 275.919 67.582 270.105 67.582 270.105 L 85.671 338.582"></path>
    <path style="stroke: var(--color1); stroke-width: 0.5px; fill: rgb(245, 245, 245);" d="M 27.332 371.27 L 158.807 290.028 L 395.09 288.788 L 549.994 369.409"></path>
    <path style="fill: rgb(245, 245, 245);" d="M 110.927 250.013 L 116.838 250.482 L 116.181 264.743 L 109.895 251.889"></path>
    <path style="stroke: var(--color1); fill: rgb(245, 245, 245); stroke-width: 0.5px;" d="M 112.346 256.318 C 112.346 256.318 110.867 247.937 113.003 243.336 C 115.139 238.735 117.276 235.612 117.276 235.612 L 124.178 235.612 C 124.178 235.612 127.465 235.283 127.3 233.147 C 127.135 231.011 127.136 227.231 127.136 227.231 L 128.451 225.916 L 127.958 222.137 C 127.958 222.137 128.779 221.479 128.944 220.986 C 129.109 220.493 128.779 218.193 128.779 218.193 L 132.559 212.934 C 132.559 212.934 134.695 210.962 131.902 210.14 C 129.109 209.318 125.493 208.497 125.164 207.84 C 124.835 207.183 123.521 205.046 125.164 202.252 C 126.807 199.458 122.863 192.721 122.863 192.721 L 94.762 207.511 L 90.49 235.776 L 99.857 251.881 L 112.346 256.318 Z"></path>
    <path style="fill: var(--color4); stroke: var(--color1); stroke-width: 0.5px;" d="M 180.375 307.393 L 251.074 307.393 L 257.276 298.09 L 187.817 298.71 L 180.375 307.393 Z"></path>
    <path style="fill: var(--color4); stroke: var(--color1); stroke-width: 0.5px;" d="M 171.693 327.858 L 233.089 327.238 L 247.973 304.912 L 194.019 305.532 L 171.693 327.858 Z"></path>
    <path style="fill: var(--color4);" d="M 101.358 252.358 L 110.838 253.445 L 107.362 271.78 L 95.634 258.832"></path>
    <path style="stroke: var(--color1); stroke-width: 0.5px; fill: rgb(245, 245, 245);" d="M 436.262 282.872 L 436.511 254.927 L 443.093 241.762 C 443.093 241.762 447.937 237.415 447.441 237.911 C 446.945 238.407 450.297 237.911 453.03 236.297 C 455.763 234.683 462.966 229.093 463.214 228.224 C 463.462 227.355 466.394 227.181 467.809 228.348 C 469.224 229.515 468.895 230.883 468.786 230.955 L 466.195 242.879 L 452.533 256.417 L 444.211 280.636 L 436.262 283.741"></path>
    <path style="stroke-width: 0.2px; fill: var(--color1);" d="M 123.85 186.074 C 123.85 186.074 120.96 186.074 120.738 185.852 C 120.516 185.63 105.845 180.517 92.953 180.517 C 80.061 180.517 72.504 194.52 71.17 196.743 C 69.836 198.966 60.945 212.08 64.057 233.197 C 67.169 254.314 62.724 255.424 55.611 255.202 C 48.498 254.98 54.277 264.982 57.834 265.427 C 61.391 265.872 62.946 267.872 64.946 265.871 C 66.946 263.87 84.667 255.177 84.667 255.177 C 83.056 257.709 99.543 261.072 97.578 260.807 C 95.613 260.542 99.418 255.651 107.638 253.696 C 116.356 251.623 87.487 243.093 96.288 243.866 C 105.089 244.639 105.451 216.693 99.622 213.414 C 99.622 213.414 102.511 216.526 103.4 216.304 C 104.289 216.082 102.511 208.524 102.956 207.635 C 103.401 206.746 116.959 200.744 120.293 196.076 C 123.627 191.408 125.628 190.519 125.85 187.852 C 126.072 185.185 124.072 185.852 123.85 186.074 Z"></path>
    <path style="stroke: var(--color1); stroke-width: 0.5px; fill: var(--color4);" d="M 93.717 274.018 L 100.225 316.426 C 100.225 316.426 132.556 317.056 136.125 316.846 C 139.694 316.636 147.252 318.315 147.252 318.315 L 154.81 319.365 L 173.495 311.387 C 173.495 311.387 175.384 309.498 180.633 310.758 C 185.882 312.018 194.489 317.686 194.489 317.686 L 194.44 319.15 L 181.257 313.145 L 195.124 319.346 L 195.27 320.664 L 194.538 320.859 L 180.232 315.537 L 194.147 320.615 L 194.098 322.031 L 190.827 321.982 L 179.744 319.346 L 190.925 321.982 L 191.999 322.666 L 191.511 323.642 L 189.069 324.228 L 176.57 323.447 C 176.57 323.447 170.787 327.283 168.736 327.185 C 166.685 327.087 154.479 325.623 154.186 325.916 C 153.893 326.209 134.018 336.441 116.853 339.064 C 99.688 341.687 82.284 342.759 82.284 342.759 C 82.284 342.759 72.986 337.753 72.748 319.157 C 72.51 300.561 66.668 281.966 66.311 279.224 C 65.954 276.482 64.046 264.575 67.384 258.377 C 70.722 252.179 75.251 251.225 76.801 250.39 C 78.351 249.555 84.43 248.006 90.509 253.728 C 96.588 259.45 107.436 271.728 107.436 271.728 L 111.012 253.489 L 103.025 252.297 L 110.893 253.489 L 116.257 265.052 L 109.582 260.999 L 116.138 265.052 L 116.853 250.867 L 124.482 260.642 L 116.614 259.688 L 116.853 250.629 L 111.727 250.152 C 111.727 250.152 112.204 244.801 112.8 243.847 C 113.396 242.893 126.151 248.735 126.866 248.496 C 127.581 248.257 136.164 261.251 142.482 275.436 C 148.8 289.621 147.25 286.999 147.25 286.999 L 142.601 291.886 L 147.25 287.118 C 147.25 287.118 149.514 284.257 150.707 285.807 C 151.9 287.357 152.614 287.714 152.614 287.714 C 152.614 287.714 153.687 288.072 151.183 292.601 C 148.679 297.13 144.866 300.707 144.866 300.707 C 144.866 300.707 152.018 292.84 152.614 289.86 C 153.21 286.88 183.686 285.211 184.997 286.522 C 186.308 287.833 191.792 286.403 191.792 286.403 C 191.792 286.403 202.48 276.509 203.553 275.436 C 204.626 274.363 208.56 274.363 208.56 274.363 L 215.593 274.125 L 218.573 276.867 L 201.169 278.178 L 202.957 278.416 L 226.321 276.509 L 202.361 278.178 L 226.202 276.271 L 203.553 278.535 L 226.44 276.509 L 218.215 277.463 L 226.44 276.271 L 218.453 276.628 L 202.681 278.357 L 216.076 277.495 L 220.387 278.185 L 220.962 279.622 L 220.157 280.714 L 218.317 281.059 L 212.971 280.369 L 217.8 280.887 L 219.18 283.071 L 219.065 284.796 L 216.995 284.968 L 212.511 282.209 L 213.201 281.577 L 212.626 282.266 L 216.995 285.026 L 217.11 286.923 L 215.846 287.843 L 214.006 286.98 L 211.879 286.463 L 209.58 284.738 L 211.879 286.463 L 212.109 288.59 L 211.304 289.625 L 209.695 289.625 L 206.82 286.865 L 213.086 281.634 L 203.199 289.855 C 203.199 289.855 201.187 291.464 199.347 291.637 C 197.507 291.81 192.679 291.579 192.679 291.579 C 192.679 291.579 192.794 288.59 192.679 288.36 C 192.564 288.13 191.816 286.405 191.816 286.405 L 192.794 288.417 L 192.506 295.316 L 186.828 295.693 C 186.828 295.693 187.058 289.714 187 289.657 C 186.942 289.6 185.908 287.127 185.908 287.127 L 187.058 289.887 L 186.885 295.865 C 186.885 295.865 186.656 298.452 186.023 299.027 C 185.39 299.602 147.254 309.757 143.998 311.216 C 140.742 312.675 132.097 317.167 132.097 317.167 L 100.11 316.381"></path>
    <path style="stroke: var(--color1); fill: none; stroke-width: 0.5px;" d="M 118.848 268.333 C 118.848 268.333 128.189 278.204 130.392 283.227 C 132.595 288.25 130.392 307.022 130.392 307.022"></path>
    <path style="stroke: var(--color1); fill: none; stroke-width: 0.5px;" d="M 122.725 252.94 C 122.725 252.94 134.182 265.073 135.856 267.981 C 137.53 270.889 141.144 273.885 140.263 283.139 C 139.382 292.393 137.619 314.513 137.619 314.513"></path>
    <path style="fill: var(--color4); stroke: var(--color1); stroke-width: 0.5px;" d="M 283.943 309.253 L 317.432 312.974 L 295.106 330.959 L 266.578 327.238 L 283.943 309.253 Z"></path>
    <path style="fill: var(--color4); stroke: var(--color1); stroke-width: 0.5px;" d="M 236.81 333.44 L 273.4 336.54 L 278.981 311.114 L 247.973 310.493 L 236.81 333.44 Z"></path>
    <path style="fill: var(--color4); stroke: var(--color1); stroke-width: 0.5px;" d="M 278.361 334.68 L 305.648 315.455 L 339.758 320.416 L 315.571 340.261 L 278.361 334.68 Z"></path>
    <line style="stroke: var(--color1); stroke-width: 0.5px;" x1="237.43" y1="308.082" x2="227.508" y2="324.206"></line>
    <line style="stroke: var(--color1); stroke-width: 0.5px;" x1="229.988" y1="307.462" x2="224.407" y2="317.384"></line>
    <line style="stroke: var(--color1); stroke-width: 0.5px;" x1="222.546" y1="309.942" x2="215.724" y2="321.725"></line>
    <line style="stroke: var(--color1); stroke-width: 0.5px;" x1="216.345" y1="309.942" x2="208.282" y2="324.826"></line>
    <line style="stroke: var(--color1); stroke-width: 0.5px;" x1="193.398" y1="299.744" x2="190.298" y2="304.705"></line>
    <line style="stroke: var(--color1); stroke-width: 0.5px;" x1="198.36" y1="300.984" x2="196.499" y2="305.325"></line>
    <line style="stroke: var(--color1); stroke-width: 0.5px;" x1="244.872" y1="300.984" x2="243.632" y2="304.085"></line>
    <line style="stroke: var(--color1); stroke-width: 0.5px;" x1="238.671" y1="300.364" x2="237.43" y2="304.705"></line>
    <line style="stroke: var(--color1); stroke-width: 0.5px;" x1="230.608" y1="300.364" x2="228.748" y2="303.465"></line>
    <path style="stroke: var(--color1); stroke-width: 0.5px; fill: none;" d="M 442.053 245.448 C 456.364 247.11 467.659 233.615 467.659 233.615 C 467.659 233.615 465.047 227.86 463.456 227.541"></path>
    <line style="stroke: var(--color1); stroke-width: 0.5px;" x1="216.345" y1="300.364" x2="215.724" y2="302.845"></line>
    <path style="fill: var(--color4); stroke: var(--color1); stroke-width: 0.5px;" d="M 147.04 318.235 C 147.04 318.235 147.594 327.935 145.863 330.098"></path>
    <path style="fill: var(--color4); stroke: var(--color1); stroke-width: 0.5px;" d="M 154.24 325.888 C 154.24 325.888 155.145 324.016 154.844 319.004"></path>
    <path style="stroke: var(--color1); stroke-width: 0.5px; fill: var(--color2);" d="M 148.863 336.838 C 148.863 336.838 145.414 336.936 145.119 338.217 C 144.824 339.498 144.724 343.736 145.513 344.623 C 146.302 345.51 148.765 345.707 148.765 345.707 L 148.666 349.451 C 148.666 349.451 145.414 350.535 143.838 347.875 C 142.262 345.215 140.783 341.666 142.064 335.557 C 143.345 329.448 149.159 333.093 149.159 333.093"></path>
    <path style="stroke: var(--color1); stroke-width: 0.5px; fill: var(--color2);" d="M 148.753 354.036 C 148.753 354.036 153.806 356.913 159.542 357.031 C 165.278 357.149 169.767 354.273 169.595 353.843 L 172.293 329.813 L 147.284 330.204 L 148.753 354.036 Z"></path>
    <path style="stroke: var(--color1); stroke-width: 0.5px; fill: rgb(245, 245, 245);" d="M 147.282 330.303 C 147.282 330.303 158.561 336.678 170.331 331.039 C 182.101 325.4 144.829 323.437 147.282 330.303 Z"></path>
    <path style="stroke: var(--color1); stroke-width: 0.5px; fill: var(--color2);" d="M 449.556 340.571 C 449.556 340.571 445.991 340.473 445.686 339.192 C 445.381 337.911 445.278 333.673 446.094 332.786 C 446.909 331.899 449.455 331.702 449.455 331.702 L 449.352 327.958 C 449.352 327.958 445.991 326.874 444.363 329.534 C 442.734 332.194 441.206 335.743 442.529 341.852 C 443.854 347.961 449.862 344.316 449.862 344.316" transform="matrix(-1, 0, 0, -1, 891.888672, 673.134399)"></path>
    <path style="stroke: var(--color1); stroke-width: 0.5px; fill: var(--color2);" d="M 419.638 328.537 C 419.638 328.537 424.859 325.66 430.788 325.542 C 436.715 325.424 441.354 328.3 441.176 328.73 L 443.964 352.76 L 418.12 352.369 L 419.638 328.537 Z" transform="matrix(-1, 0, 0, -1, 862.083984, 678.298462)"></path>
    <path style="stroke: var(--color1); stroke-width: 0.5px; fill: rgb(245, 245, 245);" d="M 417.886 324.718 C 417.886 324.718 429.543 318.343 441.705 323.982 C 453.868 329.621 415.352 331.584 417.886 324.718 Z" transform="matrix(-1, 0, 0, -1, 861.852112, 650.746521)"></path>
    <path style="stroke: var(--color1); stroke-width: 0.5px; fill: var(--color2);" d="M 374.943 290.861 C 374.943 290.861 372.193 290.785 371.958 289.797 C 371.723 288.809 371.643 285.541 372.273 284.857 C 372.901 284.173 374.865 284.021 374.865 284.021 L 374.785 281.133 C 374.785 281.133 372.193 280.297 370.938 282.349 C 369.681 284.4 368.503 287.137 369.523 291.849 C 370.545 296.56 375.179 293.749 375.179 293.749" transform="matrix(-1, 0, 0, -1, 744.314697, 575.545593)"></path>
    <path style="stroke: var(--color1); stroke-width: 0.5px; fill: var(--color2);" d="M 351.868 281.58 C 351.868 281.58 355.895 279.361 360.468 279.27 C 365.039 279.179 368.617 281.397 368.48 281.729 L 370.63 300.262 L 350.698 299.96 L 351.868 281.58 Z" transform="matrix(-1, 0, 0, -1, 721.328003, 579.529236)"></path>
    <path style="stroke: var(--color1); stroke-width: 0.5px; fill: rgb(245, 245, 245);" d="M 350.517 278.634 C 350.517 278.634 359.508 273.718 368.888 278.067 C 378.268 282.416 348.563 283.93 350.517 278.634 Z" transform="matrix(-1, 0, 0, -1, 721.148682, 558.279785)"></path>
    <path style="stroke: var(--color1); stroke-width: 0.5px; fill: none;" d="M 416.048 325.435 L 369.576 327.156 L 357.774 303.06 L 391.952 301.83 L 416.048 325.435 Z"></path>
    <path style="stroke: var(--color1); stroke-width: 0.5px; fill: var(--color1);" d="M 363.271 305.613 L 378.892 305.139 L 394.163 322.313 L 376.277 322.788 L 363.271 305.613 Z"></path>
    <path style="stroke: var(--color1); fill: none; stroke-width: 0.5px;" d="M 385.2 307.69 L 391.006 313.989 L 399.757 313.397 L 394.169 307.986 L 385.2 307.69 Z"></path>
    <path style="stroke: var(--color1); stroke-width: 0.5px; fill: var(--color4);" d="M 343.021 268.882 L 360.602 286.463 L 369.822 327.402 L 350.398 302.568 L 343.021 268.882 Z"></path>
    <path style="stroke: var(--color1); stroke-width: 0.5px; fill: rgb(245, 245, 245);" d="M 429.969 309.43 C 429.969 309.43 422.981 309.947 420.263 310.335 C 417.545 310.723 412.758 309.3 412.758 309.3 C 412.758 309.3 403.181 309.041 401.887 309.171 C 400.593 309.301 391.405 319.523 391.405 319.523 L 391.405 321.853 L 392.57 321.206 L 403.44 311.241 L 393.864 320.429 L 393.217 323.147 L 395.028 323.146 L 406.287 313.959 L 398.264 321.206 L 398.134 322.241 L 399.299 323.923 L 400.593 323.535 L 408.114 316.231 L 400.997 322.701 L 401.887 324.57 L 409.134 319.653 C 409.134 319.653 412.887 321.335 415.216 320.429 C 417.545 319.523 420.134 318.488 420.91 317.194 C 421.686 315.9 433.075 318.1 433.075 318.1 L 434.886 311.371 L 429.969 309.43 Z"></path>
    <path style="stroke: var(--color1); stroke-width: 0.5px; fill: rgb(245, 245, 245);" d="M 403.398 296.193 L 401.435 297.799 C 401.435 297.799 405.717 298.869 406.074 300.653 C 406.431 302.437 405.954 300.246 405.954 300.246 C 405.954 300.246 403.912 298.354 402.817 298.305 C 401.722 298.256 383.947 298.554 383.947 298.554 C 383.947 298.554 378.005 304.777 378.354 306.321 C 378.703 307.865 378.802 307.416 378.802 307.416 L 379.698 307.615 L 384.08 301.84 L 380.346 309.507 L 380.694 310.652 L 381.491 310.951 L 383.034 310.105 L 386.868 302.537 L 382.536 312.096 L 383.084 313.241 L 385.125 313.49 L 389.756 303.234 L 385.723 313.092 L 386.669 313.938 L 388.162 313.689 L 393.44 305.624 L 398.02 305.375 L 394.635 307.715 L 392.942 310.652 L 393.39 311.399 L 394.685 311.548 L 398.269 308.461 C 398.269 308.461 403.431 309.109 403.979 308.959 C 404.527 308.809 411.298 304.329 411.298 304.329 L 413.04 299.4 L 405.074 295.516 L 403.398 296.193 Z"></path>
    <path style="stroke: var(--color1); fill: var(--color2); stroke-width: 0.5px;" d="M 438.508 281.241 L 448.785 260.786 L 448.983 251.893 C 448.983 251.893 467.878 235.281 468.866 230.637 C 469.854 225.993 457.206 227.969 457.206 227.969 C 457.206 227.969 462.345 226.981 466.297 227.771 C 470.249 228.561 469.383 230.27 469.383 230.27 L 471.93 238.245 C 471.93 238.245 471.04 243.68 464.222 250.597 C 457.404 257.514 454.044 260.38 454.044 260.38 L 449.005 252.178 C 449.005 252.178 462.74 238.937 463.036 238.443 C 463.332 237.949 469.284 230.518 469.284 230.123 C 469.284 229.728 472.424 238.838 472.424 238.838 L 495.415 250.992 L 487.115 315.694 C 487.115 315.694 487.905 321.524 479.506 320.832 C 471.107 320.14 444.229 319.35 444.229 319.35 L 443.087 318.461 L 432.81 318.659 C 432.81 318.659 433.403 315.398 432.316 312.73 C 431.229 310.062 429.549 308.975 429.549 308.975 L 441.308 306.702 C 441.308 306.702 443.087 307.69 444.174 311.939 C 445.261 316.188 443.976 319.844 443.976 319.844 C 443.976 319.844 445.261 315.299 444.174 311.643 C 443.087 307.987 441.209 306.801 441.209 306.801 C 441.209 306.801 463.344 302.552 463.739 302.255 C 464.134 301.958 463.146 298.797 463.739 298.006 C 464.332 297.215 464.826 296.326 466.704 296.326 C 468.582 296.326 471.447 258.085 471.447 258.085 C 471.447 258.085 468.877 287.839 468.285 290.112 C 467.693 292.385 467.198 296.337 467.198 296.337 C 467.198 296.337 464.036 295.942 463.64 298.314 C 463.244 300.686 463.937 302.266 463.937 302.266 L 442 306.713 L 432.909 308.689 C 432.909 308.689 416.802 301.575 415.913 301.871 C 415.024 302.167 411.269 304.243 411.269 304.243 C 411.269 304.243 411.269 298.314 408.205 297.721 C 405.141 297.128 403.067 296.239 403.067 296.239 L 406.427 292.286 C 406.427 292.286 410.873 291.298 413.937 294.46 C 417.001 297.622 416.308 302.069 416.308 302.069 C 416.308 302.069 417.197 296.535 413.838 294.262 C 410.479 291.989 406.427 292.187 406.427 292.187 L 405.34 291.397 C 405.34 291.397 411.17 286.851 411.763 286.654 C 412.356 286.457 414.233 286.752 414.332 286.258 C 414.431 285.764 413.739 284.48 414.727 283.59 C 415.715 282.7 419.075 282.997 419.371 281.713 C 419.667 280.429 424.114 248.555 425.597 246.974 C 427.08 245.393 441.308 237.784 441.308 237.784 L 442.889 240.353 L 438.508 281.241 Z"></path>
    <path style="stroke: var(--color1); fill: none; stroke-width: 0.5px;" d="M 440.32 262.587 L 438.937 238.97"></path>
    <path style="stroke: var(--color1); fill: none; stroke-width: 0.5px;" d="M 429.253 252.211 C 429.253 252.211 423.818 279.583 424.016 280.867 C 424.214 282.151 424.114 304.682 424.114 304.682"></path>
    <path style="stroke: var(--color1); fill: none; stroke-width: 0.5px;" d="M 437.257 286.5 C 437.257 286.5 437.257 303.002 434.688 305.966"></path>
    <path style="stroke: var(--color1); fill: none; stroke-width: 0.5px;" d="M 465.08 302.718 C 465.08 302.718 472.619 304.728 475.384 306.739 C 478.149 308.75 481.666 311.262 481.666 311.262 C 481.666 311.262 477.645 303.974 472.871 301.964"></path>
    <path style="stroke-width: 0.5px; stroke: var(--color1); fill: rgb(245, 245, 245);" d="M 419.62 207.813 C 419.62 207.813 423.47 209.676 423.346 213.402 C 423.222 217.128 425.084 219.612 425.084 220.606 C 425.084 221.6 424.339 226.568 424.836 227.064 C 425.333 227.56 433.033 244.825 437.256 244.949 C 441.479 245.073 452.781 232.157 452.781 232.157 L 448.063 237.201 L 447.687 237.993 C 448.246 238.342 451.956 237.11 453.949 235.742 C 456.423 234.044 458.866 232.154 461.243 230.264 C 462.535 229.237 463.721 227.516 463.533 227.704 C 463.533 227.704 460.357 221.103 460.482 219.612 C 460.607 218.121 464.332 206.075 464.332 206.075 L 456.383 198.126 L 435.766 194.896 L 421.855 200.237 L 419.62 207.813 Z"></path>
    <path style="stroke: var(--color1); fill: var(--color1);" d="M 420.631 189.887 C 420.631 189.887 420.965 183.37 425.31 181.532 C 429.655 179.694 433.833 182.033 433.833 182.033 C 433.833 182.033 435.337 176.518 439.682 176.685 C 444.027 176.852 449.207 179.192 449.207 179.192 C 449.207 179.192 453.552 177.688 456.56 180.195 C 459.568 182.702 462.576 188.049 462.576 188.049 C 462.576 188.049 467.088 188.049 467.757 190.054 C 468.426 192.059 465.417 199.914 465.417 199.914 C 465.417 199.914 468.425 199.078 468.258 201.084 C 468.091 203.09 464.08 205.93 464.415 210.108 C 464.75 214.286 461.908 222.474 461.908 222.474 L 462.075 223.811 L 458.566 220.469 L 455.391 222.474 L 458.231 220.469 C 458.231 220.469 462.911 211.779 460.738 207.935 C 458.565 204.091 455.056 208.437 455.056 208.437 C 455.056 208.437 453.719 212.949 453.886 215.121 C 454.053 217.293 451.046 214.62 451.046 214.62 C 451.046 214.62 451.213 209.941 450.21 209.439 C 449.207 208.937 444.695 208.27 444.695 208.27 C 444.695 208.27 440.517 206.264 440.35 203.256 C 440.183 200.248 435.838 202.922 434.668 206.097 C 433.498 209.272 435.003 211.612 428.987 212.782 C 422.971 213.952 422.469 214.119 421.634 212.113 C 420.799 210.107 418.291 208.103 416.954 208.437 C 415.617 208.771 408.599 206.599 411.273 199.747 C 413.947 192.895 412.108 192.561 420.631 189.887 Z"></path>
    <g transform="matrix(0.507409, 0, 0, 0.507409, 375.638641, 123.143318)" style="">
      <ellipse style="stroke: var(--color2); fill: var(--color3);" cx="331.55" cy="69.742" rx="6.642" ry="12.62" transform="matrix(0.560205, -0.828354, 0.828354, 0.560205, 81.905071, 338.043163)"></ellipse>
      <line style="stroke: var(--color2); stroke-linecap: round; fill: var(--color3);" x1="333.584" y1="112.108" x2="325.835" y2="100.153" transform="matrix(0.899329, -0.437273, 0.437273, 0.899329, -13.215759, 154.857335)"></line>
      <line style="stroke: var(--color2); stroke-width: 2px; fill: var(--color3);" x1="334.711" y1="109.779" x2="342.017" y2="117.085"></line>
    </g>
    <g transform="matrix(0.506896, 0.022819, -0.022819, 0.506896, 378.000793, 136.844803)" style="">
      <ellipse style="stroke: var(--color2); fill: var(--color3);" cx="331.55" cy="69.742" rx="6.642" ry="12.62" transform="matrix(0.560205, -0.828354, 0.828354, 0.560205, 81.905071, 338.043163)"></ellipse>
      <line style="stroke: var(--color2); stroke-linecap: round; fill: var(--color3);" x1="333.584" y1="112.108" x2="325.835" y2="100.153" transform="matrix(0.899329, -0.437273, 0.437273, 0.899329, -13.215759, 154.857335)"></line>
      <line style="stroke: var(--color2); stroke-width: 2px; fill: var(--color3);" x1="334.711" y1="109.779" x2="342.017" y2="117.085"></line>
    </g>
    <g transform="matrix(0.507409, 0, 0, 0.453686, 375.246796, 170.881592)" style="">
      <ellipse style="stroke: var(--color2); fill: var(--color3);" cx="331.55" cy="69.742" rx="6.642" ry="12.62" transform="matrix(0.560205, -0.828354, 0.828354, 0.560205, 81.905071, 338.043163)"></ellipse>
      <line style="stroke: var(--color2); stroke-linecap: round; fill: var(--color3);" x1="333.584" y1="112.108" x2="325.835" y2="100.153" transform="matrix(0.899329, -0.437273, 0.437273, 0.899329, -13.215759, 154.857335)"></line>
      <line style="stroke: var(--color2); stroke-width: 2px; fill: var(--color3);" x1="334.711" y1="109.779" x2="342.017" y2="117.085"></line>
    </g>
    <g transform="matrix(0.507409, 0, 0, 0.453686, 359.759705, 157.328369)" style="">
      <ellipse style="stroke: var(--color2); fill: var(--color3);" cx="331.55" cy="69.742" rx="6.642" ry="12.62" transform="matrix(0.560205, -0.828354, 0.828354, 0.560205, 81.905071, 338.043163)"></ellipse>
      <line style="stroke: var(--color2); stroke-linecap: round; fill: var(--color3);" x1="333.584" y1="112.108" x2="325.835" y2="100.153" transform="matrix(0.899329, -0.437273, 0.437273, 0.899329, -13.215759, 154.857335)"></line>
      <line style="stroke: var(--color2); stroke-width: 2px; fill: var(--color3);" x1="334.711" y1="109.779" x2="342.017" y2="117.085"></line>
    </g>
    <g transform="matrix(0.505819, -0.040148, 0.035897, 0.452264, 357.6716, 191.500427)" style="">
      <ellipse style="stroke: var(--color2); fill: var(--color3);" cx="331.55" cy="69.742" rx="6.642" ry="12.62" transform="matrix(0.560205, -0.828354, 0.828354, 0.560205, 81.905071, 338.043163)"></ellipse>
      <line style="stroke: var(--color2); stroke-linecap: round; fill: var(--color3);" x1="333.584" y1="112.108" x2="325.835" y2="100.153" transform="matrix(0.899329, -0.437273, 0.437273, 0.899329, -13.215759, 154.857335)"></line>
      <line style="stroke: var(--color2); stroke-width: 2px; fill: var(--color3);" x1="334.711" y1="109.779" x2="342.017" y2="117.085"></line>
    </g>
    <g transform="matrix(0.507409, 0, 0, 0.453686, 363.450958, 199.584854)" style="">
      <ellipse style="stroke: var(--color2); fill: var(--color3);" cx="331.55" cy="69.742" rx="6.642" ry="12.62" transform="matrix(0.560205, -0.828354, 0.828354, 0.560205, 81.905071, 338.043163)"></ellipse>
      <line style="stroke: var(--color2); stroke-linecap: round; fill: var(--color3);" x1="333.584" y1="112.108" x2="325.835" y2="100.153" transform="matrix(0.899329, -0.437273, 0.437273, 0.899329, -13.215759, 154.857335)"></line>
      <line style="stroke: var(--color2); stroke-width: 2px; fill: var(--color3);" x1="334.711" y1="109.779" x2="342.017" y2="117.085"></line>
    </g>
    <g transform="matrix(0.507409, 0, 0, 0.453686, 365.248413, 212.747513)" style="">
      <ellipse style="stroke: var(--color2); fill: var(--color3);" cx="331.55" cy="69.742" rx="6.642" ry="12.62" transform="matrix(0.560205, -0.828354, 0.828354, 0.560205, 81.905071, 338.043163)"></ellipse>
      <line style="stroke: var(--color2); stroke-linecap: round; fill: var(--color3);" x1="333.584" y1="112.108" x2="325.835" y2="100.153" transform="matrix(0.899329, -0.437273, 0.437273, 0.899329, -13.215759, 154.857335)"></line>
      <line style="stroke: var(--color2); stroke-width: 2px; fill: var(--color3);" x1="334.711" y1="109.779" x2="342.017" y2="117.085"></line>
    </g>
    <g transform="matrix(0.507409, 0, 0, 0.453686, 366.805115, 230.433334)" style="">
      <ellipse style="stroke: var(--color2); fill: var(--color3);" cx="331.55" cy="69.742" rx="6.642" ry="12.62" transform="matrix(0.560205, -0.828354, 0.828354, 0.560205, 81.905071, 338.043163)"></ellipse>
      <line style="stroke: var(--color2); stroke-linecap: round; fill: var(--color3);" x1="333.584" y1="112.108" x2="325.835" y2="100.153" transform="matrix(0.899329, -0.437273, 0.437273, 0.899329, -13.215759, 154.857335)"></line>
      <line style="stroke: var(--color2); stroke-width: 2px; fill: var(--color3);" x1="334.711" y1="109.779" x2="342.017" y2="117.085"></line>
    </g>
    <g transform="matrix(0.507409, 0, 0, 0.453686, 368.169281, 243.660187)" style="">
      <ellipse style="stroke: var(--color2); fill: var(--color3);" cx="331.55" cy="69.742" rx="6.642" ry="12.62" transform="matrix(0.560205, -0.828354, 0.828354, 0.560205, 81.905071, 338.043163)"></ellipse>
      <line style="stroke: var(--color2); stroke-linecap: round; fill: var(--color3);" x1="333.584" y1="112.108" x2="325.835" y2="100.153" transform="matrix(0.899329, -0.437273, 0.437273, 0.899329, -13.215759, 154.857335)"></line>
      <line style="stroke: var(--color2); stroke-width: 2px; fill: var(--color3);" x1="334.711" y1="109.779" x2="342.017" y2="117.085"></line>
    </g>
    <g transform="matrix(0.505386, 0.045272, -0.040478, 0.451878, 387.415253, 212.221756)" style="">
      <ellipse style="stroke: var(--color2); fill: var(--color3);" cx="331.55" cy="69.742" rx="6.642" ry="12.62" transform="matrix(0.560205, -0.828354, 0.828354, 0.560205, 81.905071, 338.043163)"></ellipse>
      <line style="stroke: var(--color2); stroke-linecap: round; fill: var(--color3);" x1="333.584" y1="112.108" x2="325.835" y2="100.153" transform="matrix(0.899329, -0.437273, 0.437273, 0.899329, -13.215759, 154.857335)"></line>
      <line style="stroke: var(--color2); stroke-width: 2px; fill: var(--color3);" x1="334.711" y1="109.779" x2="342.017" y2="117.085"></line>
    </g>
    <g transform="matrix(0.491883, 0.067263, -0.054748, 0.400371, 394.692627, 197.278351)" style="">
      <ellipse style="stroke: var(--color2); fill: var(--color3);" cx="331.55" cy="69.742" rx="6.642" ry="12.62" transform="matrix(0.560205, -0.828354, 0.828354, 0.560205, 81.905071, 338.043163)"></ellipse>
      <line style="stroke: var(--color2); stroke-linecap: round; fill: var(--color3);" x1="333.584" y1="112.108" x2="325.835" y2="100.153" transform="matrix(0.899329, -0.437273, 0.437273, 0.899329, -13.215759, 154.857335)"></line>
      <line style="stroke: var(--color2); stroke-width: 2px; fill: var(--color3);" x1="334.711" y1="109.779" x2="342.017" y2="117.085"></line>
    </g>
    <g transform="matrix(0.491883, 0.067263, -0.054748, 0.400371, 397.346802, 176.603149)" style="">
      <ellipse style="stroke: var(--color2); fill: var(--color3);" cx="331.55" cy="69.742" rx="6.642" ry="12.62" transform="matrix(0.560205, -0.828354, 0.828354, 0.560205, 81.905071, 338.043163)"></ellipse>
      <line style="stroke: var(--color2); stroke-linecap: round; fill: var(--color3);" x1="333.584" y1="112.108" x2="325.835" y2="100.153" transform="matrix(0.899329, -0.437273, 0.437273, 0.899329, -13.215759, 154.857335)"></line>
      <line style="stroke: var(--color2); stroke-width: 2px; fill: var(--color3);" x1="334.711" y1="109.779" x2="342.017" y2="117.085"></line>
    </g>
    <g transform="matrix(0.491883, 0.067263, -0.054748, 0.400371, 399.465271, 154.873077)" style="">
      <ellipse style="stroke: var(--color2); fill: var(--color3);" cx="331.55" cy="69.742" rx="6.642" ry="12.62" transform="matrix(0.560205, -0.828354, 0.828354, 0.560205, 81.905071, 338.043163)"></ellipse>
      <line style="stroke: var(--color2); stroke-linecap: round; fill: var(--color3);" x1="333.584" y1="112.108" x2="325.835" y2="100.153" transform="matrix(0.899329, -0.437273, 0.437273, 0.899329, -13.215759, 154.857335)"></line>
      <line style="stroke: var(--color2); stroke-width: 2px; fill: var(--color3);" x1="334.711" y1="109.779" x2="342.017" y2="117.085"></line>
    </g>
    <g transform="matrix(0.491883, 0.067263, -0.054748, 0.400371, 391.521118, 228.410492)" style="">
      <ellipse style="stroke: var(--color2); fill: var(--color3);" cx="331.55" cy="69.742" rx="6.642" ry="12.62" transform="matrix(0.560205, -0.828354, 0.828354, 0.560205, 81.905071, 338.043163)"></ellipse>
      <line style="stroke: var(--color2); stroke-linecap: round; fill: var(--color3);" x1="333.584" y1="112.108" x2="325.835" y2="100.153" transform="matrix(0.899329, -0.437273, 0.437273, 0.899329, -13.215759, 154.857335)"></line>
      <line style="stroke: var(--color2); stroke-width: 2px; fill: var(--color3);" x1="334.711" y1="109.779" x2="342.017" y2="117.085"></line>
    </g>
    <g transform="matrix(0.491883, 0.067263, -0.054748, 0.400371, 387.332367, 213.372742)" style="">
      <ellipse style="stroke: var(--color2); fill: var(--color3);" cx="331.55" cy="69.742" rx="6.642" ry="12.62" transform="matrix(0.560205, -0.828354, 0.828354, 0.560205, 81.905071, 338.043163)"></ellipse>
      <line style="stroke: var(--color2); stroke-linecap: round; fill: var(--color3);" x1="333.584" y1="112.108" x2="325.835" y2="100.153" transform="matrix(0.899329, -0.437273, 0.437273, 0.899329, -13.215759, 154.857335)"></line>
      <line style="stroke: var(--color2); stroke-width: 2px; fill: var(--color3);" x1="334.711" y1="109.779" x2="342.017" y2="117.085"></line>
    </g>
    <g transform="matrix(0.491883, 0.067263, -0.054748, 0.400371, 386.54599, 186.128998)" style="">
      <ellipse style="stroke: var(--color2); fill: var(--color3);" cx="331.55" cy="69.742" rx="6.642" ry="12.62" transform="matrix(0.560205, -0.828354, 0.828354, 0.560205, 81.905071, 338.043163)"></ellipse>
      <line style="stroke: var(--color2); stroke-linecap: round; fill: var(--color3);" x1="333.584" y1="112.108" x2="325.835" y2="100.153" transform="matrix(0.899329, -0.437273, 0.437273, 0.899329, -13.215759, 154.857335)"></line>
      <line style="stroke: var(--color2); stroke-width: 2px; fill: var(--color3);" x1="334.711" y1="109.779" x2="342.017" y2="117.085"></line>
    </g>
    <g transform="matrix(-0.497759, -0.005018, -0.004344, 0.430917, 720.127747, 242.388794)" style="">
      <ellipse style="stroke: var(--color2); fill: var(--color3);" cx="331.55" cy="69.742" rx="6.642" ry="12.62" transform="matrix(0.560205, -0.828354, 0.828354, 0.560205, 81.905071, 338.043163)"></ellipse>
      <line style="stroke: var(--color2); stroke-linecap: round; fill: var(--color3);" x1="333.584" y1="112.108" x2="325.835" y2="100.153" transform="matrix(0.899329, -0.437273, 0.437273, 0.899329, -13.215759, 154.857335)"></line>
      <line style="stroke: var(--color2); stroke-width: 2px; fill: var(--color3);" x1="334.711" y1="109.779" x2="342.017" y2="117.085"></line>
    </g>
    <g transform="matrix(-0.497759, -0.005018, -0.004344, 0.430917, 724.217468, 244.140381)" style="">
      <ellipse style="stroke: var(--color2); fill: var(--color3);" cx="331.55" cy="69.742" rx="6.642" ry="12.62" transform="matrix(0.560205, -0.828354, 0.828354, 0.560205, 81.905071, 338.043163)"></ellipse>
      <line style="stroke: var(--color2); stroke-linecap: round; fill: var(--color3);" x1="333.584" y1="112.108" x2="325.835" y2="100.153" transform="matrix(0.899329, -0.437273, 0.437273, 0.899329, -13.215759, 154.857335)"></line>
      <line style="stroke: var(--color2); stroke-width: 2px; fill: var(--color3);" x1="334.711" y1="109.779" x2="342.017" y2="117.085"></line>
    </g>
    <g transform="matrix(-0.497759, -0.005018, -0.004344, 0.430917, 728.502502, 209.491043)" style="">
      <ellipse style="stroke: var(--color2); fill: var(--color3);" cx="331.55" cy="69.742" rx="6.642" ry="12.62" transform="matrix(0.560205, -0.828354, 0.828354, 0.560205, 81.905071, 338.043163)"></ellipse>
      <line style="stroke: var(--color2); stroke-linecap: round; fill: var(--color3);" x1="333.584" y1="112.108" x2="325.835" y2="100.153" transform="matrix(0.899329, -0.437273, 0.437273, 0.899329, -13.215759, 154.857335)"></line>
      <line style="stroke: var(--color2); stroke-width: 2px; fill: var(--color3);" x1="334.711" y1="109.779" x2="342.017" y2="117.085"></line>
    </g>
    <g transform="matrix(-0.497759, -0.005018, -0.004344, 0.430917, 730.636963, 193.650864)" style="">
      <ellipse style="stroke: var(--color2); fill: var(--color3);" cx="331.55" cy="69.742" rx="6.642" ry="12.62" transform="matrix(0.560205, -0.828354, 0.828354, 0.560205, 81.905071, 338.043163)"></ellipse>
      <line style="stroke: var(--color2); stroke-linecap: round; fill: var(--color3);" x1="333.584" y1="112.108" x2="325.835" y2="100.153" transform="matrix(0.899329, -0.437273, 0.437273, 0.899329, -13.215759, 154.857335)"></line>
      <line style="stroke: var(--color2); stroke-width: 2px; fill: var(--color3);" x1="334.711" y1="109.779" x2="342.017" y2="117.085"></line>
    </g>
    <g transform="matrix(-0.497759, -0.005018, -0.004344, 0.430917, 732.65918, 171.594437)" style="">
      <ellipse style="stroke: var(--color2); fill: var(--color3);" cx="331.55" cy="69.742" rx="6.642" ry="12.62" transform="matrix(0.560205, -0.828354, 0.828354, 0.560205, 81.905071, 338.043163)"></ellipse>
      <line style="stroke: var(--color2); stroke-linecap: round; fill: var(--color3);" x1="333.584" y1="112.108" x2="325.835" y2="100.153" transform="matrix(0.899329, -0.437273, 0.437273, 0.899329, -13.215759, 154.857335)"></line>
      <line style="stroke: var(--color2); stroke-width: 2px; fill: var(--color3);" x1="334.711" y1="109.779" x2="342.017" y2="117.085"></line>
    </g>
    <g transform="matrix(-0.497759, -0.005018, -0.004344, 0.430917, 706.563721, 191.270294)" style="">
      <ellipse style="stroke: var(--color2); fill: var(--color3);" cx="331.55" cy="69.742" rx="6.642" ry="12.62" transform="matrix(0.560205, -0.828354, 0.828354, 0.560205, 81.905071, 338.043163)"></ellipse>
      <line style="stroke: var(--color2); stroke-linecap: round; fill: var(--color3);" x1="333.584" y1="112.108" x2="325.835" y2="100.153" transform="matrix(0.899329, -0.437273, 0.437273, 0.899329, -13.215759, 154.857335)"></line>
      <line style="stroke: var(--color2); stroke-width: 2px; fill: var(--color3);" x1="334.711" y1="109.779" x2="342.017" y2="117.085"></line>
    </g>
    <g transform="matrix(-0.497759, -0.005018, -0.004344, 0.430917, 719.739868, 177.660904)" style="">
      <ellipse style="stroke: var(--color2); fill: var(--color3);" cx="331.55" cy="69.742" rx="6.642" ry="12.62" transform="matrix(0.560205, -0.828354, 0.828354, 0.560205, 81.905071, 338.043163)"></ellipse>
      <line style="stroke: var(--color2); stroke-linecap: round; fill: var(--color3);" x1="333.584" y1="112.108" x2="325.835" y2="100.153" transform="matrix(0.899329, -0.437273, 0.437273, 0.899329, -13.215759, 154.857335)"></line>
      <line style="stroke: var(--color2); stroke-width: 2px; fill: var(--color3);" x1="334.711" y1="109.779" x2="342.017" y2="117.085"></line>
    </g>
    <g transform="matrix(-0.497759, -0.005018, -0.004344, 0.430917, 705.279907, 176.280701)" style="">
      <ellipse style="stroke: var(--color2); fill: var(--color3);" cx="331.55" cy="69.742" rx="6.642" ry="12.62" transform="matrix(0.560205, -0.828354, 0.828354, 0.560205, 81.905071, 338.043163)"></ellipse>
      <line style="stroke: var(--color2); stroke-linecap: round; fill: var(--color3);" x1="333.584" y1="112.108" x2="325.835" y2="100.153" transform="matrix(0.899329, -0.437273, 0.437273, 0.899329, -13.215759, 154.857335)"></line>
      <line style="stroke: var(--color2); stroke-width: 2px; fill: var(--color3);" x1="334.711" y1="109.779" x2="342.017" y2="117.085"></line>
    </g>
    <g transform="matrix(-0.497759, -0.005018, -0.004344, 0.430917, 702.920654, 154.839508)" style="">
      <ellipse style="stroke: var(--color2); fill: var(--color3);" cx="331.55" cy="69.742" rx="6.642" ry="12.62" transform="matrix(0.560205, -0.828354, 0.828354, 0.560205, 81.905071, 338.043163)"></ellipse>
      <line style="stroke: var(--color2); stroke-linecap: round; fill: var(--color3);" x1="333.584" y1="112.108" x2="325.835" y2="100.153" transform="matrix(0.899329, -0.437273, 0.437273, 0.899329, -13.215759, 154.857335)"></line>
      <line style="stroke: var(--color2); stroke-width: 2px; fill: var(--color3);" x1="334.711" y1="109.779" x2="342.017" y2="117.085"></line>
    </g>
    <g transform="matrix(-0.497759, -0.005018, -0.004344, 0.430917, 720.076904, 149.013794)" style="">
      <ellipse style="stroke: var(--color2); fill: var(--color3);" cx="331.55" cy="69.742" rx="6.642" ry="12.62" transform="matrix(0.560205, -0.828354, 0.828354, 0.560205, 81.905071, 338.043163)"></ellipse>
      <line style="stroke: var(--color2); stroke-linecap: round; fill: var(--color3);" x1="333.584" y1="112.108" x2="325.835" y2="100.153" transform="matrix(0.899329, -0.437273, 0.437273, 0.899329, -13.215759, 154.857335)"></line>
      <line style="stroke: var(--color2); stroke-width: 2px; fill: var(--color3);" x1="334.711" y1="109.779" x2="342.017" y2="117.085"></line>
    </g>
    <g transform="matrix(-0.497759, -0.005018, -0.004344, 0.430917, 719.065796, 198.712448)" style="">
      <ellipse style="stroke: var(--color2); fill: var(--color3);" cx="331.55" cy="69.742" rx="6.642" ry="12.62" transform="matrix(0.560205, -0.828354, 0.828354, 0.560205, 81.905071, 338.043163)"></ellipse>
      <line style="stroke: var(--color2); stroke-linecap: round; fill: var(--color3);" x1="333.584" y1="112.108" x2="325.835" y2="100.153" transform="matrix(0.899329, -0.437273, 0.437273, 0.899329, -13.215759, 154.857335)"></line>
      <line style="stroke: var(--color2); stroke-width: 2px; fill: var(--color3);" x1="334.711" y1="109.779" x2="342.017" y2="117.085"></line>
    </g>
    <g transform="matrix(-0.497759, -0.005018, -0.004344, 0.430917, 710.864807, 225.986511)" style="">
      <ellipse style="stroke: var(--color2); fill: var(--color3);" cx="331.55" cy="69.742" rx="6.642" ry="12.62" transform="matrix(0.560205, -0.828354, 0.828354, 0.560205, 81.905071, 338.043163)"></ellipse>
      <line style="stroke: var(--color2); stroke-linecap: round; fill: var(--color3);" x1="333.584" y1="112.108" x2="325.835" y2="100.153" transform="matrix(0.899329, -0.437273, 0.437273, 0.899329, -13.215759, 154.857335)"></line>
      <line style="stroke: var(--color2); stroke-width: 2px; fill: var(--color3);" x1="334.711" y1="109.779" x2="342.017" y2="117.085"></line>
    </g>
    <g transform="matrix(-0.497759, -0.005018, -0.004344, 0.430917, 719.739868, 127.637665)" style="">
      <ellipse style="stroke: var(--color2); fill: var(--color3);" cx="331.55" cy="69.742" rx="6.642" ry="12.62" transform="matrix(0.560205, -0.828354, 0.828354, 0.560205, 81.905071, 338.043163)"></ellipse>
      <line style="stroke: var(--color2); stroke-linecap: round; fill: var(--color3);" x1="333.584" y1="112.108" x2="325.835" y2="100.153" transform="matrix(0.899329, -0.437273, 0.437273, 0.899329, -13.215759, 154.857335)"></line>
      <line style="stroke: var(--color2); stroke-width: 2px; fill: var(--color3);" x1="334.711" y1="109.779" x2="342.017" y2="117.085"></line>
    </g>
    <line style="stroke: var(--color2); stroke-width: 2.5px;" x1="542.745" y1="305.355" x2="531.232" y2="191.553"></line>
    <line style="stroke: var(--color2); stroke-width: 2.5px;" x1="548.924" y1="304.794" x2="548.982" y2="163.467"></line>
    <line style="stroke: var(--color2); stroke-width: 2.5px;" x1="552.575" y1="305.073" x2="562.911" y2="208.18"></line>
    <g transform="matrix(0.507409, 0, 0, 0.507409, 358.307678, 152.915543)" style="">
      <ellipse style="stroke: var(--color2); fill: var(--color3);" cx="331.55" cy="69.742" rx="6.642" ry="12.62" transform="matrix(0.866025, -0.5, 0.5, 0.866025, 12.547885, 174.118803)"></ellipse>
      <line style="stroke: var(--color2); fill: var(--color3);" x1="340.689" y1="79.889" x2="332.94" y2="67.934"></line>
    </g>
    <g transform="matrix(-0.340043, -0.202959, -0.260055, 0.435702, 667.894958, 228.76004)" style="">
      <ellipse style="stroke: var(--color2); fill: var(--color3);" cx="331.55" cy="69.742" rx="6.642" ry="12.62" transform="matrix(0.866025, -0.5, 0.5, 0.866025, 12.547885, 174.118803)"></ellipse>
      <line style="stroke: var(--color2); fill: var(--color3);" x1="340.689" y1="79.889" x2="332.94" y2="67.934"></line>
    </g>
    <g transform="matrix(-0.340043, -0.202959, -0.260055, 0.435702, 699.917603, 242.564682)" style="">
      <ellipse style="stroke: var(--color2); fill: var(--color3);" cx="331.55" cy="69.742" rx="6.642" ry="12.62" transform="matrix(0.866025, -0.5, 0.5, 0.866025, 12.547885, 174.118803)"></ellipse>
      <line style="stroke: var(--color2); fill: var(--color3);" x1="340.689" y1="79.889" x2="332.94" y2="67.934"></line>
    </g>
    <g transform="matrix(0.507409, 0, 0, 0.507409, 390.260864, 168.108429)" style="">
      <ellipse style="stroke: var(--color2); fill: var(--color3);" cx="331.55" cy="69.742" rx="6.642" ry="12.62" transform="matrix(0.866025, -0.5, 0.5, 0.866025, 12.547885, 174.118803)"></ellipse>
      <line style="stroke: var(--color2); fill: var(--color3);" x1="340.689" y1="79.889" x2="332.94" y2="67.934"></line>
    </g>
    <g transform="matrix(-0.340043, -0.202959, -0.260055, 0.435702, 685.200867, 198.476837)" style="">
      <ellipse style="stroke: var(--color2); fill: var(--color3);" cx="331.55" cy="69.742" rx="6.642" ry="12.62" transform="matrix(0.866025, -0.5, 0.5, 0.866025, 12.547885, 174.118803)"></ellipse>
      <line style="stroke: var(--color2); fill: var(--color3);" x1="340.689" y1="79.889" x2="332.94" y2="67.934"></line>
    </g>
    <g transform="matrix(0.507409, 0, 0, 0.507409, 376.120117, 124.106232)" style="">
      <ellipse style="stroke: var(--color2); fill: var(--color3);" cx="331.55" cy="69.742" rx="6.642" ry="12.62" transform="matrix(0.866025, -0.5, 0.5, 0.866025, 12.547885, 174.118803)"></ellipse>
      <line style="stroke: var(--color2); fill: var(--color3);" x1="340.689" y1="79.889" x2="332.94" y2="67.934"></line>
    </g>
    <polygon style="stroke: var(--color2); fill: var(--color2);" points="536.848 304.85 557.745 304.85 555.047 343.945 539.743 343.945"></polygon>
    <path style="fill: var(--color1);" d="M 97.048 259.944 C 97.048 259.944 98.587 263.598 95.894 263.983 C 93.201 264.368 88.971 258.598 87.817 253.983 C 86.663 249.368 83.201 246.482 82.432 248.021 C 81.663 249.56 96.856 248.79 96.856 248.79"></path>
  </svg>