<svg viewBox="15.145 19.443 636.325 347.289" xmlns="http://www.w3.org/2000/svg">
  <style>
        :root{
          --color1: rgb(140, 140, 140);
          --color2: rgb(133, 167, 130);
          --color3: rgb(194, 228, 191);
          --color4: rgb(230, 230, 230);
      }
      </style>
  <defs></defs>
  <path style="stroke: var(--color1); fill: var(--color4);" d="M 583.102 286.984 C 583.102 286.984 544.785 290.501 537.122 255.853 C 529.459 221.206 547.659 191.852 554.843 180.657 C 562.028 169.462 568.734 161.499 567.775 149.526 C 566.816 137.553 562.986 134.199 565.86 126.535 C 568.734 118.872 584.538 110.731 596.033 127.971 C 607.53 145.213 609.444 195.983 630.996 243.4 C 652.55 290.816 583.102 287.465 583.102 286.984 Z"></path>
  <path style="fill: var(--color1);" d="M 581.507 358.583 C 581.507 358.583 587.473 325.282 582.276 287.749 C 577.08 250.217 577.464 235.758 576.887 230.562 C 576.31 225.365 579.966 178.207 579.966 178.207 C 579.966 178.207 577.08 231.716 578.619 240.762 C 580.159 249.81 587.858 306.419 587.858 312.002 C 587.858 317.584 591.707 334.842 586.704 359.096"></path>
  <path style="fill: var(--color1);" d="M 586.519 205.654 C 586.519 205.654 586.297 213.118 580.949 217.349 C 575.603 221.582 577.385 220.024 577.385 220.024 L 577.831 223.923 C 577.831 223.923 588.19 213.229 586.519 205.654 Z"></path>
  <path style="fill: var(--color1);" d="M 562.572 223.935 C 562.507 223.87 561.044 242.421 569.032 248.664 C 577.02 254.906 578.376 252.052 578.389 252.005 L 578.611 256.35 C 578.611 256.35 557.447 254.344 562.572 223.935 Z"></path>
  <path style="fill: var(--color4); stroke: var(--color1); stroke-width: 0.5px;" d="M 442.287 301.253 C 442.287 301.253 395.884 300.409 389.415 257.1 C 382.945 213.789 410.749 214.567 427.944 198.887 C 444.6 183.696 485.594 186.793 489.815 243.321 C 494.033 299.849 442.004 301.253 442.287 301.253 Z"></path>
  <path style="fill: var(--color1);" d="M 439.193 356.092 C 439.193 356.092 444.817 263.85 442.568 223.352 C 440.317 182.857 443.131 229.54 443.131 229.54 C 443.131 229.54 446.504 313.346 443.412 356.373"></path>
  <path style="fill: var(--color1);" d="M 408.838 247.224 C 408.838 247.224 440.707 276.442 442.746 278.841 C 444.784 281.24 443.422 283.051 443.422 283.051 C 444.918 282.43 408.839 247.222 408.838 247.224 Z"></path>
  <path style="fill: var(--color1);" d="M 416.862 244.964 C 416.877 244.983 420.841 258.573 420.452 258.189 L 421.608 259.203"></path>
  <path style="fill: var(--color1);" d="M 468.286 235.922 C 468.286 235.922 445.79 258.953 443.986 259.77 C 442.183 260.584 443.976 262.184 443.873 262.143 L 468.286 235.922 Z"></path>
  <path style="fill: var(--color1);" d="M 468.626 246.432 L 457.549 247.224 L 457.069 247.901"></path>
  <path style="stroke: var(--color1); fill: var(--color4); stroke-width: 0.7px;" d="M 62.735 310.152 C 62.735 310.152 32.144 311.511 21.475 293.595 C 10.802 275.679 19.573 261.02 21.201 258.034 C 22.829 255.048 32.06 235.231 37.76 223.559 C 43.461 211.887 43.289 201.27 40.205 192.886 C 37.119 184.499 39.117 172.254 52.42 163.84 C 65.721 155.427 79.293 165.741 79.293 165.741 C 79.293 165.741 98.397 174.428 93.951 207.274 C 89.505 240.118 89.531 235.502 90.151 241.204 C 90.771 246.906 110.267 268.762 105.894 285.993 C 101.519 303.223 91.508 308.253 62.735 310.152 Z"></path>
  <path style="fill: var(--color1);" d="M 59.748 354.942 C 59.748 354.942 58.662 281.106 59.748 272.964 C 60.833 264.821 45.361 245.004 45.361 245.004 C 45.361 245.004 59.478 261.02 60.292 266.449 C 61.106 271.879 62.462 216.502 62.462 216.502 C 62.462 216.502 63.278 265.092 61.92 280.565 C 60.563 296.038 64.635 355.213 64.635 355.213"></path>
  <rect x="271.56" y="96.508" width="120.967" height="223.362" style="stroke-width: 7px; stroke: var(--color1); fill: rgb(255, 255, 255);" rx="11.878" ry="11.878"></rect>
  <rect x="280.298" y="105.414" width="102.996" height="205.497" style="fill: var(--color4);" rx="2.345" ry="2.345"></rect>
  <rect x="372.131" y="74.278" width="42.068" height="42.068" style="fill: var(--color2);" rx="14.353" ry="14.353"></rect>
  <circle style="fill: var(--color1); stroke: rgb(255, 255, 255);" cx="238.01" cy="121.305" r="14.615"></circle>
  <circle style="stroke: rgb(255, 255, 255); stroke-width: 2px; fill: var(--color2);" cx="200.582" cy="204.698" r="15.357"></circle>
  <circle style="fill: var(--color1); stroke-width: 2px;" cx="457.752" cy="240.58" r="17.089"></circle>
  <polyline style="fill: rgb(216, 216, 216); stroke: rgb(255, 255, 255);" points="281.782 161.668 381.426 161.668"></polyline>
  <polyline style="fill: rgb(216, 216, 216); stroke: rgb(255, 255, 255);" points="310.157 152.43 373.177 152.43"></polyline>
  <polyline style="fill: rgb(216, 216, 216); stroke: rgb(255, 255, 255);" points="311.147 144.511 373.191 144.511"></polyline>
  <line style="stroke: rgb(255, 255, 255);" x1="310.487" y1="135.933" x2="340.512" y2="135.933"></line>
  <line style="stroke: rgb(255, 255, 255);" x1="289.041" y1="116.796" x2="304.222" y2="116.796"></line>
  <line style="stroke: rgb(255, 255, 255);" x1="289.041" y1="120.59" x2="304.219" y2="120.59"></line>
  <line style="stroke: rgb(255, 255, 255);" x1="289.041" y1="125.539" x2="304.219" y2="125.539"></line>
  <line style="fill: none; stroke: rgb(255, 255, 255);" x1="281.122" y1="267.965" x2="381.756" y2="267.965"></line>
  <path d="M 319.414 186.943 C 317.134 184.284 315.26 182.707 313.758 179.704 C 312.42 177.028 313.1 172.63 315.597 170.2 C 317.653 168.2 321.25 167.815 323.261 168.392 C 326.992 169.464 331.857 174.953 331.857 174.953 C 332.345 175.197 333.53 177.343 333.772 176.993 C 334.637 175.746 335.41 174.033 336.737 172.627 C 340.358 168.79 348.828 167.941 352.219 171.332 C 356.499 175.613 350.235 182.766 348.599 186.038 C 347.717 187.804 344.029 188.5 345.424 187.104 C 346.744 185.784 351.216 176.768 346.588 174.927 C 334.548 170.138 338.289 186.798 335.478 187.396 C 334.877 187.524 335.457 186.146 335.087 185.776 C 333.107 183.797 323.544 172.64 319.744 174.54 C 314.539 177.144 324.43 184.616 321.327 187.72 C 321.138 187.907 319.983 186.977 319.187 186.977" style="fill: rgba(255, 255, 255, 0.87); stroke: var(--color4);"></path>
  <rect x="310.157" y="115.036" width="63.349" height="10.888" style="fill: rgb(255, 255, 255);"></rect>
  <rect x="290.361" y="245.584" width="25.076" height="16.497" style="fill: rgb(255, 255, 255);"></rect>
  <rect x="319.396" y="251.853" width="25.406" height="9.898" style="fill: rgb(255, 255, 255);"></rect>
  <rect x="348.431" y="242.285" width="24.746" height="20.127" style="fill: rgb(255, 255, 255);"></rect>
  <rect x="298.279" y="277.808" width="23.426" height="18.477" style="fill: var(--color2);"></rect>
  <rect x="306.858" y="196.092" width="52.461" height="35.304" style="fill: var(--color2);"></rect>
  <rect x="343.152" y="278.138" width="24.086" height="18.147" style="fill: var(--color1);"></rect>
  <rect x="306.996" y="187.278" width="52.461" height="13.025" style="fill: rgba(0, 0, 0, 0.2);"></rect>
  <rect x="375.706" y="353.311" width="66.649" height="13.858" style="fill: var(--color2);"></rect>
  <rect x="376.107" y="352.94" width="66.649" height="7.292" style="fill: rgba(0, 0, 0, 0.17);"></rect>
  <rect x="373.066" y="345.062" width="71.268" height="9.238" style="fill: var(--color2);"></rect>
  <rect x="302.899" y="185.534" width="60.71" height="11.027" style="fill: var(--color2);"></rect>
  <rect x="490.691" y="311.408" width="83.146" height="55.101" style="fill: var(--color2);"></rect>
  <rect x="490.993" y="306.118" width="83.146" height="15.702" style="fill: rgba(0, 0, 0, 0.23);"></rect>
  <rect x="483.102" y="295.24" width="94.364" height="16.827" style="fill: var(--color2);"></rect>
  <rect x="149.531" y="259.957" width="46.852" height="36.294" style="fill: var(--color2);"></rect>
  <rect x="158.11" y="303.819" width="38.273" height="28.045" style="fill: var(--color3);"></rect>
  <rect x="155.47" y="295.57" width="42.893" height="8.908" style="fill: var(--color3);"></rect>
  <rect x="155.551" y="295.827" width="42.893" height="8.908" style="fill: rgba(0, 0, 0, 0.17);"></rect>
  <rect x="196.713" y="254.657" width="54.441" height="46.522" style="fill: var(--color3);"></rect>
  <rect x="196.383" y="300.19" width="35.634" height="32.334" style="fill: var(--color2);"></rect>
  <rect x="289.316" y="245.199" width="27.385" height="5.609" style="fill: var(--color3);"></rect>
  <rect x="319.011" y="250.478" width="27.055" height="4.619" style="fill: var(--color3);"></rect>
  <rect x="347.716" y="239.894" width="26.725" height="5.609" style="fill: var(--color3);"></rect>
  <rect x="403.696" y="345.062" width="9.568" height="22.106" style="fill: rgba(255, 255, 255, 0.8);"></rect>
  <rect x="422.558" y="310.088" width="85.125" height="17.157" style="fill: var(--color3);"></rect>
  <rect x="425.198" y="326.585" width="79.846" height="40.583" style="fill: var(--color3);"></rect>
  <rect x="423.04" y="310.026" width="85.125" height="17.157" style="fill: rgba(0, 0, 0, 0.12);"></rect>
  <polyline style="fill: none; stroke: rgba(0, 0, 0, 0.62);" points="550.633 342.674 550.633 335.511 566.044 335.511 566.044 342.012"></polyline>
  <polyline style="fill: none; stroke: rgba(0, 0, 0, 0.62);" points="570.538 331.82 570.538 324.657 585.949 324.657 585.949 331.158"></polyline>
  <rect x="456.487" y="310.748" width="15.177" height="30.355" style="fill: rgba(0, 0, 0, 0.1);"></rect>
  <rect x="520.441" y="295.317" width="18.477" height="71.118" style="fill: rgba(255, 255, 255, 0.74);"></rect>
  <rect x="543.207" y="341.422" width="26.066" height="25.736" style="fill: var(--color3);"></rect>
  <rect x="555.949" y="341.688" width="13.402" height="25.736" style="fill: rgba(0, 0, 0, 0.25);"></rect>
  <rect x="561.354" y="330.534" width="33.324" height="36.954" style="fill: var(--color3);"></rect>
  <circle style="fill: var(--color1);" cx="168.165" cy="359.579" r="6.77"></circle>
  <circle style="fill: rgba(0, 0, 0, 0.32);" cx="168.482" cy="359.543" r="6.77"></circle>
  <polyline style="fill: var(--color1);" points="181.022 348.691 168.484 363.539 165.185 360.899 167.825 349.021"></polyline>
  <circle style="fill: var(--color1);" cx="234.052" cy="359.59" r="6.77"></circle>
  <line style="stroke: rgb(255, 255, 255); stroke-width: 2px; fill: none;" x1="207.045" y1="198.795" x2="195.497" y2="210.344"></line>
  <circle style="stroke: rgb(255, 255, 255); fill: none;" cx="198.981" cy="197.916" r="1.909"></circle>
  <circle style="stroke: rgb(255, 255, 255); fill: none;" cx="203.87" cy="209.913" r="1.909"></circle>
  <circle style="fill: rgba(0, 0, 0, 0.32);" cx="233.747" cy="359.37" r="6.77"></circle>
  <rect x="349.272" y="282.846" width="12.274" height="9.898" style="fill: rgb(255, 255, 255);"></rect>
  <circle style="fill: rgb(255, 255, 255);" cx="295.688" cy="139.885" r="4.461"></circle>
  <polyline style="fill: var(--color1);" points="233.392 348.779 231.412 360.899 234.712 362.879 246.92 348.031"></polyline>
  <polyline style="fill: rgb(255, 255, 255);" points="291.46 145.803 288.491 151.742 288.491 153.475 302.979 153.475 302.979 151.49 299.627 146.051 291.708 146.051"></polyline>
  <polyline style="fill: rgb(216, 216, 216); stroke: rgb(255, 255, 255); stroke-width: 2px;" points="446.832 235.56 467.762 235.56"></polyline>
  <line style="stroke: rgb(255, 255, 255); stroke-width: 2px;" x1="449.66" y1="235.277" x2="449.66" y2="248.299"></line>
  <line style="stroke: rgb(255, 255, 255); stroke-width: 2px;" x1="449.943" y1="247.155" x2="466.349" y2="247.155"></line>
  <line style="stroke: rgb(255, 255, 255); stroke-width: 2px;" x1="465.215" y1="235.843" x2="465.215" y2="247.774"></line>
  <line style="stroke: rgb(255, 255, 255); stroke-width: 2px;" x1="453.054" y1="236.126" x2="453.054" y2="247.155"></line>
  <line style="stroke: rgb(255, 255, 255); stroke-width: 2px;" x1="456.448" y1="235.843" x2="456.448" y2="247.169"></line>
  <rect x="171.936" y="295.797" width="6.041" height="26.999" style="fill: rgba(0, 0, 0, 0.17);"></rect>
  <line style="stroke: rgb(255, 255, 255); stroke-width: 2px;" x1="459.842" y1="235.843" x2="459.842" y2="246.623"></line>
  <line style="stroke: rgb(255, 255, 255); stroke-width: 2px;" x1="462.67" y1="236.126" x2="462.67" y2="246.593"></line>
  <rect x="149.216" y="260.525" width="47.857" height="9.157" style="fill: rgba(0, 0, 0, 0.25);"></rect>
  <polyline style="fill: rgb(255, 255, 255);" points="393.161 102.295 385.627 94.761 385.527 93.804 385.384 92.877 385.384 92.877 385.598 91.949 386.027 91.164 386.526 90.451 387.24 89.737 388.167 89.095 389.095 88.738 390.45 88.667 391.378 88.881 392.377 89.309 393.161 89.809 394.018 89.452 394.945 89.238 395.873 89.095 396.586 89.166 397.442 89.238 398.513 89.809 399.369 90.522 400.011 91.45 400.511 92.235 400.796 92.948 400.796 93.59 400.582 94.232 400.439 94.803 393.089 102.154"></polyline>
  <polyline style="fill: rgb(255, 255, 255);" points="309.546 292.057 303.309 285.819 303.226 285.027 303.108 284.259 303.108 284.259 303.285 283.491 303.64 282.841 304.053 282.251 304.644 281.66 305.412 281.128 306.18 280.833 307.302 280.774 308.07 280.951 308.897 281.305 309.546 281.719 310.256 281.424 311.023 281.246 311.792 281.128 312.382 281.187 313.091 281.246 313.977 281.719 314.686 282.31 315.217 283.078 315.631 283.728 315.867 284.318 315.867 284.85 315.69 285.381 315.572 285.854 309.487 291.94"></polyline>
  <path d="M 241.757 115.745 C 240.828 114.932 238.472 113.822 236.848 114.077 C 233.456 114.609 232.88 118.612 235.173 119.886 C 237.388 121.116 244.979 123.636 240.923 127.692 C 239.67 128.945 236.423 128.964 235.109 127.927 C 234.311 127.297 233.198 125.845 233.198 125.845" style="stroke: rgb(255, 255, 255); fill: none; stroke-width: 2px;"></path>
  <rect x="329.204" y="185.325" width="10.553" height="46.122" style="fill: rgba(255, 255, 255, 0.69);"></rect>
  <rect x="299.204" y="247.198" width="6.365" height="12.731" style="fill: var(--color3);"></rect>
  <rect x="330.027" y="253.228" width="4.355" height="8.041" style="fill: var(--color3);"></rect>
  <rect x="357.834" y="242.172" width="6.03" height="15.746" style="fill: var(--color3);"></rect>
  <rect x="358.09" y="240.6" width="6.03" height="19.431" style="fill: rgba(255, 255, 255, 0.35);"></rect>
  <rect x="329.115" y="254.503" width="4.355" height="8.041" style="fill: rgba(255, 255, 255, 0.53);"></rect>
  <rect x="298.963" y="247.468" width="6.365" height="12.731" style="fill: rgba(255, 255, 255, 0.32);"></rect>
  <line style="stroke: rgb(255, 255, 255); stroke-width: 2px;" x1="238.115" y1="111.42" x2="238.115" y2="131.253"></line>
  <polyline style="fill: rgb(216, 216, 216); stroke-width: 2px; stroke: var(--color1);" points="156.02 348.966 246.591 348.966"></polyline>
  <line style="stroke-width: 2px; stroke: var(--color1);" x1="141.888" y1="285.397" x2="251.319" y2="285.397"></line>
  <line style="fill: none; stroke-width: 2px; stroke: var(--color1);" x1="151.786" y1="312.123" x2="246.83" y2="312.123"></line>
  <polyline style="stroke: var(--color1); stroke-width: 2px; fill: none;" points="159.17 348.78 156.304 348.344 153.438 346.662 151.819 343.983 151.196 340.682 151.757 337.504 153.438 335.573 155.307 334.266 156.802 333.767 158.859 333.642"></polyline>
  <rect x="-232.134" y="-307.595" width="34.894" height="7.26" style="fill: rgba(0, 0, 0, 0.25);" transform="matrix(-1, 0, 0, -1, 0, 0)"></rect>
  <rect x="196.957" y="254.997" width="53.887" height="22.223" style="fill: rgba(0, 0, 0, 0.25);"></rect>
  <polyline style="fill: none; stroke: rgba(0, 0, 0, 0.62);" points="73.707 335.152 73.707 342.315 91.532 342.315 91.532 335.814" transform="matrix(-1, 0, 0, -1, 165.238998, 677.46701)"></polyline>
  <polyline style="fill: none; stroke: rgba(0, 0, 0, 0.62);" points="50.683 324.298 50.683 331.461 68.509 331.461 68.509 324.96" transform="matrix(-1, 0, 0, -1, 119.192001, 655.759003)"></polyline>
  <rect x="-100.121" y="341.062" width="30.149" height="25.736" style="fill: var(--color3);" transform="matrix(-1, 0, 0, 1, 0, 0)"></rect>
  <rect x="-85.383" y="341.328" width="15.501" height="25.736" style="fill: rgba(0, 0, 0, 0.25);" transform="matrix(-1, 0, 0, 1, 0, 0)"></rect>
  <polyline style="fill: none; stroke-width: 2px; stroke: var(--color1);" points="116.922 246.024 129.304 246.024 158.99 333.624 242.702 333.624 255.993 264.336 135.727 264.336"></polyline>
  <rect x="-79.131" y="330.174" width="38.544" height="36.954" style="fill: var(--color3);" transform="matrix(-1, 0, 0, 1, 0, 0)"></rect>
</svg>