<svg viewBox="15.145 19.443 636.325 347.289" xmlns="http://www.w3.org/2000/svg">
  <style>
        :root{
          --color1: rgb(44, 103, 155);
          --color2: rgb(133, 167, 130);
          --color3: rgb(194, 228, 191);
          --color4: rgb(186, 229, 255);
      }

      .load{
        animation-name:load;
        animation-duration: 5s;
        animation-timing-function: ease-in-out;
        animation-iteration-count: infinite;
        position: relative;
    }
      
    @keyframes load {
        50% {transform: rotate(1deg);}
      }
      </style>
  <defs></defs>
  <path class="load" style="fill: var(--color4);" d="M 557.04 360.129 C 557.04 360.129 559.385 330.424 533.588 307.754 C 507.791 285.084 461.67 285.865 465.578 241.307 C 469.486 196.749 507.01 185.023 500.756 166.261 C 494.502 147.499 465.578 126.393 478.868 86.525 C 492.158 46.657 476.522 28.677 510.137 33.368 C 543.752 38.059 514.827 80.271 535.152 86.525 C 555.477 92.779 597.69 83.398 596.127 117.794 C 594.564 152.19 558.604 192.058 593 188.931 C 627.396 185.804 657.101 208.474 649.284 220.2 C 641.467 231.926 653.193 249.124 617.233 256.941 C 581.273 264.758 632.086 323.388 600.817 321.825 C 569.548 320.262 559.385 361.693 557.04 360.129 Z"></path>
  <path class="load" style="fill: rgba(255, 255, 255, 0.51);" d="M 557.699 360.472 C 557.699 360.472 560.044 330.767 534.247 308.097 C 508.45 285.427 462.329 286.208 466.237 241.65 C 470.145 197.092 507.669 185.366 501.415 166.604 C 495.161 147.842 466.237 126.736 479.527 86.868 C 492.817 47 477.181 29.02 510.796 33.711 C 544.411 38.402 515.486 80.614 535.811 86.868 C 556.136 93.122 598.349 83.741 596.786 118.137 C 595.223 152.533 559.263 192.401 593.659 189.274 C 628.055 186.147 657.76 208.817 649.943 220.543 C 642.126 232.269 653.852 249.467 617.892 257.284 C 581.932 265.101 632.745 323.731 601.476 322.168 C 570.207 320.605 560.044 362.036 557.699 360.472 Z"></path>
  <path class="load" d="M 581.873 363.763 C 579.266 332.896 558.621 307.286 566.756 278.387 C 570.458 265.236 503.582 309.303 502.154 229.349 C 502.119 227.404 502.608 204.346 502.598 204.335" style="fill: none; stroke: var(--color4);"></path>
  <path style="fill: var(--color1);" d="M 566.705 308.535 C 566.705 308.535 482.279 340.586 504.949 298.373 C 527.619 256.16 554.198 305.408 539.345 266.322 C 524.492 227.236 488.533 170.951 526.837 152.972 C 565.141 134.993 566.705 140.464 551.071 111.54 C 535.437 82.616 572.959 47.439 596.411 74.017 C 619.863 100.595 635.497 126.393 617.517 154.535 C 599.537 182.677 569.05 220.982 587.812 220.982 C 606.574 220.982 648.786 228.018 615.954 256.16 C 583.122 284.302 572.959 276.484 572.959 293.682 C 572.959 310.88 564.36 328.86 564.36 328.86 L 566.705 308.535 Z"></path>
  <path style="fill: rgba(255, 255, 255, 0.39);" d="M 566.484 308.553 C 566.484 308.553 482.058 340.604 504.728 298.391 C 527.398 256.178 553.977 305.426 539.124 266.34 C 524.271 227.254 488.312 170.969 526.616 152.99 C 564.92 135.011 566.484 140.482 550.85 111.558 C 535.216 82.634 572.738 47.457 596.19 74.035 C 619.642 100.613 635.276 126.411 617.296 154.553 C 599.316 182.695 568.829 221 587.591 221 C 606.353 221 648.565 228.036 615.733 256.178 C 582.901 284.32 572.738 276.502 572.738 293.7 C 572.738 310.898 564.139 328.878 564.139 328.878 L 566.484 308.553 Z"></path>
  <path d="M 584.085 361.339 C 576.111 348.382 572.883 333.64 568.247 319.271 C 558.821 290.049 548.039 261.416 553.895 230.187 C 558.173 207.372 567.81 183.725 575.671 161.888 C 580.343 148.91 588.861 135.746 590.024 121.8 C 590.49 116.198 590.27 109.179 586.064 104.973 C 584.597 103.506 578.146 104.774 578.146 102.003" style="fill: none; stroke: var(--color1);"></path>
  <rect x="271.56" y="96.508" width="120.967" height="223.362" style="stroke-width: 7px; stroke: var(--color1); fill: rgb(255, 255, 255);" rx="11.878" ry="11.878"></rect>
  <rect x="280.298" y="105.414" width="102.996" height="205.497" style="fill: var(--color4);" rx="2.345" ry="2.345"></rect>
  <rect x="372.131" y="74.278" width="42.068" height="42.068" style="fill: var(--color2);" rx="14.353" ry="14.353"></rect>
  <circle style="fill: var(--color1); stroke: rgb(255, 255, 255);" cx="238.01" cy="121.305" r="14.615"></circle>
  <circle style="stroke: rgb(255, 255, 255); stroke-width: 2px; fill: var(--color2);" cx="200.582" cy="204.698" r="15.357"></circle>
  <circle style="fill: var(--color1); stroke-width: 2px;" cx="457.752" cy="240.58" r="17.089"></circle>
  <polyline style="fill: rgb(216, 216, 216); stroke: rgb(255, 255, 255);" points="281.782 161.668 381.426 161.668"></polyline>
  <polyline style="fill: rgb(216, 216, 216); stroke: rgb(255, 255, 255);" points="310.157 152.43 373.177 152.43"></polyline>
  <polyline style="fill: rgb(216, 216, 216); stroke: rgb(255, 255, 255);" points="311.147 144.511 373.191 144.511"></polyline>
  <line style="stroke: rgb(255, 255, 255);" x1="310.487" y1="135.933" x2="340.512" y2="135.933"></line>
  <line style="stroke: rgb(255, 255, 255);" x1="289.041" y1="116.796" x2="304.222" y2="116.796"></line>
  <line style="stroke: rgb(255, 255, 255);" x1="289.041" y1="120.59" x2="304.219" y2="120.59"></line>
  <line style="stroke: rgb(255, 255, 255);" x1="289.041" y1="125.539" x2="304.219" y2="125.539"></line>
  <line style="fill: none; stroke: rgb(255, 255, 255);" x1="281.122" y1="267.965" x2="381.756" y2="267.965"></line>
  <path d="M 319.414 186.943 C 317.134 184.284 315.26 182.707 313.758 179.704 C 312.42 177.028 314.067 173.5 316.564 171.07 C 318.62 169.07 321.25 167.815 323.261 168.392 C 326.992 169.464 331.857 174.953 331.857 174.953 C 332.345 175.197 333.53 177.343 333.772 176.993 C 334.637 175.746 335.084 174.525 336.157 172.917 C 338.714 169.08 348.828 167.941 352.219 171.332 C 356.499 175.613 350.235 182.766 348.599 186.038 C 347.717 187.804 341.322 188.113 342.717 186.717 C 344.037 185.397 349.056 177.441 344.075 177.441 C 338.44 177.441 338.383 187.396 335.478 187.396 C 334.864 187.396 334.49 184.599 334.12 184.229 C 332.14 182.25 326.155 175.541 322.355 177.441 C 317.15 180.045 326.364 184.519 323.261 187.623 C 323.072 187.81 319.983 186.977 319.187 186.977" style="fill: rgba(255, 255, 255, 0.87); stroke: var(--color4);"></path>
  <rect x="310.157" y="115.036" width="63.349" height="10.888" style="fill: rgb(255, 255, 255);"></rect>
  <rect x="290.361" y="245.584" width="25.076" height="16.497" style="fill: rgb(255, 255, 255);"></rect>
  <path style="fill: var(--color4);" d="M 52.375 360.911 C 51.854 354.657 45.079 349.967 32.05 346.84 C 9.095 341.331 12.222 320.225 41.431 283.52 C 49.007 274 51.092 262.014 47.685 247.561 C 44.521 234.138 49.732 221.369 63.319 209.256 C 76.374 197.617 92.269 204.913 111.005 231.144 C 120.284 244.136 113.249 258.468 89.898 274.139 C 75.556 283.764 89.888 293.406 132.893 303.063 C 156.722 308.414 141.087 327.175 85.989 359.347"></path>
  <path style="fill: rgba(255, 255, 255, 0.58);" d="M 52.601 360.467 C 52.08 354.213 45.305 349.523 32.276 346.396 C 9.321 340.887 12.448 319.781 41.657 283.076 C 49.233 273.556 51.318 261.57 47.911 247.117 C 44.747 233.694 49.958 220.925 63.545 208.812 C 76.6 197.173 92.495 204.469 111.231 230.7 C 120.51 243.692 113.475 258.024 90.124 273.695 C 75.782 283.32 90.114 292.962 133.119 302.619 C 156.948 307.97 141.313 326.731 86.215 358.903"></path>
  <rect x="319.396" y="251.853" width="25.406" height="9.898" style="fill: rgb(255, 255, 255);"></rect>
  <rect x="348.431" y="242.285" width="24.746" height="20.127" style="fill: rgb(255, 255, 255);"></rect>
  <rect x="298.279" y="277.808" width="23.426" height="18.477" style="fill: var(--color2);"></rect>
  <rect x="306.858" y="196.092" width="52.461" height="35.304" style="fill: var(--color2);"></rect>
  <rect x="343.152" y="278.138" width="24.086" height="18.147" style="fill: var(--color1);"></rect>
  <rect x="306.996" y="187.278" width="52.461" height="13.025" style="fill: rgba(0, 0, 0, 0.2);"></rect>
  <rect x="375.706" y="353.311" width="66.649" height="13.858" style="fill: var(--color2);"></rect>
  <rect x="376.107" y="352.94" width="66.649" height="7.292" style="fill: rgba(0, 0, 0, 0.17);"></rect>
  <rect x="373.066" y="345.062" width="71.268" height="9.238" style="fill: var(--color2);"></rect>
  <rect x="302.899" y="185.534" width="60.71" height="11.027" style="fill: var(--color2);"></rect>
  <rect x="490.691" y="311.408" width="83.146" height="55.101" style="fill: var(--color2);"></rect>
  <rect x="490.993" y="306.118" width="83.146" height="15.702" style="fill: rgba(0, 0, 0, 0.23);"></rect>
  <rect x="483.102" y="295.24" width="94.364" height="16.827" style="fill: var(--color2);"></rect>
  <rect x="149.531" y="259.957" width="46.852" height="36.294" style="fill: var(--color2);"></rect>
  <rect x="158.11" y="303.819" width="38.273" height="28.045" style="fill: var(--color3);"></rect>
  <rect x="155.47" y="295.57" width="42.893" height="8.908" style="fill: var(--color3);"></rect>
  <rect x="155.551" y="295.827" width="42.893" height="8.908" style="fill: rgba(0, 0, 0, 0.17);"></rect>
  <rect x="196.713" y="254.657" width="54.441" height="46.522" style="fill: var(--color3);"></rect>
  <rect x="196.383" y="300.19" width="35.634" height="32.334" style="fill: var(--color2);"></rect>
  <rect x="289.316" y="245.199" width="27.385" height="5.609" style="fill: var(--color3);"></rect>
  <rect x="319.011" y="250.478" width="27.055" height="4.619" style="fill: var(--color3);"></rect>
  <rect x="347.716" y="239.894" width="26.725" height="5.609" style="fill: var(--color3);"></rect>
  <rect x="403.696" y="345.062" width="9.568" height="22.106" style="fill: rgba(255, 255, 255, 0.8);"></rect>
  <rect x="422.558" y="310.088" width="85.125" height="17.157" style="fill: var(--color3);"></rect>
  <rect x="425.198" y="326.585" width="79.846" height="40.583" style="fill: var(--color3);"></rect>
  <rect x="423.04" y="310.026" width="85.125" height="17.157" style="fill: rgba(0, 0, 0, 0.12);"></rect>
  <polyline style="fill: none; stroke: rgba(0, 0, 0, 0.62);" points="550.633 342.674 550.633 335.511 566.044 335.511 566.044 342.012"></polyline>
  <polyline style="fill: none; stroke: rgba(0, 0, 0, 0.62);" points="570.538 331.82 570.538 324.657 585.949 324.657 585.949 331.158"></polyline>
  <rect x="456.487" y="310.748" width="15.177" height="30.355" style="fill: rgba(0, 0, 0, 0.1);"></rect>
  <rect x="520.441" y="295.317" width="18.477" height="71.118" style="fill: rgba(255, 255, 255, 0.74);"></rect>
  <rect x="543.207" y="341.422" width="26.066" height="25.736" style="fill: var(--color3);"></rect>
  <rect x="555.949" y="341.688" width="13.402" height="25.736" style="fill: rgba(0, 0, 0, 0.25);"></rect>
  <rect x="561.354" y="330.534" width="33.324" height="36.954" style="fill: var(--color3);"></rect>
  <circle style="fill: var(--color1);" cx="168.165" cy="359.579" r="6.77"></circle>
  <circle style="fill: rgba(0, 0, 0, 0.32);" cx="168.482" cy="359.543" r="6.77"></circle>
  <polyline style="fill: var(--color1);" points="181.022 348.691 168.484 363.539 165.185 360.899 167.825 349.021"></polyline>
  <circle style="fill: var(--color1);" cx="234.052" cy="359.59" r="6.77"></circle>
  <line style="stroke: rgb(255, 255, 255); stroke-width: 2px; fill: none;" x1="207.045" y1="198.795" x2="195.497" y2="210.344"></line>
  <circle style="stroke: rgb(255, 255, 255); fill: none;" cx="198.981" cy="197.916" r="1.909"></circle>
  <circle style="stroke: rgb(255, 255, 255); fill: none;" cx="203.87" cy="209.913" r="1.909"></circle>
  <circle style="fill: rgba(0, 0, 0, 0.32);" cx="233.747" cy="359.37" r="6.77"></circle>
  <rect x="349.272" y="282.846" width="12.274" height="9.898" style="fill: rgb(255, 255, 255);"></rect>
  <circle style="fill: rgb(255, 255, 255);" cx="295.688" cy="139.885" r="4.461"></circle>
  <polyline style="fill: var(--color1);" points="233.392 348.779 231.412 360.899 234.712 362.879 246.92 348.031"></polyline>
  <polyline style="fill: rgb(255, 255, 255);" points="291.46 145.803 288.491 151.742 288.491 153.475 302.979 153.475 302.979 151.49 299.627 146.051 291.708 146.051"></polyline>
  <polyline style="fill: rgb(216, 216, 216); stroke: rgb(255, 255, 255); stroke-width: 2px;" points="446.832 235.56 467.762 235.56"></polyline>
  <line style="stroke: rgb(255, 255, 255); stroke-width: 2px;" x1="449.66" y1="235.277" x2="449.66" y2="248.299"></line>
  <line style="stroke: rgb(255, 255, 255); stroke-width: 2px;" x1="449.943" y1="247.155" x2="466.349" y2="247.155"></line>
  <line style="stroke: rgb(255, 255, 255); stroke-width: 2px;" x1="465.215" y1="235.843" x2="465.215" y2="247.774"></line>
  <line style="stroke: rgb(255, 255, 255); stroke-width: 2px;" x1="453.054" y1="236.126" x2="453.054" y2="247.155"></line>
  <line style="stroke: rgb(255, 255, 255); stroke-width: 2px;" x1="456.448" y1="235.843" x2="456.448" y2="247.169"></line>
  <rect x="171.936" y="295.797" width="6.041" height="26.999" style="fill: rgba(0, 0, 0, 0.17);"></rect>
  <line style="stroke: rgb(255, 255, 255); stroke-width: 2px;" x1="459.842" y1="235.843" x2="459.842" y2="246.623"></line>
  <line style="stroke: rgb(255, 255, 255); stroke-width: 2px;" x1="462.67" y1="236.126" x2="462.67" y2="246.593"></line>
  <rect x="149.216" y="260.525" width="47.857" height="9.157" style="fill: rgba(0, 0, 0, 0.25);"></rect>
  <polyline style="fill: rgb(255, 255, 255);" points="393.161 102.295 385.627 94.761 385.527 93.804 385.384 92.877 385.384 92.877 385.598 91.949 386.027 91.164 386.526 90.451 387.24 89.737 388.167 89.095 389.095 88.738 390.45 88.667 391.378 88.881 392.377 89.309 393.161 89.809 394.018 89.452 394.945 89.238 395.873 89.095 396.586 89.166 397.442 89.238 398.513 89.809 399.369 90.522 400.011 91.45 400.511 92.235 400.796 92.948 400.796 93.59 400.582 94.232 400.439 94.803 393.089 102.154"></polyline>
  <polyline style="fill: rgb(255, 255, 255);" points="309.546 292.057 303.309 285.819 303.226 285.027 303.108 284.259 303.108 284.259 303.285 283.491 303.64 282.841 304.053 282.251 304.644 281.66 305.412 281.128 306.18 280.833 307.302 280.774 308.07 280.951 308.897 281.305 309.546 281.719 310.256 281.424 311.023 281.246 311.792 281.128 312.382 281.187 313.091 281.246 313.977 281.719 314.686 282.31 315.217 283.078 315.631 283.728 315.867 284.318 315.867 284.85 315.69 285.381 315.572 285.854 309.487 291.94"></polyline>
  <path d="M 241.757 115.745 C 240.828 114.932 238.318 113.343 236.848 114.077 C 235.842 114.581 234.745 117.744 235.366 118.986 C 236.499 121.252 244.979 123.636 240.923 127.692 C 239.67 128.945 236.954 128.777 235.366 128.248 C 234.825 128.068 234.162 126.488 234.162 126.488" style="stroke: rgb(255, 255, 255); fill: none; stroke-width: 2px;"></path>
  <rect x="329.204" y="185.325" width="10.553" height="46.122" style="fill: rgba(255, 255, 255, 0.69);"></rect>
  <rect x="299.204" y="247.198" width="6.365" height="12.731" style="fill: var(--color3);"></rect>
  <rect x="330.027" y="253.228" width="4.355" height="8.041" style="fill: var(--color3);"></rect>
  <rect x="357.834" y="242.172" width="6.03" height="15.746" style="fill: var(--color3);"></rect>
  <rect x="358.09" y="240.6" width="6.03" height="19.431" style="fill: rgba(255, 255, 255, 0.35);"></rect>
  <rect x="329.115" y="254.503" width="4.355" height="8.041" style="fill: rgba(255, 255, 255, 0.53);"></rect>
  <rect x="298.963" y="247.468" width="6.365" height="12.731" style="fill: rgba(255, 255, 255, 0.32);"></rect>
  <line style="stroke: rgb(255, 255, 255); stroke-width: 2px;" x1="238.115" y1="111.42" x2="238.115" y2="131.253"></line>
  <polyline style="fill: rgb(216, 216, 216); stroke-width: 2px; stroke: var(--color1);" points="156.02 348.966 246.591 348.966"></polyline>
  <line style="stroke-width: 2px; stroke: var(--color1);" x1="141.888" y1="285.397" x2="251.319" y2="285.397"></line>
  <line style="fill: none; stroke-width: 2px; stroke: var(--color1);" x1="151.786" y1="312.123" x2="246.83" y2="312.123"></line>
  <polyline style="stroke: var(--color1); stroke-width: 2px; fill: none;" points="168.17 348.78 165.304 348.344 162.438 346.662 160.819 343.983 160.196 340.682 160.757 337.504 162.438 335.573 164.307 334.266 165.802 333.767 167.859 333.642"></polyline>
  <rect x="-232.134" y="-307.595" width="34.894" height="7.26" style="fill: rgba(0, 0, 0, 0.25);" transform="matrix(-1, 0, 0, -1, 0, 0)"></rect>
  <rect x="196.957" y="254.997" width="53.887" height="22.223" style="fill: rgba(0, 0, 0, 0.25);"></rect>
  <path style="fill: var(--color1);" d="M 69.573 342.15 C 69.573 342.15 68.01 318.698 77.39 316.353 C 86.77 314.008 98.497 296.028 93.807 291.337 C 89.117 286.646 79.736 287.429 86.771 275.703 C 93.806 263.977 118.04 245.997 96.934 237.398 C 75.828 228.799 80.517 192.058 73.482 210.038 C 66.447 228.018 56.284 252.251 63.319 263.977 C 70.354 275.703 56.284 290.556 56.284 290.556 C 56.284 290.556 43.776 317.134 60.192 333.551 C 76.608 349.968 68.01 341.368 69.573 342.15 Z"></path>
  <path style="fill: rgba(255, 255, 255, 0.21);" d="M 69.974 341.859 C 69.974 341.859 68.411 318.407 77.791 316.062 C 87.171 313.717 98.898 295.737 94.208 291.046 C 89.518 286.355 80.137 287.138 87.172 275.412 C 94.207 263.686 118.441 245.706 97.335 237.107 C 76.229 228.508 80.918 191.767 73.883 209.747 C 66.848 227.727 56.685 251.96 63.72 263.686 C 70.755 275.412 56.685 290.265 56.685 290.265 C 56.685 290.265 44.177 316.843 60.593 333.26 C 77.009 349.677 68.411 341.077 69.974 341.859 Z"></path>
  <path d="M 66.558 355.057 C 66.558 347.634 66.382 337.524 64.579 330.311 C 63.234 324.934 64.148 316.563 65.568 311.505 C 68.881 299.705 78.652 284.113 73.541 272.445 C 70.915 266.449 72.13 261.941 74.477 256.074 C 74.661 255.614 75.467 250.63 75.467 250.63" style="fill: none; stroke: var(--color1);"></path>
  <path d="M 51.267 354.562 C 51.267 341.337 44.066 330.188 46.812 316.454 C 48.349 308.773 52.751 299.801 52.751 292.203" style="fill: none; stroke: var(--color4);"></path>
  <polyline style="fill: none; stroke: rgba(0, 0, 0, 0.62);" points="73.707 335.152 73.707 342.315 91.532 342.315 91.532 335.814" transform="matrix(-1, 0, 0, -1, 165.238998, 677.46701)"></polyline>
  <polyline style="fill: none; stroke: rgba(0, 0, 0, 0.62);" points="50.683 324.298 50.683 331.461 68.509 331.461 68.509 324.96" transform="matrix(-1, 0, 0, -1, 119.192001, 655.759003)"></polyline>
  <rect x="-100.121" y="341.062" width="30.149" height="25.736" style="fill: var(--color3);" transform="matrix(-1, 0, 0, 1, 0, 0)"></rect>
  <rect x="-85.383" y="341.328" width="15.501" height="25.736" style="fill: rgba(0, 0, 0, 0.25);" transform="matrix(-1, 0, 0, 1, 0, 0)"></rect>
  <polyline style="fill: none; stroke-width: 2px; stroke: var(--color1);" points="116.922 246.024 129.304 246.024 158.99 333.624 242.702 333.624 255.993 264.336 135.727 264.336"></polyline>
  <rect x="-79.131" y="330.174" width="38.544" height="36.954" style="fill: var(--color3);" transform="matrix(-1, 0, 0, 1, 0, 0)"></rect>
</svg>