<svg viewBox="151.588 77.845 140.68 127.581" xmlns="http://www.w3.org/2000/svg">
    <style>
          :root{
            --border-color: rgb(133, 167, 130);
            --back-color: rgb(194, 228, 191);
        }
        </style>
    <defs></defs>
    <path style="fill: var(--back-color); stroke-linecap: round; stroke-linejoin: round; stroke-width: 2px;" d="M 252.627 178.636 C 252.253 175.366 252.404 170.736 252.573 169.296 C 252.919 166.357 247.684 167.704 246.757 164.038 C 245.013 157.142 243.377 152.769 238.53 147.105 C 229.153 136.148 224.275 124.093 226.162 112.237 C 228.146 99.774 223.941 92.515 213.546 90.461 C 202.839 88.345 210.452 110.07 195.572 108.089 C 189.45 107.274 188.125 107.488 184.338 118.977 C 184.079 119.173 183.767 117.755 183.767 117.229 C 183.767 115.012 183.767 112.977 183.767 110.748 C 183.767 108.162 184.617 106.415 185.388 104.105 C 185.606 103.449 185.381 101.843 185.874 101.35 C 186.84 100.384 186.641 98.314 187.494 97.462 C 188.336 96.619 188.549 95.19 189.114 94.059 C 190.072 92.143 192.418 90.35 193.82 88.978 C 194.978 87.845 197.641 85.598 195.146 87.767 C 194.429 88.39 196.451 86.098 196.74 85.98 C 203.859 83.089 200.748 83.382 203.048 82.231 C 204.189 81.66 205.729 81.5 206.937 81.097 C 207.165 81.021 207.909 81.259 208.071 81.097 C 208.532 80.636 209.229 80.797 209.853 80.611 C 213.246 79.598 217.856 80.143 221.357 80.611 C 223.274 80.867 224.683 81.383 226.38 82.231 C 226.95 82.517 227.913 82.987 228.428 83.502 C 229.13 84.204 230.135 83.881 230.754 84.5 C 232.379 86.124 234.021 87.929 235.615 89.523 C 236.331 90.239 236.809 91.263 237.235 92.115 C 237.456 92.556 237.422 92.512 237.645 92.835 C 238.884 94.635 239.991 97.499 241.371 99.154 C 243.049 101.168 242.459 104.538 243.567 106.755 C 244.068 107.756 243.198 109.702 243.639 110.586 C 243.834 110.974 243.692 112.002 243.638 112.426 C 243.432 114.043 243.639 116.7 242.99 118.097 C 242.771 118.568 242.744 119.784 242.744 120.145 C 242.744 120.527 242.312 121.549 242.582 121.279 C 244.336 119.526 248.622 120.148 250.197 120.935 C 250.727 121.2 250.931 121.389 251.553 121.596 C 252.738 121.992 254.514 122.06 255.544 122.575 C 256.288 122.947 257.144 123.852 257.65 124.358 C 259.116 125.823 260.22 125.312 261.545 127.3 C 262.761 129.124 264.008 133.332 264.008 135.641 C 264.008 136.397 264.111 137.568 264.111 138.324 C 264.111 138.702 264.563 138.508 264.941 138.508 C 267.107 138.508 269.751 138.923 271.746 139.588 C 274.092 140.37 276.273 141.229 278.461 142.322 C 280.533 143.359 282.622 144.41 284.242 146.03 C 284.819 146.607 286.122 146.899 286.459 147.572 C 287.151 148.956 288.002 150.731 288.668 152.064 C 289.063 152.855 288.964 153.974 289.245 154.818 C 289.919 156.838 290.884 157.355 290.611 159.34 C 289.676 166.14 288.598 168.386 288.506 168.869 C 288.018 171.439 286.072 172.544 285.175 174.423 C 284.313 176.229 283.376 177.64 281.36 178.312 C 280.992 178.434 280.333 179.716 279.956 179.842 C 277.504 180.659 272.662 185.323 273.331 183.1 C 273.732 181.766 268.06 186.024 265.375 184.877 C 264.52 184.512 259.366 185.374 258.785 184.793 C 258.082 184.09 255.011 183.127 254.248 182.525 C 250.879 179.869 253.983 180.54 252.627 178.636 Z"></path>
    <polygon style="fill: var(--back-color); stroke-linecap: round; stroke-linejoin: round; stroke-width: 2px;" points="224.38699340820312 193.125 195.802001953125 168.7729949951172 223.27099609375 146.02499389648438 252.26800537109375 168.7729949951172 224.74000549316406 192.77099609375"></polygon>
    <polyline style="stroke: var(--border-color); fill: none; stroke-linecap: round; stroke-linejoin: round; stroke-width: 2px;" points="195.31500244140625 202.83900451660156 195.31500244140625 169.15699768066406 223.35299682617188 145.86399841308594 252.6840057373047 168.7259979248047 252.6840057373047 202.8260040283203 195.2760009765625 202.8260040283203"></polyline>
    <polyline style="stroke: var(--border-color); fill: none; stroke-linecap: round; stroke-linejoin: round; stroke-width: 2px;" points="195.66900634765625 169.11900329589844 224.64700317382812 193.31199645996094 252.5260009765625 168.96200561523438"></polyline>
    <polyline style="fill: rgb(216, 216, 216); stroke: var(--border-color); stroke-dasharray: 4px; stroke-linecap: round; stroke-linejoin: round; stroke-width: 2px;" points="214.56900024414062 184.92100524902344 195.82400512695312 202.76300048828125"></polyline>
    <polyline style="fill: rgb(216, 216, 216); stroke: var(--border-color); stroke-dasharray: 4px; stroke-linecap: round; stroke-linejoin: round; stroke-width: 2px;" points="233.705 185.548 252.684 202.371"></polyline>
    <line style="stroke: var(--border-color); stroke-linecap: round; stroke-linejoin: round; stroke-width: 2px;" x1="209.981" y1="161.997" x2="232.411" y2="162.255"></line>
    <line style="stroke: var(--border-color); stroke-dasharray: 4px; stroke-linecap: round; stroke-linejoin: round; stroke-width: 2px;" x1="209.205" y1="168.984" x2="226.374" y2="168.984"></line>
    <line style="stroke: var(--border-color); stroke-linecap: round; stroke-linejoin: round; stroke-width: 2px;" x1="216.193" y1="175.584" x2="232.411" y2="175.584"></line>
    <path style="stroke: var(--border-color); fill: none; stroke-linecap: round; stroke-linejoin: round; stroke-width: 2px;" d="M 195.222 180.683 C 168.335 183.558 154.676 178.005 154.245 163.052 C 153.988 154.113 158.659 146.923 169.556 141.485"></path>
    <path style="stroke: var(--border-color); fill: none; stroke-linecap: round; stroke-linejoin: round; stroke-width: 2px;" d="M 252.914 181.007 C 259.528 188.771 276.549 184.765 284.509 175.669 C 289.655 169.788 291.793 163.14 289.037 152.645 C 286.91 144.544 276.016 139.577 264.34 138.189"></path>
    <path style="stroke: var(--border-color); fill: none; stroke-linecap: round; stroke-linejoin: round; stroke-width: 2px;" d="M 184.095 118.463 C 182.646 103.349 187.822 91.961 199.623 84.301 C 206.107 80.092 213.769 79.057 222.605 81.195 C 230.79 83.176 236.898 88.973 240.929 98.587 C 243.937 105.763 244.455 113.527 242.481 121.879"></path>
    <path style="stroke: var(--border-color); fill: none; stroke-linecap: round; stroke-linejoin: round; stroke-width: 2px;" d="M 169.679 141.455 C 168.126 129.653 171.905 120.741 184.017 118.463"></path>
    <path style="stroke: var(--border-color); fill: none; stroke-linecap: round; stroke-linejoin: round; stroke-width: 2px;" d="M 263.754 138.892 C 267.95 120.283 240.42 118.216 242.635 121.724"></path>
    <path style="stroke: var(--border-color); fill: none; stroke-linecap: round; stroke-linejoin: round; stroke-width: 2px;" d="M 253.957 147.644 C 259.059 147.497 262.982 144.468 264.016 136.852"></path>
  </svg>