<svg viewBox="41.148 35.534 264.57 408.013" xmlns="http://www.w3.org/2000/svg">
    <style>
        :root{
          --border-color: rgba(133, 167, 130);
          --back-color: rgb(194, 228, 191);
      }
      </style>
    <defs></defs>
    <path style="stroke-width: 2px; fill: var(--back-color);" d="M 136.116 317.517 C 136.116 317.517 110.923 310.25 102.686 290.386 C 94.45 270.522 72.648 233.215 60.536 217.711 C 48.425 202.207 35.343 179.437 48.908 168.778 C 62.473 158.12 74.586 153.274 87.668 167.324 C 100.75 181.374 112.862 225.463 116.253 237.576 C 119.644 249.689 130.788 271.006 135.632 280.212 C 140.476 289.417 143.384 311.219 136.116 317.517 Z"></path>
    <path style="stroke-width: 2px; fill: var(--back-color);" d="M 153.524 261.801 C 153.524 261.801 126.392 221.588 138.02 175.56 C 149.647 129.533 129.783 89.805 131.721 75.756 C 133.659 61.706 132.205 43.294 155.946 39.418 C 179.686 35.541 193.251 70.426 194.22 89.805 C 195.189 109.185 180.171 140.193 183.077 153.759 C 185.984 167.325 187.438 223.526 175.325 239.03 C 163.212 254.534 155.461 262.77 153.524 261.801 Z"></path>
    <path style="stroke-width: 2px; fill: var(--back-color);" d="M 201.039 285.056 C 201.039 285.056 189.411 233.215 213.636 216.258 C 237.861 199.301 247.065 164.902 248.035 153.759 C 249.005 142.616 248.52 131.956 264.508 116.452 C 280.496 100.948 295.999 122.751 297.937 128.081 C 299.875 133.411 310.05 148.429 299.391 169.263 C 288.733 190.097 281.95 203.177 276.62 218.681 C 271.29 234.185 244.643 285.056 201.039 285.056 Z"></path>
    <path style="stroke: var(--border-color); fill: none; stroke-width: 2px;" d="M 182.144 352.401 C 182.144 352.401 192.803 292.808 211.214 267.614 C 229.625 242.421 260.633 204.146 280.012 137.286"></path>
    <path style="stroke: var(--border-color); fill: none; stroke-width: 2px;" d="M 157.435 353.854 C 157.435 353.854 149.684 222.072 157.435 190.096 C 165.186 158.119 165.187 70.91 158.889 66.549"></path>
    <path style="stroke: var(--border-color); fill: none; stroke-width: 2px;" d="M 146.776 354.823 C 146.776 354.823 129.334 277.789 69.257 188.642"></path>
    <polygon style="stroke-width: 2px;fill: var(--border-color)" points="124.49 352.401 201.524 352.401 186.505 441.547 141.921 441.547"></polygon>
    <path style="stroke-width: 2px; fill: rgba(0, 0, 0, 0.26);" d="M 136.804 317.984 C 136.804 317.984 111.61 310.717 103.374 290.853 C 95.138 270.989 73.336 233.682 61.224 218.178 C 49.112 202.674 36.03 179.904 49.596 169.245 C 63.161 158.587 75.274 153.741 88.355 167.791 C 101.437 181.841 113.549 225.93 116.94 238.043 C 120.331 250.156 131.475 271.473 136.32 280.679 C 141.164 289.884 144.072 311.686 136.804 317.984 Z"></path>
    <path style="stroke-width: 2px; fill: rgba(0, 0, 0, 0.14);" d="M 153.812 261.669 C 153.812 261.669 126.68 221.456 138.308 175.428 C 149.935 129.401 130.071 89.673 132.009 75.623 C 133.947 61.574 132.494 43.162 156.234 39.286 C 179.974 35.409 193.54 70.294 194.508 89.673 C 195.477 109.053 180.459 140.06 183.365 153.627 C 186.272 167.193 187.726 223.393 175.613 238.897 C 163.5 254.401 155.749 262.638 153.812 261.669 Z"></path>
  </svg>