<svg viewBox="15.27 379.071 74.606 74.036" xmlns="http://www.w3.org/2000/svg">
    <style>
        :root{
          --border-color: rgb(133, 167, 130);
          --back-color: rgb(194, 228, 191);
      }
      </style>
    <defs></defs>
    <path style="fill: var(--back-color);" d="M 47.117 388.896 L 52.808 380.452 L 58.498 389.114 L 54.462 389.31 L 54.321 403.195 L 57.097 404.164 L 60.264 405.902 L 62.675 408.285 L 64.273 411.06 L 65.223 413.831 L 58.461 414.785 L 57.283 411.814 L 54.424 409.963 L 50.612 409.683 L 48.005 411.253 L 46.015 413.944 L 45.762 416.663 L 46.687 419.522 L 48.706 421.429 L 51.313 422.522 L 54.256 422.298 L 56.19 420.952 L 57.676 419.27 L 58.293 417.616 L 58.657 416.018 L 58.489 414.524 L 65.599 413.831 C 66.198 412.782 79.603 413.442 79.381 413.831 L 79.22 409.907 L 88.49 415.686 L 79.341 422.731 L 79.369 418.834 C 79.591 418.278 65.258 417.335 64.659 418.834 L 63.812 422.6 L 62.046 425.011 L 59.719 427.057 L 57.505 428.206 L 54.225 429.243 L 54.113 443.359 L 58.093 443.278 L 52.319 451.977 L 46.239 443.091 L 50.304 443.007 L 50.416 429.088 L 46.566 427.692 L 43.398 425.674 L 40.96 422.703 L 39.306 418.028 L 25.306 418.056 L 25.306 422.372 L 16.768 415.925 L 24.954 409.767 L 25.15 413.383 L 25.57 413.832 L 39.187 413.86 L 40.109 410.826 L 41.819 408.023 L 43.697 406.145 L 46.276 404.631 L 49.108 403.51 L 50.677 403.23 L 50.618 389.432 L 47.117 388.896 Z"></path>
    <path style="stroke: var(--border-color); fill: none;" d="M 25.133 409.757 L 16.498 415.696 L 25.2 422.327 L 25.2 418.072 L 39.3 418.072 C 40.507 424.145 44.322 427.822 50.333 429.105 L 50.333 443.008 L 46.324 443.11 L 52.274 451.888 L 58.214 443.324 L 54.307 443.324 L 54.307 429.234 C 60.223 428.091 63.758 423.775 64.963 418.105 L 79.267 418.105 L 79.348 422.438 L 88.58 415.686 L 79.267 409.929 L 79.348 413.831 L 65.163 413.831 C 64.114 407.835 60.523 404.652 54.403 403.359 L 54.403 389.31 L 58.628 389.31 L 52.207 380.439 L 46.473 389.314 L 50.619 389.314 L 50.619 403.269 C 45.04 404.09 40.829 407.509 39.228 413.841 L 36.593 413.841 L 25.174 413.841 L 25.133 409.757 Z"></path>
    <ellipse style="fill: none; stroke: var(--border-color);" cx="52.277" cy="416.078" rx="6.423" ry="6.423"></ellipse>
    <path style="stroke: var(--border-color); fill: none;"></path>
  </svg>