<svg viewBox="-104.996 377.671 82.951 77.614" xmlns="http://www.w3.org/2000/svg">
    <style>
        :root{
          --border-color: rgb(133, 167, 130);
          --back-color: rgb(194, 228, 191);
      }
      </style>
    <defs></defs>
    <path style="fill: var(--back-color); stroke-linecap: round; stroke-miterlimit: 3; stroke-linejoin: round;" d="M -56.626 385.856 L -61.076 383.588 L -63.981 382.405 L -68.607 381.867 L -73.018 381.974 L -77.967 383.265 L -81.518 384.556 L -84.853 386.385 L -87.65 388.86 L -90.663 392.303 L -93.03 395.531 L -94.751 400.264 L -95.827 405.321 L -95.827 409.732 L -95.181 414.359 L -93.929 416.942 C -93.929 416.942 -89.749 417.478 -88.248 415.763 C -86.747 414.048 -88.462 411.69 -87.712 409.975 C -86.962 408.26 -84.925 405.151 -82.245 406.437 C -79.565 407.723 -78.708 407.08 -78.815 410.939 C -78.922 414.798 -79.351 414.906 -78.279 415.656 C -77.207 416.406 -74.42 416.299 -71.954 416.621 C -69.488 416.943 -67.345 419.622 -67.345 419.622 C -67.345 419.622 -68.095 413.619 -69.489 412.547 C -70.883 411.475 -71.847 410.511 -71.633 409.653 C -71.419 408.795 -70.239 405.365 -68.846 405.473 C -67.453 405.581 -64.772 407.188 -63.379 406.437 C -61.986 405.686 -59.734 407.724 -59.734 403.865 C -59.734 400.006 -62.307 401.506 -64.129 399.255 C -65.951 397.004 -67.024 399.577 -67.238 397.969 C -67.452 396.361 -67.56 394.967 -65.737 394.432 C -63.914 393.897 -65.844 394.753 -64.665 391.644 C -63.486 388.535 -66.916 388.857 -63.593 388.643 C -60.27 388.429 -58.019 387.893 -57.376 387.142 C -56.733 386.391 -56.626 385.856 -56.626 385.856 Z"></path>
    <circle style="fill: none; stroke-linecap: round; stroke-miterlimit: 3; stroke-linejoin: round; stroke: var(--border-color);" cx="-70.072" cy="407.773" r="25.815"></circle>
    <path style="fill: none; stroke-linecap: round; stroke-miterlimit: 3; stroke-linejoin: round; stroke: var(--border-color);" d="M -93.939 416.935 C -93.939 416.935 -89.759 417.471 -88.258 415.756 C -86.757 414.041 -88.472 411.683 -87.722 409.968 C -86.972 408.253 -84.935 405.144 -82.255 406.43 C -79.575 407.716 -78.718 407.073 -78.825 410.932 C -78.932 414.791 -79.361 414.899 -78.289 415.649 C -77.217 416.399 -74.43 416.292 -71.964 416.614 C -69.498 416.936 -67.355 419.615 -67.355 419.615 C -67.355 419.615 -68.105 413.612 -69.499 412.54 C -70.893 411.468 -71.857 410.504 -71.643 409.646 C -71.429 408.788 -70.249 405.358 -68.856 405.466 C -67.463 405.574 -64.782 407.181 -63.389 406.43 C -61.996 405.679 -59.744 407.717 -59.744 403.858 C -59.744 399.999 -62.317 401.499 -64.139 399.248 C -65.961 396.997 -67.034 399.57 -67.248 397.962 C -67.462 396.354 -67.57 394.96 -65.747 394.425 C -63.924 393.89 -65.854 394.746 -64.675 391.637 C -63.496 388.528 -66.926 388.85 -63.603 388.636 C -60.28 388.422 -58.029 387.886 -57.386 387.135 C -56.743 386.384 -56.636 385.849 -56.636 385.849"></path>
    <path style="stroke-linecap: round; stroke-miterlimit: 3; stroke-linejoin: round; stroke: var(--border-color); fill: var(--back-color);" d="M -46.667 410.396 C -46.462 398.128 -52.134 393.889 -52.134 393.889 C -52.134 393.889 -54.492 393.46 -53.527 395.925 C -52.562 398.39 -50.847 396.783 -53.313 398.712 C -55.779 400.641 -55.457 401.499 -52.991 402.893 C -50.525 404.287 -49.239 404.715 -49.347 405.573 C -49.455 406.431 -50.418 408.36 -49.347 408.896 C -48.276 409.432 -47.524 410.504 -46.667 410.396 Z"></path>
    <path style="stroke-linecap: round; stroke-miterlimit: 3; stroke-linejoin: round; stroke: var(--border-color); fill: var(--back-color);" d="M -65.318 430.335 C -66.192 431.19 -64.076 432.186 -65.134 432.684 C -66.192 433.182 -66.191 433.183 -68.122 430.941 C -70.053 428.699 -70.24 428.886 -71.049 428.637 C -71.858 428.388 -73.104 427.206 -72.917 425.026 C -72.73 422.846 -73.664 422.162 -74.66 421.726 C -75.656 421.29 -77.96 423.033 -77.96 423.033 C -77.96 423.033 -77.275 427.205 -79.641 428.139 C -82.007 429.073 -85.68 426.707 -85.68 426.707 C -85.68 426.707 -91.721 423.292 -86.372 427.827 C -81.023 432.362 -70.621 435.931 -60.596 431.937 C -50.571 427.943 -46.027 418.052 -46.338 417.803 C -46.649 417.554 -49.561 418.543 -49.561 418.543 C -49.561 418.543 -54.492 420.151 -55.349 419.079 C -56.206 418.007 -58.351 415.542 -58.458 416.721 C -58.565 417.9 -60.173 418.65 -57.815 420.901 C -55.457 423.152 -57.708 423.903 -57.815 423.903 C -57.922 423.903 -60.388 423.045 -61.138 425.082 C -61.888 427.119 -60.28 429.906 -61.995 430.335 C -63.71 430.764 -65.318 430.335 -65.318 430.335 Z"></path>
    <path style="stroke-linecap: round; stroke-miterlimit: 3; stroke-linejoin: round; stroke: var(--border-color); fill: var(--back-color);" d="M -55.778 413.827 L -57.172 411.897 L -55.671 409.539 C -55.671 409.539 -52.884 409.324 -53.206 411.683 C -53.528 414.042 -55.885 413.827 -55.778 413.827 Z"></path>
    <path style="fill: none; stroke-linecap: round; stroke-miterlimit: 3; stroke-linejoin: round; stroke: var(--border-color);" d="M -88.365 425.94 L -100.005 437.58"></path>
    <path style="fill: none; stroke-linecap: round; stroke-miterlimit: 3; stroke-linejoin: round; stroke: var(--border-color);" d="M -80.754 453.798 L -59.315 453.798 L -69.608 453.798 L -69.608 441.757"></path>
    <path style="fill: none; stroke-linecap: round; stroke-miterlimit: 3; stroke-linejoin: round; stroke: var(--border-color);" d="M -74.856 450.907 C -48.353 450.912 -31.783 422.229 -45.029 399.274 C -53.391 384.783 -70.959 378.402 -86.672 384.148" transform="matrix(0.578817, 0.815457, -0.815457, 0.578817, 312.866394, 227.211685)"></path>
    <line style="stroke: var(--border-color); stroke-linecap: round;" x1="-51.668" y1="389.188" x2="-41.62770997013823" y2="379.14793529239216"></line>
  </svg>