<svg viewBox="61.656 40.067 64.776 85.002" xmlns="http://www.w3.org/2000/svg">
  <style>
    :root{
      --border-color: rgb(133, 167, 130);
      --back-color: rgb(194, 228, 191);
  }
  </style>
  <defs></defs>
  <path style="fill: none; stroke: var(--border-color);" d="M 90.577 115.448 C 90.577 115.448 67.438 115.714 66.372 118.715 C 65.306 121.716 93.769 122.055 93.769 122.055 C 93.769 122.055 119.497 121.662 120.806 118.718 C 122.115 115.774 96.272 115.447 96.272 115.447"></path>
  <path style="fill: var(--back-color);" d="M 92.984 118.244 L 92.423 110.376 L 87.738 99.788 L 81.835 91.453 L 74.247 83.489 L 70.406 77.62 L 68.814 67.408 L 69.563 60.85 L 72.468 54.386 L 77.434 49.046 L 82.492 44.925 L 88.58 43.145 L 93.076 42.677 L 93.172 60.85 L 90.831 61.225 L 88.58 63.005 L 86.614 66.565 L 86.894 69.842 L 88.769 72.84 L 92.233 74.715 L 95.795 74.621 L 98.511 72.747 L 100.571 70.031 L 100.853 66.94 L 100.008 64.409 L 97.762 61.785 L 92.986 60.849 L 92.797 42.583 L 94.765 42.302 L 97.856 42.582 L 101.04 43.52 L 106.099 45.861 L 110.596 48.767 L 114.997 54.2 L 117.527 59.351 L 118.838 62.63 L 119.307 68.251 L 118.745 73.683 L 116.778 79.024 L 113.781 83.521 L 110.97 86.049 L 108.161 88.579 L 105.349 91.859 L 102.727 94.575 L 99.822 98.79 L 97.013 103.849 L 95.138 107.783 L 94.108 113.872 L 92.984 118.244 Z"></path>
  <circle style="stroke: var(--border-color); fill: none;" cx="93.756" cy="67.682" r="7.036"></circle>
  <path style="stroke: var(--border-color); fill: none;" d="M 110.966 86.363 C 110.966 86.363 94.138 98.717 93.221 118.72 M 76.807 86.332 C 76.807 86.332 92.395 98.778 93.311 118.782 M 110.825 86.467 C 125.176 73.436 120.039 49.757 101.579 43.842 C 83.11 37.929 65.179 54.225 69.285 73.164 C 70.419 78.39 73.186 83.118 77.18 86.659"></path>
</svg>