<svg viewBox="-15.799 213.187 71.908 75.443" xmlns="http://www.w3.org/2000/svg">
    <style>
        :root{
          --border-color: rgb(133, 167, 130);
          --back-color: rgb(194, 228, 191);
      }
      </style>
    <defs></defs>
    <path style="stroke: var(--border-color); fill: var(--back-color);" d="M 29.392 275.305 C 18.944 274.146 10.696 275.104 10.696 275.104 C 10.696 275.104 -5.536 276.985 2.811 279.795 C 6.682 281.097 22.893 283.203 35.39 280.303 C 47.887 277.404 29.392 275.305 29.392 275.305 Z"></path>
    <path style="fill: var(--back-color);" d="M 18.243 224.651 L 16.772 225.461 L 15.445 225.871 L 13.632 226.648 L 11.689 228.915 L 10.393 232.413 L 10.069 235.327 L 9.616 239.278 L 9.163 243.488 L 8.256 247.05 L 7.673 250.224 L 8.062 251.519 L 9.163 251.973 L 10.976 251.455 L 12.142 250.418 L 15.186 234.291 L 13.955 244.589 L 13.696 252.102 L 14.409 276.959 C 14.754 278.254 25.766 278.254 25.421 276.959 L 26.197 256.751 L 25.937 243.862 L 25.743 242.049 L 27.881 250.08 L 28.593 251.57 L 30.73 252.347 L 32.155 251.181 L 32.414 249.821 L 30.277 239.523 L 29.564 231.686 L 28.01 228.383 L 24.836 225.727 L 21.598 224.496 L 18.243 224.651 Z"></path>
    <circle style="stroke: var(--border-color); fill: var(--back-color);" cx="19.82" cy="219.453" r="5.448"></circle>
    <path style="stroke: var(--border-color); fill: var(--back-color);" d="M 17.58 225.38 C 17.58 225.38 10.721 225.664 10.209 233.955 C 9.697 242.247 7.701 249.926 7.701 249.926 C 7.701 249.926 7.599 251.871 9.237 251.974 C 10.875 252.077 12.001 250.489 12.001 250.489 C 12.001 250.489 15.584 234.519 15.43 233.75 C 15.277 232.982 13.486 246.713 13.691 255.056 C 13.896 263.4 14.56 277.384 14.56 277.384"></path>
    <path style="fill: none; stroke: var(--border-color);" d="M 20.077 249.267 L 20.077 276.806"></path>
    <path style="stroke: var(--border-color); fill: var(--back-color);" d="M 32.29 277.557 C 32.29 277.557 25.305 277.401 24.784 268.957 C 24.263 260.514 22.23 252.695 22.23 252.695 C 22.23 252.695 22.126 250.715 23.794 250.61 C 25.462 250.505 26.609 252.122 26.609 252.122 C 26.609 252.122 30.257 268.384 30.101 269.166 C 29.944 269.948 28.12 255.967 28.329 247.471 C 28.538 238.976 29.214 225.198 29.214 225.198" transform="matrix(-1, 0, 0, -1, 54.518723, 502.755005)"></path>
    <path style="fill: none; stroke: var(--border-color);" d="M 9.897 270.365 C 9.897 270.365 -14.826 271.944 -12.425 280.717 C -10.023 289.491 46.538 290.031 52.171 281.35 C 57.804 272.669 29.401 270.922 29.401 270.922"></path>
  </svg>