<svg viewBox="294.038 163.68 76.304 66.477" xmlns="http://www.w3.org/2000/svg">
  <style>
    :root{
      --border-color: rgb(133, 167, 130);
      --back-color: rgb(194, 228, 191);
  }
  </style>
  <defs></defs>
  <polyline style="stroke: var(--border-color); fill: none;" points="324.149 199.953 317.643 197.259 305.881 202.13 295.819 226.425 311.716 219.84 331.222 227.919 351.711 219.431 368.066 226.205 358.614 203.386 345.652 198.017 339.34 200.631"></polyline>
  <line style="stroke: var(--border-color);" x1="317.564" y1="197.426" x2="311.96" y2="219.688"></line>
  <line style="stroke: var(--border-color);" x1="351.722" y1="219.481" x2="345.912" y2="198"></line>
  <line style="stroke: var(--border-color);" x1="332.082" y1="213.304" x2="331.308" y2="228.007"></line>
  <path style="fill: var(--back-color);" d="M 332.122 210.572 L 331.792 205.947 L 329.039 199.724 L 325.57 194.825 L 321.11 190.144 L 318.852 186.694 L 317.916 180.692 L 318.357 176.837 L 320.064 173.038 L 322.982 169.899 L 325.956 167.477 L 329.535 166.431 L 332.177 166.156 L 332.233 176.837 L 330.856 177.058 L 329.535 178.104 L 328.379 180.196 L 328.543 182.123 L 329.644 183.885 L 331.682 184.986 L 333.775 184.932 L 335.371 183.83 L 336.582 182.234 L 336.748 180.417 L 336.252 178.929 L 334.931 177.388 L 332.123 176.836 L 332.013 166.101 L 333.169 165.935 L 334.986 166.1 L 336.858 166.651 L 339.831 168.028 L 342.474 169.735 L 345.061 172.928 L 346.548 175.956 L 347.319 177.884 L 347.595 181.187 L 347.264 184.38 L 346.108 187.519 L 344.346 190.162 L 342.694 191.648 L 341.043 193.136 L 339.39 195.063 L 337.849 196.66 L 336.142 199.138 L 334.49 202.111 L 333.389 204.423 L 332.783 208.002 L 332.122 210.572 Z"></path>
  <circle style="stroke: var(--border-color); fill: none;" cx="332.576" cy="180.853" r="4.135"></circle>
  <path style="stroke: var(--border-color); fill: none;" d="M 342.692 191.833 C 342.692 191.833 332.801 199.094 332.262 210.851 M 322.614 191.815 C 322.614 191.815 331.776 199.13 332.315 210.888 M 342.609 191.895 C 351.043 184.235 348.025 170.318 337.174 166.841 C 326.319 163.365 315.78 172.944 318.193 184.076 C 318.86 187.147 320.485 189.926 322.833 192.007"></path>
</svg>