<svg viewBox="101.043 217.299 76.265 65.055" xmlns="http://www.w3.org/2000/svg">
    <style>
        :root{
          --border-color: rgb(133, 167, 130);
          --back-color: rgb(194, 228, 191);
      }
      </style>
    <defs></defs>
    <path style="fill: var(--back-color);" d="M 159.596 270.494 L 159.253 265.686 L 156.391 259.217 L 152.784 254.123 L 148.147 249.257 L 145.8 245.67 L 144.827 239.43 L 145.285 235.423 L 147.06 231.473 L 150.094 228.21 L 153.185 225.692 L 156.906 224.604 L 159.653 224.318 L 159.711 235.423 L 158.28 235.652 L 156.906 236.74 L 155.704 238.915 L 155.875 240.918 L 157.02 242.75 L 159.138 243.895 L 161.314 243.838 L 162.974 242.693 L 164.233 241.033 L 164.405 239.144 L 163.889 237.598 L 162.516 235.995 L 159.597 235.422 L 159.482 224.261 L 160.684 224.089 L 162.573 224.26 L 164.519 224.833 L 167.61 226.264 L 170.358 228.039 L 173.048 231.359 L 174.594 234.507 L 175.395 236.511 L 175.682 239.945 L 175.338 243.265 L 174.136 246.528 L 172.304 249.276 L 170.587 250.821 L 168.87 252.367 L 167.152 254.371 L 165.55 256.031 L 163.775 258.607 L 162.058 261.698 L 160.913 264.102 L 160.283 267.823 L 159.596 270.494 Z"></path>
    <circle style="stroke: var(--border-color); fill: none;" cx="160.068" cy="239.598" r="4.299"></circle>
    <path style="stroke: var(--border-color); fill: none;" d="M 170.585 251.013 C 170.585 251.013 160.302 258.562 159.741 270.785 M 149.711 250.994 C 149.711 250.994 159.236 258.599 159.796 270.823 M 170.498 251.077 C 179.267 243.114 176.129 228.645 164.848 225.03 C 153.563 221.417 142.606 231.375 145.115 242.948 C 145.808 246.141 147.498 249.03 149.939 251.194"></path>
    <path style="stroke: var(--border-color); fill: none;" d="M 142.916 228.35 L 111.605 228.35 L 111.605 218.88 C 111.605 218.88 102.613 217.901 102.613 223.343 L 102.613 276.974 C 102.613 276.974 102.613 279.942 106.817 281.178 L 171.523 281.178 L 171.523 255.785"></path>
    <path style="stroke: var(--border-color); fill: none;" d="M 102.703 277.073 C 102.835 277.205 101.973 272.87 105.77 271.715 L 111.512 271.616 L 111.594 228.331"></path>
    <path style="stroke: var(--border-color); fill: none;" d="M 116.27 234.435 L 126.163 242.184 L 126.163 256.776 L 115.667 256.776"></path>
    <path style="stroke: var(--border-color); fill: none;" d="M 124.431 232.703 L 129.421 237.693 L 138.365 237.693"></path>
    <path style="stroke: var(--border-color); fill: none;" d="M 139.765 243.502 L 131.439 243.502 L 131.439 256.941 L 147.844 256.941"></path>
    <path style="stroke: var(--border-color); fill: none;" d="M 151.059 261.475 L 147.534 261.475 L 154.687 277.056"></path>
    <path style="stroke: var(--border-color); fill: none;" d="M 149.823 277.303 L 142.569 262.135 L 131.274 262.135 L 131.274 277.554"></path>
    <path style="stroke: var(--border-color); fill: none;" d="M 126.328 277.55 L 126.328 262.124 L 115.768 262.124"></path>
  </svg>