<svg viewBox="133.49 272.492 75.423 66.579" xmlns="http://www.w3.org/2000/svg">
  <style>
    :root{
      --border-color: rgb(133, 167, 130);
      --back-color: rgb(194, 228, 191);
  }
  </style>
    <defs></defs>
    <g transform="matrix(0.922989, 0, 0, 0.922989, 12.878608, 23.888908)" style="">
      <path style="fill: var(--back-color);" d="M 169.998 306.845 L 169.744 303.286 L 167.626 298.497 L 164.956 294.726 L 161.523 291.124 L 159.785 288.468 L 159.065 283.849 L 159.404 280.882 L 160.718 277.958 L 162.964 275.543 L 165.252 273.679 L 168.007 272.873 L 170.041 272.661 L 170.084 280.882 L 169.024 281.052 L 168.007 281.857 L 167.117 283.468 L 167.244 284.95 L 168.091 286.307 L 169.659 287.154 L 171.27 287.112 L 172.499 286.264 L 173.431 285.035 L 173.558 283.637 L 173.176 282.493 L 172.16 281.306 L 169.999 280.882 L 169.914 272.619 L 170.804 272.492 L 172.202 272.619 L 173.643 273.043 L 175.931 274.102 L 177.965 275.416 L 179.957 277.874 L 181.101 280.204 L 181.694 281.688 L 181.907 284.23 L 181.652 286.688 L 180.762 289.103 L 179.406 291.138 L 178.135 292.281 L 176.864 293.426 L 175.592 294.909 L 174.406 296.138 L 173.092 298.045 L 171.821 300.334 L 170.973 302.113 L 170.507 304.868 L 169.998 306.845 Z"></path>
      <circle style="stroke: var(--border-color); fill: none;" cx="170.348" cy="283.973" r="3.183"></circle>
      <path style="stroke: var(--border-color); fill: none;" d="M 178.133 292.424 C 178.133 292.424 170.521 298.012 170.106 307.061 M 162.681 292.41 C 162.681 292.41 169.732 298.039 170.146 307.089 M 178.069 292.471 C 184.561 286.576 182.238 275.865 173.886 273.189 C 165.532 270.514 157.421 277.886 159.278 286.453 C 159.791 288.817 161.042 290.956 162.849 292.558"></path>
      <path style="stroke: var(--border-color); fill: none;" d="M 154.36 285.153 L 143.537 285.153 L 143.537 275.498 C 143.537 275.498 133.003 273.816 133.531 279.616 L 133.531 334.193 C 133.531 334.193 133.399 338.807 140.386 339.071 L 171.102 339.071"></path>
      <path style="stroke: var(--border-color); fill: none;" d="M 143.549 285.153 L 143.681 328.4 C 143.681 328.4 132.74 326.547 133.531 334.852"></path>
      <path style="stroke: var(--border-color); fill: none;" d="M 192.83 329.186 L 180.425 329.186 L 180.425 338.841 C 180.425 338.841 169.891 340.523 170.419 334.723 L 170.419 280.146 C 170.419 280.146 170.287 275.532 177.274 275.268 L 208.913 275.268" transform="matrix(-1, 0, 0, -1, 379.31279, 614.335663)"></path>
      <path style="stroke: var(--border-color); fill: none;" d="M 208.759 334.981 L 208.891 291.734 C 208.891 291.734 197.95 293.587 198.741 285.282" transform="matrix(-1, 0, 0, -1, 407.591095, 620.263)"></path>
      <path style="stroke: var(--border-color); fill: none;" d="M 153.372 293.182 L 153.372 315.602 L 148.706 315.602"></path>
      <path style="stroke: var(--border-color); fill: none;" d="M 158.438 298.679 L 158.438 315.711 L 181.289 315.711 L 181.289 296.847"></path>
      <path style="stroke: var(--border-color); fill: none;" d="M 192.499 291.026 L 186.508 297.017 L 186.508 315.927 L 194.143 315.927"></path>
      <path style="stroke: var(--border-color); fill: none;" d="M 194.547 320.883 L 186.564 320.883 L 186.564 333.07"></path>
      <path style="stroke: var(--border-color); fill: none;" d="M 180.858 333.171 L 180.858 320.429 L 166.495 320.429 L 154.433 332.491"></path>
      <path style="stroke: var(--border-color); fill: none;" d="M 147.444 332.308 L 158.718 321.034 L 148.402 321.034"></path>
    </g>
  </svg>