<svg viewBox="531.561 52.436 76.217 70.315" xmlns="http://www.w3.org/2000/svg">
  <style>
    :root{
      --border-color: rgb(133, 167, 130);
      --back-color: rgb(194, 228, 191);
  }
  </style>
  <defs></defs>
  <polyline style="stroke: var(--border-color); fill: none;" points="591.206 116.923 591.206 121.084 570.922 112.682 551.686 120.65 533.367 113.062 533.367 54.102 552.642 62.086 570.971 54.494 590.729 62.678 590.729 65.802"></polyline>
  <polyline style="fill: rgb(216, 216, 216); stroke: var(--border-color);" points="571.221 54.374 571.221 113.03"></polyline>
  <polyline style="fill: rgb(216, 216, 216); stroke: var(--border-color);" points="552.794 62.16 552.794 120.299"></polyline>
  <path style="fill: var(--back-color);" d="M 591.043 114.719 L 590.7 109.911 L 587.838 103.442 L 584.231 98.348 L 579.594 93.482 L 577.247 89.895 L 576.274 83.655 L 576.732 79.648 L 578.507 75.698 L 581.541 72.435 L 584.632 69.917 L 588.353 68.829 L 591.1 68.543 L 591.158 79.648 L 589.727 79.877 L 588.353 80.965 L 587.151 83.14 L 587.322 85.143 L 588.467 86.975 L 590.585 88.12 L 592.761 88.063 L 594.421 86.918 L 595.68 85.258 L 595.852 83.369 L 595.336 81.823 L 593.963 80.22 L 591.044 79.647 L 590.929 68.486 L 592.131 68.314 L 594.02 68.485 L 595.966 69.058 L 599.057 70.489 L 601.805 72.264 L 604.495 75.584 L 606.041 78.732 L 606.842 80.736 L 607.129 84.17 L 606.785 87.49 L 605.583 90.753 L 603.751 93.501 L 602.034 95.046 L 600.317 96.592 L 598.599 98.596 L 596.997 100.256 L 595.222 102.832 L 593.505 105.923 L 592.36 108.327 L 591.73 112.048 L 591.043 114.719 Z"></path>
  <circle style="stroke: var(--border-color); fill: none;" cx="591.515" cy="83.823" r="4.299"></circle>
  <path style="stroke: var(--border-color); fill: none;" d="M 602.032 95.238 C 602.032 95.238 591.749 102.787 591.188 115.01 M 581.158 95.219 C 581.158 95.219 590.683 102.824 591.243 115.048 M 601.945 95.302 C 610.714 87.339 607.576 72.87 596.295 69.255 C 585.01 65.642 574.053 75.6 576.562 87.173 C 577.255 90.366 578.945 93.255 581.386 95.419"></path>
</svg>