<svg viewBox="413.306 56.668 76.46 60.183" xmlns="http://www.w3.org/2000/svg">
  <style>
    :root{
      --border-color: rgb(133, 167, 130);
      --back-color: rgb(194, 228, 191);
  }
  </style>
  <defs></defs>
  <path style="fill: none; stroke: var(--border-color);" d="M 435.962 92.039 C 435.962 92.039 432.88 92.698 433.192 94.976 C 433.505 97.254 437.501 97.68 439.469 97.66 C 440.743 97.646 445.602 97.514 446.053 94.932 C 446.504 92.351 443.425 92.259 443.425 92.259"></path>
  <line style="stroke: var(--border-color);" x1="424.937" y1="108.439" x2="436.062" y2="97.314"></line>
  <line style="stroke: var(--border-color);" x1="445.719" y1="93.01" x2="460.203" y2="85.978"></line>
  <line style="stroke: var(--border-color);" x1="469.02" y1="86.712" x2="478.676" y2="95.004"></line>
  <ellipse style="fill: none; stroke: var(--border-color);" cx="422.291" cy="111.438" rx="6.508" ry="3.463"></ellipse>
  <ellipse style="fill: none; stroke: var(--border-color);" cx="465.496" cy="83.874" rx="6.508" ry="3.463"></ellipse>
  <ellipse style="fill: none; stroke: var(--border-color);" cx="481.525" cy="97.962" rx="6.508" ry="3.463"></ellipse>
  <path style="fill: var(--back-color);" d="M 439.464 94.458 L 439.201 90.752 L 436.994 85.765 L 434.215 81.839 L 430.64 78.088 L 428.83 75.324 L 428.08 70.514 L 428.434 67.426 L 429.802 64.38 L 432.141 61.865 L 434.523 59.924 L 437.392 59.086 L 439.508 58.865 L 439.553 67.426 L 438.45 67.601 L 437.392 68.441 L 436.464 70.116 L 436.597 71.661 L 437.479 73.073 L 439.112 73.955 L 440.789 73.911 L 442.068 73.029 L 443.039 71.749 L 443.172 70.293 L 442.774 69.102 L 441.715 67.866 L 439.465 67.424 L 439.378 58.821 L 440.304 58.688 L 441.76 58.82 L 443.259 59.263 L 445.643 60.365 L 447.761 61.733 L 449.835 64.292 L 451.026 66.719 L 451.644 68.264 L 451.864 70.91 L 451.599 73.47 L 450.672 75.985 L 449.259 78.103 L 447.937 79.294 L 446.614 80.486 L 445.289 82.03 L 444.054 83.309 L 442.686 85.295 L 441.362 87.678 L 440.48 89.531 L 439.994 92.4 L 439.464 94.458 Z"></path>
  <circle style="stroke: var(--border-color); fill: none;" cx="439.828" cy="70.643" r="3.314"></circle>
  <path style="stroke: var(--border-color); fill: none;" d="M 447.936 79.443 C 447.936 79.443 440.009 85.261 439.576 94.683 M 431.846 79.428 C 431.846 79.428 439.187 85.289 439.619 94.712 M 447.868 79.491 C 454.627 73.354 452.209 62.2 443.513 59.413 C 434.814 56.629 426.368 64.304 428.303 73.225 C 428.836 75.687 430.139 77.914 432.021 79.581"></path>
</svg>