<svg viewBox="-104.996 377.671 82.951 77.614" xmlns="http://www.w3.org/2000/svg">
  <style>
    :root{
      --border-color: rgb(133, 167, 130);
      --back-color: rgb(194, 228, 191);
  }
  </style>
  <defs></defs>
  <path style="fill: var(--back-color); stroke-miterlimit: 3; stroke-linejoin: round; stroke-linecap: round;" d="M -67.468 389.344 C -63.127 389.064 -69.259 383.359 -69.259 383.359 L -77.673 385.435 L -82.311 387.121 L -86.669 389.511 L -90.323 392.744 L -94.258 397.243 L -97.351 401.459 L -99.599 407.643 L -101.005 414.249 L -101.005 420.012 L -100.161 426.056 L -98.525 429.432 C -98.525 429.432 -93.065 430.131 -91.104 427.891 C -89.143 425.65 -91.383 422.569 -90.403 420.329 C -89.424 418.089 -86.763 414.028 -83.261 415.707 C -79.76 417.387 -78.641 416.547 -78.78 421.589 C -78.92 426.631 -79.481 426.771 -78.08 427.751 C -76.68 428.731 -73.039 428.591 -69.817 429.012 C -66.595 429.433 -63.795 432.932 -63.795 432.932 C -63.795 432.932 -64.776 425.09 -66.596 423.69 C -68.418 422.289 -69.677 421.03 -69.397 419.908 C -69.118 418.788 -67.577 414.306 -65.757 414.447 C -63.937 414.589 -60.435 416.689 -58.614 415.707 C -56.794 414.726 -53.852 417.388 -53.852 412.347 C -53.852 407.306 -57.214 409.265 -59.594 406.324 C -61.975 403.383 -63.377 406.745 -63.656 404.644 C -63.935 402.544 -64.076 400.722 -61.695 400.024 C -59.313 399.324 -65.601 399.534 -64.06 395.472 C -62.521 391.411 -71.809 389.624 -67.468 389.344 Z"></path>
  <path style="fill: none; stroke-miterlimit: 3; stroke-linejoin: round; stroke: var(--border-color); stroke-linecap: round;" d="M -98.539 429.422 C -98.539 429.422 -93.078 430.123 -91.117 427.882 C -89.155 425.641 -91.397 422.561 -90.417 420.32 C -89.436 418.079 -86.775 414.018 -83.275 415.698 C -79.773 417.378 -78.653 416.538 -78.793 421.58 C -78.933 426.621 -79.493 426.762 -78.094 427.742 C -76.692 428.722 -73.052 428.582 -69.83 429.002 C -66.609 429.423 -63.809 432.924 -63.809 432.924 C -63.809 432.924 -64.788 425.081 -66.61 423.68 C -68.43 422.28 -69.691 421.02 -69.411 419.9 C -69.131 418.779 -67.589 414.298 -65.769 414.439 C -63.95 414.58 -60.447 416.679 -58.628 415.698 C -56.808 414.717 -53.866 417.38 -53.866 412.339 C -53.866 407.296 -57.227 409.256 -59.607 406.316 C -61.988 403.375 -63.389 406.737 -63.669 404.635 C -63.949 402.535 -64.09 400.714 -61.708 400.014 C -59.326 399.316 -65.484 399.395 -63.945 395.333 C -62.405 391.272 -71.729 389.622 -67.35 389.335 C -62.972 389.047 -67.248 385.063 -67.931 384.386 C -68.616 383.71 -68.771 384.136 -68.771 384.136"></path>
  <path style="stroke-miterlimit: 3; stroke-linejoin: round; stroke: var(--border-color); fill: var(--back-color); stroke-linecap: round;" d="M -61.148 446.927 C -62.29 448.045 -59.525 449.346 -60.908 449.997 C -62.29 450.647 -62.288 450.648 -64.811 447.72 C -67.333 444.79 -67.578 445.035 -68.635 444.71 C -69.692 444.384 -71.319 442.84 -71.075 439.992 C -70.831 437.144 -72.051 436.251 -73.352 435.681 C -74.654 435.112 -77.663 437.389 -77.663 437.389 C -77.663 437.389 -76.769 442.839 -79.86 444.059 C -82.95 445.279 -87.749 442.188 -87.749 442.188 C -87.749 442.188 -95.641 437.727 -88.653 443.651 C -81.665 449.576 -68.076 454.238 -54.979 449.021 C -41.882 443.803 -35.945 430.882 -36.352 430.556 C -36.758 430.231 -40.563 431.523 -40.563 431.523 C -40.563 431.523 -47.004 433.623 -48.124 432.223 C -49.243 430.822 -52.045 427.602 -52.185 429.142 C -52.325 430.682 -54.426 431.662 -51.346 434.603 C -48.265 437.544 -51.206 438.526 -51.346 438.526 C -51.486 438.526 -54.707 437.404 -55.687 440.065 C -56.667 442.727 -54.565 446.368 -56.807 446.927 C -59.047 447.488 -61.148 446.927 -61.148 446.927 Z"></path>
  <path style="fill: var(--back-color); stroke-linecap: round;" d="M -41.822 427.55 L -42.165 422.746 L -45.024 416.28 L -48.63 411.188 L -53.265 406.326 L -55.61 402.741 L -56.581 396.506 L -56.124 392.5 L -54.351 388.552 L -51.32 385.29 L -48.229 382.774 L -44.51 381.685 L -41.764 381.402 L -41.707 392.5 L -43.136 392.73 L -44.51 393.817 L -45.713 395.99 L -45.54 397.992 L -44.395 399.822 L -42.28 400.967 L -40.105 400.909 L -38.444 399.765 L -37.187 398.107 L -37.015 396.219 L -37.532 394.672 L -38.904 393.071 L -41.822 392.498 L -41.937 381.345 L -40.735 381.172 L -38.845 381.345 L -36.9 381.915 L -33.813 383.347 L -31.065 385.12 L -28.378 388.437 L -26.832 391.584 L -26.032 393.587 L -25.746 397.019 L -26.089 400.336 L -27.291 403.598 L -29.122 406.344 L -30.837 407.888 L -32.554 409.435 L -34.27 411.438 L -35.871 413.095 L -37.644 415.67 L -39.36 418.76 L -40.505 421.161 L -41.136 424.881 L -41.822 427.55 Z"></path>
  <circle style="stroke: var(--border-color); fill: none; stroke-linecap: round;" cx="-41.35" cy="396.673" r="4.297"></circle>
  <path style="stroke: var(--border-color); fill: none; stroke-linecap: round;" d="M -30.84 408.081 C -30.84 408.081 -41.116 415.625 -41.677 427.842 M -51.701 408.062 C -51.701 408.062 -42.182 415.663 -41.622 427.879 M -30.927 408.146 C -22.163 400.186 -25.3 385.724 -36.574 382.112 C -47.851 378.503 -58.803 388.454 -56.294 400.02 C -55.602 403.213 -53.914 406.099 -51.473 408.262"></path>
  <path style="fill: none; stroke: var(--border-color); stroke-linecap: round;" d="M -67.358 451.396 C -41.343 451.396 -25.086 423.228 -38.095 400.699 C -51.107 378.171 -83.626 378.176 -96.632 400.705 C -100.226 406.932 -101.739 414.138 -100.954 421.281" transform="matrix(-0.966143, -0.258006, 0.258006, -0.966143, -240.135746, 803.689924)"></path>
</svg>