<svg viewBox="470.915 431.552 48.238 60.965" xmlns="http://www.w3.org/2000/svg">
    <style>
        :root{
          --border-color: rgb(133, 167, 130);
          --back-color: rgb(194, 228, 191);
      }
      </style>
    <defs></defs>
    <path style="fill:  var(--back-color);" d="M 478.789 463.193 L 472.021 451.288 L 492.896 438.893 L 496.158 440.687 L 496.24 436.854 L 502.6 433.348 L 505.046 437.344 L 503.171 439.138 L 501.785 439.463 L 502.029 441.991 L 501.295 444.03 L 498.604 444.193 L 497.789 446.558 L 496.077 447.699 L 496.729 449.983 L 495.669 451.858 L 492.896 452.021 L 492.325 451.777 L 490.695 453.244 L 489.145 453.897 L 488.656 455.773 L 487.433 456.67 L 486.21 457.241 L 483.926 453.897 L 483.274 455.447 L 481.643 456.588 L 480.338 456.67 L 481.806 459.116 L 482.214 461.562 L 481.48 463.193 L 478.789 463.193 Z"></path>
    <path style="stroke:  var(--border-color); fill: none;" d="M 478.381 463.03 C 478.381 463.03 482.458 464.335 482.214 460.91 C 481.969 457.485 479.605 456.425 479.605 456.425 C 479.605 456.425 483.844 456.996 483.437 454.387 C 483.029 451.777 486.373 457.323 486.373 457.323 C 486.373 457.323 490.776 455.61 487.922 452.837 C 485.068 450.064 488.901 453.979 488.901 453.979 C 488.901 453.979 493.223 452.593 492.163 450.798 C 491.102 449.004 492.815 451.94 492.815 451.94 C 492.815 451.94 500.399 453.571 494.119 445.172 C 487.84 436.773 495.832 447.618 495.832 447.618 C 495.832 447.618 499.501 446.476 498.115 442.889 C 496.729 439.301 498.604 443.867 498.604 443.867 C 498.604 443.867 501.214 444.683 501.458 443.704 C 501.702 442.726 503.09 441.176 500.724 438.077 C 498.359 434.979 501.622 439.708 501.622 439.708 C 501.622 439.708 506.107 438.404 504.639 436.365 C 503.171 434.327 502.6 433.022 502.6 433.022 L 496.077 436.528 L 495.995 440.605 L 492.896 438.73 L 471.858 450.962 L 483.274 472 C 483.274 472 489.227 481.541 499.256 475.996 C 509.286 470.451 509.776 469.636 509.776 469.636 C 509.776 469.636 520.376 463.519 514.831 453.897 C 509.286 444.275 502.682 433.022 502.682 433.022"></path>
    <path style="stroke:  var(--border-color); fill: none;" d="M 499.501 475.914 L 501.54 478.85 L 511.896 472.653 L 509.939 469.799 L 511.977 472.897 L 510.184 473.876 L 517.767 483.417 C 517.767 483.417 519.888 487.575 516.054 490.593 C 512.221 493.611 508.145 489.94 508.145 489.94 L 503.09 478.442"></path>
    <path style="stroke:  var(--border-color); fill: none;" d="M 510.673 487.086 C 510.529 486.255 510.156 485.153 510.754 484.558 C 511.467 483.848 512.943 483.906 513.772 484.476 C 514.58 485.031 514.967 486.293 514.75 487.249 C 514.665 487.624 514.288 487.913 513.935 488.065 C 513.062 488.439 511.879 488.659 511.087 488.134 C 510.774 487.927 510.737 487.456 510.673 487.086 Z"></path>
    <line style="stroke:  var(--border-color);" x1="514.587" y1="453.671" x2="483.355" y2="472.018"></line>
    <line style="stroke:  var(--border-color);" x1="511.651" y1="448.615" x2="480.664" y2="466.555"></line>
  </svg>