<svg viewBox="56.392 67.773 707.707 427.807" width="707.707" height="427.807" xmlns="http://www.w3.org/2000/svg" xmlns:bx="https://boxy-svg.com">
  <defs>
    <style>
    :root{
      --border-color: rgba(133, 167, 130, 0.5);
      --back-color: rgba(194, 228, 191, 0.5);
  }
  </style>
  </defs>
  <path style="fill: rgb(243, 243, 243);" transform="matrix(0.284262, -0.164119, 0.164119, 0.284262, 60.407215, 103.567688)" d="M 258.4 418.4 A 97.613 97.613 0 0 1 356 319.187 L 356 416.8 Z" bx:shape="pie 356 416.8 0 97.613 269.061 360 1@043a564a"></path>
  <path style="fill: none; stroke-width: 2.1326px; stroke: rgb(164, 164, 164);" transform="matrix(0.284262, -0.164119, 0.164119, 0.284262, 63.925121, 103.120026)" d="M 258.4 418.4 A 97.613 97.613 0 0 1 356 319.187 L 356 416.8 Z" bx:shape="pie 356 416.8 0 97.613 269.061 360 1@043a564a"></path>
  <path style="fill: rgb(243, 243, 243);" transform="matrix(-0.256312, 0.480584, -0.480584, -0.256312, 922.258179, -84.283203)" d="M 693.761 256 L 706.239 256 L 708.873 275.06 A 33.15 33.15 0 0 1 716.311 278.141 L 731.651 266.526 L 740.474 275.349 L 728.859 290.689 A 33.15 33.15 0 0 1 731.94 298.127 L 751 300.761 L 751 313.239 L 731.94 315.873 A 33.15 33.15 0 0 1 728.859 323.311 L 740.474 338.651 L 731.651 347.474 L 716.311 335.859 A 33.15 33.15 0 0 1 708.873 338.94 L 706.239 358 L 693.761 358 L 691.127 338.94 A 33.15 33.15 0 0 1 683.689 335.859 L 668.349 347.474 L 659.526 338.651 L 671.141 323.311 A 33.15 33.15 0 0 1 668.06 315.873 L 649 313.239 L 649 300.761 L 668.06 298.127 A 33.15 33.15 0 0 1 671.141 290.689 L 659.526 275.349 L 668.349 266.526 L 683.689 278.141 A 33.15 33.15 0 0 1 691.127 275.06 Z M 700 291.7 A 15.3 15.3 0 0 0 700 322.3 A 15.3 15.3 0 0 0 700 291.7" bx:shape="cog 700 307 15.3 33.15 51 0.38 8 1@64fb5628"></path>
  <path style="fill: none; stroke-width: 1.2852px; stroke: rgb(164, 164, 164);" transform="matrix(-0.256312, 0.480584, -0.480584, -0.256312, 918.74823, -82.104172)" d="M 693.761 256 L 706.239 256 L 708.873 275.06 A 33.15 33.15 0 0 1 716.311 278.141 L 731.651 266.526 L 740.474 275.349 L 728.859 290.689 A 33.15 33.15 0 0 1 731.94 298.127 L 751 300.761 L 751 313.239 L 731.94 315.873 A 33.15 33.15 0 0 1 728.859 323.311 L 740.474 338.651 L 731.651 347.474 L 716.311 335.859 A 33.15 33.15 0 0 1 708.873 338.94 L 706.239 358 L 693.761 358 L 691.127 338.94 A 33.15 33.15 0 0 1 683.689 335.859 L 668.349 347.474 L 659.526 338.651 L 671.141 323.311 A 33.15 33.15 0 0 1 668.06 315.873 L 649 313.239 L 649 300.761 L 668.06 298.127 A 33.15 33.15 0 0 1 671.141 290.689 L 659.526 275.349 L 668.349 266.526 L 683.689 278.141 A 33.15 33.15 0 0 1 691.127 275.06 Z M 700 291.7 A 15.3 15.3 0 0 0 700 322.3 A 15.3 15.3 0 0 0 700 291.7" bx:shape="cog 700 307 15.3 33.15 51 0.38 8 1@64fb5628"></path>
  <path d="M 652 430 m -20.668 0 a 20.668 20.668 0 1 0 41.336 0 a 20.668 20.668 0 1 0 -41.336 0 Z M 652 430 m -12.401 0 a 12.401 12.401 0 0 1 24.802 0 a 12.401 12.401 0 0 1 -24.802 0 Z" style="fill: var(--back-color);" transform="matrix(-0.316228, 0.948683, -0.948683, -0.316228, 1107.866211, -95.920685)" bx:shape="ring 652 430 12.401 12.401 20.668 20.668 1@e0c6f3c7"></path>
  <path d="M 652 430 m -20.668 0 a 20.668 20.668 0 1 0 41.336 0 a 20.668 20.668 0 1 0 -41.336 0 Z M 652 430 m -12.401 0 a 12.401 12.401 0 0 1 24.802 0 a 12.401 12.401 0 0 1 -24.802 0 Z" style="fill: none; stroke: var(--border-color);" transform="matrix(-0.316228, 0.948683, -0.948683, -0.316228, 1104.763916, -97.540344)" bx:shape="ring 652 430 12.401 12.401 20.668 20.668 1@e0c6f3c7"></path>
  <path d="M 148.364 235.827 H 158.826 V 256.751 H 179.75 V 267.213 H 158.826 V 288.137 H 148.364 V 267.213 H 127.44 V 256.751 H 148.364 Z" style="fill: rgb(243, 243, 243);" transform="matrix(0.853796, -0.520607, 0.520607, 0.853796, 82.794884, -39.99572)" bx:shape="cross 127.44 235.827 52.31 52.31 10.462 10.462 0.5 1@da7e20e1"></path>
  <path style="fill: rgb(243, 243, 243);" transform="matrix(-0.828275, 0.560321, -0.560321, -0.828275, 725.265137, 822.665405)" d="M 276.92 644.292 A 33.056 33.056 0 1 1 276.92 671.708 A 24.178 24.178 0 1 0 276.92 644.292 Z" bx:shape="crescent 307 658 33.056 311 0.712 1@bb83145a"></path>
  <path style="fill: none; stroke-width: 0.7px; stroke: rgb(164, 164, 164);" transform="matrix(-0.828275, 0.560321, -0.560321, -0.828275, 729.473633, 819.426208)" d="M 276.92 644.292 A 33.056 33.056 0 1 1 276.92 671.708 A 24.178 24.178 0 1 0 276.92 644.292 Z" bx:shape="crescent 307 658 33.056 311 0.712 1@bb83145a"></path>
  <path d="M 652 430 m -38.598 0 a 38.598 38.598 0 1 0 77.196 0 a 38.598 38.598 0 1 0 -77.196 0 Z M 652 430 m -23.159 0 a 23.159 23.159 0 0 1 46.318 0 a 23.159 23.159 0 0 1 -46.318 0 Z" style="fill: var(--back-color);" transform="matrix(-0.316228, 0.948683, -0.948683, -0.316228, 850.927917, -126.221008)" bx:shape="ring 652 430 23.159 23.159 38.598 38.598 1@188bc576"></path>
  <path d="M 652 430 m -38.598 0 a 38.598 38.598 0 1 0 77.196 0 a 38.598 38.598 0 1 0 -77.196 0 Z M 652 430 m -23.159 0 a 23.159 23.159 0 0 1 46.318 0 a 23.159 23.159 0 0 1 -46.318 0 Z" style="fill: none; stroke: var(--border-color);" transform="matrix(-0.316228, 0.948683, -0.948683, -0.316228, 845.134644, -129.245728)" bx:shape="ring 652 430 23.159 23.159 38.598 38.598 1@188bc576"></path>
  <path d="M 148.364 235.827 H 158.826 V 256.751 H 179.75 V 267.213 H 158.826 V 288.137 H 148.364 V 267.213 H 127.44 V 256.751 H 148.364 Z" style="fill: none; stroke-width: 0.7px; stroke: rgb(164, 164, 164);" transform="matrix(0.853796, -0.520607, 0.520607, 0.853796, 84.78643, -37.545635)" bx:shape="cross 127.44 235.827 52.31 52.31 10.462 10.462 0.5 1@da7e20e1"></path>
  <path d="M 76.949 122.312 H 82.375 V 133.164 H 93.228 V 138.59 H 82.375 V 149.443 H 76.949 V 138.59 H 66.097 V 133.164 H 76.949 Z" style="fill: rgb(243, 243, 243);" transform="matrix(0.2356, -0.97185, 0.97185, 0.2356, 439.619629, 386.097168)" bx:shape="cross 66.097 122.312 27.131 27.131 5.426 5.426 0.5 1@49ef7651"></path>
  <path d="M 76.949 122.312 H 82.375 V 133.164 H 93.228 V 138.59 H 82.375 V 149.443 H 76.949 V 138.59 H 66.097 V 133.164 H 76.949 Z" style="fill: none; stroke-width: 0.7px; stroke: rgb(164, 164, 164);" transform="matrix(0.2356, -0.97185, 0.97185, 0.2356, 436.713043, 385.972443)" bx:shape="cross 66.097 122.312 27.131 27.131 5.426 5.426 0.5 1@49ef7651"></path>
  <rect x="644.075" y="262.15" width="56.645" height="9.259" style="fill: rgb(243, 243, 243);"></rect>
  <rect x="646.708" y="259.7" width="56.645" height="9.259" style="fill: none; stroke-width: 0.7px; stroke: rgb(164, 164, 164);"></rect>
  <path d="M 652 430 m -11.846 0 a 11.846 11.846 0 1 0 23.692 0 a 11.846 11.846 0 1 0 -23.692 0 Z M 652 430 m -7.108 0 a 7.108 7.108 0 0 1 14.216 0 a 7.108 7.108 0 0 1 -14.216 0 Z" style="fill: var(--back-color);" transform="matrix(0.20048, 0.979698, -0.979698, 0.20048, 776.50116, -567.71991)" bx:shape="ring 652 430 7.108 7.108 11.846 11.846 1@85ffa227"></path>
  <path d="M 652 430 m -11.846 0 a 11.846 11.846 0 1 0 23.692 0 a 11.846 11.846 0 1 0 -23.692 0 Z M 652 430 m -7.108 0 a 7.108 7.108 0 0 1 14.216 0 a 7.108 7.108 0 0 1 -14.216 0 Z" style="fill: none; stroke: var(--border-color);" transform="matrix(0.20048, 0.979698, -0.979698, 0.20048, 774.497131, -567.634827)" bx:shape="ring 652 430 7.108 7.108 11.846 11.846 1@85ffa227"></path>
  <path style="fill: rgb(243, 243, 243);" transform="matrix(0.28566, -0.177998, 0.177998, 0.28566, -6.866025, 282.052917)" d="M 693.761 256 L 706.239 256 L 708.873 275.06 A 33.15 33.15 0 0 1 716.311 278.141 L 731.651 266.526 L 740.474 275.349 L 728.859 290.689 A 33.15 33.15 0 0 1 731.94 298.127 L 751 300.761 L 751 313.239 L 731.94 315.873 A 33.15 33.15 0 0 1 728.859 323.311 L 740.474 338.651 L 731.651 347.474 L 716.311 335.859 A 33.15 33.15 0 0 1 708.873 338.94 L 706.239 358 L 693.761 358 L 691.127 338.94 A 33.15 33.15 0 0 1 683.689 335.859 L 668.349 347.474 L 659.526 338.651 L 671.141 323.311 A 33.15 33.15 0 0 1 668.06 315.873 L 649 313.239 L 649 300.761 L 668.06 298.127 A 33.15 33.15 0 0 1 671.141 290.689 L 659.526 275.349 L 668.349 266.526 L 683.689 278.141 A 33.15 33.15 0 0 1 691.127 275.06 Z M 700 291.7 A 15.3 15.3 0 0 0 700 322.3 A 15.3 15.3 0 0 0 700 291.7" bx:shape="cog 700 307 15.3 33.15 51 0.38 8 1@64fb5628"></path>
  <path style="fill: none; stroke-width: 2.07975px; stroke: rgb(164, 164, 164);" transform="matrix(0.28566, -0.177998, 0.177998, 0.28566, -4.314344, 281.971283)" d="M 693.761 256 L 706.239 256 L 708.873 275.06 A 33.15 33.15 0 0 1 716.311 278.141 L 731.651 266.526 L 740.474 275.349 L 728.859 290.689 A 33.15 33.15 0 0 1 731.94 298.127 L 751 300.761 L 751 313.239 L 731.94 315.873 A 33.15 33.15 0 0 1 728.859 323.311 L 740.474 338.651 L 731.651 347.474 L 716.311 335.859 A 33.15 33.15 0 0 1 708.873 338.94 L 706.239 358 L 693.761 358 L 691.127 338.94 A 33.15 33.15 0 0 1 683.689 335.859 L 668.349 347.474 L 659.526 338.651 L 671.141 323.311 A 33.15 33.15 0 0 1 668.06 315.873 L 649 313.239 L 649 300.761 L 668.06 298.127 A 33.15 33.15 0 0 1 671.141 290.689 L 659.526 275.349 L 668.349 266.526 L 683.689 278.141 A 33.15 33.15 0 0 1 691.127 275.06 Z M 700 291.7 A 15.3 15.3 0 0 0 700 322.3 A 15.3 15.3 0 0 0 700 291.7" bx:shape="cog 700 307 15.3 33.15 51 0.38 8 1@64fb5628"></path>
  <path style="fill: rgb(243, 243, 243);" transform="matrix(0.41525, 0, 0, 0.41525, 61.728382, 288.270905)" d="M 1625.333 337.333 A 57.442 57.442 0 1 1 1572 301.225 L 1572 358.667 Z" bx:shape="pie 1572 358.667 0 57.442 68.199 360 1@75f26964"></path>
  <rect x="344.681" y="209.328" width="30.013" height="4.087" style="fill: rgb(243, 243, 243);" transform="matrix(-0.5, -0.866025, 0.866025, -0.5, 568.987854, 508.960907)"></rect>
  <rect x="346.076" y="208.246" width="30.013" height="4.087" style="fill: none; stroke-width: 0.7px; stroke: rgb(164, 164, 164);" transform="matrix(-0.5, -0.866025, 0.866025, -0.5, 568.987854, 508.960907)"></rect>
  <path style="fill: none; stroke-width: 1.68573px; stroke: rgb(164, 164, 164);" transform="matrix(0.41525, 0, 0, 0.41525, 58.130219, 286.056213)" d="M 1625.333 337.333 A 57.442 57.442 0 1 1 1572 301.225 L 1572 358.667 Z" bx:shape="pie 1572 358.667 0 57.442 68.199 360 1@75f26964"></path>
  <path d="M 652 430 m -38.598 0 a 38.598 38.598 0 1 0 77.196 0 a 38.598 38.598 0 1 0 -77.196 0 Z M 652 430 m -31.038 0 a 31.038 31.038 0 0 1 62.076 0 a 31.038 31.038 0 0 1 -62.076 0 Z" style="fill: var(--back-color);" transform="matrix(-0.316228, 0.948683, -0.948683, -0.316228, 1329.390625, -322.891785)" bx:shape="ring 652 430 31.038 31.038 38.598 38.598 1@1db7ae25"></path>
  <path d="M 652 430 m -38.598 0 a 38.598 38.598 0 1 0 77.196 0 a 38.598 38.598 0 1 0 -77.196 0 Z M 652 430 m -29.637 0 a 29.637 29.637 0 0 1 59.274 0 a 29.637 29.637 0 0 1 -59.274 0 Z" style="fill: none; stroke: var(--border-color);" transform="matrix(-0.316228, 0.948683, -0.948683, -0.316228, 1325.598145, -323.917053)" bx:shape="ring 652 430 29.637 29.637 38.598 38.598 1@e2d887c3"></path>
  <path d="M 125.865 200.064 H 134.74 V 217.815 H 152.492 V 226.69 H 134.74 V 244.442 H 125.865 V 226.69 H 108.114 V 217.815 H 125.865 Z" style="fill: rgb(243, 243, 243);" transform="matrix(0.877757, 0.479105, -0.479105, 0.877757, 108.198746, -3.226065)" bx:shape="cross 108.114 200.064 44.378 44.378 8.875 8.875 0.5 1@6493417d"></path>
  <path d="M 125.865 200.064 H 134.74 V 217.815 H 152.492 V 226.69 H 134.74 V 244.442 H 125.865 V 226.69 H 108.114 V 217.815 H 125.865 Z" style="fill: none; stroke-width: 0.7px; stroke: rgb(164, 164, 164);" transform="matrix(0.877757, 0.479105, -0.479105, 0.877757, 109.626297, -7.765537)" bx:shape="cross 108.114 200.064 44.378 44.378 8.875 8.875 0.5 1@6493417d"></path>
  <rect x="558.161" y="338.976" width="48.602" height="6.618" style="fill: rgb(243, 243, 243);" transform="matrix(0.5, -0.866025, 0.866025, 0.5, -490.895203, 455.610565)"></rect>
  <rect x="560.42" y="337.224" width="48.602" height="6.618" style="fill: none; stroke-width: 0.7px; stroke: rgb(164, 164, 164);" transform="matrix(0.5, -0.866025, 0.866025, 0.5, -490.895203, 455.610565)"></rect>
</svg>