<?xml version="1.0" standalone="no"?>
<svg viewBox="0 0 200 200" xmlns="http://www.w3.org/2000/svg">
  <path fill="rgb(194, 228, 191)" d="M21.5,-36.8C26.3,-34.5,27.5,-25.6,32.5,-18.3C37.4,-11.1,46.1,-5.5,51,2.9C56,11.2,57.2,22.5,50.2,26.1C43.1,29.7,27.9,25.8,18.1,36.5C8.4,47.2,4.2,72.6,-5.9,82.8C-15.9,92.9,-31.9,87.9,-42.4,77.6C-52.9,67.4,-58,51.9,-52.9,38.1C-47.8,24.3,-32.6,12.1,-32.8,-0.1C-33,-12.4,-48.7,-24.7,-52,-35.5C-55.3,-46.2,-46.2,-55.3,-35.5,-54.2C-24.8,-53.1,-12.4,-41.8,-2,-38.3C8.4,-34.8,16.7,-39.1,21.5,-36.8Z" transform="translate(100 100)" />
</svg>
