<svg height="24px" viewBox="0 0 24 24" width="24px" fill="#00cba9" xmlns="http://www.w3.org/2000/svg">
	<defs></defs>
	<path d="M0 0h24v24H0V0z" fill="none"></path>
	<path style="fill: rgb(100, 100, 100);" d="M 10.86 6.116 L 13.202 6.116 L 13.202 8.456 L 10.86 8.456 Z M 10.86 10.798 L 13.202 10.798 L 13.202 17.823 L 10.86 17.823 Z M 12.031 0.262 C 5.569 0.262 0.324 5.506 0.324 11.969 C 0.324 18.431 5.569 23.676 12.031 23.676 C 18.494 23.676 23.738 18.431 23.738 11.969 C 23.738 5.506 18.494 0.262 12.031 0.262 Z M 12.031 21.334 C 6.869 21.334 2.666 17.131 2.666 11.969 C 2.666 6.806 6.869 2.604 12.031 2.604 C 17.194 2.604 21.396 6.806 21.396 11.969 C 21.396 17.131 17.194 21.334 12.031 21.334 Z"></path>
  </svg>