<?xml version="1.0" standalone="no"?>
<svg viewBox="0 0 200 200" xmlns="http://www.w3.org/2000/svg">
  <path fill="#FF0066" d="M21.9,-44.6C30,-33.4,39.1,-30.6,41.8,-24.6C44.6,-18.5,41,-9.3,33.3,-4.4C25.6,0.4,13.8,0.8,10.6,6C7.4,11.3,12.8,21.5,12.5,30.7C12.2,39.9,6.1,48.3,0.9,46.8C-4.4,45.3,-8.7,34,-19.9,31C-31.1,28,-49,33.3,-56,29.5C-63,25.8,-59,12.9,-61.4,-1.4C-63.9,-15.7,-72.7,-31.4,-64.5,-33.1C-56.3,-34.8,-31.1,-22.6,-17.6,-30.6C-4,-38.7,-2,-67.1,2.5,-71.4C7,-75.7,13.9,-55.9,21.9,-44.6Z" transform="translate(100 100)" />
</svg>
