<svg viewBox="219.285 176.98 77.513 77.513" width="100" height="100" xmlns="http://www.w3.org/2000/svg">
    <defs></defs>
    <style>
      .load{
        animation-name:load;
        animation-duration: 2s;
        animation-timing-function: ease-in-out;
        animation-iteration-count: infinite;
        stroke: rgb(200, 200, 200); 
        stroke-width: 8.67466px; 
        stroke-dasharray: 5px; 
        fill: transparent;
    }
      
    @keyframes load {
        25% {transform: rotate(180deg); opacity: 0}
        50% {transform: rotate(-180deg);opacity: 0}
      }
    </style>
    <g transform="matrix(0.29981, 0, 0, 0.29981, 257.763245, 215.569366)" style="">
      <path class="load" d="M-84.1487,-15.8513 a22.4171,22.4171 0 1 0 0,31.7026 h168.2974 a22.4171,22.4171 0 1 0 0,-31.7026 Z"></path>
      <path class="load" d="M-84.1487,-15.8513 a22.4171,22.4171 0 1 0 0,31.7026 h168.2974 a22.4171,22.4171 0 1 0 0,-31.7026 Z" transform="matrix(0.7071067811865476, 0.7071067811865475, -0.7071067811865475, 0.7071067811865476, 0, 0)"></path>
      <path class="load" d="M-84.1487,-15.8513 a22.4171,22.4171 0 1 0 0,31.7026 h168.2974 a22.4171,22.4171 0 1 0 0,-31.7026 Z" transform="matrix(6.123233995736766e-17, 1, -1, 6.123233995736766e-17, 0, 0)"></path>
      <path class="load" d="M-84.1487,-15.8513 a22.4171,22.4171 0 1 0 0,31.7026 h168.2974 a22.4171,22.4171 0 1 0 0,-31.7026 Z" transform="matrix(-0.7071067811865475, 0.7071067811865476, -0.7071067811865476, -0.7071067811865475, 0, 0)"></path>
    </g>
  </svg>