<svg version="1.1" id="Layer_1" x="0px" y="0px" viewBox="0 0 512 512" style="enable-background:new 0 0 512 512;" xmlns="http://www.w3.org/2000/svg">
	<defs></defs>
	<g style="" transform="matrix(0.94563, 0, 0, 0.94385, 10.132325, 14.064791)">
	  <g>
		<path style="fill: rgb(150, 150, 150); stroke: rgb(150, 150, 150); stroke-width: 20px;" d="M366.616,356.416c33.264-37.888,53.712-87.888,53.712-142.848C420.312,95.792,327.192,0,212.728,0
			  S5.144,95.792,5.144,213.568s93.12,213.584,207.584,213.584c55.392,0,105.648-22.56,142.912-59.072L495.384,512l11.472-11.152
			  L366.616,356.416z M212.728,411.136c-105.648,0-191.584-88.64-191.584-197.584S107.08,16,212.728,16
			  s191.584,88.624,191.584,197.568S318.36,411.136,212.728,411.136z"></path>
	  </g>
	</g>
	<g></g>
	<g></g>
	<g></g>
	<g></g>
	<g></g>
	<g></g>
	<g></g>
	<g></g>
	<g></g>
	<g></g>
	<g></g>
	<g></g>
	<g></g>
	<g></g>
	<g></g>
  </svg>