<svg viewBox="219.285 176.98 77.513 77.513" width="77.513" height="77.513" xmlns="http://www.w3.org/2000/svg">
    <defs></defs>
    <g transform="matrix(0.29981, 0, 0, 0.29981, 257.763245, 215.569366)" style="">
      <path d="M-84.1487,-15.8513 a22.4171,22.4171 0 1 0 0,31.7026 h168.2974 a22.4171,22.4171 0 1 0 0,-31.7026 Z" style="stroke: rgb(0, 0, 0); stroke-width: 8.67466px; stroke-dasharray: 5px; fill: rgb(194, 228, 191);"></path>
      <path d="M-84.1487,-15.8513 a22.4171,22.4171 0 1 0 0,31.7026 h168.2974 a22.4171,22.4171 0 1 0 0,-31.7026 Z" transform="matrix(0.7071067811865476, 0.7071067811865475, -0.7071067811865475, 0.7071067811865476, 0, 0)" style="stroke: rgb(0, 0, 0); stroke-width: 8.67466px; stroke-dasharray: 5px; fill: rgb(194, 228, 191);"></path>
      <path d="M-84.1487,-15.8513 a22.4171,22.4171 0 1 0 0,31.7026 h168.2974 a22.4171,22.4171 0 1 0 0,-31.7026 Z" transform="matrix(6.123233995736766e-17, 1, -1, 6.123233995736766e-17, 0, 0)" style="stroke: rgb(0, 0, 0); stroke-width: 8.67466px; stroke-dasharray: 5px; fill: rgb(194, 228, 191);"></path>
      <path d="M-84.1487,-15.8513 a22.4171,22.4171 0 1 0 0,31.7026 h168.2974 a22.4171,22.4171 0 1 0 0,-31.7026 Z" transform="matrix(-0.7071067811865475, 0.7071067811865476, -0.7071067811865476, -0.7071067811865475, 0, 0)" style="stroke: rgb(0, 0, 0); stroke-width: 8.67466px; stroke-dasharray: 5px; fill: rgb(194, 228, 191);"></path>
    </g>
  </svg>