<svg viewBox="-36.225 114.676 576.519 188.893" width="576.519" height="188.893" xmlns="http://www.w3.org/2000/svg" xmlns:bx="https://boxy-svg.com">
  <defs></defs>
  <circle style="fill: rgb(224, 224, 224);" cx="252" cy="207.599" r="91.693"></circle>
  <path style="fill: rgb(210, 210, 210);" transform="matrix(-0.418523, 0.908206, -0.908206, -0.418523, 982.590835, -78.05796)" d="M 605.432 461.786 A 91.472 91.472 0 0 1 605.432 626.214 A 133.488 133.488 0 0 0 605.432 461.786 Z" bx:shape="crescent 565.333 544 91.472 128 0.874 1@524cf358"></path>
  <path d="M 169.333 516 m -66.024 0 a 66.024 132.284 0 1 0 132.048 0 a 66.024 132.284 0 1 0 -132.048 0 Z M 169.333 516 m -53.027 0 a 53.027 116.472 0 0 1 106.054 0 a 53.027 116.472 0 0 1 -106.054 0 Z" style="fill: rgb(192, 192, 192);" transform="matrix(-0.839379, 0.543547, -1.760153, -0.051555, 1302.40812, 137.253575)" bx:shape="ring 169.333 516 53.027 116.472 66.024 132.284 1@48c56863"></path>
  <path d="M 169.333 516 m -46.215 0 a 46.215 113.633 0 1 0 92.43 0 a 46.215 113.633 0 1 0 -92.43 0 Z M 169.333 516 m -40.353 0 a 40.353 100.051 0 0 1 80.706 0 a 40.353 100.051 0 0 1 -80.706 0 Z" style="fill: rgb(192, 192, 192);" transform="matrix(-0.839379, 0.543547, -1.760153, -0.051555, 1304.185342, 136.300709)" bx:shape="ring 169.333 516 40.353 100.051 46.215 113.633 1@a462af8a"></path>
  <path d="M 169.333 516 m -39.691 0 a 39.691 99.216 0 1 0 79.382 0 a 39.691 99.216 0 1 0 -79.382 0 Z M 169.333 516 m -31.877 0 a 31.877 82.695 0 0 1 63.754 0 a 31.877 82.695 0 0 1 -63.754 0 Z" style="fill: rgb(192, 192, 192);" transform="matrix(-0.839379, 0.543547, -1.760153, -0.051555, 1304.656411, 136.197132)" bx:shape="ring 169.333 516 31.877 82.695 39.691 99.216 1@58626b69"></path>
  <circle style="fill: rgb(177, 177, 177);" cx="213.6" cy="178.8" r="22.659" transform="matrix(0.999963, -0.008641, 0.008641, 0.999963, -1.537173, 1.85244)"></circle>
  <path style="fill: rgb(255, 255, 255);" transform="matrix(0, 0.477, -0.489652, 0, 375.385162, -29.258814)" d="M 494 449 A 196.003 196.003 0 0 1 495 56.997 L 495 253 Z" bx:shape="pie 495 253 0 196.003 180.292 360 1@6dd23368"></path>
  <path style="fill: rgb(224, 224, 224);" transform="matrix(0, 0.466157, -0.466157, 0, 370.171326, -22.596767)" d="M 494 449 A 196.003 196.003 0 0 1 495 56.997 L 495 253 Z" bx:shape="pie 495 253 0 196.003 180.292 360 1@6dd23368"></path>
  <circle style="fill: rgb(213, 213, 213);" cx="201.925" cy="173.461" r="18.477"></circle>
  <circle style="fill: rgb(216, 216, 216);" cx="238.046" cy="142.652" r="7.605"></circle>
  <circle style="fill: rgb(216, 216, 216);" cx="172.71" cy="196.302" r="9.03"></circle>
  <circle style="fill: rgb(216, 216, 216);" cx="233.266" cy="172.399" r="37.199"></circle>
  <circle style="fill: rgb(204, 204, 204);" cx="249.733" cy="173.992" r="11.937"></circle>
  <circle style="fill: rgb(216, 216, 216);" cx="281.87" cy="178.242" r="16.059"></circle>
  <circle style="fill: rgb(216, 216, 216);" cx="254.294" cy="271.295" r="14.352"></circle>
</svg>