<svg viewBox="8.706 198.815 29.467 29.642" xmlns="http://www.w3.org/2000/svg">
  <style>
    :root{
      --border-color: rgba(133, 167, 130, 0.5);
      --back-color: rgb(194, 228, 191);
  }</style>
  <defs></defs>
  <circle style="fill: var(--back-color);" cx="23.577" cy="213.964" r="14.257"></circle>
  <path style="fill: rgba(0, 0, 0, 0.04);" transform="matrix(-1, 0, 0, -1, 0, 0)" d="M -27.121 -227.711 A 14.25 14.25 0 1 1 -27.121 -200.183 A 14.784 14.784 0 0 0 -27.121 -227.711 Z"></path>
  <path d="M 12.188 210.061 C 12.327 209.594 12.514 208.364 12.986 208.129 C 13.427 207.907 13.967 208.057 14.414 207.833 C 14.903 207.589 14.825 206.767 15.296 206.532 C 15.882 206.238 16.549 206.753 16.683 207.289 C 16.714 207.417 16.839 207.646 16.766 207.792 C 16.322 208.681 15.305 208.985 14.497 209.387 C 14.271 209.501 14.308 210.063 14.204 210.27 C 14.023 210.63 12.901 211.004 12.524 210.817 C 12.482 210.795 12.302 210.805 12.271 210.774 C 12.188 210.691 12.145 210.092 12.145 209.975" style="fill: var(--border-color);"></path>
  <path d="M 17.717 221.177 C 17.565 220.908 17.368 220.68 17.214 220.42 C 16.799 219.733 16.905 218.677 17.548 218.193 C 17.963 217.884 18.41 217.73 18.726 217.311 C 19.028 216.906 18.612 216.177 19.06 215.842 C 19.293 215.666 19.6 215.753 19.858 215.717 C 20.4 215.638 21.79 215.631 22.21 216.051 C 22.832 216.673 21.784 217.914 22.254 218.698 C 22.589 219.258 23.232 219.262 23.849 219.202 C 24.399 219.147 24.9 218.801 24.9 219.538 C 24.9 219.639 24.915 219.774 24.9 219.873 C 24.874 220.028 24.845 220.193 24.774 220.336 C 24.647 220.59 24.492 220.807 24.355 221.05 C 24.167 221.376 23.978 221.752 23.68 221.974 C 23.168 222.359 22.28 222.644 21.624 222.478 C 21.448 222.434 21.277 222.363 21.118 222.31 C 21.104 222.306 20.84 222.129 20.825 222.183 C 20.7 222.685 20.783 223.237 20.657 223.739 C 20.637 223.822 20.612 224.285 20.446 224.285 C 20.159 224.285 19.884 224.277 19.607 224.242 C 18.681 224.127 17.548 223.386 17.548 222.394 C 17.548 222.291 17.501 222.029 17.548 221.932 C 17.721 221.588 17.893 221.193 18.01 220.84 C 18.045 220.738 17.994 220.579 17.928 220.546" style="fill: var(--border-color);"></path>
  <path d="M 25.672 212.454 C 25.591 211.421 25.541 210.021 26.637 209.472 C 27.139 209.221 27.805 209.589 28.149 209.934 C 28.175 209.958 28.489 210.27 28.57 210.27 C 28.834 210.27 28.988 209.733 29.368 210.019 C 29.637 210.219 29.711 210.629 29.746 210.943 C 29.837 211.753 29.375 212.7 28.823 213.251 C 28.576 213.499 28.078 213.625 27.982 214.01 C 27.874 214.444 28.219 214.643 28.528 214.848 C 28.555 214.867 28.989 215.101 28.989 215.101 C 28.989 215.101 28.293 215.226 28.234 215.226 C 27.596 215.226 26.95 215.31 26.301 215.31 C 26.075 215.31 25.751 215.347 25.587 215.186 C 25.545 215.142 25.41 214.692 25.461 214.638 C 25.582 214.518 25.588 214.341 25.63 214.176 C 25.705 213.873 26.015 213.268 25.839 212.917 C 25.731 212.702 25.63 212.264 25.63 212.035" style="fill: var(--border-color);"></path>
  <path d="M 22.353 204.599 C 22.969 203.777 23.684 202.961 24.788 202.961 C 24.921 202.961 25.015 202.868 25.168 202.919 C 25.47 203.019 25.865 203.591 26.175 203.591 C 27.169 203.591 28.053 203.231 28.57 204.263 C 28.65 204.425 28.847 204.674 28.738 204.894 C 28.411 205.546 27.571 205.924 26.889 206.195 C 26.582 206.319 26.307 206.557 26.008 206.657 C 25.889 206.697 25.742 206.877 25.63 206.952 C 24.843 207.475 24.202 208.358 23.405 208.758 C 23.158 208.88 22.581 208.73 22.353 208.674 C 22.146 208.622 21.956 208.633 21.766 208.506 C 21.526 208.347 21.25 208.117 21.05 207.918 C 20.95 207.817 21.244 207.611 21.304 207.582 C 21.444 207.511 22.143 207.023 22.143 206.868 C 22.143 206.672 21.752 206.61 21.808 206.447 C 21.905 206.153 22.004 205.921 22.185 205.65 C 22.237 205.573 22.395 205.507 22.395 205.397 C 22.395 205.216 22.089 204.918 22.143 204.809 C 22.235 204.627 22.48 204.499 22.48 204.346" style="fill: var(--border-color);"></path>
  <path d="M 29.273 223.308 C 29.633 222.948 30.046 222.588 30.449 222.299 C 30.742 222.091 30.991 221.765 31.374 221.712 C 31.956 221.629 32.699 221.763 33.221 221.501 C 34.29 220.967 34.257 219.243 34.817 218.309 C 34.957 218.078 35.46 217.713 35.701 217.553 C 35.837 217.462 36.079 217.466 36.163 217.301 C 36.66 216.304 35.226 215.616 35.574 214.57 C 35.718 214.137 36.042 213.808 36.33 213.521 C 36.44 213.411 36.658 213.453 36.75 213.268 C 36.846 213.074 37.237 212.386 37.381 212.386 C 37.486 212.386 37.428 212.646 37.464 212.68 C 37.613 212.828 37.547 213.231 37.547 213.437 C 37.547 213.971 37.656 215.028 37.421 215.495 C 37.227 215.886 37.538 216.523 37.338 216.923 C 37.193 217.211 37.356 217.624 37.254 217.93 C 37.073 218.474 36.923 218.971 36.666 219.485 C 36.626 219.563 36.704 219.701 36.666 219.779 C 36.568 219.974 36.516 220.166 36.415 220.367 C 36.302 220.593 36.397 220.945 36.288 221.166 C 36.14 221.461 36.064 221.783 35.911 222.09 C 35.417 223.075 34.744 224.012 33.977 224.778 C 33.379 225.378 32.506 225.788 31.92 226.376 C 31.626 226.667 31.117 226.698 30.786 226.92 C 30.593 227.049 30.217 226.783 30.072 226.709 C 29.764 226.557 29.261 226.036 29.4 225.618 C 29.521 225.25 29.845 224.816 29.693 224.357 C 29.56 223.963 29.146 223.747 28.936 223.433 C 28.898 223.376 28.727 223.097 28.811 223.015 C 28.949 222.877 29.423 222.866 29.61 222.805 C 29.642 222.793 29.902 222.637 29.902 222.637" style="fill: var(--border-color);" transform="matrix(0.998619, 0.052532, -0.052532, 0.998619, 11.585543, -1.439709)"></path>
  <path d="M 33.149 208.17 C 33.889 208.17 33.858 208.443 33.695 209.094 C 33.681 209.147 33.688 209.436 33.652 209.472 C 33.601 209.525 33.405 209.441 33.359 209.43 C 33.054 209.354 32.784 209.187 32.517 209.009 C 32.475 208.982 32.238 208.857 32.266 208.799 C 32.428 208.478 33.149 208.23 33.149 207.833" style="fill: var(--border-color);"></path>
  <path d="M 10.297 216.671 C 10.5 216.915 10.735 217.269 10.801 217.596 C 10.809 217.635 10.757 218.161 10.801 218.183 C 10.927 218.247 11.276 218.18 11.389 218.141 C 11.411 218.134 11.655 217.959 11.683 218.015 C 11.888 218.426 11.767 219.098 11.767 219.569 C 11.767 219.662 11.707 220.096 11.767 220.158 C 12.058 220.449 12.507 220.521 12.776 220.787 C 12.836 220.848 12.753 221.117 12.776 221.207 C 12.885 221.644 12.734 221.956 12.734 222.342 C 12.734 222.593 12.734 222.845 12.734 223.099 C 12.734 223.21 12.889 223.434 12.776 223.434 C 12.387 223.434 12.137 222.754 11.893 222.51 C 11.849 222.465 11.876 222.282 11.809 222.216 C 11.587 221.992 11.506 221.577 11.305 221.376 C 10.887 220.957 10.664 220.206 10.466 219.611 C 10.31 219.144 9.952 218.71 9.751 218.309 C 9.595 217.995 9.743 217.109 9.878 216.838 C 9.961 216.673 10.255 216.572 10.255 216.838" style="fill: var(--border-color);"></path>
  <path d="M 10.25 208.797 C 10.424 208.452 10.489 208.041 10.604 207.694 C 10.724 207.333 11.058 206.966 11.196 206.553 C 11.316 206.19 11.257 205.719 11.431 205.371 C 11.666 204.902 11.992 204.604 12.219 204.151 C 12.383 203.823 11.964 203.264 12.259 202.97 C 12.816 202.412 13.225 202.102 13.873 201.669 C 14.271 201.404 14.417 201.024 14.859 200.803 C 15.369 200.548 16.13 200.935 16.63 200.685 C 17.498 200.25 18.051 199.463 18.913 199.031 C 19.49 198.743 20.135 199.097 20.647 199.268 C 20.805 199.32 21.285 199.44 21.473 199.347 C 21.499 199.334 21.375 199.285 21.395 199.306 C 21.728 199.639 22.511 199.503 22.971 199.503 C 23.475 199.503 24.17 199.404 24.506 199.74 C 24.589 199.821 24.866 199.779 24.979 199.779 C 25.138 199.779 25.469 199.709 25.608 199.779 C 25.739 199.845 26.01 200.015 26.199 200.015 C 26.32 200.015 26.72 199.985 26.791 200.056 C 26.794 200.058 27.027 200.212 26.987 200.212 C 26.591 200.212 25.8 200.519 25.49 200.725 C 25.297 200.855 25.261 201.112 25.097 201.275 C 24.882 201.49 24.512 201.833 24.231 201.946 C 23.91 202.074 23.322 202.212 22.971 202.142 C 22.46 202.041 21.852 201.806 21.317 201.984 C 20.789 202.16 20.572 202.769 20.214 203.127 C 19.35 203.99 18.63 204.665 17.458 205.134 C 17.174 205.249 16.51 205.395 16.197 205.332 C 15.883 205.269 15.428 205.062 15.095 205.175 C 14.588 205.343 14.343 205.905 13.913 206.12 C 13.561 206.295 13.107 205.842 12.81 206.238 C 12.62 206.493 12.554 206.928 12.338 207.144 C 12.304 207.178 12.062 207.396 12.062 207.42 C 12.062 207.725 11.839 208.048 11.747 208.325 C 11.645 208.63 11.57 209.011 11.392 209.31 C 11.228 209.583 10.978 209.864 10.841 210.137 C 10.722 210.373 10.49 210.662 10.566 210.964 C 10.568 210.973 10.776 211.633 10.684 211.633 C 10.588 211.633 10.044 211.72 9.975 211.79 C 9.923 211.841 10.003 212.065 10.013 212.106 C 10.036 212.193 10.105 213.194 9.975 213.13 C 9.476 212.88 9.763 212.616 9.62 212.184 C 9.417 211.574 9.785 210.703 9.975 210.137 C 10.089 209.794 9.968 209.362 10.132 209.034 C 10.183 208.934 10.329 208.733 10.329 208.64" style="fill: var(--border-color);"></path>
</svg>