<svg viewBox="-36.225 114.676 576.519 188.893" width="576.519" height="188.893" xmlns="http://www.w3.org/2000/svg" xmlns:bx="https://boxy-svg.com">
    <defs></defs>
    <circle style="fill: rgb(224, 224, 224);" cx="258.999" cy="208.846" r="91.693"></circle>
    <path d="M 169.333 516 m -66.024 0 a 66.024 132.284 0 1 0 132.048 0 a 66.024 132.284 0 1 0 -132.048 0 Z M 169.333 516 m -53.027 0 a 53.027 116.472 0 0 1 106.054 0 a 53.027 116.472 0 0 1 -106.054 0 Z" style="fill: rgb(192, 192, 192);" transform="matrix(-0.839379, 0.543547, -1.760153, -0.051555, 1309.407444, 163.501095)" bx:shape="ring 169.333 516 53.027 116.472 66.024 132.284 1@48c56863"></path>
    <path d="M 169.333 516 m -46.215 0 a 46.215 113.633 0 1 0 92.43 0 a 46.215 113.633 0 1 0 -92.43 0 Z M 169.333 516 m -40.353 0 a 40.353 100.051 0 0 1 80.706 0 a 40.353 100.051 0 0 1 -80.706 0 Z" style="fill: rgb(213, 213, 213);" transform="matrix(-0.839379, 0.543547, -1.760153, -0.051555, 1311.184666, 162.548229)" bx:shape="ring 169.333 516 40.353 100.051 46.215 113.633 1@a462af8a"></path>
    <path d="M 169.333 516 m -39.691 0 a 39.691 99.216 0 1 0 79.382 0 a 39.691 99.216 0 1 0 -79.382 0 Z M 169.333 516 m -31.877 0 a 31.877 82.695 0 0 1 63.754 0 a 31.877 82.695 0 0 1 -63.754 0 Z" style="fill: rgb(226, 226, 226);" transform="matrix(-0.839379, 0.543547, -1.760153, -0.051555, 1311.655735, 162.444653)" bx:shape="ring 169.333 516 31.877 82.695 39.691 99.216 1@58626b69"></path>
    <circle style="fill: rgb(177, 177, 177);" cx="213.6" cy="178.8" r="22.659" transform="matrix(0.999963, -0.008641, 0.008641, 0.999963, 5.463954, 3.101414)"></circle>
    <path style="fill: rgb(255, 255, 255);" transform="matrix(0, 0.553743, -0.506846, 0, 388.030731, -57.037498)" d="M 494 449 A 196.003 196.003 0 0 1 495 56.997 L 495 253 Z" bx:shape="pie 495 253 0 196.003 180.292 360 1@6dd23368"></path>
    <path style="fill: rgb(224, 224, 224);" transform="matrix(0, 0.466157, -0.466157, 0, 377.170654, -21.34927)" d="M 494 449 A 196.003 196.003 0 0 1 495 56.997 L 495 253 Z" bx:shape="pie 495 253 0 196.003 180.292 360 1@6dd23368"></path>
    <circle style="fill: rgb(216, 216, 216);" cx="245.045" cy="143.899" r="7.605"></circle>
    <path style="fill: rgb(243, 243, 243);" transform="matrix(0, -1, 1, 0, -284.822357, 775.039429)" d="M 542.349 455.126 A 91.798 91.798 0 1 1 542.349 632.874 A 869.299 869.299 0 0 1 542.349 455.126 Z" bx:shape="crescent 565.333 544 91.798 209 0.35 1@cea0a1e0"></path>
    <path style="fill: rgb(193, 193, 193);" transform="matrix(0, -1, 1, 0, -284.281494, 775.696838)" d="M 562.93 452.233 A 91.798 91.798 0 1 1 562.93 635.767 A 369.746 369.746 0 0 1 562.93 452.233 Z" bx:shape="crescent 565.333 544 91.798 183 0.424 1@28b77d5b"></path>
    <path style="fill: rgb(228, 228, 228);" transform="matrix(0, -1, 1, 0, -284.281586, 775.206848)" d="M 576.52 452.886 A 91.798 91.798 0 0 1 576.52 635.114 A 354.136 354.136 0 0 1 576.52 452.886 Z" bx:shape="crescent 565.333 544 91.798 166 0.496 1@cf8e3238"></path>
    <path style="fill: rgb(248, 248, 248);" transform="matrix(0, -1, 1, 0, -284.281525, 774.252502)" d="M 614.656 466.578 A 91.798 91.798 0 0 1 614.656 621.422 A 172.963 172.963 0 0 1 614.656 466.578 Z" bx:shape="crescent 565.333 544 91.798 115 0.669 1@dc975f24"></path>
    <path style="fill: rgb(162, 162, 162);" transform="matrix(0, -1, 1, 0, -284.85733, 775.38446)" d="M 624.951 474.196 A 91.798 91.798 0 0 1 624.951 613.804 A 160.973 160.973 0 0 1 624.951 474.196 Z" bx:shape="crescent 565.333 544 91.798 99 0.738 1@95084772"></path>
    <path style="fill: rgb(238, 238, 238);" transform="matrix(0, -1, 1, 0, -284.281525, 774.681091)" d="M 629.101 477.966 A 91.798 91.798 0 0 1 629.101 610.034 A 145.482 145.482 0 0 1 629.101 477.966 Z" bx:shape="crescent 565.333 544 91.798 92 0.761 1@70180735"></path>
    <path style="fill: rgb(176, 176, 176);" transform="matrix(0, 1, -1, 0, 803.716858, -356.538055)" d="M 629.101 477.966 A 91.798 91.798 0 0 1 629.101 610.034 A 195.239 195.239 0 0 0 629.101 477.966 Z" bx:shape="crescent 565.333 544 91.798 92 0.91 1@7b9466ec"></path>
  </svg>