<svg viewBox="71.545 31.584 210.646 211.315" xmlns="http://www.w3.org/2000/svg">
    <style>
        :root{
          --border-color: rgba(133, 167, 130,0.5);
          --back-color: rgb(194, 228, 191);
      }
      </style>
      <defs></defs>
    <circle style="fill: var(--back-color);" cx="177.515" cy="136.577" r="103.323"></circle>
    <path d="M 82.672 96.399 C 86.491 91.626 92.405 87.789 97.59 84.678 C 101.79 82.158 106.571 82.684 110.91 80.948 C 117.702 78.231 124.101 77.455 131.156 75.887 C 136.312 74.741 141.402 73.341 146.606 72.69 C 149.706 72.303 152.884 73.337 155.93 72.956 C 158.381 72.65 160.7 71.495 163.123 71.092 C 171.19 69.747 179.594 68.088 187.365 65.497 C 188.841 65.005 189.889 63.468 191.361 63.1 C 199.131 61.157 207.613 59.103 214.004 55.907 C 215.366 55.226 218.728 55.446 219.598 54.575 C 220.746 53.428 222.406 53.171 223.861 52.444 C 225.198 51.776 225.758 50.43 227.058 49.78 C 227.583 49.517 228.87 47.383 229.189 47.383 C 229.212 47.383 229.674 48.667 229.721 48.715 C 230.422 49.415 231.3 49.761 231.853 50.313 C 233.669 52.129 238.037 53.973 240.644 54.842 C 241.276 55.052 243.932 55.2 244.373 55.641 C 244.917 56.185 245.945 57.626 246.771 58.038 C 247.508 58.407 251.59 61.744 250.5 62.833 C 248.349 64.985 244.864 63.997 242.508 65.764 C 239.267 68.195 235.407 69.966 232.119 72.157 C 230.88 72.984 229.696 74.58 228.656 75.62 C 226.643 77.633 223.042 78.827 220.398 80.149 C 216.317 81.509 213.255 83.667 209.742 86.01 C 206.783 87.983 202.435 88.116 199.086 88.674 C 195.758 89.228 191.13 90.26 187.898 91.338 C 186.705 91.735 186.313 92.666 185.234 92.936 C 181.053 93.981 176.697 93.394 172.447 94.002 C 167.77 94.67 162.432 95.506 157.795 96.666 C 154.684 97.443 151.048 96.155 147.938 96.932 C 138.331 99.334 128.412 99.537 119.434 104.924 C 115.697 107.166 111.892 109.832 108.512 112.649 C 106.389 114.419 103.495 115.787 101.852 117.977 C 97.356 123.972 94.549 130.93 90.397 137.157 C 89.4 138.654 88.154 142.205 86.934 143.018 C 85.51 143.967 82.525 144.52 81.073 144.883 C 80.416 145.047 78.43 147.024 77.877 146.748 C 74.725 145.172 75.59 137.757 74.68 135.026 C 73.271 130.799 74.414 126.589 74.414 122.239 C 74.414 119.802 73.929 116.549 74.946 114.514 C 75.55 113.306 74.343 111.193 74.946 109.985 C 75.673 108.531 75.814 106.917 76.545 105.457 C 78.176 102.194 79.605 99.134 81.606 96.133 C 81.862 95.749 83.205 92.67 83.205 92.67 C 83.205 92.67 83.471 96.133 83.471 96.133 Z" style="fill: var(--border-color);"></path>
    <path d="M 83.471 178.182 C 85.254 169.267 89.474 162.577 95.725 155.805 C 99.507 151.708 102.315 146.895 106.914 143.551 C 110.704 140.794 115.027 138.011 119.434 136.358 C 123.559 134.812 127.984 134.583 132.221 133.428 C 139.604 131.415 146.503 129.168 154.065 127.834 C 165.476 125.82 177.092 122.922 188.697 122.239 C 205.223 121.267 222.616 122.743 238.512 117.444 C 241.547 116.433 244.358 112.981 246.771 111.051 C 252.144 106.752 258.836 102.981 263.554 98.264 C 265.354 96.464 266.993 95.212 268.881 94.268 C 269.28 94.068 271.683 93.606 272.078 94.002 C 273.531 95.455 271.575 98.323 272.611 100.395 C 273.576 102.325 274.417 104.332 276.074 105.989 C 276.448 106.363 276.606 107.885 276.606 108.387 C 276.606 110.158 277.927 110.748 278.472 112.383 C 278.723 113.135 277.853 114.343 278.205 115.047 C 279.443 117.523 277.86 119.871 278.738 122.505 C 280.608 128.114 281.19 136.727 279.537 141.686 C 278.873 143.678 278.997 147.554 277.672 148.879 C 277.289 149.262 277.925 150.77 277.672 151.276 C 276.413 153.795 276.432 158.29 273.41 159.801 C 271.327 160.842 268.639 160.414 266.484 161.133 C 262.115 162.589 257.419 164.062 252.631 163.264 C 249.826 162.797 247.159 161.396 244.373 160.6 C 241.426 159.758 238.258 159.471 235.316 158.735 C 230.583 157.552 225.486 157.941 220.664 157.137 C 215.003 156.194 209.326 154.892 203.615 153.94 C 198.54 153.095 193.492 152.653 188.43 151.809 C 186.326 151.458 183.514 152.213 181.504 151.543 C 177.456 150.193 173.509 150.744 169.25 150.744 C 164.48 150.744 159.013 150.373 154.332 151.543 C 150.364 152.535 146.572 155.081 142.611 156.071 C 133.444 158.363 122.372 161.126 115.438 168.059 C 113.215 170.282 110.514 172.382 108.778 174.985 C 108.351 175.626 106.843 176.528 106.647 177.117 C 105.94 179.237 104.187 181.463 102.651 183.51 C 101.542 184.99 100.414 187.717 99.721 189.104 C 99.599 189.348 95.955 198.428 95.725 198.428 C 94.051 198.428 94.957 194.699 93.328 194.699 C 91.936 194.699 89.922 189.961 89.065 189.104 C 87.124 187.696 84.27 183.063 84.27 180.846 C 84.27 179.075 82.672 179.589 82.672 177.916 L 83.471 178.182 Z" style="fill: var(--border-color);"></path>
    <path d="M 107.446 213.346 C 111.07 210.931 113.899 207.589 117.836 205.621 C 125.807 201.635 135.372 201.474 143.942 199.76 C 153.526 197.843 165.314 198.003 175.111 199.227 C 179.921 199.829 184.943 198.692 189.762 199.227 C 196.461 199.972 203.231 200.293 210.008 200.293 C 218.698 200.293 228.122 201.98 236.648 200.559 C 239.738 200.044 242.794 200.73 245.705 199.76 C 247.823 199.054 249.978 199.757 252.099 199.227 C 253.937 198.768 255.906 197.629 257.693 197.629 C 258.555 197.629 260.508 197.212 261.156 196.563 C 261.558 196.161 262.624 194.829 262.222 195.231 C 260.774 196.679 259.894 197.559 258.492 198.961 C 258.23 199.223 256.894 200.226 256.894 200.559 C 256.894 205.22 252.16 212.506 248.103 215.211 C 244.143 217.851 240.299 217.013 236.115 218.408 C 229.424 220.638 220.709 218.941 213.738 218.941 C 209.428 218.941 206.18 217.908 202.016 217.076 C 199.897 216.652 197.728 216.929 195.889 216.01 C 194.111 215.121 190.438 215.744 188.43 215.744 C 181.998 215.744 175.379 215.277 169.25 216.809 C 163.106 218.345 156.737 222.929 152.467 227.199 C 150.991 228.675 149.064 231.066 147.672 231.994 C 145.891 233.181 143.384 232.793 141.279 232.793 C 140.906 232.793 139.106 233.018 138.881 232.793 C 137.802 231.714 134.793 229.921 133.02 229.33 C 131.935 228.968 130.599 229.225 129.557 228.531 C 124.989 225.486 118.95 220.822 113.307 218.941 C 110.913 218.143 110.389 214.818 108.512 213.879 C 108.309 213.777 106.381 212.547 106.381 212.547" style="fill: var(--border-color);"></path>
    <path d="M 105.049 63.899 C 108.212 62.318 111.06 60.578 114.106 58.838 C 123.453 53.496 136.087 52.71 146.606 52.71 C 156.055 52.71 164.131 51.673 172.713 47.383 C 174.665 46.406 177.292 46.038 179.373 45.518 C 180.873 45.143 182.634 43.699 183.902 42.854 C 184.771 42.274 185.679 42.617 186.566 42.321 C 187.458 42.024 188.15 40.999 188.963 40.456 C 191.463 38.79 194.583 38.579 197.221 37.26 C 197.42 37.16 199.619 37.019 199.619 36.727 C 199.619 36.372 198.909 36.727 198.553 36.727 C 197.853 36.727 196.741 36.753 196.156 36.46 C 194.281 35.523 189.003 34.405 186.832 35.128 C 184.331 35.962 181.187 35.82 178.84 36.993 C 175.928 38.449 172.751 39.911 169.516 40.989 C 166.47 42.005 162.982 42.504 160.459 44.186 C 159.807 44.62 158.288 43.933 157.529 44.186 C 155.701 44.795 153.301 44.618 151.402 45.251 C 149.465 45.897 147.151 45.159 145.274 45.784 C 142.227 46.8 138.576 45.528 135.418 46.317 C 132.616 47.018 129.871 47.278 127.16 48.182 C 121.976 49.91 117.713 52.158 115.438 56.706 C 115.156 57.271 111.709 59.903 111.709 59.903 C 108.422 61.546 104.482 62.584 101.319 64.165" style="fill: var(--border-color);"></path>
    <path d="M 137.8154087660712 178.71499331305142 C 140.05708693789003 176.92164805848344 142.31687386871837 176.39993824958907 144.74166870117188 174.9854736328125 C 158.38250781017888 167.02831205996733 172.59683400844807 167.62131843833924 187.6311492919922 169.1248016357422 C 193.68089774549208 169.72979727251104 200.06939325199886 168.53570487621727 206.01235961914062 167.79283142089844 C 211.59059634374952 167.09554933410956 218.56902183368638 167.9124741979016 223.86077880859375 165.92807006835938 C 224.14133170391486 165.82286298370485 229.72145080566406 164.32969665527344 229.72145080566406 164.32969665527344 C 229.72145080566406 164.32969665527344 227.7407668062206 164.5459457136146 227.59030151367188 164.59609985351562 C 225.14964191421552 165.4096375200991 223.23150461369687 167.46977183573276 220.66404724121094 168.3256072998047 C 215.16692965101 170.15801481483672 210.8390095712423 174.49565340198475 206.27874755859375 177.9158172607422 C 202.17004165065026 180.99731727403858 195.9657860637414 183.547997918191 191.09426879882812 185.37484741210938 C 180.04723152907474 189.51755559686742 167.27419415835053 186.95477645866393 156.1966094970703 185.10845947265625 C 152.6541525468702 184.51803307201527 149.4085811091219 182.24556612895137 145.80723571777344 181.64532470703125 C 143.38808750517506 181.24212179112826 140.7673427540388 182.04850523427805 138.3481903076172 181.64532470703125 C 136.85341876511865 181.3962032514944 134.5448333588826 180.46500373688124 133.0203094482422 180.8461456298828 C 130.71680718646394 181.42203768802622 128.9865601568012 182.81229331765675 126.89324188232422 183.5100860595703 C 126.28226398833746 183.71375119023475 125.64118195185749 184.68888420905088 125.02848052978516 184.84205627441406 C 124.68389367734807 184.92820113712102 123.71174393457656 185.09321103051292 123.96290588378906 184.84205627441406 C 126.67893796393497 182.12610197964722 130.48152262124145 182.38202258273046 133.5531005859375 180.8461456298828 C 134.79935003119846 180.22298521446262 136.81633517967938 180.94608808642982 138.08180236816406 180.3133544921875 C 140.39048154600098 179.15901490326902 142.80943036311734 177.01720274625032 144.74166870117188 176.05105590820312 C 146.27777472684284 175.28298089883262 146.79577059301943 172.7911967739597 148.2047882080078 172.321533203125 C 149.13611626928264 172.01109644334008 149.85744205771698 172.00089223629948 150.6023406982422 171.25595092773438" style="fill: var(--border-color);"></path>
    <path style="fill: rgba(0, 0, 0, 0.06);" transform="matrix(-1, 0, 0, -1, 0, 0)" d="M -180.105 -240.233 A 103.876 103.876 0 1 1 -180.105 -32.513 A 127.217 127.217 0 0 0 -180.105 -240.233 Z"></path>
  </svg>