<svg viewBox="234.995 96.492 114.023 183.213" xmlns="http://www.w3.org/2000/svg">
    <style>
        :root{
          --border-color: rgba(133, 167, 130);
          --back-color: rgb(194, 228, 191);
      }
      </style>
    <defs></defs>
    <path style="fill: var(--back-color);" d="M 274.181 234.613 C 274.181 234.613 268.085 212.798 247.875 198.361 C 227.664 183.925 238.448 165.9 244.667 162.431 C 250.885 158.962 264.556 157.94 272.576 174.301 C 280.597 190.663 282.522 212.477 282.522 212.477 C 282.522 212.477 278.628 184.331 274.696 178.465 C 270.764 172.599 254.971 137.482 267.605 115.822 C 280.239 94.163 300.739 106.798 304.607 110.408 C 308.475 114.018 323.688 132.64 315.823 167.966 C 307.959 203.291 305.251 220.954 305.251 220.954 C 305.251 220.954 315.823 165 317.112 161.519 C 318.401 158.038 323.301 145.919 336.708 151.463 C 350.116 157.007 344.201 175.314 342.009 180.085 C 339.818 184.855 318.416 221.011 319.963 234.29"></path>
    <line style="stroke: var(--border-color);" x1="265.414" y1="189.138" x2="265.026" y2="193.521"></line>
    <line style="stroke: var(--border-color);" x1="269.41" y1="181.144" x2="269.153" y2="184.239"></line>
    <line style="stroke: var(--border-color);" x1="249.685" y1="192.36" x2="253.424" y2="193.779"></line>
    <line style="stroke: var(--border-color);" x1="259.869" y1="203.32" x2="263.35" y2="205.254"></line>
    <line style="stroke: var(--border-color);" x1="271.731" y1="217.244" x2="275.083" y2="221.755"></line>
    <line style="stroke: var(--border-color);" x1="280.626" y1="227.041" x2="280.497" y2="231.941"></line>
    <line style="stroke: var(--border-color);" x1="283.721" y1="218.017" x2="283.592" y2="220.466"></line>
    <line style="stroke: var(--border-color);" x1="287.331" y1="227.428" x2="289.781" y2="229.104"></line>
    <line style="stroke: var(--border-color);" x1="290.038" y1="209.379" x2="292.23" y2="212.473"></line>
    <line style="stroke: var(--border-color);" x1="282.69" y1="188.879" x2="285.654" y2="193.521"></line>
    <line style="stroke: var(--border-color);" x1="286.686" y1="170.83" x2="285.912" y2="175.987"></line>
    <line style="stroke: var(--border-color);" x1="293.391" y1="175.343" x2="292.616" y2="181.531"></line>
    <line style="stroke: var(--border-color);" x1="298.934" y1="195.584" x2="297.773" y2="200.87"></line>
    <line style="stroke: var(--border-color);" x1="299.836" y1="209.121" x2="299.707" y2="212.344"></line>
    <line style="stroke: var(--border-color);" x1="299.965" y1="220.466" x2="298.031" y2="225.623"></line>
    <line style="stroke: var(--border-color);" x1="307.83" y1="181.016" x2="306.025" y2="186.43"></line>
    <line style="stroke: var(--border-color);" x1="304.993" y1="162.321" x2="303.188" y2="167.478"></line>
    <line style="stroke: var(--border-color);" x1="294.035" y1="153.698" x2="295.969" y2="156.921"></line>
    <line style="stroke: var(--border-color);" x1="278.95" y1="157.565" x2="280.626" y2="160.788"></line>
    <line style="stroke: var(--border-color);" x1="271.731" y1="141.192" x2="273.02" y2="144.287"></line>
    <line style="stroke: var(--border-color);" x1="287.331" y1="141.965" x2="287.073" y2="146.22"></line>
    <line style="stroke: var(--border-color);" x1="288.362" y1="120.822" x2="287.976" y2="126.365"></line>
    <line style="stroke: var(--border-color);" x1="273.278" y1="123.916" x2="275.212" y2="129.073"></line>
    <line style="stroke: var(--border-color);" x1="273.923" y1="111.683" x2="275.857" y2="115.035"></line>
    <line style="stroke: var(--border-color);" x1="281.4" y1="111.425" x2="283.592" y2="115.035"></line>
    <line style="stroke: var(--border-color);" x1="290.425" y1="105.107" x2="290.167" y2="109.104"></line>
    <line style="stroke: var(--border-color);" x1="298.676" y1="113.23" x2="297.773" y2="117.355"></line>
    <line style="stroke: var(--border-color);" x1="298.16" y1="129.775" x2="300.094" y2="134.674"></line>
    <line style="stroke: var(--border-color);" x1="305.638" y1="141.25" x2="302.93" y2="149.371"></line>
    <line style="stroke: var(--border-color);" x1="312.084" y1="152.323" x2="311.44" y2="155.417"></line>
    <line style="stroke: var(--border-color);" x1="252.077" y1="182.176" x2="254.011" y2="185.399"></line>
    <line style="stroke: var(--border-color);" x1="256.074" y1="171.088" x2="256.589" y2="175.987"></line>
    <line style="stroke: var(--border-color);" x1="248.725" y1="169.412" x2="249.37" y2="172.249"></line>
    <line style="stroke: var(--border-color);" x1="243.697" y1="176.76" x2="247.307" y2="177.792"></line>
    <line style="stroke: var(--border-color);" x1="310.05" y1="224.492" x2="312.628" y2="228.36"></line>
    <line style="stroke: var(--border-color);" x1="311.211" y1="207.86" x2="312.113" y2="209.794"></line>
    <line style="stroke: var(--border-color);" x1="319.204" y1="215.08" x2="319.075" y2="217.917"></line>
    <line style="stroke: var(--border-color);" x1="321.008" y1="203.09" x2="318.302" y2="205.54"></line>
    <line style="stroke: var(--border-color);" x1="315.078" y1="193.936" x2="315.336" y2="197.933"></line>
    <line style="stroke: var(--border-color);" x1="322.813" y1="185.041" x2="322.427" y2="189.94"></line>
    <line style="stroke: var(--border-color);" x1="317.914" y1="169.198" x2="318.559" y2="174.226"></line>
    <line style="stroke: var(--border-color);" x1="327.326" y1="154.371" x2="325.521" y2="159.657"></line>
    <line style="stroke: var(--border-color);" x1="334.288" y1="157.207" x2="332.87" y2="161.075"></line>
    <line style="stroke: var(--border-color);" x1="331.709" y1="171.647" x2="329.131" y2="174.226"></line>
    <line style="stroke: var(--border-color);" x1="340.089" y1="163.138" x2="338.156" y2="167.908"></line>
    <line style="stroke: var(--border-color);" x1="275.756" y1="199.623" x2="274.725" y2="203.362"></line>
    <line style="stroke: var(--border-color);" x1="332.999" y1="186.989" x2="331.451" y2="190.083"></line>
    <line style="stroke: var(--border-color);" x1="329.389" y1="204.394" x2="335.578" y2="204.394"></line>
    <line style="stroke: var(--border-color);" x1="328.448" y1="208.004" x2="337.859" y2="208.133"></line>
    <line style="stroke: var(--border-color);" x1="327.713" y1="208.906" x2="332.097" y2="212.645"></line>
    <line style="stroke: var(--border-color);" x1="334.159" y1="140.204" x2="334.675" y2="150.647"></line>
    <line style="stroke: var(--border-color);" x1="342.668" y1="140.165" x2="338.285" y2="152.8"></line>
    <line style="stroke: var(--border-color);" x1="348.212" y1="146.392" x2="341.121" y2="154.514"></line>
    <line style="stroke: var(--border-color);" x1="322.685" y1="126.28" x2="315.465" y2="129.632"></line>
    <line style="stroke: var(--border-color);" x1="320.235" y1="116.396" x2="313.273" y2="122.842"></line>
    <line style="stroke: var(--border-color);" x1="313.402" y1="113.263" x2="311.211" y2="120.096"></line>
    <line style="stroke: var(--border-color);" x1="269.181" y1="97.792" x2="272.791" y2="109.653"></line>
    <line style="stroke: var(--border-color);" x1="265.184" y1="108.364" x2="270.341" y2="112.36"></line>
    <line style="stroke: var(--border-color);" x1="262.825" y1="114.333" x2="269.014" y2="114.719"></line>
    <line style="stroke: var(--border-color);" x1="238.611" y1="153.612" x2="242.738" y2="163.926"></line>
    <line style="stroke: var(--border-color);" x1="244.155" y1="155.507" x2="244.543" y2="163.113"></line>
    <line style="stroke: var(--border-color);" x1="235.995" y1="164.441" x2="241.796" y2="165.731"></line>
    <line style="stroke: var(--border-color);" x1="256.532" y1="214.866" x2="264.139" y2="214.737"></line>
    <line style="stroke: var(--border-color);" x1="261.689" y1="221.569" x2="265.815" y2="217.959"></line>
    <line style="stroke: var(--border-color);" x1="264.654" y1="225.566" x2="266.717" y2="218.604"></line>
    <line style="stroke: var(--border-color);" x1="278.271" y1="173.19" x2="273.487" y2="169.665"></line>
    <line style="fill: rgba(0, 0, 0, 0.3);" x1="307.229" y1="131.39" x2="307.985" y2="127.614"></line>
    <path style="fill: rgba(0, 0, 0, 0.05);" d="M 236.542 175.385 C 236.542 175.385 241.036 162.514 251.358 164.214 C 261.679 165.913 267.508 175.629 267.508 175.629 C 267.508 175.629 275.037 190.322 275.401 203.072 C 275.765 215.823 281.716 221.288 283.902 217.888 C 286.088 214.488 289.244 214.852 287.909 203.68 C 286.574 192.508 282.809 187.65 281.473 182.55 C 280.138 177.449 279.045 163.485 278.073 156.928 C 277.101 150.371 272.122 136.338 273.337 126.624 C 274.551 116.909 276.494 114.722 282.201 112.901 C 287.908 111.08 293.738 111.566 296.167 113.144 C 298.595 114.723 313.774 123.587 311.467 150.303 C 309.159 177.018 304.181 179.812 304.302 189.526 C 304.423 199.24 299.566 218.306 303.696 221.584 C 307.825 224.863 306.853 220.856 307.703 217.456 C 308.553 214.056 311.953 198.027 315.474 192.441 C 318.995 186.855 318.631 176.896 321.303 169.246 C 323.975 161.596 324.582 155.646 330.046 156.375 C 335.511 157.104 342.311 157.346 342.554 163.904 C 342.798 170.462 344.619 172.283 344.619 172.283 L 345.448 165.782 L 344.218 158.462 L 340.639 153.796 L 334.256 150.458 L 328.049 150.283 L 322.953 152.566 L 319.674 156.197 L 317.916 159.711 L 317.273 161.703 L 317.683 155.787 L 318.092 145.93 L 317.332 138.342 L 315.347 129.689 L 311.748 120.481 L 307.082 112.862 L 301.617 108.046 L 294.12 104.649 L 288.479 103.479 L 282.74 103.83 L 277.938 105.294 L 272.381 108.983 L 268.347 114.801 L 265.796 119.446 L 263.277 127.645 L 262.751 134.966 L 263.277 144.101 L 264.741 152.436 L 268.607 165.021 L 272.706 174.722 L 266.615 165.411 L 260.466 161.897 L 253.693 160.199 L 247.368 161.194 L 242.917 163.537 L 239.814 167.227 L 237.296 173.376 L 236.542 175.385 Z"></path>
    <path style="stroke: var(--border-color); fill: none;" d="M 274.349 235.1 C 274.349 235.1 268.254 213.285 248.043 198.849 C 227.833 184.412 238.617 166.388 244.835 162.919 C 251.054 159.45 264.725 158.427 272.745 174.789 C 280.765 191.15 282.691 212.964 282.691 212.964 C 282.691 212.964 278.797 184.819 274.865 178.953 C 270.933 173.087 255.139 137.969 267.774 116.31 C 280.408 94.65 300.908 107.286 304.776 110.896 C 308.644 114.506 323.857 133.128 315.992 168.453 C 308.128 203.778 305.42 221.441 305.42 221.441 C 305.42 221.441 315.992 165.487 317.281 162.006 C 318.57 158.525 323.47 146.406 336.877 151.951 C 350.285 157.495 344.369 175.801 342.178 180.572 C 339.987 185.343 318.585 221.498 320.132 234.778"></path>
    <path style="stroke: var(--border-color); fill: var(--border-color);" d="M 267.578 245.849 L 269.313 273.843 C 269.313 273.843 269.56 279.294 275.753 278.303 C 281.947 277.312 315.887 278.055 315.887 278.055 C 315.887 278.055 321.585 279.293 323.567 278.055 C 325.549 276.817 325.55 273.1 325.55 273.1 L 328.027 246.345"></path>
    <rect x="264.853" y="233.956" width="65.9" height="12.387" style="fill: var(--border-color); stroke: var(--border-color);" rx="3.992" ry="3.992"></rect>
    <path style="fill: rgba(0, 0, 0, 0.1);" d="M 294.334 234.205 C 294.334 234.205 306.225 233.957 314.153 240.151 C 322.082 246.345 307.465 241.637 303.5 244.61 C 299.536 247.583 304.491 247.335 307.96 247.583 C 311.429 247.83 324.559 247.335 324.559 252.29 C 324.559 257.244 322.824 267.402 317.373 270.623 C 311.923 273.844 310.437 277.807 310.437 277.807 L 315.329 278.108 L 319.511 278.705 L 322.796 278.606 L 324.787 276.714 L 325.385 272.93 L 327.674 246.05 L 330.064 244.954 L 330.86 242.764 L 330.761 239.18 L 330.662 236.093 L 328.571 234.301 L 326.779 234.002"></path>
   <rect x="264.853" y="233.709" width="65.9" height="12.387" style="fill: rgba(0, 0,0, 0.1);" rx="3.992" ry="3.992"></rect>
  </svg>