<svg viewBox="193.561 72.156 202.627 345.967" xmlns="http://www.w3.org/2000/svg">
    <style>
        :root{
          --border-color: rgba(133, 167, 130);
          --back-color: rgb(194, 228, 191);
      }
      </style>
    <defs></defs>
    <path style="fill: var(--back-color); stroke: var(--border-color);" d="M 206.985 167.766 L 197.699 212.176 C 197.699 212.176 193.258 250.53 234.842 254.568 C 276.427 258.606 272.389 212.58 272.389 212.58"></path>
    <path style="fill: rgba(0, 0, 0, 0.2);" d="M 240.899 254.163 C 255.028 254.971 266.737 242.859 267.14 240.841 C 267.544 238.822 260.68 208.543 260.68 208.543 C 260.68 208.543 260.681 208.543 259.873 205.313 C 259.065 202.083 206.581 167.766 206.581 167.766 C 206.581 167.766 244.128 228.324 240.899 254.163 Z"></path>
    <path style="fill: var(--back-color); stroke: var(--border-color);" d="M 207.073 167.766 C 205.084 170.484 220.417 133.106 263.909 142.734 C 307.402 152.362 295.458 330.982 294.28 331.276 C 294.28 331.276 291.857 243.667 207.073 167.766 Z"></path>
    <path style="fill: none; stroke: var(--border-color);" d="M 234.438 143.542 C 234.438 143.542 298.228 221.462 295.402 330.065"></path>
    <path style="fill: var(--back-color); stroke: var(--border-color);" d="M 294.19 329.661 C 289.937 335.811 285.012 152.61 316.8 101.956 C 348.589 51.302 414.63 98.785 386.242 144.348 C 357.853 189.911 317.088 229.737 294.19 329.661 Z"></path>
    <path style="fill: none; stroke: var(--border-color);" d="M 294.19 330.065 C 294.19 330.065 317.606 129.815 369.688 84.193"></path>
    <path style="fill: none; stroke: var(--border-color);" d="M 390.843 107.126 C 390.843 107.126 357.415 122.305 331.979 152.99"></path>
    <path style="fill: none; stroke: var(--border-color);" d="M 376.551 158.884 C 364.17 161.306 346.89 174.225 318.898 197.641"></path>
    <path style="fill: none; stroke: var(--border-color);" d="M 335.613 221.058 C 325.654 227.922 316.396 239.361 305.899 255.375"></path>
    <path style="fill: none; stroke: var(--border-color);" d="M 296.451 182.22 C 298.469 197.562 302.857 214.895 310.259 232.928"></path>
    <path style="fill: none; stroke: var(--border-color);" d="M 309.936 116.896 C 310.205 136.813 314.188 157.753 322.531 183.592"></path>
    <path style="fill: none; stroke: var(--border-color);" d="M 332.06 86.213 C 331.118 103.438 332.544 120.394 336.985 140.312"></path>
    <path style="fill: rgba(0, 0, 0, 0.15);" d="M 376.551 88.635 C 386.106 103.707 386.58 128.016 375.34 143.138 C 322.384 214.382 294.87 311.049 287.731 349.848 C 280.592 388.648 271.985 414.848 294.998 330.873 C 318.011 246.897 335.371 221.462 335.371 221.462 C 335.371 221.462 391.893 139.1 391.489 133.852 C 391.086 128.603 398.756 109.224 376.551 88.635 Z"></path>
    <path style="fill: none; stroke: var(--border-color);" d="M 201.656 234.461 C 201.656 234.461 219.097 202.89 234.438 196.027"></path>
    <path style="fill: none; stroke: var(--border-color);" d="M 245.501 254.326 C 245.501 254.326 235.729 215.971 238.556 200.225"></path>
    <path style="fill: none; stroke: var(--border-color);" d="M 285.228 169.461 C 285.228 169.461 284.339 207.977 275.86 218.878"></path>
    <path style="fill: none; stroke: var(--border-color);" d="M 265.525 143.3 C 265.525 143.3 270.854 174.952 262.78 188.679"></path>
    <path style="fill: none; stroke: var(--border-color);" d="M 209.811 170.591 C 209.811 170.591 240.091 170.591 259.065 181.897"></path>
    <path style="fill: none; stroke: var(--border-color);" d="M 243.24 206.442 C 243.24 206.442 272.631 218.312 277.88 224.368"></path>
    <path style="fill: var(--border-color);" d="M 267.595 414.13 C 250.548 398.878 251.424 330.203 251.424 330.203 L 293.613 330.203 L 337.577 330.203 C 337.577 330.203 340.714 381.342 322.323 414.09"></path>
    <path style="fill: var(--border-color);" d="M 295.407 412.744"></path>
    <path style="fill: var(--border-color);" d="M 294.958 411.847"></path>
    <path style="fill: rgba(0, 0, 0, 0.16);" d="M 337.815 330.213 C 338.182 366.915 333.166 394.81 322.767 413.895 L 312.49 413.895 C 312.49 413.895 331.942 374.99 310.655 330.579"></path>
    <path style="fill: rgba(0, 0, 0, 0.16);" d="M 342.219 330.213"></path>
    <path style="fill: rgba(0, 0, 0, 0.16);" d="M 322.032 413.529"></path>
  </svg>