<svg viewBox="187.232 5.19 145.419 468.433" xmlns="http://www.w3.org/2000/svg">
    <style>
        :root{
          --border-color: rgba(133, 167, 130);
          --back-color: rgb(194, 228, 191);
      }
      </style>
    <defs></defs>
    <g transform="matrix(1.236738, 0, 0, 1.236738, -158.984299, -65.549042)" style="">
      <ellipse style="stroke: var(--border-color); fill: var(--back-color);" cx="331.55" cy="69.742" rx="6.642" ry="12.62" transform="matrix(0.560205, -0.828354, 0.828354, 0.560205, 81.905071, 338.043163)"></ellipse>
      <line style="stroke: var(--border-color); stroke-linecap: round; fill: var(--back-color);" x1="333.584" y1="112.108" x2="325.835" y2="100.153" transform="matrix(0.899329, -0.437273, 0.437273, 0.899329, -13.215759, 154.857335)"></line>
      <line style="stroke: var(--border-color); stroke-width: 2px; fill: var(--back-color);" x1="334.711" y1="109.779" x2="342.017" y2="117.085"></line>
    </g>
    <g transform="matrix(1.235487, 0.055619, -0.055619, 1.235487, -153.226944, -32.15369)" style="">
      <ellipse style="stroke: var(--border-color); fill: var(--back-color);" cx="331.55" cy="69.742" rx="6.642" ry="12.62" transform="matrix(0.560205, -0.828354, 0.828354, 0.560205, 81.905071, 338.043163)"></ellipse>
      <line style="stroke: var(--border-color); stroke-linecap: round; fill: var(--back-color);" x1="333.584" y1="112.108" x2="325.835" y2="100.153" transform="matrix(0.899329, -0.437273, 0.437273, 0.899329, -13.215759, 154.857335)"></line>
      <line style="stroke: var(--border-color); stroke-width: 2px; fill: var(--back-color);" x1="334.711" y1="109.779" x2="342.017" y2="117.085"></line>
    </g>
    <g transform="matrix(1.236738, 0, 0, 1.105796, -159.939407, 50.806061)" style="">
      <ellipse style="stroke: var(--border-color); fill: var(--back-color);" cx="331.55" cy="69.742" rx="6.642" ry="12.62" transform="matrix(0.560205, -0.828354, 0.828354, 0.560205, 81.905071, 338.043163)"></ellipse>
      <line style="stroke: var(--border-color); stroke-linecap: round; fill: var(--back-color);" x1="333.584" y1="112.108" x2="325.835" y2="100.153" transform="matrix(0.899329, -0.437273, 0.437273, 0.899329, -13.215759, 154.857335)"></line>
      <line style="stroke: var(--border-color); stroke-width: 2px; fill: var(--back-color);" x1="334.711" y1="109.779" x2="342.017" y2="117.085"></line>
    </g>
    <g transform="matrix(1.236738, 0, 0, 1.105796, -197.686966, 17.772034)" style="">
      <ellipse style="stroke: var(--border-color); fill: var(--back-color);" cx="331.55" cy="69.742" rx="6.642" ry="12.62" transform="matrix(0.560205, -0.828354, 0.828354, 0.560205, 81.905071, 338.043163)"></ellipse>
      <line style="stroke: var(--border-color); stroke-linecap: round; fill: var(--back-color);" x1="333.584" y1="112.108" x2="325.835" y2="100.153" transform="matrix(0.899329, -0.437273, 0.437273, 0.899329, -13.215759, 154.857335)"></line>
      <line style="stroke: var(--border-color); stroke-width: 2px; fill: var(--back-color);" x1="334.711" y1="109.779" x2="342.017" y2="117.085"></line>
    </g>
    <g transform="matrix(1.23286, -0.097853, 0.087493, 1.102329, -202.776413, 101.061493)" style="">
      <ellipse style="stroke: var(--border-color); fill: var(--back-color);" cx="331.55" cy="69.742" rx="6.642" ry="12.62" transform="matrix(0.560205, -0.828354, 0.828354, 0.560205, 81.905071, 338.043163)"></ellipse>
      <line style="stroke: var(--border-color); stroke-linecap: round; fill: var(--back-color);" x1="333.584" y1="112.108" x2="325.835" y2="100.153" transform="matrix(0.899329, -0.437273, 0.437273, 0.899329, -13.215759, 154.857335)"></line>
      <line style="stroke: var(--border-color); stroke-width: 2px; fill: var(--back-color);" x1="334.711" y1="109.779" x2="342.017" y2="117.085"></line>
    </g>
    <g transform="matrix(1.236738, 0, 0, 1.105796, -188.69014, 120.766129)" style="">
      <ellipse style="stroke: var(--border-color); fill: var(--back-color);" cx="331.55" cy="69.742" rx="6.642" ry="12.62" transform="matrix(0.560205, -0.828354, 0.828354, 0.560205, 81.905071, 338.043163)"></ellipse>
      <line style="stroke: var(--border-color); stroke-linecap: round; fill: var(--back-color);" x1="333.584" y1="112.108" x2="325.835" y2="100.153" transform="matrix(0.899329, -0.437273, 0.437273, 0.899329, -13.215759, 154.857335)"></line>
      <line style="stroke: var(--border-color); stroke-width: 2px; fill: var(--back-color);" x1="334.711" y1="109.779" x2="342.017" y2="117.085"></line>
    </g>
    <g transform="matrix(1.236738, 0, 0, 1.105796, -184.309097, 152.848297)" style="">
      <ellipse style="stroke: var(--border-color); fill: var(--back-color);" cx="331.55" cy="69.742" rx="6.642" ry="12.62" transform="matrix(0.560205, -0.828354, 0.828354, 0.560205, 81.905071, 338.043163)"></ellipse>
      <line style="stroke: var(--border-color); stroke-linecap: round; fill: var(--back-color);" x1="333.584" y1="112.108" x2="325.835" y2="100.153" transform="matrix(0.899329, -0.437273, 0.437273, 0.899329, -13.215759, 154.857335)"></line>
      <line style="stroke: var(--border-color); stroke-width: 2px; fill: var(--back-color);" x1="334.711" y1="109.779" x2="342.017" y2="117.085"></line>
    </g>
    <g transform="matrix(1.236738, 0, 0, 1.105796, -180.514755, 195.954834)" style="">
      <ellipse style="stroke: var(--border-color); fill: var(--back-color);" cx="331.55" cy="69.742" rx="6.642" ry="12.62" transform="matrix(0.560205, -0.828354, 0.828354, 0.560205, 81.905071, 338.043163)"></ellipse>
      <line style="stroke: var(--border-color); stroke-linecap: round; fill: var(--back-color);" x1="333.584" y1="112.108" x2="325.835" y2="100.153" transform="matrix(0.899329, -0.437273, 0.437273, 0.899329, -13.215759, 154.857335)"></line>
      <line style="stroke: var(--border-color); stroke-width: 2px; fill: var(--back-color);" x1="334.711" y1="109.779" x2="342.017" y2="117.085"></line>
    </g>
    <g transform="matrix(1.236738, 0, 0, 1.105796, -177.189835, 228.193451)" style="">
      <ellipse style="stroke: var(--border-color); fill: var(--back-color);" cx="331.55" cy="69.742" rx="6.642" ry="12.62" transform="matrix(0.560205, -0.828354, 0.828354, 0.560205, 81.905071, 338.043163)"></ellipse>
      <line style="stroke: var(--border-color); stroke-linecap: round; fill: var(--back-color);" x1="333.584" y1="112.108" x2="325.835" y2="100.153" transform="matrix(0.899329, -0.437273, 0.437273, 0.899329, -13.215759, 154.857335)"></line>
      <line style="stroke: var(--border-color); stroke-width: 2px; fill: var(--back-color);" x1="334.711" y1="109.779" x2="342.017" y2="117.085"></line>
    </g>
    <g transform="matrix(1.231806, 0.110343, -0.098661, 1.101385, -130.280533, 151.566696)" style="">
      <ellipse style="stroke: var(--border-color); fill: var(--back-color);" cx="331.55" cy="69.742" rx="6.642" ry="12.62" transform="matrix(0.560205, -0.828354, 0.828354, 0.560205, 81.905071, 338.043163)"></ellipse>
      <line style="stroke: var(--border-color); stroke-linecap: round; fill: var(--back-color);" x1="333.584" y1="112.108" x2="325.835" y2="100.153" transform="matrix(0.899329, -0.437273, 0.437273, 0.899329, -13.215759, 154.857335)"></line>
      <line style="stroke: var(--border-color); stroke-width: 2px; fill: var(--back-color);" x1="334.711" y1="109.779" x2="342.017" y2="117.085"></line>
    </g>
    <g transform="matrix(1.198894, 0.163941, -0.13344, 0.975844, -112.54303, 115.144356)" style="">
      <ellipse style="stroke: var(--border-color); fill: var(--back-color);" cx="331.55" cy="69.742" rx="6.642" ry="12.62" transform="matrix(0.560205, -0.828354, 0.828354, 0.560205, 81.905071, 338.043163)"></ellipse>
      <line style="stroke: var(--border-color); stroke-linecap: round; fill: var(--back-color);" x1="333.584" y1="112.108" x2="325.835" y2="100.153" transform="matrix(0.899329, -0.437273, 0.437273, 0.899329, -13.215759, 154.857335)"></line>
      <line style="stroke: var(--border-color); stroke-width: 2px; fill: var(--back-color);" x1="334.711" y1="109.779" x2="342.017" y2="117.085"></line>
    </g>
    <g transform="matrix(1.198894, 0.163941, -0.13344, 0.975844, -106.073814, 64.751587)" style="">
      <ellipse style="stroke: var(--border-color); fill: var(--back-color);" cx="331.55" cy="69.742" rx="6.642" ry="12.62" transform="matrix(0.560205, -0.828354, 0.828354, 0.560205, 81.905071, 338.043163)"></ellipse>
      <line style="stroke: var(--border-color); stroke-linecap: round; fill: var(--back-color);" x1="333.584" y1="112.108" x2="325.835" y2="100.153" transform="matrix(0.899329, -0.437273, 0.437273, 0.899329, -13.215759, 154.857335)"></line>
      <line style="stroke: var(--border-color); stroke-width: 2px; fill: var(--back-color);" x1="334.711" y1="109.779" x2="342.017" y2="117.085"></line>
    </g>
    <g transform="matrix(1.198894, 0.163941, -0.13344, 0.975844, -100.910439, 11.787672)" style="">
      <ellipse style="stroke: var(--border-color); fill: var(--back-color);" cx="331.55" cy="69.742" rx="6.642" ry="12.62" transform="matrix(0.560205, -0.828354, 0.828354, 0.560205, 81.905071, 338.043163)"></ellipse>
      <line style="stroke: var(--border-color); stroke-linecap: round; fill: var(--back-color);" x1="333.584" y1="112.108" x2="325.835" y2="100.153" transform="matrix(0.899329, -0.437273, 0.437273, 0.899329, -13.215759, 154.857335)"></line>
      <line style="stroke: var(--border-color); stroke-width: 2px; fill: var(--back-color);" x1="334.711" y1="109.779" x2="342.017" y2="117.085"></line>
    </g>
    <g transform="matrix(1.198894, 0.163941, -0.13344, 0.975844, -120.273155, 191.024445)" style="">
      <ellipse style="stroke: var(--border-color); fill: var(--back-color);" cx="331.55" cy="69.742" rx="6.642" ry="12.62" transform="matrix(0.560205, -0.828354, 0.828354, 0.560205, 81.905071, 338.043163)"></ellipse>
      <line style="stroke: var(--border-color); stroke-linecap: round; fill: var(--back-color);" x1="333.584" y1="112.108" x2="325.835" y2="100.153" transform="matrix(0.899329, -0.437273, 0.437273, 0.899329, -13.215759, 154.857335)"></line>
      <line style="stroke: var(--border-color); stroke-width: 2px; fill: var(--back-color);" x1="334.711" y1="109.779" x2="342.017" y2="117.085"></line>
    </g>
    <g transform="matrix(1.198894, 0.163941, -0.13344, 0.975844, -130.48259, 154.372147)" style="">
      <ellipse style="stroke: var(--border-color); fill: var(--back-color);" cx="331.55" cy="69.742" rx="6.642" ry="12.62" transform="matrix(0.560205, -0.828354, 0.828354, 0.560205, 81.905071, 338.043163)"></ellipse>
      <line style="stroke: var(--border-color); stroke-linecap: round; fill: var(--back-color);" x1="333.584" y1="112.108" x2="325.835" y2="100.153" transform="matrix(0.899329, -0.437273, 0.437273, 0.899329, -13.215759, 154.857335)"></line>
      <line style="stroke: var(--border-color); stroke-width: 2px; fill: var(--back-color);" x1="334.711" y1="109.779" x2="342.017" y2="117.085"></line>
    </g>
    <g transform="matrix(1.198894, 0.163941, -0.13344, 0.975844, -132.399307, 87.96946)" style="">
      <ellipse style="stroke: var(--border-color); fill: var(--back-color);" cx="331.55" cy="69.742" rx="6.642" ry="12.62" transform="matrix(0.560205, -0.828354, 0.828354, 0.560205, 81.905071, 338.043163)"></ellipse>
      <line style="stroke: var(--border-color); stroke-linecap: round; fill: var(--back-color);" x1="333.584" y1="112.108" x2="325.835" y2="100.153" transform="matrix(0.899329, -0.437273, 0.437273, 0.899329, -13.215759, 154.857335)"></line>
      <line style="stroke: var(--border-color); stroke-width: 2px; fill: var(--back-color);" x1="334.711" y1="109.779" x2="342.017" y2="117.085"></line>
    </g>
    <g transform="matrix(-1.213217, -0.012231, -0.010589, 1.050295, 680.658142, 225.094559)" style="">
      <ellipse style="stroke: var(--border-color); fill: var(--back-color);" cx="331.55" cy="69.742" rx="6.642" ry="12.62" transform="matrix(0.560205, -0.828354, 0.828354, 0.560205, 81.905071, 338.043163)"></ellipse>
      <line style="stroke: var(--border-color); stroke-linecap: round; fill: var(--back-color);" x1="333.584" y1="112.108" x2="325.835" y2="100.153" transform="matrix(0.899329, -0.437273, 0.437273, 0.899329, -13.215759, 154.857335)"></line>
      <line style="stroke: var(--border-color); stroke-width: 2px; fill: var(--back-color);" x1="334.711" y1="109.779" x2="342.017" y2="117.085"></line>
    </g>
    <g transform="matrix(-1.213217, -0.012231, -0.010589, 1.050295, 690.62616, 229.3638)" style="">
      <ellipse style="stroke: var(--border-color); fill: var(--back-color);" cx="331.55" cy="69.742" rx="6.642" ry="12.62" transform="matrix(0.560205, -0.828354, 0.828354, 0.560205, 81.905071, 338.043163)"></ellipse>
      <line style="stroke: var(--border-color); stroke-linecap: round; fill: var(--back-color);" x1="333.584" y1="112.108" x2="325.835" y2="100.153" transform="matrix(0.899329, -0.437273, 0.437273, 0.899329, -13.215759, 154.857335)"></line>
      <line style="stroke: var(--border-color); stroke-width: 2px; fill: var(--back-color);" x1="334.711" y1="109.779" x2="342.017" y2="117.085"></line>
    </g>
    <g transform="matrix(-1.213217, -0.012231, -0.010589, 1.050295, 701.070313, 144.911026)" style="">
      <ellipse style="stroke: var(--border-color); fill: var(--back-color);" cx="331.55" cy="69.742" rx="6.642" ry="12.62" transform="matrix(0.560205, -0.828354, 0.828354, 0.560205, 81.905071, 338.043163)"></ellipse>
      <line style="stroke: var(--border-color); stroke-linecap: round; fill: var(--back-color);" x1="333.584" y1="112.108" x2="325.835" y2="100.153" transform="matrix(0.899329, -0.437273, 0.437273, 0.899329, -13.215759, 154.857335)"></line>
      <line style="stroke: var(--border-color); stroke-width: 2px; fill: var(--back-color);" x1="334.711" y1="109.779" x2="342.017" y2="117.085"></line>
    </g>
    <g transform="matrix(-1.213217, -0.012231, -0.010589, 1.050295, 706.272827, 106.302902)" style="">
      <ellipse style="stroke: var(--border-color); fill: var(--back-color);" cx="331.55" cy="69.742" rx="6.642" ry="12.62" transform="matrix(0.560205, -0.828354, 0.828354, 0.560205, 81.905071, 338.043163)"></ellipse>
      <line style="stroke: var(--border-color); stroke-linecap: round; fill: var(--back-color);" x1="333.584" y1="112.108" x2="325.835" y2="100.153" transform="matrix(0.899329, -0.437273, 0.437273, 0.899329, -13.215759, 154.857335)"></line>
      <line style="stroke: var(--border-color); stroke-width: 2px; fill: var(--back-color);" x1="334.711" y1="109.779" x2="342.017" y2="117.085"></line>
    </g>
    <g transform="matrix(-1.213217, -0.012231, -0.010589, 1.050295, 711.201538, 52.543583)" style="">
      <ellipse style="stroke: var(--border-color); fill: var(--back-color);" cx="331.55" cy="69.742" rx="6.642" ry="12.62" transform="matrix(0.560205, -0.828354, 0.828354, 0.560205, 81.905071, 338.043163)"></ellipse>
      <line style="stroke: var(--border-color); stroke-linecap: round; fill: var(--back-color);" x1="333.584" y1="112.108" x2="325.835" y2="100.153" transform="matrix(0.899329, -0.437273, 0.437273, 0.899329, -13.215759, 154.857335)"></line>
      <line style="stroke: var(--border-color); stroke-width: 2px; fill: var(--back-color);" x1="334.711" y1="109.779" x2="342.017" y2="117.085"></line>
    </g>
    <g transform="matrix(-1.213217, -0.012231, -0.010589, 1.050295, 647.597839, 100.500565)" style="">
      <ellipse style="stroke: var(--border-color); fill: var(--back-color);" cx="331.55" cy="69.742" rx="6.642" ry="12.62" transform="matrix(0.560205, -0.828354, 0.828354, 0.560205, 81.905071, 338.043163)"></ellipse>
      <line style="stroke: var(--border-color); stroke-linecap: round; fill: var(--back-color);" x1="333.584" y1="112.108" x2="325.835" y2="100.153" transform="matrix(0.899329, -0.437273, 0.437273, 0.899329, -13.215759, 154.857335)"></line>
      <line style="stroke: var(--border-color); stroke-width: 2px; fill: var(--back-color);" x1="334.711" y1="109.779" x2="342.017" y2="117.085"></line>
    </g>
    <g transform="matrix(-1.213217, -0.012231, -0.010589, 1.050295, 679.712646, 67.329689)" style="">
      <ellipse style="stroke: var(--border-color); fill: var(--back-color);" cx="331.55" cy="69.742" rx="6.642" ry="12.62" transform="matrix(0.560205, -0.828354, 0.828354, 0.560205, 81.905071, 338.043163)"></ellipse>
      <line style="stroke: var(--border-color); stroke-linecap: round; fill: var(--back-color);" x1="333.584" y1="112.108" x2="325.835" y2="100.153" transform="matrix(0.899329, -0.437273, 0.437273, 0.899329, -13.215759, 154.857335)"></line>
      <line style="stroke: var(--border-color); stroke-width: 2px; fill: var(--back-color);" x1="334.711" y1="109.779" x2="342.017" y2="117.085"></line>
    </g>
    <g transform="matrix(-1.213217, -0.012231, -0.010589, 1.050295, 644.468506, 63.965645)" style="">
      <ellipse style="stroke: var(--border-color); fill: var(--back-color);" cx="331.55" cy="69.742" rx="6.642" ry="12.62" transform="matrix(0.560205, -0.828354, 0.828354, 0.560205, 81.905071, 338.043163)"></ellipse>
      <line style="stroke: var(--border-color); stroke-linecap: round; fill: var(--back-color);" x1="333.584" y1="112.108" x2="325.835" y2="100.153" transform="matrix(0.899329, -0.437273, 0.437273, 0.899329, -13.215759, 154.857335)"></line>
      <line style="stroke: var(--border-color); stroke-width: 2px; fill: var(--back-color);" x1="334.711" y1="109.779" x2="342.017" y2="117.085"></line>
    </g>
    <g transform="matrix(-1.213217, -0.012231, -0.010589, 1.050295, 638.718384, 11.70583)" style="">
      <ellipse style="stroke: var(--border-color); fill: var(--back-color);" cx="331.55" cy="69.742" rx="6.642" ry="12.62" transform="matrix(0.560205, -0.828354, 0.828354, 0.560205, 81.905071, 338.043163)"></ellipse>
      <line style="stroke: var(--border-color); stroke-linecap: round; fill: var(--back-color);" x1="333.584" y1="112.108" x2="325.835" y2="100.153" transform="matrix(0.899329, -0.437273, 0.437273, 0.899329, -13.215759, 154.857335)"></line>
      <line style="stroke: var(--border-color); stroke-width: 2px; fill: var(--back-color);" x1="334.711" y1="109.779" x2="342.017" y2="117.085"></line>
    </g>
    <g transform="matrix(-1.213217, -0.012231, -0.010589, 1.050295, 680.534058, -2.493509)" style="">
      <ellipse style="stroke: var(--border-color); fill: var(--back-color);" cx="331.55" cy="69.742" rx="6.642" ry="12.62" transform="matrix(0.560205, -0.828354, 0.828354, 0.560205, 81.905071, 338.043163)"></ellipse>
      <line style="stroke: var(--border-color); stroke-linecap: round; fill: var(--back-color);" x1="333.584" y1="112.108" x2="325.835" y2="100.153" transform="matrix(0.899329, -0.437273, 0.437273, 0.899329, -13.215759, 154.857335)"></line>
      <line style="stroke: var(--border-color); stroke-width: 2px; fill: var(--back-color);" x1="334.711" y1="109.779" x2="342.017" y2="117.085"></line>
    </g>
    <g transform="matrix(-1.213217, -0.012231, -0.010589, 1.050295, 678.069702, 118.639816)" style="">
      <ellipse style="stroke: var(--border-color); fill: var(--back-color);" cx="331.55" cy="69.742" rx="6.642" ry="12.62" transform="matrix(0.560205, -0.828354, 0.828354, 0.560205, 81.905071, 338.043163)"></ellipse>
      <line style="stroke: var(--border-color); stroke-linecap: round; fill: var(--back-color);" x1="333.584" y1="112.108" x2="325.835" y2="100.153" transform="matrix(0.899329, -0.437273, 0.437273, 0.899329, -13.215759, 154.857335)"></line>
      <line style="stroke: var(--border-color); stroke-width: 2px; fill: var(--back-color);" x1="334.711" y1="109.779" x2="342.017" y2="117.085"></line>
    </g>
    <g transform="matrix(-1.213217, -0.012231, -0.010589, 1.050295, 658.081116, 185.116394)" style="">
      <ellipse style="stroke: var(--border-color); fill: var(--back-color);" cx="331.55" cy="69.742" rx="6.642" ry="12.62" transform="matrix(0.560205, -0.828354, 0.828354, 0.560205, 81.905071, 338.043163)"></ellipse>
      <line style="stroke: var(--border-color); stroke-linecap: round; fill: var(--back-color);" x1="333.584" y1="112.108" x2="325.835" y2="100.153" transform="matrix(0.899329, -0.437273, 0.437273, 0.899329, -13.215759, 154.857335)"></line>
      <line style="stroke: var(--border-color); stroke-width: 2px; fill: var(--back-color);" x1="334.711" y1="109.779" x2="342.017" y2="117.085"></line>
    </g>
    <g transform="matrix(-1.213217, -0.012231, -0.010589, 1.050295, 679.712646, -54.594723)" style="">
      <ellipse style="stroke: var(--border-color); fill: var(--back-color);" cx="331.55" cy="69.742" rx="6.642" ry="12.62" transform="matrix(0.560205, -0.828354, 0.828354, 0.560205, 81.905071, 338.043163)"></ellipse>
      <line style="stroke: var(--border-color); stroke-linecap: round; fill: var(--back-color);" x1="333.584" y1="112.108" x2="325.835" y2="100.153" transform="matrix(0.899329, -0.437273, 0.437273, 0.899329, -13.215759, 154.857335)"></line>
      <line style="stroke: var(--border-color); stroke-width: 2px; fill: var(--back-color);" x1="334.711" y1="109.779" x2="342.017" y2="117.085"></line>
    </g>
    <line style="stroke: var(--border-color); stroke-width: 2.5px;" x1="248.317" y1="378.567" x2="220.252" y2="101.19"></line>
    <line style="stroke: var(--border-color); stroke-width: 2.5px;" x1="263.378" y1="377.198" x2="263.514" y2="32.736"></line>
    <line style="stroke: var(--border-color); stroke-width: 2.5px;" x1="272.276" y1="377.881" x2="297.467" y2="141.715"></line>
    <g transform="matrix(1.236738, 0, 0, 1.236738, -201.226089, 7.016413)" style="">
      <ellipse style="stroke: var(--border-color); fill: var(--back-color);" cx="331.55" cy="69.742" rx="6.642" ry="12.62" transform="matrix(0.866025, -0.5, 0.5, 0.866025, 12.547885, 174.118803)"></ellipse>
      <line style="stroke: var(--border-color); fill: var(--back-color);" x1="340.689" y1="79.889" x2="332.94" y2="67.934"></line>
    </g>
    <g transform="matrix(-0.828807, -0.494683, -0.633845, 1.061961, 553.348267, 191.876404)" style="">
      <ellipse style="stroke: var(--border-color); fill: var(--back-color);" cx="331.55" cy="69.742" rx="6.642" ry="12.62" transform="matrix(0.866025, -0.5, 0.5, 0.866025, 12.547885, 174.118803)"></ellipse>
      <line style="stroke: var(--border-color); fill: var(--back-color);" x1="340.689" y1="79.889" x2="332.94" y2="67.934"></line>
    </g>
    <g transform="matrix(-0.828807, -0.494683, -0.633845, 1.061961, 631.398804, 225.523315)" style="">
      <ellipse style="stroke: var(--border-color); fill: var(--back-color);" cx="331.55" cy="69.742" rx="6.642" ry="12.62" transform="matrix(0.866025, -0.5, 0.5, 0.866025, 12.547885, 174.118803)"></ellipse>
      <line style="stroke: var(--border-color); fill: var(--back-color);" x1="340.689" y1="79.889" x2="332.94" y2="67.934"></line>
    </g>
    <g transform="matrix(1.236738, 0, 0, 1.236738, -123.344849, 44.04686)" style="">
      <ellipse style="stroke: var(--border-color); fill: var(--back-color);" cx="331.55" cy="69.742" rx="6.642" ry="12.62" transform="matrix(0.866025, -0.5, 0.5, 0.866025, 12.547885, 174.118803)"></ellipse>
      <line style="stroke: var(--border-color); fill: var(--back-color);" x1="340.689" y1="79.889" x2="332.94" y2="67.934"></line>
    </g>
    <g transform="matrix(-0.828807, -0.494683, -0.633845, 1.061961, 595.528992, 118.065475)" style="">
      <ellipse style="stroke: var(--border-color); fill: var(--back-color);" cx="331.55" cy="69.742" rx="6.642" ry="12.62" transform="matrix(0.866025, -0.5, 0.5, 0.866025, 12.547885, 174.118803)"></ellipse>
      <line style="stroke: var(--border-color); fill: var(--back-color);" x1="340.689" y1="79.889" x2="332.94" y2="67.934"></line>
    </g>
    <g transform="matrix(1.236738, 0, 0, 1.236738, -157.810837, -63.202057)" style="">
      <ellipse style="stroke: var(--border-color); fill: var(--back-color);" cx="331.55" cy="69.742" rx="6.642" ry="12.62" transform="matrix(0.866025, -0.5, 0.5, 0.866025, 12.547885, 174.118803)"></ellipse>
      <line style="stroke: var(--border-color); fill: var(--back-color);" x1="340.689" y1="79.889" x2="332.94" y2="67.934"></line>
    </g>
    <polygon style="stroke: var(--border-color); fill:var(--border-color)" points="233.942 377.335 284.875 377.335 278.3 472.623 240.998 472.623"></polygon>
  </svg>