<svg viewBox="8.598 -89.47 438.228 762.1" xmlns="http://www.w3.org/2000/svg">
  <style>
    :root{
      --border-color: rgba(133, 167, 130);
      --back-color: rgb(194, 228, 191);
  }
  </style>
    <defs></defs>
    <polyline style="fill:var(--border-color);" points="115.523 426.58 111.016 460.055 110.373 497.071 114.879 534.731 123.248 588.162 134.835 636.765 140.951 655.433 149.32 658.974 163.804 663.158 185.369 666.377 207.579 667.342 238.478 668.63 269.057 668.308 294.807 665.411 312.188 658.33 320.235 647.065 332.789 603.612 339.226 555.33 342.445 514.13 342.445 475.183 341.8 442.352 339.869 424.649"></polyline>
    <polyline style="fill: var(--back-color);" points="116.059 427.797 124.75 433.59 141.165 440.028 163.697 446.465 193.953 449.041 231.934 450.649 266.375 449.041 293.412 444.856 313.69 439.706 330.75 433.269 339.44 425.221 336.865 421.681 323.668 417.174 307.253 413.312 285.687 409.772 267.662 408.484 247.062 407.841 220.347 407.841 198.137 407.841 176.571 409.127 156.937 411.38 139.234 415.243 128.29 418.784 118.956 421.681 116.703 424.256 115.737 427.475"></polyline>
    <polyline style="fill: rgba(0, 0, 0, 0.4);" points="133.44 426.509 142.131 422.003 163.374 419.105 181.722 417.174 207.15 415.243 232.9 413.956 261.869 414.921 292.446 417.819 314.012 421.037 323.346 424.256 311.437 428.44 298.562 431.659 280.859 434.234 251.568 437.453 227.106 438.096 203.609 437.775 182.043 437.453 163.374 435.522 144.706 431.659 134.406 426.509"></polyline>
    <path style="fill: rgb(216, 216, 216); stroke: var(--border-color);" d="M 40.575 109.214"></path>
    <path style="fill:var(--border-color);" d="M 267.816 434.869 C 267.816 434.869 264.707 377.665 264.707 372.07 C 264.707 366.475 266.572 374.556 269.059 363.365 C 271.546 352.173 279.47 348.508 279.47 348.508 C 279.47 348.508 266.108 351.978 266.108 359.439 C 266.108 366.9 260.036 324.561 262.812 309.985 C 265.587 295.408 281.031 291.071 281.031 291.071 C 281.031 291.071 264.026 292.458 264.2 296.276 C 264.374 300.094 262.985 217.457 260.729 200.279 C 258.473 183.101 274.611 182.058 274.611 182.058 C 274.611 182.058 262.118 183.446 260.729 187.785 C 259.341 192.123 257.259 156.069 257.952 154.853 C 258.646 153.638 266.976 136.459 270.1 134.551 C 273.223 132.643 269.406 131.601 269.406 131.601 C 269.406 131.601 260.209 134.898 258.3 140.625 C 256.392 146.352 256.217 74.723 258.647 64.138 C 261.077 53.553 271.835 46.439 271.835 46.439 C 271.835 46.439 262.812 46.786 259.515 53.379 C 256.218 59.973 259.862 37.261 262.291 35.005 C 264.72 32.749 252.747 37.782 252.747 37.782 L 247.136 48.367 C 247.136 48.367 250.645 61.265 250.472 74.974 C 250.298 88.683 247.522 138.311 248.043 142.649 C 248.563 146.986 213.762 110.72 200.227 114.884 C 186.693 119.049 199.879 117.661 199.879 117.661 C 199.879 117.661 250.935 135.11 250.067 173.113 C 249.2 211.115 254.579 198.447 254.232 209.552 C 253.885 220.658 256.661 255.017 255.62 260.742 C 254.58 266.468 241.912 241.308 239.655 240.44 C 237.399 239.573 253.711 268.108 255.62 274.528 C 257.529 280.949 252.323 300.634 254.059 321.631 C 255.794 342.628 255.273 359.459 255.446 358.938 C 255.619 358.418 247.985 348.874 243.647 349.568 C 239.309 350.262 238.441 350.089 238.441 350.089 C 238.441 350.089 246.076 352.345 246.944 354.427 C 247.811 356.509 252.67 368.136 254.925 369.697 C 257.181 371.259 255.446 427.249 258.396 437.14 C 261.346 447.032 260.652 448.072 260.652 448.072 L 270.369 446.164 L 267.816 434.869 Z"></path>
    <path style="fill: var(--back-color);" d="M 171.756 225.028 C 171.756 225.028 155.083 255.247 131.465 258.721 C 107.846 262.194 77.627 277.129 52.271 253.163 C 26.915 229.196 25.797 223.639 17.113 223.986 C 8.43 224.334 12.598 225.028 12.598 225.028 C 12.598 225.028 29.269 215.998 37.953 205.925 C 46.636 195.852 73.729 178.832 94.222 178.832 C 114.716 178.832 145.628 186.821 179.319 209.05 C 213.011 231.28 172.025 224.333 171.756 225.028 Z"></path>
    <path style="stroke: var(--border-color); fill: none;" d="M 176.888 228.155 C 176.888 228.155 148.754 221.902 125.83 223.292 C 102.906 224.681 88.317 222.597 81.023 225.376 C 73.729 228.155 23.713 220.513 17.808 223.292"></path>
    <path style="fill:var(--border-color);" d="M 202.088 443.786 C 202.088 443.786 200.088 418.743 198.887 411.941 C 197.687 405.139 194.085 337.516 193.685 333.514 C 193.285 329.513 188.084 248.286 180.882 231.88 C 173.68 215.475 172.079 222.278 172.079 222.278 C 172.079 222.278 179.281 263.891 182.081 293.901 C 184.882 323.912 188.884 381.13 188.884 381.13 C 188.884 381.13 180.081 365.125 165.676 366.325 C 151.271 367.526 156.874 368.727 160.075 369.126 C 163.276 369.525 163.276 369.526 163.276 369.526 L 166.076 368.326 C 166.076 368.326 183.282 373.527 188.484 391.534 C 193.686 409.54 190.458 443.704 190.458 443.704 L 202.088 443.786 Z"></path>
    <path style="fill: var(--back-color);" d="M 199.157 117.817 C 199.157 117.817 180.747 164.708 118.921 169.223 C 57.095 173.738 57.791 132.058 42.508 121.985 C 27.225 111.912 29.656 116.427 29.656 116.427 C 29.656 116.427 45.98 111.912 49.454 99.408 C 52.928 86.904 85.23 68.842 106.765 70.578 C 128.3 72.315 167.897 54.949 199.157 117.817 Z"></path>
    <path style="stroke: var(--border-color); fill: none;" d="M 202.075 116.528 C 202.075 116.528 97.039 127.89 35.56 115.732"></path>
    <path style="fill: rgba(0, 0, 0, 0.23);" d="M 237.441 247.977 C 237.441 247.977 233.62 242.419 225.978 247.629 C 218.336 252.839 209.204 239.19 193.083 242.588 C 184.908 244.311 179.217 237.026 171.566 228.68 C 170.258 227.252 166.228 235.195 164.607 234.02 C 143.247 218.538 138.439 191.635 141.454 189.204 L 149.764 192.501 L 151.1 175.91 C 150.806 159.156 148.969 163.066 145 163.571 C 142.443 163.896 140.114 153.513 139.176 152.887 C 137.093 151.498 174.181 147.52 180.086 143.698 C 180.804 143.233 166.882 154.878 168.875 154.691 C 183.266 153.339 241.361 148.615 249.598 188.581 C 258.976 234.082 239.873 225.4 237.441 247.977 Z"></path>
    <path style="fill: var(--back-color);" d="M 242.574 249.265 C 242.574 249.265 238.753 243.707 231.111 248.917 C 223.469 254.127 208.882 258.296 195.336 248.917 C 181.789 239.539 150.529 216.962 148.792 188.481 C 147.055 159.999 148.792 156.525 146.709 155.136 C 144.626 153.746 183.874 150.969 189.779 147.147 C 195.683 143.326 245.353 144.369 254.731 189.87 C 264.109 235.371 245.006 226.688 242.574 249.265 Z"></path>
    <path style="stroke: var(--border-color); fill: none;" d="M 248.271 255.601 C 248.271 255.601 185.957 158.609 149.487 155.831"></path>
    <path style="fill: var(--back-color);" d="M 246.858 119.747 C 246.858 119.747 249.289 121.136 239.217 121.831 C 229.145 122.525 214.208 127.041 196.494 103.769 C 178.78 80.497 177.043 60.699 181.558 51.668 C 186.073 42.636 221.85 39.512 232.269 47.847 C 242.689 56.183 263.877 70.424 260.751 82.234 C 257.625 94.043 265.961 105.505 246.858 119.747 Z"></path>
    <path style="fill: rgba(0, 0, 0, 0.22);" d="M 246.644 48.139 C 246.782 48.262 241.524 48.379 236.928 50.954 C 235.547 51.728 242.629 54.449 240.913 55.226 C 229.219 60.523 200.689 66.642 180.803 53.864 C 180.276 53.526 184.074 47.175 183.555 46.812 C 179.142 43.731 175.631 39.542 172.682 36.781 C 159.103 24.069 153.718 21.33 151.437 20.189 C 148.659 18.799 139.58 7.037 139.927 4.605 C 140.274 2.173 130.726 -12.699 134.895 -19.993 C 139.063 -27.287 135.59 -41.876 134.547 -42.223 C 133.504 -42.571 149.83 -38.75 159.903 -45.349 C 169.976 -51.949 181.09 -55.422 207.488 -47.433 C 233.885 -39.445 242.222 -26.941 244.654 -22.772 C 247.086 -18.604 260.978 5.362 256.115 31.412 C 251.252 57.463 249.06 42.705 249.06 42.705 L 246.644 48.139 Z"></path>
    <path style="stroke: var(--border-color); fill: none;" d="M 185.726 50.626 C 185.726 50.626 240.599 77.813 251.02 122.619"></path>
    <path style="fill: var(--back-color);" d="M 247.707 48.928 C 247.707 48.928 201.511 63.169 176.155 46.844 C 150.799 30.52 148.02 18.015 145.242 16.625 C 142.465 15.236 134.475 2.385 134.822 -0.047 C 135.169 -2.479 129.612 -18.802 133.78 -26.097 C 137.948 -33.391 134.475 -47.979 133.432 -48.327 C 132.39 -48.675 148.715 -44.853 158.788 -51.452 C 168.861 -58.052 179.976 -61.525 206.373 -53.537 C 232.77 -45.548 241.107 -33.044 243.539 -28.875 C 245.971 -24.707 259.864 -0.742 255.001 25.309 C 250.138 51.359 250.485 40.592 250.485 40.592 L 247.707 48.928 Z"></path>
    <path style="stroke: var(--border-color); fill: none;" d="M 253.057 50.116 C 253.057 50.116 193.869 -23.666 148.715 -38.254"></path>
    <path style="fill: var(--back-color);" d="M 268.199 47.191 C 268.199 47.191 247.36 14.541 249.444 -1.089 C 251.528 -16.718 252.222 -43.811 262.295 -52.842 C 272.368 -61.872 280.704 -80.629 299.113 -79.239 C 317.522 -77.85 318.911 -85.144 338.014 -84.449 C 357.118 -83.755 362.329 -84.102 362.329 -84.102 C 362.329 -84.102 360.244 -72.293 355.381 -45.896 C 350.518 -19.498 344.962 2.385 341.14 8.29 C 337.319 14.194 324.469 38.786 307.449 43.371 C 290.428 47.955 268.547 47.871 268.199 47.191 Z"></path>
    <path style="stroke: var(--border-color); fill: none;" d="M 266.817 48.675 C 266.817 48.675 287.304 30.519 289.04 24.267 C 290.776 18.016 297.723 -6.993 304.323 -11.508 C 310.922 -16.024 354.687 -69.166 357.118 -74.029"></path>
    <path style="fill: var(--back-color);" d="M 268.547 132.173 C 268.547 132.173 262.643 104.039 269.937 90.84 C 277.231 77.641 280.01 62.358 300.155 50.549 C 320.299 38.74 332.458 37.697 336.625 34.224 C 340.792 30.75 361.634 22.762 371.359 24.846 C 381.084 26.931 392.547 32.835 396.715 29.708 C 400.883 26.582 399.146 28.667 399.146 28.667 C 399.146 28.667 394.631 31.793 396.715 42.212 C 398.799 52.632 402.966 71.389 385.6 89.451 C 368.234 107.512 356.423 123.142 343.919 126.964 C 331.415 130.785 317.869 138.773 310.227 135.994 C 302.586 133.215 273.062 130.437 268.547 132.173 Z"></path>
    <path style="fill: rgba(0, 0, 0, 0.2);" d="M 270.53 179.313 C 270.53 179.313 307.664 157.381 310.652 139.322 C 310.799 138.437 315.325 137.106 312.415 136.527 C 310.652 136.176 304.719 135.054 305.136 134.253 C 311.078 122.828 340.087 117.489 356.352 119.553 C 356.925 119.626 352.687 121.628 353.234 121.719 C 355.874 122.159 357.315 122.295 359.357 123.081 C 375.47 129.284 387.397 130.285 393.302 130.632 C 399.206 130.979 402.849 133.11 409.1 139.015 C 415.352 144.92 433.09 142.133 436.217 148.732 C 439.344 155.332 439.683 157.778 439.683 157.778 C 439.683 157.778 427.179 168.198 417.106 177.229 C 407.033 186.259 387.583 194.943 380.983 194.249 C 374.384 193.554 364.115 196.352 354.238 198.069 C 344.361 199.787 289.553 178.403 270.53 179.313 Z"></path>
    <path style="stroke: var(--border-color); fill: none;" d="M 267.158 135.299 C 267.158 135.299 292.86 104.733 305.018 102.997 C 317.175 101.261 349.824 79.725 357.812 71.389 C 365.801 63.052 390.116 30.056 397.41 29.362"></path>
    <path style="fill: var(--back-color);" d="M 270.245 182.73 C 270.245 182.73 290.043 152.512 298.032 143.829 C 304.436 136.868 336.725 124.776 356.265 120.965 C 361.102 120.022 365.159 119.586 367.847 119.862 C 381.392 121.252 391.466 126.809 397.371 127.156 C 403.276 127.503 419.253 128.546 425.505 134.45 C 431.756 140.355 440.788 145.913 443.914 152.512 C 447.041 159.111 439.398 161.196 439.398 161.196 C 439.398 161.196 426.894 171.615 416.821 180.646 C 406.748 189.676 387.298 198.361 380.699 197.666 C 374.099 196.971 363.831 199.769 353.953 201.487 C 344.076 203.204 289.268 181.82 270.245 182.73 Z"></path>
    <path style="fill: rgb(216, 216, 216); stroke: var(--border-color);" d="M 405.707 226.842"></path>
    <path style="fill: rgb(216, 216, 216); stroke: var(--border-color);" d="M 382.088 161.62"></path>
    <path style="stroke: var(--border-color); fill: none;" d="M 268.161 183.85 C 268.161 183.85 376.53 122.023 441.482 157.104"></path>
    <path style="fill: var(--back-color);" d="M 277.175 349.387 C 277.175 349.387 279.394 345.442 287.036 353.824 C 294.678 362.206 312.181 366.396 316.618 365.411 C 321.055 364.426 337.08 364.918 356.308 352.345 C 375.537 339.772 387.369 331.638 390.328 308.218 C 393.287 284.798 395.258 286.278 391.56 271.486 C 387.862 256.695 342.257 289.729 342.257 289.729 L 300.348 296.385 C 300.348 296.385 275.203 310.929 274.464 328.926 C 273.724 346.922 277.175 349.387 277.175 349.387 Z"></path>
    <path style="stroke: var(--border-color); fill: none;" d="M 273.971 351.113 C 273.971 351.113 297.637 329.419 314.153 327.201 C 330.669 324.982 354.829 303.287 354.829 303.287"></path>
    <path style="fill: rgba(0, 0, 0, 0.22);" d="M 278.614 291.543 C 278.614 291.543 283.175 287.592 279.354 284.119 C 275.534 280.645 282.133 267.1 285.954 262.584 C 289.774 258.069 288.038 254.596 288.038 254.596 C 288.038 254.596 298.111 215.693 321.035 211.526 C 343.959 207.359 364.104 199.021 384.598 205.968 C 405.092 212.915 421.416 219.515 426.625 229.24 C 431.835 238.965 426.648 231.17 426.648 231.17 C 426.648 231.17 425.491 236.38 414.375 257.219 C 410.57 264.354 402.311 269.484 392.228 276.934 C 389.809 278.722 390.202 282.336 387.65 284.116 C 369.779 296.582 345.124 305.892 339.527 305.493 C 332.529 304.993 324.736 309.367 305.867 304.537 C 303.657 303.97 299.202 295.605 296.775 294.243 C 291.128 291.074 286.859 293.792 278.614 291.543 Z"></path>
    <path style="fill: var(--back-color);" d="M 278.582 291.331 C 278.582 291.331 282.054 282.301 278.234 278.827 C 274.413 275.353 281.013 261.808 284.833 257.293 C 288.654 252.777 286.917 249.304 286.917 249.304 C 286.917 249.304 296.99 210.401 319.914 206.234 C 342.838 202.067 362.984 193.729 383.478 200.676 C 403.971 207.623 420.295 214.223 425.505 223.948 C 430.715 233.673 433.147 229.506 433.147 229.506 C 433.147 229.506 426.547 234.716 415.432 255.555 C 404.316 276.395 354.301 296.542 344.575 295.847 C 334.849 295.152 320.609 302.793 278.582 291.331 Z"></path>
    <path style="fill: var(--back-color);" d="M 243.977 352.838 C 243.977 352.838 239.047 354.07 236.335 356.043 C 233.623 358.015 212.669 374.039 194.673 364.178 C 176.678 354.316 166.077 334.349 164.352 324.242 C 162.626 314.134 161.64 302.794 158.435 301.808 C 155.23 300.822 156.709 300.33 156.709 300.33 C 156.709 300.33 160.9 303.781 165.091 301.562 C 169.282 299.343 184.566 291.702 198.124 294.413 C 211.683 297.125 238.801 297.618 243.977 352.838 Z"></path>
    <path style="stroke: var(--border-color); fill: none;" d="M 245.703 351.852 C 245.703 351.852 229.679 352.592 216.86 343.471 C 204.041 334.349 173.226 307.725 162.625 304.274"></path>
    <path style="stroke: var(--border-color); fill: none;" d="M 273.024 292.72 C 273.024 292.72 281.707 291.331 290.738 281.606 C 299.768 271.881 344.575 237.493 383.13 230.199 C 421.684 222.905 421.684 231.242 421.684 231.242"></path>
    <path style="fill: var(--back-color);" d="M 165.091 368.698 C 165.091 368.698 162.625 391.378 133.29 404.936 C 103.954 418.495 67.715 409.127 67.715 409.127 C 67.715 409.127 50.706 403.703 47.254 398.033 C 43.802 392.364 35.175 383.489 33.45 380.284 C 31.724 377.079 32.216 376.833 29.752 376.34 C 27.287 375.847 33.942 375.354 38.133 365.739 C 42.324 356.125 59.827 331.473 75.357 326.049 C 90.887 320.626 106.912 315.943 124.415 320.626 C 141.917 325.309 157.695 338.129 163.366 348.729 C 169.036 359.329 165.584 368.944 165.091 368.698 Z"></path>
    <path style="stroke: var(--border-color); fill: none;" d="M 170.26 368.451 C 170.26 368.451 145.369 362.041 122.689 365.246 C 100.009 368.451 77.576 372.888 73.632 372.149 C 69.688 371.41 35.175 376.34 35.175 376.34"></path>
    <polyline style="fill: var(--back-color);" points="176.25 436.487 191.056 437.453 208.115 437.453 240.303 437.453 266.375 435.843 278.606 434.556 278.927 447.109 257.684 448.074 201.356 448.074 201.356 448.074 184.94 446.788 176.893 437.453"></polyline>
    <path style="fill: rgba(0, 0, 0, 0.17);" d="M 196.875 116.867 C 196.875 116.867 141.295 121.467 117.912 121.083 C 94.529 120.699 46.616 119.55 43.55 117.25 C 40.484 114.95 73.065 143.315 114.846 139.099 C 156.627 134.883 191.892 127.216 196.875 116.867 Z"></path>
    <path style="fill: rgba(0, 0, 0, 0.17);" d="M 172.719 220.366 C 172.719 220.366 120.188 224.776 98.088 224.408 C 75.987 224.04 30.703 222.938 27.805 220.733 C 24.907 218.528 55.701 245.722 95.19 241.68 C 134.679 237.638 168.009 230.287 172.719 220.366 Z"></path>
    <path style="fill: rgba(0, 0, 0, 0.17);" d="M 271.596 1.049 C 271.596 1.049 223.655 -3.073 203.486 -2.729 C 183.317 -2.384 148.482 7.997 145.837 10.058 C 143.193 12.118 164.803 -22.648 200.842 -18.871 C 236.88 -15.093 267.298 -8.223 271.596 1.049 Z" transform="matrix(0.716559, 0.697527, -0.697527, 0.716559, 51.864988, -145.84118)"></path>
    <path style="fill: rgba(0, 0, 0, 0.17);" d="M 439.427 156.73 C 441.372 154.299 393.33 147.094 360.464 152.414 C 327.598 157.734 285.335 174.392 282.359 176.926 C 279.383 179.46 315.617 129.658 357.398 133.973 C 399.179 138.289 434.444 146.137 439.427 156.73 Z"></path>
    <path style="fill: rgba(0, 0, 0, 0.17);" d="M 421.647 232.531 C 427.424 222.902 379.786 227.679 347.363 242.362 C 314.94 257.045 280.746 288.556 277.68 286.256 C 274.614 283.956 324.04 260.85 365.821 256.634 C 407.602 252.418 416.664 242.88 421.647 232.531 Z"></path>
  </svg>