<svg viewBox="78.834 83.305 248.811 350.735" xmlns="http://www.w3.org/2000/svg">
  <style>
    :root{
      --border-color: rgba(133, 167, 130);
      --back-color: rgb(194, 228, 191);
  }
  </style>
    <defs></defs>
    <polyline style="fill: rgba(0, 0, 0, 0.44);" points="141.498 305.166 176.915 299.551 205.421 298.687 237.814 301.71 257.683 306.893 224.425 324.602 167.845 328.057 142.794 306.461"></polyline>
    <path style="fill: var(--back-color);" d="M 224.568 160.164 C 224.568 160.164 226.728 134.249 250.915 129.929 C 275.103 125.609 261.713 140.295 257.394 142.886 C 253.075 145.477 244.437 158.436 224.568 160.164 Z"></path>
    <path style="fill: var(--back-color);" d="M 218.522 189.101 C 218.522 189.101 222.841 170.961 237.958 161.027 C 253.075 151.093 259.122 157.571 259.553 157.571 C 259.984 157.571 257.825 173.984 218.522 189.101 Z"></path>
    <path style="fill: var(--back-color);" d="M 219.817 179.599 C 219.817 179.599 213.339 162.322 199.518 160.595 C 185.697 158.867 178.354 148.069 177.491 139.863 C 176.627 131.657 180.082 129.498 184.833 127.77 C 189.584 126.042 223.273 126.906 219.817 179.599 Z"></path>
    <path style="fill: var(--back-color);" d="M 212.043 215.963 C 212.043 215.963 218.522 199.551 234.503 188.322 C 250.483 177.092 251.348 188.322 251.779 192.64 C 252.21 196.959 260.85 199.551 212.043 215.963 Z"></path>
    <path style="fill: var(--back-color);" d="M 212.043 211.644 C 212.043 211.644 187.856 190.481 183.536 175.796 C 179.216 161.111 196.494 173.204 198.654 175.364 C 200.813 177.524 215.498 183.571 212.043 211.644 Z"></path>
    <path style="fill: var(--back-color);" d="M 202.973 265.633 C 202.973 265.633 211.611 235.832 222.409 230.648 C 233.208 225.465 235.798 228.489 232.775 237.559 C 229.752 246.629 206.86 264.77 202.973 265.633 Z"></path>
    <path style="fill: var(--back-color);" d="M 202.973 260.883 C 202.973 260.883 183.105 238.855 186.128 215.964 C 189.152 193.074 202.541 218.123 203.405 224.171 C 204.268 230.218 207.724 241.015 202.973 260.883 Z"></path>
    <path style="fill: var(--back-color);" d="M 252.643 236.264 C 252.643 236.264 262.145 215.963 278.557 215.532 C 294.969 215.101 300.153 209.484 304.904 213.372 C 309.655 217.26 291.947 234.968 286.332 235.399 C 280.718 235.831 259.122 232.376 252.643 236.264 Z"></path>
    <path style="fill: var(--back-color);" d="M 233.207 269.089 C 233.207 269.089 241.413 250.949 263.009 247.061 C 284.604 243.174 272.511 263.906 272.511 263.906 C 272.511 263.906 240.981 266.065 233.207 269.089 Z"></path>
    <path style="fill: var(--back-color);" d="M 218.091 303.642 C 218.091 303.642 231.48 279.887 247.892 278.159 C 264.304 276.432 230.184 297.595 218.091 303.642 Z"></path>
    <path style="fill: var(--back-color);" d="M 221.545 295.867 C 221.545 295.867 213.771 283.774 215.499 272.544 C 217.226 261.314 216.362 259.587 223.705 259.587 C 231.048 259.587 227.16 276.863 225.001 281.614 C 222.841 286.365 221.545 296.731 221.545 295.867 Z"></path>
    <path style="fill: var(--back-color);" d="M 238.821 256.131 C 238.821 256.131 238.39 232.376 236.662 229.785 C 234.935 227.194 235.798 212.077 244.005 210.781 C 252.211 209.485 254.371 223.738 252.643 226.762 C 250.915 229.785 245.732 248.357 238.821 256.131 Z"></path>
    <path style="fill: var(--back-color);" d="M 259.121 223.738 C 259.121 223.738 251.779 194.8 268.623 178.387 C 285.467 161.974 279.421 188.321 279.421 188.321 C 279.421 188.321 278.557 205.166 259.121 223.738 Z" transform="matrix(0.999417, -0.034144, 0.034144, 0.999417, -6.61631, 9.300491)"></path>
    <path style="fill: var(--back-color);" d="M 239.254 304.938 C 239.254 304.938 251.348 289.389 277.262 295.003 C 303.175 300.618 266.032 307.529 266.032 307.529 C 266.032 307.529 242.709 308.824 239.254 304.938 Z"></path>
    <path style="fill: var(--back-color);" d="M 261.713 281.614 C 261.713 281.614 274.238 269.088 293.674 274.272 C 313.111 279.455 305.336 290.685 305.336 290.685 C 305.336 290.685 303.609 296.731 299.721 296.731 C 295.833 296.731 277.694 284.206 261.713 281.614 Z"></path>
    <path style="fill: var(--back-color);" d="M 285.9 261.314 C 285.9 261.314 292.379 268.225 311.815 253.54 C 331.251 238.855 323.045 265.633 318.294 267.361 C 313.543 269.088 299.29 275.999 285.9 261.314 Z"></path>
    <path style="fill: var(--back-color);" d="M 282.445 264.338 C 282.445 264.338 279.854 246.629 286.764 241.015 C 293.673 235.4 292.811 234.968 297.562 238.855 C 302.313 242.741 291.947 257.428 282.445 264.338 Z"></path>
    <path style="fill: var(--back-color);" d="M 187.424 297.594 C 187.424 297.594 174.899 276.863 177.922 268.225 C 180.945 259.587 179.65 260.019 186.993 260.019 C 194.336 260.019 192.176 288.957 187.424 297.594 Z"></path>
    <path style="fill: var(--back-color);" d="M 167.124 253.972 C 167.124 253.972 151.144 231.081 156.327 218.555 C 161.51 206.03 166.692 214.236 166.692 214.236 C 166.692 214.236 177.491 215.1 167.124 253.972 Z"></path>
    <path style="fill: var(--back-color);" d="M 148.552 224.17 C 148.552 224.17 123.933 196.959 128.684 180.115 C 133.435 163.271 143.801 184.434 143.801 184.434 C 143.801 184.434 154.167 203.438 148.552 224.17 Z"></path>
    <path style="fill: var(--back-color);" d="M 154.599 236.695 C 154.599 236.695 131.276 240.583 120.91 234.536 C 110.544 228.489 100.178 219.419 103.201 216.395 C 106.225 213.372 113.999 211.644 129.98 214.668 C 145.96 217.691 154.599 236.695 154.599 236.695 Z"></path>
    <path style="fill: var(--back-color);" d="M 173.171 269.088 C 173.171 269.088 135.595 270.816 132.572 263.042 C 129.548 255.268 126.525 254.836 137.323 249.221 C 148.12 243.607 167.124 256.131 170.58 260.882 C 174.035 265.633 174.035 268.657 173.171 269.088 Z"></path>
    <path style="fill: var(--back-color);" d="M 189.152 305.37 C 189.152 305.37 170.58 300.619 164.533 294.14 C 158.487 287.661 154.599 288.525 156.759 279.023 C 158.919 269.521 188.72 294.14 189.152 305.37 Z"></path>
    <path style="fill: var(--back-color);" d="M 110.544 251.812 C 110.544 251.812 104.929 247.493 107.52 239.287 C 110.111 231.081 115.727 237.559 118.75 240.583 C 121.773 243.606 120.91 258.723 121.774 262.179"></path>
    <path style="fill: var(--back-color);" d="M 146.394 280.75 C 146.394 280.75 120.91 285.934 114 295.868 C 107.09 305.802 94.996 289.389 100.61 282.91 C 106.225 276.432 116.159 263.474 146.394 280.75 Z"></path>
    <path style="fill: var(--back-color);" d="M 122.638 265.201 C 122.638 265.201 91.108 276.431 86.79 262.61 C 82.471 248.789 90.244 250.948 94.564 251.812 C 98.884 252.677 111.84 262.61 122.638 265.201 Z"></path>
    <path style="fill: var(--back-color);" d="M 166.693 303.21 C 166.693 303.21 146.393 290.685 132.14 295.867 C 117.887 301.049 157.622 310.984 166.693 303.21 Z"></path>
    <path style="fill: none; stroke-width: 2px; stroke: var(--border-color);" d="M 192.607 333.876 C 192.607 333.876 204.269 277.295 203.405 269.088 C 202.54 260.882 212.907 209.485 214.634 204.302 C 216.361 199.119 227.16 147.722 224.568 134.764"></path>
    <path style="fill: none; stroke-width: 2px; stroke: var(--border-color);" d="M 209.02 336.899 C 209.02 336.899 215.499 296.731 238.39 258.291 C 261.282 219.851 278.126 200.415 278.126 200.415"></path>
    <path style="fill: none; stroke-width: 2px; stroke: var(--border-color);" d="M 219.817 338.195 C 219.817 338.195 235.798 300.619 268.624 274.704 C 301.45 248.789 303.176 247.061 303.176 247.061"></path>
    <path style="fill: none; stroke-width: 2px; stroke: var(--border-color);" d="M 198.222 335.171 C 198.222 335.171 180.082 271.681 161.51 246.198 C 142.938 220.715 157.622 234.536 130.844 204.302"></path>
    <path style="fill: none; stroke-width: 2px; stroke: var(--border-color);" d="M 183.537 328.693 C 183.537 328.693 163.238 289.82 132.14 269.953 C 101.042 250.086 105.793 250.949 105.793 250.949"></path>
    <path style="fill: var(--back-color);" d="M 222.841 135.976 C 222.841 135.976 218.954 92.785 248.756 87.602 C 278.557 82.419 242.709 131.225 222.841 135.976 Z"></path>
    <path style="fill: var(--back-color);" d="M 225.001 147.206 C 225.001 147.206 194.335 129.93 198.654 95.376 C 202.972 60.823 232.343 125.179 225.001 147.206 Z"></path>
    <path style="fill: var(--back-color);" d="M 273.807 206.893 C 273.807 206.893 281.581 181.843 292.811 177.955 C 304.041 174.068 313.111 165.862 316.134 169.318 C 319.157 172.773 324.772 180.978 307.064 195.231 C 289.356 209.484 292.811 192.208 273.807 206.893 Z"></path>
    <path style="fill: var(--back-color);" d="M 298.858 251.38 C 298.858 251.38 306.2 235.399 314.406 229.785 C 322.613 224.171 324.34 223.738 326.068 228.057 C 327.796 232.376 324.772 245.334 298.858 251.38 Z"></path>
    <path style="fill: var(--back-color);" d="M 131.276 204.733 C 131.276 204.733 106.225 200.415 101.474 195.664 C 96.723 190.913 83.765 175.796 88.085 171.909 C 92.405 168.021 116.591 175.796 116.591 175.796 C 116.591 175.796 128.253 184.434 131.276 204.733 Z"></path>
    <path style="fill: var(--back-color);" d="M 106.225 252.676 C 106.225 252.676 78.583 245.334 79.879 232.376 C 81.174 219.419 85.493 225.897 87.653 226.762 C 89.813 227.626 102.338 237.127 106.225 252.676 Z"></path>
    <polyline style="fill: rgba(0, 0, 0, 0.33);" points="148.192 312.652 179.79 307.038 205.223 306.174 234.125 309.197 251.851 314.38 222.179 332.089 171.699 335.544 149.349 313.948"></polyline> 
    <polyline style="fill:var(--border-color);" points="141.067 305.166 173.459 312.94 206.285 316.395 237.382 312.076 258.114 306.461 238.679 429.988 165.684 429.988"></polyline>
    <polyline style="fill:var(--border-color);" points="165.045 429.608 185.44 433.04 185.44 433.04 224.433 433.04 239.525 429.273"></polyline>
  </svg>