<svg viewBox="330.741 64.122 91.518 148.897" xmlns="http://www.w3.org/2000/svg">
    <style>
        :root{
          --border-color: rgba(133, 167, 130);
          --back-color: rgb(194, 228, 191);
      }
      </style>
    <defs></defs>
    <path style="fill: var(--back-color); stroke: var(--border-color); stroke-width: 0.5px;" d="M 379.035 163.478 C 379.035 163.478 338.295 162.737 332.615 124.713 C 326.935 86.687 351.346 87.37 366.443 73.603 C 381.066 60.266 417.058 62.985 420.764 112.615 C 424.467 162.245 378.787 163.478 379.035 163.478 Z"></path>
    <path style="fill:var(--border-color);" d="M 376.319 211.625 C 376.319 211.625 381.257 130.639 379.282 95.083 C 377.306 59.529 379.776 100.516 379.776 100.516 C 379.776 100.516 382.738 174.095 380.023 211.872"></path>
    <path style="fill:var(--border-color);" d="M 349.668 116.042 C 349.668 116.042 377.648 141.695 379.438 143.801 C 381.228 145.907 380.032 147.497 380.032 147.497 C 381.345 146.952 349.669 116.04 349.668 116.042 Z"></path>
    <path style="fill:var(--border-color);" d="M 356.713 114.058 C 356.726 114.074 360.206 126.006 359.865 125.669 L 360.88 126.559"></path>
    <path style="fill:var(--border-color);" d="M 401.862 106.119 C 401.862 106.119 382.111 126.34 380.527 127.057 C 378.944 127.772 380.518 129.176 380.428 129.14 L 401.862 106.119 Z"></path>
    <path style="fill:var(--border-color);" d="M 402.16 115.347 L 392.435 116.042 L 392.014 116.636"></path>
  </svg>