<svg viewBox="42.925 33.761 88.119 157.316" xmlns="http://www.w3.org/2000/svg">
    <style>
        :root{
          --border-color: rgba(133, 167, 130);
          --back-color: rgb(194, 228, 191);
      }
      </style>
    <defs></defs>
    <path style="stroke: var(--border-color); fill: var(--back-color); stroke-width: 0.6px;" d="M 74.751 153.656 C 74.751 153.656 57.127 155.631 46.644 131.777 C 36.161 107.924 55.725 94.249 58.257 86.501 C 60.788 78.753 65.754 49.885 79.31 39.858 C 92.865 29.831 106.201 39.554 109.392 41.832 C 112.583 44.111 140.387 70.7 126.409 113.85 C 112.431 156.999 84.019 156.999 74.751 153.656 Z"></path>
    <path style="fill:var(--border-color); stroke-width: 0.2px;" d="M 70.51 190.25 C 69.741 180.678 71.008 168.878 74.156 154.85 C 75.417 149.23 79.098 138.709 83.715 124.806 C 87.068 114.712 89.549 104.369 91.16 93.777 C 92.305 86.246 92.862 78.649 92.832 70.987 C 92.825 69.413 92.926 70.983 93.136 75.697 C 93.818 91.062 90.678 109.058 83.715 129.684 C 77.202 148.977 72.062 171.675 73.536 189.917"></path>
  </svg>