<svg viewBox="443.793 28.949 76.273 184.32" xmlns="http://www.w3.org/2000/svg">
    <style>
        :root{
          --border-color: rgba(133, 167, 130);
          --back-color: rgb(194, 228, 191);
      }
      </style>
    <defs></defs>
    <path style="stroke: var(--border-color); fill: var(--back-color);" d="M 480.476 157.869 C 480.476 157.869 452.224 160.462 446.574 134.915 C 440.924 109.369 454.343 87.725 459.64 79.471 C 464.938 71.216 469.882 65.345 469.175 56.517 C 468.468 47.689 465.644 45.216 467.763 39.565 C 469.882 33.915 481.535 27.912 490.011 40.624 C 498.488 53.337 499.899 90.771 515.79 125.733 C 531.682 160.694 480.476 158.223 480.476 157.869 Z"></path>
    <path style="fill:var(--border-color);" d="M 479.3 210.661 C 479.3 210.661 483.699 186.107 479.867 158.433 C 476.036 130.759 476.319 120.098 475.894 116.267 C 475.468 112.435 478.164 77.664 478.164 77.664 C 478.164 77.664 476.036 117.118 477.171 123.788 C 478.306 130.459 483.983 172.199 483.983 176.315 C 483.983 180.431 486.821 193.156 483.132 211.039"></path>
    <path style="fill:var(--border-color);" d="M 482.996 97.902 C 482.996 97.902 482.832 103.405 478.889 106.525 C 474.947 109.646 476.261 108.497 476.261 108.497 L 476.59 111.372 C 476.59 111.372 484.228 103.487 482.996 97.902 Z"></path>
    <path style="fill:var(--border-color);" d="M 465.339 111.381 C 465.291 111.333 464.212 125.011 470.102 129.614 C 475.992 134.217 476.992 132.112 477.001 132.078 L 477.165 135.281 C 477.165 135.281 461.56 133.802 465.339 111.381 Z"></path>
  </svg>