<svg viewBox="637.357 64.471 75.144 148.003" xmlns="http://www.w3.org/2000/svg">
    <style>
        :root{
          --border-color: rgba(133, 167, 130);
          --back-color: rgb(194, 228, 191);
      }
      </style>
    <defs></defs>
    <path style="stroke: var(--border-color); fill: var(--back-color);" d="M 670.5 159.716 C 670.5 159.716 622.5 142.6 644.081 93.857 C 665.662 45.113 697.763 75.511 701.703 80.381 C 706.081 85.792 718.499 102.041 706.965 134.787 C 695.431 167.531 670.5 160.088 670.5 159.716 Z"></path>
    <path style="fill:var(--border-color);" d="M 667.25 212.147 C 667.25 212.147 670.582 145.33 673.173 134.965 C 675.765 124.599 677.06 88.508 677.06 88.508 C 677.06 88.508 678.754 117.856 675.579 133.485 C 672.404 149.114 670.061 211.885 670.211 211.776"></path>
    <path style="fill:var(--border-color);" d="M 668.867 84.526 C 668.834 84.468 668.37 102.168 672.468 108.175 C 676.566 114.182 677.03 111.61 677.036 111.566 L 677.151 114.231 C 677.151 114.231 675.067 113.881 672.939 111.165 C 670.194 107.662 667.376 100.224 668.867 84.526 Z"></path>
    <path style="fill:var(--border-color);" d="M 674.098 146.607 C 674.029 146.656 672.467 127.771 680.944 122.551 C 689.421 117.331 690.077 119.823 690.087 119.87 L 690.311 117.235 C 690.311 117.235 686.222 117.564 682.068 120.266 C 676.902 123.626 671.974 130.688 674.098 146.607 Z" transform="matrix(-1, 0, 0, -1, 1363.600464, 263.842133)"></path>
  </svg>