<svg viewBox="74.558 37.868 71.751 174.938" xmlns="http://www.w3.org/2000/svg">
    <style>
        :root{
          --border-color: rgba(133, 167, 130);
          --back-color: rgb(194, 228, 191);
      }
      </style>
    <defs></defs>
    <path style="fill: var(--back-color); stroke: var(--border-color); stroke-width: 0.5px;" d="M 105.587 169.802 C 105.587 169.802 74.69 164.849 74.945 142.928 C 75.2 121.008 85.336 118.109 88.369 116.053 C 91.404 113.997 90.697 109.158 86.036 106.121 C 81.373 103.085 81.366 97.943 86.619 91.515 C 91.871 85.088 96.409 81.347 97.708 75.741 C 99.008 70.135 95.982 70.585 93.331 66.685 C 90.68 62.785 86.326 52.372 97.124 43.317 C 107.923 34.262 116.969 42.147 118.72 43.9 C 120.471 45.654 126.83 51.503 122.513 64.057 C 118.197 76.61 116.439 74.347 116.677 77.786 C 116.915 81.226 128.642 85.382 130.101 90.932 C 131.56 96.482 129.226 109.627 126.891 117.223 C 124.555 124.818 137.83 128.181 142.358 134.75 C 146.887 141.317 148.265 149.335 137.397 161.916 C 126.529 174.497 106.463 170.095 105.587 169.802 Z"></path>
    <path style="fill:var(--border-color);" d="M 103.826 211.524 L 108.774 120.876 C 110.038 121.171 96.267 97.876 96.231 97.841 L 108.659 117.421 C 111.34 120.514 107.36 67.686 107.278 67.662 C 107.455 67.607 110.704 95.34 111.176 117.942 C 111.448 130.898 110.816 142.758 110.396 142.862 C 110.396 141.832 121.087 131.782 121.087 132.164 C 121.297 131.57 110.936 143.598 110.693 145.064 L 107.969 211.806 L 103.826 211.524 Z"></path>
  </svg>