<svg viewBox="167.402 70.789 65.811 142.206" xmlns="http://www.w3.org/2000/svg">
    <style>
        :root{
          --border-color: rgba(133, 167, 130);
          --back-color: rgb(194, 228, 191);
      }
      </style>
    <defs></defs>
    <path style="stroke: var(--border-color); fill: var(--back-color); stroke-width: 0.7px;" d="M 201.28 180.314 C 201.28 180.314 179.519 181.281 171.929 168.536 C 164.337 155.791 170.576 145.363 171.734 143.239 C 172.892 141.115 179.459 127.018 183.514 118.715 C 187.569 110.412 187.447 102.859 185.253 96.895 C 183.058 90.929 184.479 82.218 193.942 76.233 C 203.404 70.248 213.059 77.585 213.059 77.585 C 213.059 77.585 226.649 83.765 223.486 107.13 C 220.323 130.494 220.342 127.211 220.783 131.267 C 221.224 135.323 235.093 150.871 231.982 163.128 C 228.87 175.385 221.748 178.963 201.28 180.314 Z"></path>
    <path style="fill:var(--border-color);" d="M 199.155 212.176 C 199.155 212.176 198.383 159.652 199.155 153.86 C 199.927 148.067 188.921 133.97 188.921 133.97 C 188.921 133.97 198.963 145.363 199.542 149.225 C 200.121 153.088 201.086 113.695 201.086 113.695 C 201.086 113.695 201.666 148.26 200.7 159.267 C 199.735 170.274 202.632 212.369 202.632 212.369"></path>
  </svg>