<svg viewBox="537.786 50.413 74.271 162.35" xmlns="http://www.w3.org/2000/svg">
    <style>
        :root{
          --border-color: rgba(133, 167, 130);
          --back-color: rgb(194, 228, 191);
      }
      </style>
    <defs></defs>
    <path style="stroke: var(--border-color); fill: var(--back-color);" d="M 572.516 167.812 C 572.516 167.812 546.468 172.6 540.529 145.403 C 534.591 118.205 544.63 92.483 547.041 87.558 C 549.453 82.634 558.382 58.301 566.961 54.444 C 575.54 50.588 581.392 57.289 583.816 59.424 C 586.241 61.56 606.906 81.771 610.44 107.883 C 613.974 133.994 598.756 154.426 595.692 157.108 C 592.627 159.789 583.242 170.132 572.516 167.812 Z"></path>
    <path style="fill:var(--border-color);" d="M 561.588 108.873 C 561.54 108.805 560.868 129.402 566.802 136.392 C 572.735 143.382 573.407 140.389 573.415 140.338 L 573.582 143.439 C 573.582 143.439 570.564 143.031 567.483 139.871 C 563.509 135.796 559.429 127.14 561.588 108.873 Z"></path>
    <path style="fill:var(--border-color);" d="M 569.068 211.652 C 571.685 184.646 573.41 143.209 574.24 87.345 C 574.262 85.864 574.586 87.323 574.815 91.751 C 576.649 127.348 574.544 167.698 572.516 212.227"></path>
    <path style="fill:var(--border-color);" d="M 577.496 156.682"></path>
    <path style="fill:var(--border-color);" d="M 611.398 182.156"></path>
  </svg>