<svg viewBox="244.665 71.823 72.095 140.974" xmlns="http://www.w3.org/2000/svg">
    <style>
        :root{
          --border-color: rgba(133, 167, 130);
          --back-color: rgb(194, 228, 191);
      }
      </style>
    <defs></defs>
    <path style="stroke: var(--border-color); fill: var(--back-color); stroke-width: 0.7px;" d="M 277.937 181.982 C 277.937 181.982 265.935 184.887 256.061 176.562 C 246.187 168.237 246.187 160.493 245.608 157.009 C 245.027 153.524 245.8 145.781 250.447 138.23 C 255.093 130.679 261.369 120.061 264.966 110.159 C 267.901 102.079 269.612 95.445 270.581 84.991 C 271.55 74.538 280.067 74.343 280.067 74.343 C 280.067 74.343 293.232 71.438 302.524 88.669 C 311.816 105.9 318.013 127.776 315.108 146.941 C 312.203 166.108 299.427 176.562 293.232 179.272 C 287.037 181.982 282.197 182.177 277.937 181.982 Z"></path>
    <path style="fill:var(--border-color);" d="M 277.164 211.797 C 277.164 211.797 276.195 172.303 281.422 152.943 C 286.649 133.584 290.909 114.998 288.586 106.48 C 286.263 97.963 288.005 104.351 288.005 104.351 C 288.005 104.351 293.232 109.965 283.939 147.523 C 274.647 185.08 280.841 211.409 280.841 211.409 L 277.164 211.797 Z"></path>
    <path style="fill:var(--border-color);" d="M 302.237 130.336 C 302.237 130.336 284.696 152.49 282.344 153.499 C 279.992 154.507 281.51 156.217 281.51 156.217 C 281.51 156.217 288.232 149.271 302.237 130.336 Z"></path>
    <path style="fill:var(--border-color);" d="M 281.734 119.269 C 281.734 119.269 287.559 130.586 285.655 137.98 C 283.752 145.375 286.59 133.79 286.59 133.79 C 286.59 133.79 287.897 131.482 281.734 119.269 Z"></path>
  </svg>