<svg viewBox="-73.261 3.364 571.206 217.802" width="581.736" height="277.224" xmlns="http://www.w3.org/2000/svg" xmlns:bx="https://boxy-svg.com">
  <style>
    .twingle1{
      animation: hideshow 0.1s ease infinite;
    }
    .twingle2{
      animation: hideshow 1s ease infinite;
    }
    .twingle3{
      animation: hideshow 0.5s ease infinite;
    }

    @keyframes hideshow {
      0% { opacity: 0.8;}
      50% { opacity: 0.4;}
      100% { opacity: 0.8; }
      
    } 
  </style>
    <defs></defs>
    <path d="M -76.354 210.682 C -67.226 201.555 -56.927 193.184 -49.205 182.89 C -45.546 178.008 -45.145 168.116 -40.157 164.791 C -33.198 160.152 -22.605 161.46 -16.887 155.742 C -9.527 148.382 -5.002 141.006 7.028 136.997 C 14.312 134.569 22.797 137.343 29.651 135.058 C 36.751 132.691 43.96 131.827 52.273 131.827 C 62.731 131.827 74.217 133.135 83.301 128.593 C 85.048 127.718 87.632 122.516 88.47 120.837 C 91.295 115.187 100.222 112.257 98.166 104.033 C 96.976 99.269 92.635 94.197 93.641 89.164 C 95.35 80.613 108.508 75.329 108.508 65.896 C 108.508 60.722 108.864 55.4 107.861 50.383 C 107.015 46.154 103.714 39.558 105.275 34.87 C 106.4 31.497 111.894 23.348 114.972 21.297 C 116.254 20.44 123.376 16.644 123.376 15.478 C 123.376 10.264 108.451 4.295 121.436 -0.033 C 123.981 -0.884 126.065 -1.556 128.546 -2.62 C 130.998 -3.671 133.776 -5.009 136.303 -5.85 C 139.311 -6.854 151.443 -3.54 149.23 -1.326 C 146.618 1.286 143.958 2.996 145.997 7.075 C 147.817 10.715 151.888 13.684 153.755 17.418 C 155.054 20.018 153.109 26.352 153.109 29.052 C 153.109 37.59 153.755 51.893 158.925 58.785 C 160.074 60.317 171.852 68.61 171.852 69.127 C 171.852 70.09 169.267 70.421 169.267 70.421 C 169.267 70.421 172.854 67.981 173.146 67.833 C 174.607 67.105 186.141 58.821 187.365 59.431 C 191.864 61.682 191.27 76.497 193.83 80.762 C 197.406 86.725 206.624 85.021 208.695 89.164 C 210.457 92.69 207.194 104.47 208.695 105.97 C 212.078 109.353 215.513 112.288 219.683 114.374 C 220.335 114.699 224.855 115.02 224.855 115.02 C 224.855 115.02 230.159 109.07 230.672 108.557 C 235.343 103.885 240.809 95.087 246.185 92.396 C 250.556 90.211 257.156 96.92 262.345 96.92 C 266.836 96.92 278.914 99.301 282.382 97.568 C 289.918 93.8 304.558 92.86 313.406 94.335 C 319.898 95.416 329.948 94.59 335.384 98.213 C 341.388 102.216 340.049 112.182 347.019 115.666 C 358.077 121.194 370.996 109.202 381.277 109.202 C 385.293 109.202 392.876 121.52 397.436 116.959 C 399.059 115.338 397.584 111.197 398.082 109.202 C 399.029 105.414 400.129 101.518 402.608 98.213 C 407.847 91.228 423.425 90.19 427.17 82.702 C 429.639 77.762 422.769 70.671 420.705 66.541 C 418.875 62.88 438.124 58.155 440.743 56.847 C 441.612 56.411 444.382 52.969 445.269 52.969 C 446.365 52.969 445.349 55.258 445.913 56.2 C 447.184 58.319 447.489 59.465 447.852 62.017 C 448.582 67.13 450.621 68.848 452.377 72.361 C 454.395 76.397 452.031 80.243 454.963 84.64 C 457.983 89.171 461.74 93.022 464.013 97.568 C 464.653 98.849 469.183 100.983 469.183 102.741 C 469.183 105.199 468.601 107.974 470.475 109.849 C 472.135 111.509 476.234 112.082 478.231 113.081 C 479.003 113.465 480.818 112.219 480.818 113.081 C 480.818 116.393 482.96 120.802 484.051 124.069 C 485.451 128.276 482.709 133.668 484.697 137.643 C 486.908 142.07 482.937 150.313 482.11 154.448 C 481.043 159.79 483.867 167.742 481.464 172.546 C 477.928 179.619 474.751 187.913 471.122 195.171 C 466.944 203.527 467.659 216.155 459.488 222.964 C 448.717 231.939 435.214 230.912 421.998 232.012 C 394.86 234.275 367.862 237.184 340.555 237.184 C 316.703 237.184 291.375 247.591 267.515 244.942 C 245.749 242.522 219.648 240.619 199.646 233.952 C 195.097 232.435 186.863 233.952 182.195 233.952 C 166.981 233.952 151.493 233.108 136.303 233.952 C 105.589 235.659 75.903 242.356 45.165 242.356 C 36.025 242.356 27.358 240.44 18.662 237.828 C 6.301 234.123 -5.492 227.479 -17.535 222.964 C -30.532 218.09 -43.912 215.885 -56.963 212.622 C -59.779 211.918 -73.84 213.847 -75.707 211.977 C -76.052 211.632 -78.294 208.742 -78.294 208.742" style="fill: rgb(251, 251, 251);"></path>
    <circle style="fill: rgb(235, 235, 235);" cx="346.837" cy="111.463" r="26.543"></circle>
    <path d="M 332.973 132.89 C 332.768 132.071 332.058 131.227 331.64 130.391 C 331.456 130.022 330.815 129.9 330.639 129.723 C 330.551 129.635 330.665 129.012 330.639 128.891 C 330.487 128.123 330.558 127.275 330.558 126.475 C 330.558 124.919 329.632 122.92 330.142 121.394 C 330.487 120.355 331.149 118.832 330.724 117.561 C 330.557 117.058 329.659 116.83 329.307 116.477 C 328.428 115.598 328.173 115.157 327.808 114.064 C 327.619 113.494 327.921 112.168 328.143 111.73 C 328.382 111.25 327.892 110.623 327.892 110.23 C 327.892 109.567 328.28 108.872 328.558 108.316 C 328.833 107.765 327.762 107.075 328.059 106.482 C 328.147 106.306 328.543 105.907 328.726 105.815 C 328.828 105.764 329.058 105.848 329.058 105.732 C 329.058 105.566 328.353 104.987 328.225 104.732 C 328.152 104.589 327.813 104.317 327.976 104.317 C 328.339 104.317 328.808 103.149 328.808 103.149 C 328.808 103.149 328.749 104.173 328.808 104.232 C 329.523 104.947 329.111 105.76 330.057 106.231 C 330.808 106.609 330.851 104.339 331.974 104.899 C 332.817 105.322 333.217 106.424 334.14 106.732 C 334.529 106.862 335.023 106.634 335.389 106.816 C 336.317 107.281 336.86 108.008 337.804 108.482 C 338.781 108.971 339.723 108.317 340.638 109.232 C 341.129 109.722 341.012 110.314 341.303 110.898 C 341.537 111.366 342.113 111.687 342.303 112.065 C 342.63 112.719 343.864 112.637 344.386 112.896 C 344.88 113.146 345.367 113.828 345.635 114.23 C 345.74 114.387 346.051 114.635 346.051 114.814 C 346.051 115.722 344.926 115.605 344.635 116.477 C 344.155 117.921 343.32 119.877 342.221 120.977 C 341.777 121.419 341.815 122.553 341.138 122.893 C 340.295 123.314 339.545 122.784 338.72 123.059 C 338.047 123.283 337.58 123.654 336.972 124.058 C 336.778 124.19 336.493 124.268 336.388 124.476 C 336.059 125.136 336.099 125.971 335.805 126.558 C 335.623 126.926 334.223 127.174 334.223 127.558 C 334.223 128.778 334.401 130.795 333.556 131.641 C 333.368 131.829 332.956 131.991 332.805 132.138 C 332.567 132.379 332.973 133.14 332.973 133.14" style="fill: rgb(192, 192, 192);"></path>
    <path d="M 359.547 114.979 C 358.412 115.122 356.125 115.716 355.465 114.396 C 355.159 113.787 354.694 112.822 354.882 112.065 C 355.011 111.542 355.382 110.817 355.382 110.315 C 355.382 109.059 355.333 107.873 355.715 106.732 C 355.947 106.034 355.194 105.545 355.382 104.984 C 355.494 104.646 355.756 104.464 355.966 104.15 C 356.663 103.099 357.955 102.181 359.047 101.819 C 359.484 101.673 360.137 101.855 360.546 101.651 C 360.821 101.513 361.983 101.328 362.295 101.485 C 362.923 101.798 363.357 102.672 364.044 102.901 C 365.411 103.356 366.937 101.514 368.21 102.151 C 368.589 102.339 369.393 103.65 369.793 103.65 C 370.187 103.65 371.536 103.305 371.542 103.317 C 371.993 104.217 372.025 105.116 372.458 105.981 C 372.667 106.399 372.411 107.057 372.625 107.481 C 372.979 108.188 372.161 109.554 372.541 110.315 C 373.483 112.196 372.541 113.759 372.541 115.646 C 372.541 118.609 371.699 120.163 370.46 122.644 C 370.256 123.049 370.404 123.666 370.209 124.058 C 369.686 125.107 369.435 126.273 368.877 127.393 C 368.537 128.07 367.548 128.554 367.127 128.975 C 366.649 129.452 366.217 130.512 365.462 130.888 C 364.241 131.5 363.112 132.573 362.213 133.473 C 362.002 133.683 361.308 133.675 361.044 133.805 C 360.737 133.959 360.47 133.708 360.629 133.389 C 361.072 132.503 360.986 131.428 361.463 130.473 C 361.66 130.077 362.083 129.733 362.295 129.306 C 362.547 128.801 362.373 128.155 362.545 127.643 C 362.94 126.455 363.178 125.374 363.712 124.309 C 363.83 124.072 363.544 123.726 363.462 123.559 C 363.188 123.012 363.501 122.137 363.212 121.56 C 362.909 120.957 363.296 119.562 363.544 119.062 C 363.83 118.489 363.185 117.696 363.462 117.145 C 363.991 116.089 364.275 115.009 363.044 114.396 C 362.492 114.119 361.789 114.317 361.296 114.565 C 361.026 114.698 360.866 115.228 360.462 115.228 C 359.884 115.228 359.381 114.897 358.879 114.897" style="fill: rgb(192, 192, 192);"></path>
    <path d="M 371.625 102.733 C 371.216 102.733 370.321 102.883 369.875 102.733 C 368.56 102.295 367.71 101.029 366.462 100.402 C 366.054 100.198 364.961 100.151 364.462 100.151 C 364.353 100.151 363.655 100.372 363.627 100.319 C 363.38 99.824 363.626 99.179 363.044 98.984 C 362.127 98.679 362.127 99.154 361.962 99.653 C 361.883 99.885 361.425 100.024 361.296 100.151 C 360.513 100.933 359.739 101.01 358.879 100.151 C 358.668 99.941 358.42 99.734 358.296 99.485 C 357.836 98.562 359.715 97.444 360.296 97.153 C 360.528 97.037 361.545 97.283 361.545 96.82 C 361.545 95.704 361.704 94.97 361.213 93.987 C 361.079 93.721 360.487 92.915 360.13 92.74 C 359.898 92.62 359.433 92.512 359.297 92.239 C 358.768 91.177 359.87 89.869 360.629 89.488 C 360.903 89.352 361.567 89.708 361.796 89.823 C 362.747 90.298 363.508 90.845 364.462 91.322 C 365.414 91.8 365.619 92.563 366.377 93.322 C 367 93.943 367.993 94.971 368.377 95.736 C 368.632 96.246 368.882 97.243 369.292 97.653 C 369.883 98.243 370.309 99.102 370.709 99.902 C 370.933 100.352 370.846 101.289 371.124 101.568 C 371.303 101.745 371.542 102.497 371.542 102.733" style="fill: rgb(192, 192, 192);"></path>
    <path d="M 360.13 95.654 C 359.902 95.807 358.762 96.535 358.378 96.153 C 358.103 95.877 358.58 95.021 358.713 94.82 C 358.802 94.685 359.126 94.404 358.964 94.404 C 358.387 94.404 357.556 94.347 357.38 93.822 C 357.353 93.74 357.087 93.363 357.214 93.237 C 357.776 92.677 359.963 93.571 360.462 94.072 C 360.722 94.329 359.796 95.407 359.796 95.736" style="fill: rgb(192, 192, 192);"></path>
    <path d="M 352.967 90.904 C 352.131 91.144 351.676 91.261 350.966 90.904 C 350.507 90.674 349.793 89.243 350.468 88.905 C 351.268 88.506 354.02 88.545 353.216 90.155 C 353.05 90.486 352.558 90.146 352.381 90.321 C 352.136 90.568 352.548 90.854 352.548 91.071" style="fill: rgb(192, 192, 192);"></path>
    <path d="M 347.633 84.908 C 347.196 86.227 347.207 87.927 346.633 89.074 C 346.443 89.458 345.952 90.207 346.218 90.738 C 346.505 91.315 347.316 91.6 347.55 92.072 C 347.603 92.179 347.768 92.936 347.802 92.904 C 348.164 92.541 347.925 91.531 348.217 91.239 C 348.535 90.923 348.876 90.329 349.217 89.989 C 349.326 89.879 349.398 89.323 349.633 89.323 C 350.214 89.323 351.185 89.687 351.55 89.323 C 352.235 88.636 352.746 87.897 353.049 86.992 C 353.081 86.893 353.743 85.935 353.549 85.741 C 353.114 85.306 352.255 85.67 351.717 85.491 C 350.54 85.098 348.961 84.825 347.633 84.825" style="fill: rgb(192, 192, 192);"></path>
    <path d="M 327.308 103.983 C 327.096 103.699 326.899 103.113 326.642 102.983 C 326.226 102.776 325.378 102.185 325.225 101.733 C 325.088 101.318 325.438 99.697 325.143 99.403 C 325.02 99.28 324.182 98.305 324.226 98.236 C 324.841 97.316 325.48 96.233 326.225 95.487 C 326.697 95.015 327.415 94.585 327.643 93.904 C 327.816 93.381 327.988 92.879 328.225 92.404 C 328.362 92.133 329.17 91.608 329.475 91.404 C 330.153 90.954 330.768 90.111 331.308 89.574 C 331.779 89.1 332.705 89.023 333.305 88.823 C 333.862 88.637 334.464 88.244 334.971 87.991 C 335.495 87.729 336.32 87.732 336.806 87.491 C 337.569 87.108 338.19 86.298 338.971 85.908 C 339.734 85.526 340.756 85.973 341.553 85.575 C 342.673 85.014 346.12 84.393 347.051 85.324 C 347.13 85.405 346.405 86.784 346.301 86.992 C 346.18 87.23 345.6 88.383 345.218 88.574 C 345.027 88.669 343.343 88.426 343.137 88.323 C 342.595 88.052 340.215 88.246 339.804 88.657 C 339.647 88.813 339.66 89.134 339.554 89.24 C 339.335 89.458 340.097 89.612 340.221 89.488 C 340.828 88.879 342.403 89.074 343.303 89.074 C 343.463 89.074 344.121 88.976 344.219 89.074 C 344.764 89.617 344.71 90.306 345.051 90.988 C 345.125 91.138 345.968 91.382 345.968 91.489 C 345.968 91.855 345.882 92.99 345.635 93.237 C 345.202 93.671 344.07 93.27 343.47 93.571 C 342.412 94.099 340.977 93.401 339.971 93.904 C 339.686 94.046 338.587 95.154 338.305 95.154 C 337.848 95.154 337.407 94.702 336.806 94.904 C 336.58 94.979 335.223 95.409 335.223 95.654 C 335.223 95.911 334.925 96.415 334.804 96.653 C 334.305 97.653 334.183 99.026 333.389 99.82 C 333.283 99.923 333.017 99.285 332.973 99.152 C 332.856 98.8 333.343 97.94 333.14 97.736 C 332.628 97.221 331.144 96.068 330.308 96.486 C 329.878 96.701 328.911 97.53 328.642 98.07 C 328.578 98.192 328.121 98.454 328.059 98.485 C 327.985 98.523 327.933 98.819 327.976 98.819 C 328.764 98.819 329.725 99.053 329.725 100.068 C 329.725 100.148 329.789 100.669 329.725 100.736 C 329.374 101.084 328.641 100.738 328.393 100.984 C 328.235 101.14 327.811 102.239 328.059 102.485 C 328.207 102.632 328.557 102.407 328.393 102.901 C 328.187 103.516 327.308 103.748 327.308 104.232" style="fill: rgb(192, 192, 192);"></path>
    <path d="M 334.472 101.819 C 333.876 102.116 332.258 103.125 331.474 102.733 C 330.238 102.117 330.039 101.255 331.14 100.151 C 331.79 99.502 332.039 101.485 332.39 101.485 C 332.609 101.485 334.078 101.256 334.14 101.319 C 334.179 101.358 334.64 102.32 334.64 102.32" style="fill: rgb(192, 192, 192);"></path>
    <path d="M 336.388 102.819 C 335.889 102.819 335.389 102.819 334.888 102.819 C 334.726 102.819 334.587 103.182 334.472 103.067 C 334.128 102.72 335.157 102.05 335.223 101.984 C 335.365 101.843 335.723 101.452 335.723 101.651 C 335.723 101.826 336.305 102.733 336.305 102.733" style="fill: rgb(192, 192, 192);"></path>
    <path style="fill: rgba(0, 0, 0, 0.02);" transform="matrix(-1, 0, 0, -1, 0, 0)" d="M -351.339 -136.779 A 25.942 25.942 0 1 1 -351.339 -85.607 A 26.968 26.968 0 0 0 -351.339 -136.779 Z" bx:shape="crescent -347.057 -111.193 25.942 199 0.773 1@813948fd"></path>
    <circle style="fill: rgb(224, 224, 224); stroke-miterlimit: 1;" cx="64.638" cy="68.356" r="11.823" transform="matrix(0.965926, -0.258819, 0.258819, 0.965926, -108.492769, -19.975158)"></circle>
    <path d="M -38.458 34.403 C -34.639 33.462 -30.891 32.33 -27.325 30.924 C -26.636 30.652 -24.623 30.688 -23.908 30.924 C -23.602 31.023 -22.897 31.32 -22.53 31.14 C -21.699 30.731 -20.979 30.077 -20.16 29.674 C -19.233 29.215 -17.773 29.775 -16.909 29.346 C -16.524 29.158 -16.06 28.913 -15.641 28.913" style="fill: none; stroke: rgb(255, 255, 255); stroke-miterlimit: 1;" transform="matrix(0.965926, -0.258819, 0.258819, 0.965926, -9.115378, -5.922203)"></path>
    <path d="M -33.984 38.21 C -31.566 36.558 -28.878 35.147 -26.576 33.443 C -25.65 32.758 -24.456 31.714 -23.337 31.494 C -22.18 31.264 -21.19 31.9 -20.266 32.359 C -19.243 32.863 -16.898 31.185 -16.313 31.764 C -16.237 31.84 -15.326 31.817 -15.326 31.817" style="fill: none; stroke: rgb(255, 255, 255); stroke-miterlimit: 1;" transform="matrix(0.965926, -0.258819, 0.258819, 0.965926, -9.854165, -5.194457)"></path>
    <path d="M -27.029 39.971 C -24.722 38.917 -22.587 37.406 -20.602 35.853 C -20.088 35.451 -18.806 35.979 -18.458 35.616 C -18.017 35.158 -16.784 34.852 -16.26 34.852" style="fill: none; stroke: rgb(255, 255, 255); stroke-miterlimit: 1;" transform="matrix(0.965926, -0.258819, 0.258819, 0.965926, -10.420322, -4.327241)"></path>
    <path d="M 169.333 516 m -10.603 0 a 10.603 21.244 0 1 0 21.206 0 a 10.603 21.244 0 1 0 -21.206 0 Z M 169.333 516 m -8.516 0 a 8.516 18.705 0 0 1 17.032 0 a 8.516 18.705 0 0 1 -17.032 0 Z" style="fill: rgb(209, 209, 209); stroke-miterlimit: 1;" transform="matrix(-0.670097, 0.742273, -1.713521, 0.405763, 969.249933, -304.762485)" bx:shape="ring 169.333 516 8.516 18.705 10.603 21.244 1@f01f03ac"></path>
    <path d="M 169.333 516 m -7.423 0 a 7.423 18.248 0 1 0 14.846 0 a 7.423 18.248 0 1 0 -14.846 0 Z M 169.333 516 m -6.481 0 a 6.481 16.068 0 0 1 12.962 0 a 6.481 16.068 0 0 1 -12.962 0 Z" style="fill: rgb(211, 211, 211); stroke-miterlimit: 1;" transform="matrix(-0.670097, 0.742273, -1.713521, 0.405763, 969.486017, -304.984164)" bx:shape="ring 169.333 516 6.481 16.068 7.423 18.248 1@a904626a"></path>
    <circle style="fill: rgb(177, 177, 177); stroke-miterlimit: 1;" cx="213.6" cy="178.8" r="2.923" transform="matrix(0.963653, -0.267156, 0.267156, 0.963653, -287.715535, -88.221513)"></circle>
    <path style="fill: rgb(255, 255, 255); stroke-miterlimit: 1;" transform="matrix(0.015919, 0.059413, -0.060987, 0.016341, -20.902319, -4.298061)" d="M 494 449 A 196.003 196.003 0 0 1 495 56.997 L 495 253 Z" bx:shape="pie 495 253 0 196.003 180.292 360 1@6dd23368"></path>
    <path style="fill: rgb(224, 224, 224); stroke-miterlimit: 1;" transform="matrix(0.015558, 0.058063, -0.058063, 0.015558, -21.329388, -3.294272)" d="M 494 449 A 196.003 196.003 0 0 1 495 56.997 L 495 253 Z" bx:shape="pie 495 253 0 196.003 180.292 360 1@6dd23368"></path>
    <path style="fill: rgb(217, 217, 217); stroke-miterlimit: 1;" transform="matrix(-0.878364, -0.477992, 0.477992, -0.878364, 208.405126, 777.465164)" d="M 570.504 533.399 A 11.795 11.795 0 0 1 570.504 554.601 A 17.213 17.213 0 0 0 570.504 533.399 Z" bx:shape="crescent 565.333 544 11.795 128 0.874 1@e22f1e9f"></path>
    <path d="M -40.151 31.984 C -39.826 31.371 -39.545 30.695 -39.12 30.152 C -38.497 29.356 -37.166 27.857 -35.97 28.264 C -33.64 29.058 -33.144 30.9 -30.322 30.541 C -28.74 30.338 -26.832 28.913 -25.974 27.597 C -25.581 26.995 -25.364 26.008 -24.672 25.656 C -22.645 24.621 -21.511 25.798 -19.946 26.597 C -18.905 27.131 -17.794 26.211 -17.069 26.211" style="fill: none; stroke: rgb(255, 255, 255); stroke-miterlimit: 1;" transform="matrix(0.965926, -0.258819, 0.258819, 0.965926, -8.381483, -6.42971)"></path>
    <path d="M -40.195 24.87 C -39.36 25.037 -37.946 25.122 -37.21 25.563 C -35.553 26.558 -34.541 28.521 -32.518 29.028 C -31.901 29.183 -31.351 30.044 -30.492 29.616 C -30.21 29.473 -29.904 28.777 -29.693 28.495 C -28.497 26.903 -28.154 24.556 -26.762 23.164 C -25.981 22.385 -25.427 22.311 -24.574 21.887 C -24.361 21.778 -23.841 22.003 -23.67 21.831 C -23.511 21.674 -22.75 20.497 -22.708 20.497" style="fill: none; stroke: rgb(255, 255, 255); stroke-miterlimit: 1;" transform="matrix(0.965926, -0.258819, 0.258819, 0.965926, -7.572067, -7.284452)"></path>
    <path d="M -28.894 18.91 C -29.343 19.765 -29.833 22.066 -30.919 22.429 C -32.335 22.901 -32.775 20.839 -33.371 20.242 C -33.655 19.96 -34.578 21.575 -34.863 21.575 C -35.206 21.575 -35.86 20.681 -36.625 20.936 C -36.975 21.052 -37.654 21.948 -37.903 21.948 C -38.141 21.948 -38.97 21.717 -38.97 22.161" style="fill: none; stroke: rgb(255, 255, 255); stroke-miterlimit: 1;" transform="matrix(0.965926, -0.258819, 0.258819, 0.965926, -6.514867, -8.076763)"></path>
    <circle style="fill: rgb(216, 216, 216); stroke: rgb(255, 255, 255); stroke-width: 2px; stroke-miterlimit: 1;" cx="19.059" cy="71.49" r="2.186" transform="matrix(0.965926, -0.258819, 0.258819, 0.965926, -100.183131, -22.825671)"></circle>
    <path style="fill: rgb(187, 187, 187); stroke-miterlimit: 1;" transform="matrix(-0.903565, 0.428452, -0.428452, -0.903565, 159.622782, 216.172485)" d="M 125.939 251.405 A 2.169 2.169 0 1 1 125.939 255.595 A 2.163 2.163 0 0 0 125.939 251.405 Z" bx:shape="crescent 126.5 253.5 2.169 210 0.745 1@a449aefd"></path>
    <circle style="fill: rgb(187, 187, 187); stroke: rgb(216, 216, 216); stroke-miterlimit: 1;" cx="17.703" cy="71.388" r="0.523" transform="matrix(0.965926, -0.258819, 0.258819, 0.965926, -99.926203, -22.874198)"></circle>
    <circle style="fill: rgb(197, 197, 197); stroke-miterlimit: 1;" cx="18.493" cy="69.992" r="0.326" transform="matrix(0.965926, -0.258819, 0.258819, 0.965926, -100.003471, -22.575616)"></circle>
    <circle style="fill: rgb(194, 194, 194); stroke-miterlimit: 1;" cx="19.141" cy="72.703" r="0.6" transform="matrix(0.965926, -0.258819, 0.258819, 0.965926, -100.258705, -23.046865)"></circle>
    <circle style="fill: rgb(189, 187, 187); stroke-miterlimit: 1;" cx="21.164" cy="70.64" r="0.279" transform="matrix(0.965926, -0.258819, 0.258819, 0.965926, -100.531782, -22.563036)"></circle>
    <circle style="fill: rgb(216, 216, 216); stroke-miterlimit: 1;" cx="17.602" cy="73.029" r="0.209" transform="matrix(0.965926, -0.258819, 0.258819, 0.965926, -99.989124, -23.184001)"></circle>
    <circle style="fill: rgb(216, 216, 216); stroke-miterlimit: 1;" cx="18.897" cy="72.582" r="0.28" transform="matrix(0.965926, -0.258819, 0.258819, 0.965926, -100.207379, -23.036538)"></circle>
    <circle style="fill: rgb(216, 216, 216); stroke: rgb(255, 255, 255); stroke-width: 2px; stroke-miterlimit: 1;" cx="26.884" cy="77.497" r="1.266" transform="matrix(0.965926, -0.258819, 0.258819, 0.965926, -101.935498, -23.551941)"></circle>
    <path style="fill: rgb(187, 187, 187); stroke-miterlimit: 1;" transform="matrix(-0.903565, 0.428452, -0.428452, -0.903565, 166.991724, 219.255874)" d="M 126.212 252.427 A 1.111 1.111 0 1 1 126.212 254.573 A 1.108 1.108 0 0 0 126.212 252.427 Z" bx:shape="crescent 126.5 253.5 1.111 210 0.745 1@08a3f107"></path>
    <circle style="fill: rgb(187, 187, 187); stroke: rgb(216, 216, 216); stroke-miterlimit: 1;" cx="26.298" cy="77.438" r="0.301" transform="matrix(0.965926, -0.258819, 0.258819, 0.965926, -101.823725, -23.570156)"></circle>
    <circle style="fill: rgb(197, 197, 197); stroke-miterlimit: 1;" cx="26.556" cy="76.63" r="0.191" transform="matrix(0.965926, -0.258819, 0.258819, 0.965926, -101.831424, -23.407233)"></circle>
    <circle style="fill: rgb(194, 194, 194); stroke-miterlimit: 1;" cx="26.931" cy="78.2" r="0.347" transform="matrix(0.965926, -0.258819, 0.258819, 0.965926, -101.979219, -23.680182)"></circle>
    <circle style="fill: rgb(189, 187, 187); stroke-miterlimit: 1;" cx="28.104" cy="77.005" r="0.16" transform="matrix(0.965926, -0.258819, 0.258819, 0.965926, -102.137618, -23.399845)"></circle>
    <circle style="fill: rgb(216, 216, 216); stroke-miterlimit: 1;" cx="26.04" cy="78.389" r="0.121" transform="matrix(0.965926, -0.258819, 0.258819, 0.965926, -101.823128, -23.759634)"></circle>
    <circle style="fill: rgb(216, 216, 216); stroke-miterlimit: 1;" cx="26.791" cy="78.13" r="0.162" transform="matrix(0.965926, -0.258819, 0.258819, 0.965926, -101.949736, -23.674145)"></circle>
    <circle style="fill: rgb(216, 216, 216); stroke: rgb(255, 255, 255); stroke-width: 2px; stroke-miterlimit: 1;" cx="90.233" cy="69.335" r="1.661" transform="matrix(0.965926, -0.258819, 0.258819, 0.965926, -113.295368, -18.883201)"></circle>
    <circle style="fill: rgb(187, 187, 187); stroke: rgb(216, 216, 216); stroke-miterlimit: 1;" cx="89.202" cy="69.258" r="0.396" transform="matrix(0.965926, -0.258819, 0.258819, 0.965926, -113.100038, -18.920212)"></circle>
    <circle style="fill: rgb(197, 197, 197); stroke-miterlimit: 1;" cx="89.802" cy="68.198" r="0.248" transform="matrix(0.965926, -0.258819, 0.258819, 0.965926, -113.158733, -18.693454)"></circle>
    <circle style="fill: rgb(194, 194, 194); stroke-miterlimit: 1;" cx="90.294" cy="70.257" r="0.455" transform="matrix(0.965926, -0.258819, 0.258819, 0.965926, -113.352594, -19.05137)"></circle>
    <circle style="fill: rgb(189, 187, 187); stroke-miterlimit: 1;" cx="91.831" cy="68.689" r="0.211" transform="matrix(0.965926, -0.258819, 0.258819, 0.965926, -113.560035, -18.683689)"></circle>
    <circle style="fill: rgb(216, 216, 216); stroke-miterlimit: 1;" cx="89.126" cy="70.503" r="0.159" transform="matrix(0.965926, -0.258819, 0.258819, 0.965926, -113.147897, -19.155192)"></circle>
    <circle style="fill: rgb(216, 216, 216); stroke-miterlimit: 1;" cx="90.11" cy="70.165" r="0.212" transform="matrix(0.965926, -0.258819, 0.258819, 0.965926, -113.313836, -19.043451)"></circle>
    <circle style="fill: rgb(216, 216, 216); stroke-miterlimit: 6;" cx="91.205" cy="90.014" r="11.201"></circle>
    <path d="M 83.921 81.556 C 85.967 80.53 87.665 81.425 89.574 82.061 C 89.98 82.196 90.417 81.794 90.713 81.596 C 90.843 81.51 91.041 81.538 91.177 81.472 C 91.804 81.156 92.834 81.814 93.328 82.061 C 93.616 82.208 94.052 81.59 94.215 81.428 C 94.576 81.066 95.515 80.876 96.028 81.049 C 96.471 81.196 96.777 81.57 97.167 81.766 C 97.519 81.942 97.99 81.596 98.307 81.596 C 98.381 81.596 98.562 81.515 98.602 81.556 C 98.745 81.696 98.81 81.931 98.94 82.061 C 99.265 82.386 99.41 82.415 99.614 82.82 C 99.668 82.931 99.859 83.171 99.782 83.327 C 99.512 83.866 98.673 83.804 98.223 83.58 C 97.372 83.156 96.794 82.006 95.733 82.273 C 95.391 82.357 95.144 82.663 94.846 82.861 C 93.812 83.553 93.209 85.096 91.937 85.521 C 91.483 85.67 91.184 86.081 90.628 85.942 C 89.774 85.729 90.32 84.632 90.502 84.085 C 90.568 83.885 90.625 83.752 90.713 83.58 C 90.734 83.538 90.789 83.294 90.755 83.327 C 90.643 83.437 91.077 83.534 91.092 83.537 C 91.259 83.562 92.548 83.685 92.231 83.494 C 92.01 83.362 91.679 83.369 91.431 83.327 C 91.054 83.266 90.261 82.933 89.913 83.284 C 89.565 83.631 89.247 83.962 88.856 84.253 C 88.811 84.288 88.542 84.574 88.476 84.508 C 88.151 84.179 87.956 83.693 87.633 83.369 C 87.498 83.233 87.032 83.723 86.832 83.621 C 86.611 83.512 86.774 83.31 86.663 83.199 C 86.532 83.069 86.089 83.163 85.947 83.199 C 85.493 83.312 85.151 83.733 84.722 83.875 C 84.114 84.077 83.531 83.775 82.909 84.085 C 82.533 84.274 82.381 84.699 82.149 84.929 C 82.108 84.969 81.868 84.904 81.853 84.886 C 81.757 84.79 81.494 84.507 81.601 84.297 C 81.747 84.006 82.186 84.114 82.403 83.79 C 82.592 83.505 82.59 83.16 82.739 82.861 C 82.935 82.475 83.151 82.24 83.415 81.978 C 83.616 81.775 83.698 81.428 84.046 81.428" style="fill: rgb(192, 192, 192); stroke-miterlimit: 6;"></path>
    <path d="M 80.251 88.261 C 81.765 87.883 83.683 87.545 85.23 87.967 C 85.625 88.076 85.984 88.329 86.368 88.473 C 87.554 88.918 88.697 89.341 89.954 89.57 C 90.683 89.704 91.363 89.602 92.02 89.274 C 92.214 89.177 92.392 89.055 92.569 88.937 C 92.582 88.928 92.687 88.806 92.695 88.811 C 92.855 88.891 92.955 89.253 93.201 89.188 C 94.267 88.924 94.401 87.486 95.058 86.828 C 95.43 86.458 96.25 86.478 96.746 86.532 C 96.997 86.561 97.501 86.745 97.756 86.617 C 98.035 86.479 98.287 86.116 98.559 86.026 C 98.951 85.896 99.474 85.899 99.909 85.899 C 100.232 85.899 100.599 85.815 100.879 85.815 C 100.942 85.815 101.162 85.719 101.217 85.774 C 101.399 85.954 101.518 86.212 101.596 86.447 C 101.63 86.55 101.83 86.743 101.723 86.743 C 101.38 86.743 101.05 87.251 100.71 87.251 C 100.24 87.251 99.782 87.451 99.318 87.545 C 98.564 87.696 97.58 87.541 96.956 88.009 C 96.61 88.269 95.685 89.05 95.945 89.57 C 96.14 89.962 96.617 89.994 96.998 89.994 C 97.034 89.994 97.307 90.021 97.334 89.994 C 97.467 89.861 97.734 89.724 97.802 89.528 C 97.846 89.391 97.952 89.117 98.095 89.021 C 98.584 88.695 99.569 88.585 100.119 88.767 C 100.744 88.977 100.134 89.935 99.909 90.162 C 99.567 90.504 98.175 90.29 98.771 91.005 C 99.898 92.359 97.249 89.269 99.023 91.3 C 99.176 91.473 99.391 91.669 99.614 91.764 C 99.738 91.817 99.945 91.871 100.077 91.89 C 100.222 91.909 100.645 92.009 100.794 91.932 C 100.925 91.868 100.831 91.465 100.879 91.342 C 101.029 90.966 101.006 90.535 101.006 90.117 C 101.006 89.986 100.949 89.686 101.006 89.57 C 101.083 89.412 101.085 89.192 101.217 89.063 C 101.32 88.96 101.843 89.016 101.935 89.106 C 102.794 89.966 102.042 91.063 101.723 92.017 C 101.531 92.593 101.502 93.293 101.006 93.662 C 100.562 93.995 99.943 93.899 99.487 93.702 C 98.507 93.284 98.154 92.528 97.588 91.678 C 97.231 91.143 96.999 90.473 96.281 90.329 C 95.907 90.254 95.268 90.204 94.932 90.371 C 94.618 90.528 94.1 90.755 93.71 90.623 C 93.383 90.515 93.1 90.155 92.781 90.077 C 92.54 90.016 92.17 90.073 91.937 90.117 C 91.596 90.185 91.356 90.724 91.177 90.962 C 90.966 91.242 90.093 91.543 89.743 91.427 C 89.318 91.284 89.218 90.873 89.068 90.5 C 89.005 90.342 88.982 90.034 88.814 89.95 C 88.612 89.848 87.973 90.39 87.844 90.5 C 87.491 90.794 86.962 91.375 86.494 91.467 C 86.063 91.555 85.616 91.553 85.188 91.638 C 84.383 91.799 83.795 91.584 83.33 90.962 C 83.207 90.799 82.698 89.994 82.528 90.077 C 81.878 90.4 81.391 91.254 81.137 91.764 C 80.986 92.066 81.203 92.56 81.051 92.86 C 80.991 92.981 80.659 93.398 80.463 93.197 C 80.265 93.003 80.388 92.501 80.251 92.228 C 79.959 91.643 80.253 90.884 80.04 90.245 C 79.98 90.063 79.889 89.771 79.955 89.57 C 80.068 89.231 80.097 88.823 80.251 88.515 C 80.26 88.5 80.463 88.177 80.463 88.177" style="fill: rgb(192, 192, 192); stroke-miterlimit: 6;"></path>
    <path d="M 82.318 96.699 C 82.559 96.313 82.783 95.938 83.076 95.603 C 83.225 95.435 83.485 95.345 83.667 95.223 C 85.364 94.093 87.397 95.276 89.196 94.508 C 89.539 94.358 89.668 93.991 89.913 93.747 C 90.391 93.265 90.812 92.607 91.555 92.607 C 93.053 92.607 94.263 93.994 95.606 94.38 C 96.011 94.494 96.976 94.793 97.378 94.631 C 97.783 94.47 98.175 94.147 98.518 93.874 C 98.622 93.788 98.843 93.543 99.023 93.662 C 99.525 93.995 99.536 94.993 100.077 95.266 C 100.272 95.362 100.653 95.223 100.837 95.223 C 100.94 95.223 101.205 95.066 101.132 95.139 C 100.737 95.534 100.074 95.843 99.614 96.151 C 99.199 96.427 98.962 96.854 98.559 97.122 C 98.368 97.251 98.099 97.179 97.884 97.205 C 97.576 97.244 97.333 97.246 97.04 97.122 C 96.252 96.784 95.81 96.185 95.227 95.603 C 95.079 95.455 94.615 95.105 94.382 95.223 C 93.669 95.58 93.356 96.575 92.525 96.741 C 91.231 97 90.242 95.414 88.985 95.73 C 88.78 95.781 88.594 95.994 88.476 96.151 C 88.161 96.574 87.582 97.387 87.084 97.586 C 86.374 97.87 85 97.704 84.341 97.374 C 84.121 97.265 83.598 96.868 83.371 96.868 C 82.993 96.868 82.36 97.191 82.36 96.658" style="fill: rgb(192, 192, 192); stroke-miterlimit: 6;"></path>
    <path d="M 86.241 99.822 C 87.915 99.263 89.496 98.767 91.26 99.021 C 91.757 99.09 92.26 99.073 92.738 98.978 C 93.023 98.92 93.221 98.63 93.453 98.514 C 93.742 98.371 94.094 98.343 94.427 98.343 C 95.002 98.343 95.477 98.647 95.986 98.85 C 96.246 98.954 96.849 99.305 97.167 99.146 C 97.26 99.101 97.36 99.021 97.462 99.021 C 97.64 99.021 97.798 98.894 97.97 98.894 C 98.054 98.894 98.281 98.833 98.223 98.894 C 97.5 99.614 96.582 99.734 95.648 100.199 C 95.393 100.328 95.186 100.506 94.89 100.58 C 94.334 100.718 93.614 100.441 93.075 100.622 C 92.763 100.725 92.544 100.982 92.231 101.086 C 92.054 101.145 91.821 101.042 91.641 101.086 C 90.955 101.257 89.534 101.256 88.942 100.959 C 88.758 100.868 88.503 100.941 88.307 100.875 C 87.852 100.722 87.108 100.605 86.789 100.286 C 86.682 100.177 86.324 100.066 86.324 99.948" style="fill: rgb(192, 192, 192); stroke-miterlimit: 6;"></path>
    <path d="M 95.438 79.698 C 94.788 79.987 94.175 79.985 93.498 80.122 C 93.372 80.144 93.076 80.226 92.948 80.161 C 92.559 79.969 92.16 79.726 91.766 79.53 C 91.479 79.387 90.884 79.572 90.586 79.572 C 89.958 79.572 89.303 79.636 88.729 79.445 C 88.527 79.377 88.375 79.388 88.224 79.234 C 88.173 79.184 87.941 79.193 88.012 79.193 C 88.544 79.193 88.784 79.104 89.278 78.939 C 89.468 78.875 89.994 79.069 90.122 78.939 C 90.419 78.644 91.22 78.729 91.683 78.729 C 91.966 78.729 92.646 78.598 92.907 78.729 C 93.376 78.965 94.341 78.854 94.721 79.234 C 94.774 79.289 95.584 79.698 95.438 79.698" style="fill: rgb(192, 192, 192); stroke-miterlimit: 6;"></path>
    <circle style="fill: rgb(224, 224, 224);" cx="383.011" cy="63.951" r="12.456" transform="matrix(0.866025, -0.5, 0.5, 0.866025, 96.903547, 185.067967)"></circle>
    <path d="M 169.333 516 m -8.97 0 a 8.97 17.971 0 1 0 17.94 0 a 8.97 17.971 0 1 0 -17.94 0 Z M 169.333 516 m -7.204 0 a 7.204 15.822 0 0 1 14.408 0 a 7.204 15.822 0 0 1 -14.408 0 Z" style="fill: rgb(192, 192, 192);" transform="matrix(-0.45515, 0.890415, -1.550115, 0.835429, 1338.880242, -530.550386)" bx:shape="ring 169.333 516 7.204 15.822 8.97 17.971 1@6d981753"></path>
    <path d="M 169.333 516 m -6.278 0 a 6.278 15.437 0 1 0 12.556 0 a 6.278 15.437 0 1 0 -12.556 0 Z M 169.333 516 m -5.482 0 a 5.482 13.591 0 0 1 10.964 0 a 5.482 13.591 0 0 1 -10.964 0 Z" style="fill: rgb(213, 213, 213);" transform="matrix(-0.45515, 0.890415, -1.550115, 0.835429, 1339.024529, -530.783296)" bx:shape="ring 169.333 516 5.482 13.591 6.278 15.437 1@745b5d0f"></path>
    <path d="M 169.333 516 m -5.392 0 a 5.392 13.48 0 1 0 10.784 0 a 5.392 13.48 0 1 0 -10.784 0 Z M 169.333 516 m -4.33 0 a 4.33 11.235 0 0 1 8.66 0 a 4.33 11.235 0 0 1 -8.66 0 Z" style="fill: rgb(226, 226, 226);" transform="matrix(-0.45515, 0.890415, -1.550115, 0.835429, 1339.072869, -530.827363)" bx:shape="ring 169.333 516 4.33 11.235 5.392 13.48 1@68faf9d0"></path>
    <circle style="fill: rgb(177, 177, 177);" cx="213.6" cy="178.8" r="3.079" transform="matrix(0.861672, -0.507465, 0.507465, 0.861672, 179.315866, 2.491829)"></circle>
    <path style="fill: rgb(255, 255, 255);" transform="matrix(0.037613, 0.065146, -0.059629, 0.034427, 457.700714, 8.899282)" d="M 494 449 A 196.003 196.003 0 0 1 495 56.997 L 495 253 Z" bx:shape="pie 495 253 0 196.003 180.292 360 1@6dd23368"></path>
    <path style="fill: rgb(224, 224, 224);" transform="matrix(0.031665, 0.054843, -0.054843, 0.031665, 458.847137, 13.835635)" d="M 494 449 A 196.003 196.003 0 0 1 495 56.997 L 495 253 Z" bx:shape="pie 495 253 0 196.003 180.292 360 1@6dd23368"></path>
    <circle style="fill: rgb(216, 216, 216);" cx="380.05" cy="50.169" r="1.032" transform="matrix(0.866025, -0.5, 0.5, 0.866025, 100.305884, 188.830115)"></circle>
    <path style="fill: rgb(243, 243, 243);" transform="matrix(-0.5, -0.866025, 0.866025, -0.5, 272.206344, 810.633525)" d="M 562.211 531.928 A 12.469 12.469 0 1 1 562.211 556.072 A 118.078 118.078 0 0 1 562.211 531.928 Z" bx:shape="crescent 565.333 544 12.469 209 0.35 1@21653d3b"></path>
    <path style="fill: rgb(193, 193, 193);" transform="matrix(-0.5, -0.866025, 0.866025, -0.5, 272.314681, 810.674052)" d="M 565.007 531.535 A 12.469 12.469 0 1 1 565.007 556.465 A 50.3 50.3 0 0 1 565.007 531.535 Z" bx:shape="crescent 565.333 544 12.469 183 0.424 1@d1f7f992"></path>
    <path style="fill: rgb(228, 228, 228);" transform="matrix(-0.5, -0.866025, 0.866025, -0.5, 272.281387, 810.616618)" d="M 566.853 531.624 A 12.469 12.469 0 0 1 566.853 556.376 A 48.103 48.103 0 0 1 566.853 531.624 Z" bx:shape="crescent 565.333 544 12.469 166 0.496 1@6921b2f8"></path>
    <path style="fill: rgb(248, 248, 248);" transform="matrix(-0.5, -0.866025, 0.866025, -0.5, 272.216537, 810.504192)" d="M 572.033 533.484 A 12.469 12.469 0 0 1 572.033 554.516 A 23.494 23.494 0 0 1 572.033 533.484 Z" bx:shape="crescent 565.333 544 12.469 115 0.669 1@c5e7464b"></path>
    <path style="fill: rgb(162, 162, 162);" transform="matrix(-0.5, -0.866025, 0.866025, -0.5, 272.225723, 810.676616)" d="M 573.431 534.518 A 12.469 12.469 0 0 1 573.431 553.482 A 21.865 21.865 0 0 1 573.431 534.518 Z" bx:shape="crescent 565.333 544 12.469 99 0.738 1@59e94817"></path>
    <path style="fill: rgb(238, 238, 238);" transform="matrix(-0.5, -0.866025, 0.866025, -0.5, 272.245681, 810.554668)" d="M 573.995 535.031 A 12.469 12.469 0 0 1 573.995 552.969 A 19.761 19.761 0 0 1 573.995 535.031 Z" bx:shape="crescent 565.333 544 12.469 92 0.761 1@0149eb3a"></path>
    <path style="fill: rgb(176, 176, 176);" transform="matrix(0.5, 0.866025, -0.866025, 0.5, 649.114793, -712.709941)" d="M 573.995 535.031 A 12.469 12.469 0 0 1 573.995 552.969 A 26.519 26.519 0 0 0 573.995 535.031 Z" bx:shape="crescent 565.333 544 12.469 92 0.91 1@a6c560f3"></path>
    <circle style="fill: rgb(224, 224, 224);" cx="216.242" cy="151.154" r="17.605" transform="matrix(0.965926, 0.258819, -0.258819, 0.965926, 28.759563, -140.328723)"></circle>
    <path style="fill: rgb(210, 210, 210);" transform="matrix(-0.639323, 0.768938, -0.768938, -0.639323, 978.228662, -25.255739)" d="M 573.032 528.215 A 17.562 17.562 0 0 1 573.032 559.785 A 25.629 25.629 0 0 0 573.032 528.215 Z" bx:shape="crescent 565.333 544 17.562 128 0.874 1@a1945da2"></path>
    <path d="M 169.333 516 m -12.678 0 a 12.678 25.396 0 1 0 25.356 0 a 12.678 25.396 0 1 0 -25.356 0 Z M 169.333 516 m -10.181 0 a 10.181 22.361 0 0 1 20.362 0 a 10.181 22.361 0 0 1 -20.362 0 Z" style="fill: rgb(192, 192, 192);" transform="matrix(-0.951458, 0.307779, -1.686832, -0.50536, 1230.280583, 269.384203)" bx:shape="ring 169.333 516 10.181 22.361 12.678 25.396 1@d08ba1bb"></path>
    <path d="M 169.333 516 m -8.873 0 a 8.873 21.817 0 1 0 17.746 0 a 8.873 21.817 0 1 0 -17.746 0 Z M 169.333 516 m -7.746 0 a 7.746 19.209 0 0 1 15.492 0 a 7.746 19.209 0 0 1 -15.492 0 Z" style="fill: rgb(192, 192, 192);" transform="matrix(-0.951458, 0.307779, -1.686832, -0.50536, 1230.657658, 269.295885)" bx:shape="ring 169.333 516 7.746 19.209 8.873 21.817 1@6be229e0"></path>
    <path d="M 169.333 516 m -7.621 0 a 7.621 19.05 0 1 0 15.242 0 a 7.621 19.05 0 1 0 -15.242 0 Z M 169.333 516 m -6.121 0 a 6.121 15.876 0 0 1 12.242 0 a 6.121 15.876 0 0 1 -12.242 0 Z" style="fill: rgb(192, 192, 192);" transform="matrix(-0.951458, 0.307779, -1.686832, -0.50536, 1230.749943, 269.300035)" bx:shape="ring 169.333 516 6.121 15.876 7.621 19.05 1@cb97e328"></path>
    <circle style="fill: rgb(177, 177, 177);" cx="213.6" cy="178.8" r="4.352" transform="matrix(0.968126, 0.250463, -0.250463, 0.968126, 30.814825, -172.20211)"></circle>
    <path style="fill: rgb(255, 255, 255);" transform="matrix(-0.023702, 0.088459, -0.090805, -0.024331, 233.162888, 23.849844)" d="M 494 449 A 196.003 196.003 0 0 1 495 56.997 L 495 253 Z" bx:shape="pie 495 253 0 196.003 180.292 360 1@6dd23368"></path>
    <path style="fill: rgb(224, 224, 224);" transform="matrix(-0.023163, 0.086448, -0.086448, -0.023163, 231.86496, 24.826231)" d="M 494 449 A 196.003 196.003 0 0 1 495 56.997 L 495 253 Z" bx:shape="pie 495 253 0 196.003 180.292 360 1@6dd23368"></path>
    <circle style="fill: rgb(213, 213, 213);" cx="208.678" cy="145.997" r="3.547" transform="matrix(0.965926, 0.258819, -0.258819, 0.965926, 27.141194, -142.209287)"></circle>
    <circle style="fill: rgb(216, 216, 216);" cx="214.136" cy="141.346" r="1.459" transform="matrix(0.965926, 0.258819, -0.258819, 0.965926, 28.896221, -143.043976)"></circle>
    <circle style="fill: rgb(216, 216, 216);" cx="204.266" cy="149.449" r="1.733" transform="matrix(0.965926, 0.258819, -0.258819, 0.965926, 25.744099, -141.615117)"></circle>
    <circle style="fill: rgb(216, 216, 216);" cx="213.412" cy="145.838" r="7.142" transform="matrix(0.965926, 0.258819, -0.258819, 0.965926, 28.39161, -141.918861)"></circle>
    <circle style="fill: rgb(204, 204, 204);" cx="215.9" cy="146.078" r="2.292" transform="matrix(0.965926, 0.258819, -0.258819, 0.965926, 29.026074, -141.681504)"></circle>
    <circle style="fill: rgb(216, 216, 216);" cx="220.754" cy="146.72" r="3.083" transform="matrix(0.965926, 0.258819, -0.258819, 0.965926, 30.251714, -141.172953)"></circle>
    <circle style="fill: rgb(216, 216, 216);" cx="216.589" cy="160.776" r="2.756" transform="matrix(0.965926, 0.258819, -0.258819, 0.965926, 28.175483, -137.785559)"></circle>
    <circle style="fill: rgb(216, 216, 216); stroke-width: 2px;" cx="-33.457" cy="145.771" r="2.07"></circle>
    <path style="fill: rgb(187, 187, 187);" transform="matrix(-0.983668, 0.179993, -0.179993, -0.983668, 136.592328, 372.369472)" d="M 125.965 251.504 A 2.066 2.066 0 1 1 125.965 255.496 A 2.061 2.061 0 0 0 125.965 251.504 Z" bx:shape="crescent 126.5 253.5 2.066 210 0.745 1@49e8d472"></path>
    <circle style="fill: rgb(187, 187, 187); stroke: rgb(216, 216, 216); stroke-width: 0.4px;" cx="-34.493" cy="145.696" r="0.494"></circle>
    <circle style="fill: rgb(197, 197, 197);" cx="-33.872" cy="144.916" r="0.309"></circle>
    <circle style="fill: rgb(194, 194, 194);" cx="-33.393" cy="146.701" r="0.567"></circle>
    <circle style="fill: rgb(189, 187, 187);" cx="-31.848" cy="145.124" r="0.262"></circle>
    <circle style="fill: rgb(216, 216, 216);" cx="-34.571" cy="146.948" r="0.199"></circle>
    <circle style="fill: rgb(216, 216, 216);" cx="-33.58" cy="146.607" r="0.265"></circle>
    <circle style="fill: rgb(216, 216, 216);" cx="-34.565" cy="144.699" r="0.074"></circle>
    <circle style="fill: rgb(216, 216, 216);" cx="-34.547" cy="146.609" r="0.035"></circle>
    <circle style="fill: rgb(216, 216, 216);" cx="-33.627" cy="144.902" r="0.049"></circle>
    <circle style="fill: rgb(209, 209, 209);" cx="-32.779" cy="145.368" r="0.133"></circle>
    <circle style="fill: rgb(216, 216, 216); stroke-width: 2px;" cx="-27.366" cy="145.982" r="0.812"></circle>
    <circle style="fill: rgb(197, 197, 197);" cx="-27.531" cy="145.646" r="0.123"></circle>
    <circle style="fill: rgb(194, 194, 194);" cx="-27.343" cy="146.349" r="0.223"></circle>
    <circle style="fill: rgb(189, 187, 187);" cx="-26.734" cy="145.727" r="0.101"></circle>
    <circle style="fill: rgb(216, 216, 216);" cx="-27.803" cy="146.445" r="0.077"></circle>
    <circle style="fill: rgb(216, 216, 216);" cx="-27.417" cy="146.31" r="0.102"></circle>
    <circle style="fill: rgb(216, 216, 216);" cx="-27.801" cy="145.56" r="0.029"></circle>
    <circle style="fill: rgb(216, 216, 216);" cx="-27.796" cy="146.31" r="0.014"></circle>
    <circle style="fill: rgb(216, 216, 216);" cx="-27.435" cy="145.641" r="0.018"></circle>
    <circle style="fill: rgb(209, 209, 209);" cx="-27.101" cy="145.824" r="0.052"></circle>
    <circle style="fill: rgb(216, 216, 216);" cx="-43.739" cy="145.833" r="16.985"></circle>
    <circle style="fill: rgb(216, 216, 216); stroke: rgb(255, 255, 255); stroke-width: 0.3px;" cx="-27.657" cy="139.137" r="1.292"></circle>
    <path style="fill: rgb(187, 187, 187);" transform="matrix(-0.983668, 0.179993, -0.179993, -0.983668, 142.323423, 365.733028)" d="M 126.222 252.463 A 1.074 1.074 0 1 1 126.222 254.537 A 1.071 1.071 0 0 0 126.222 252.463 Z" bx:shape="crescent 126.5 253.5 1.074 210 0.745 1@5e9cd3f4"></path>
    <circle style="fill: rgb(187, 187, 187); stroke: rgb(216, 216, 216); stroke-width: 0.4px;" cx="-28.305" cy="139.09" r="0.308"></circle>
    <circle style="fill: rgb(197, 197, 197);" cx="-27.919" cy="138.603" r="0.194"></circle>
    <circle style="fill: rgb(194, 194, 194);" cx="-27.619" cy="139.618" r="0.353"></circle>
    <circle style="fill: rgb(189, 187, 187);" cx="-26.653" cy="138.732" r="0.165"></circle>
    <circle style="fill: rgb(216, 216, 216);" cx="-28.354" cy="139.872" r="0.123"></circle>
    <circle style="fill: rgb(216, 216, 216);" cx="-27.735" cy="139.66" r="0.165"></circle>
    <circle style="fill: rgb(216, 216, 216);" cx="-28.349" cy="138.465" r="0.046"></circle>
    <circle style="fill: rgb(216, 216, 216);" cx="-28.34" cy="139.66" r="0.022"></circle>
    <circle style="fill: rgb(216, 216, 216);" cx="-27.767" cy="138.594" r="0.03"></circle>
    <circle style="fill: rgb(209, 209, 209);" cx="-27.235" cy="138.885" r="0.082"></circle>
    <path style="fill: rgb(197, 197, 197);" transform="matrix(-1, 0, 0, -1, 0, 0)" d="M 39.518 -162.211 A 16.975 16.975 0 1 1 39.518 -129.417 A 17.612 17.612 0 0 0 39.518 -162.211 Z" bx:shape="crescent 43.911 -145.814 16.975 210 0.7 1@a49113e4"></path>
    <path d="M -57.306 141.183 C -57.139 140.628 -56.918 139.161 -56.355 138.883 C -55.829 138.618 -55.186 138.799 -54.655 138.532 C -54.072 138.238 -54.164 137.26 -53.603 136.979 C -52.906 136.631 -52.112 137.243 -51.951 137.881 C -51.914 138.035 -51.764 138.307 -51.853 138.482 C -52.381 139.541 -53.592 139.901 -54.555 140.384 C -54.825 140.517 -54.783 141.186 -54.904 141.434 C -55.118 141.862 -56.456 142.309 -56.906 142.083 C -56.955 142.06 -57.17 142.07 -57.208 142.034 C -57.306 141.933 -57.356 141.222 -57.356 141.083" style="fill: rgb(176, 176, 176);"></path>
    <path d="M -50.719 154.427 C -50.904 154.106 -51.133 153.834 -51.321 153.524 C -51.812 152.706 -51.687 151.446 -50.92 150.872 C -50.427 150.502 -49.893 150.319 -49.519 149.82 C -49.158 149.339 -49.653 148.47 -49.119 148.07 C -48.843 147.862 -48.48 147.965 -48.167 147.92 C -47.522 147.829 -45.866 147.819 -45.366 148.32 C -44.627 149.059 -45.874 150.54 -45.315 151.473 C -44.916 152.14 -44.15 152.146 -43.415 152.073 C -42.76 152.007 -42.165 151.597 -42.165 152.474 C -42.165 152.593 -42.143 152.754 -42.165 152.873 C -42.193 153.056 -42.23 153.254 -42.312 153.426 C -42.465 153.725 -42.648 153.984 -42.813 154.275 C -43.037 154.663 -43.261 155.112 -43.615 155.375 C -44.227 155.834 -45.284 156.172 -46.065 155.977 C -46.276 155.924 -46.478 155.838 -46.666 155.776 C -46.685 155.771 -47.001 155.561 -47.016 155.626 C -47.165 156.224 -47.067 156.879 -47.217 157.476 C -47.243 157.577 -47.272 158.128 -47.467 158.128 C -47.81 158.128 -48.138 158.119 -48.468 158.077 C -49.571 157.941 -50.92 157.056 -50.92 155.876 C -50.92 155.751 -50.976 155.44 -50.92 155.325 C -50.714 154.914 -50.51 154.446 -50.369 154.024 C -50.329 153.902 -50.39 153.715 -50.469 153.674" style="fill: rgb(176, 176, 176);"></path>
    <path d="M -41.245 144.034 C -41.339 142.804 -41.4 141.136 -40.093 140.482 C -39.494 140.184 -38.702 140.622 -38.292 141.033 C -38.262 141.062 -37.886 141.434 -37.791 141.434 C -37.477 141.434 -37.293 140.793 -36.839 141.133 C -36.522 141.373 -36.432 141.861 -36.391 142.235 C -36.283 143.2 -36.833 144.328 -37.49 144.986 C -37.785 145.279 -38.378 145.428 -38.491 145.887 C -38.62 146.405 -38.209 146.642 -37.841 146.888 C -37.809 146.909 -37.29 147.188 -37.29 147.188 C -37.29 147.188 -38.12 147.338 -38.191 147.338 C -38.952 147.338 -39.721 147.437 -40.493 147.437 C -40.763 147.437 -41.149 147.482 -41.343 147.287 C -41.394 147.236 -41.556 146.7 -41.494 146.637 C -41.349 146.493 -41.342 146.283 -41.295 146.087 C -41.202 145.723 -40.834 145.004 -41.044 144.586 C -41.172 144.33 -41.295 143.809 -41.295 143.535" style="fill: rgb(176, 176, 176);"></path>
    <path d="M -45.196 134.678 C -44.465 133.698 -43.609 132.726 -42.294 132.726 C -42.137 132.726 -42.026 132.615 -41.844 132.676 C -41.485 132.796 -41.014 133.476 -40.643 133.476 C -39.461 133.476 -38.405 133.048 -37.791 134.278 C -37.695 134.47 -37.46 134.766 -37.591 135.029 C -37.98 135.805 -38.983 136.255 -39.794 136.581 C -40.161 136.726 -40.487 137.01 -40.843 137.13 C -40.986 137.177 -41.162 137.391 -41.295 137.48 C -42.231 138.104 -42.994 139.156 -43.946 139.632 C -44.239 139.778 -44.925 139.6 -45.196 139.532 C -45.442 139.47 -45.671 139.483 -45.897 139.331 C -46.183 139.142 -46.511 138.869 -46.748 138.631 C -46.869 138.511 -46.518 138.265 -46.447 138.231 C -46.281 138.148 -45.446 137.565 -45.446 137.381 C -45.446 137.147 -45.911 137.073 -45.847 136.88 C -45.731 136.53 -45.612 136.251 -45.397 135.93 C -45.338 135.837 -45.147 135.759 -45.147 135.629 C -45.147 135.412 -45.512 135.059 -45.446 134.929 C -45.34 134.712 -45.047 134.558 -45.047 134.377" style="fill: rgb(176, 176, 176);"></path>
    <path d="M -36.954 156.963 C -36.526 156.535 -36.032 156.106 -35.553 155.762 C -35.204 155.514 -34.906 155.127 -34.452 155.063 C -33.759 154.963 -32.873 155.125 -32.249 154.811 C -30.977 154.176 -31.016 152.121 -30.349 151.008 C -30.184 150.733 -29.584 150.298 -29.297 150.109 C -29.136 150 -28.845 150.004 -28.748 149.807 C -28.154 148.622 -29.862 147.8 -29.448 146.557 C -29.276 146.04 -28.889 145.646 -28.548 145.304 C -28.418 145.175 -28.157 145.224 -28.047 145.005 C -27.931 144.774 -27.467 143.954 -27.296 143.954 C -27.169 143.954 -27.239 144.263 -27.197 144.303 C -27.02 144.481 -27.095 144.96 -27.095 145.205 C -27.095 145.84 -26.969 147.102 -27.245 147.657 C -27.479 148.124 -27.106 148.882 -27.346 149.358 C -27.518 149.703 -27.324 150.193 -27.447 150.558 C -27.661 151.207 -27.84 151.798 -28.146 152.41 C -28.194 152.504 -28.099 152.668 -28.146 152.761 C -28.264 152.992 -28.327 153.22 -28.446 153.461 C -28.581 153.729 -28.467 154.151 -28.598 154.412 C -28.773 154.764 -28.864 155.149 -29.048 155.513 C -29.634 156.686 -30.437 157.802 -31.351 158.715 C -32.064 159.43 -33.101 159.919 -33.802 160.618 C -34.151 160.966 -34.756 161.004 -35.153 161.266 C -35.38 161.421 -35.83 161.105 -36.004 161.016 C -36.369 160.834 -36.97 160.215 -36.803 159.716 C -36.658 159.278 -36.272 158.76 -36.454 158.214 C -36.611 157.743 -37.106 157.486 -37.355 157.115 C -37.401 157.044 -37.604 156.712 -37.504 156.614 C -37.339 156.45 -36.774 156.438 -36.552 156.365 C -36.513 156.352 -36.203 156.164 -36.203 156.164" style="fill: rgb(176, 176, 176);" transform="matrix(0.998619, 0.052532, -0.052532, 0.998619, 7.973422, 1.907469)"></path>
    <path d="M -32.336 138.931 C -31.456 138.931 -31.493 139.258 -31.687 140.032 C -31.703 140.097 -31.693 140.44 -31.737 140.482 C -31.799 140.546 -32.03 140.447 -32.087 140.433 C -32.451 140.342 -32.772 140.143 -33.088 139.932 C -33.14 139.897 -33.42 139.749 -33.388 139.682 C -33.196 139.3 -32.336 139 -32.336 138.532" style="fill: rgb(176, 176, 176);"></path>
    <path d="M -59.558 149.057 C -59.316 149.35 -59.036 149.769 -58.959 150.16 C -58.949 150.207 -59.011 150.836 -58.959 150.859 C -58.808 150.935 -58.393 150.854 -58.257 150.81 C -58.231 150.799 -57.941 150.59 -57.905 150.659 C -57.663 151.148 -57.807 151.949 -57.807 152.51 C -57.807 152.62 -57.88 153.138 -57.807 153.212 C -57.46 153.557 -56.925 153.643 -56.605 153.962 C -56.534 154.033 -56.634 154.355 -56.605 154.461 C -56.475 154.983 -56.657 155.356 -56.657 155.812 C -56.657 156.113 -56.657 156.414 -56.657 156.715 C -56.657 156.851 -56.471 157.114 -56.605 157.114 C -57.068 157.114 -57.367 156.305 -57.657 156.014 C -57.71 155.961 -57.677 155.742 -57.757 155.664 C -58.022 155.398 -58.118 154.901 -58.357 154.663 C -58.857 154.163 -59.122 153.27 -59.358 152.56 C -59.544 152.004 -59.969 151.485 -60.21 151.009 C -60.396 150.635 -60.219 149.581 -60.059 149.259 C -59.959 149.059 -59.607 148.938 -59.607 149.259" style="fill: rgb(176, 176, 176);"></path>
    <path d="M -59.613 139.679 C -59.407 139.266 -59.328 138.779 -59.192 138.366 C -59.049 137.935 -58.652 137.497 -58.488 137.005 C -58.345 136.573 -58.413 136.012 -58.206 135.598 C -57.928 135.038 -57.538 134.683 -57.268 134.143 C -57.074 133.754 -57.572 133.088 -57.221 132.736 C -56.558 132.074 -56.073 131.704 -55.299 131.188 C -54.824 130.872 -54.651 130.419 -54.126 130.157 C -53.517 129.853 -52.608 130.313 -52.014 130.015 C -50.982 129.5 -50.323 128.56 -49.294 128.045 C -48.609 127.702 -47.841 128.123 -47.228 128.326 C -47.04 128.388 -46.469 128.534 -46.245 128.42 C -46.213 128.405 -46.362 128.349 -46.34 128.373 C -45.941 128.771 -45.008 128.609 -44.462 128.609 C -43.861 128.609 -43.035 128.488 -42.631 128.889 C -42.536 128.987 -42.204 128.937 -42.068 128.937 C -41.879 128.937 -41.485 128.854 -41.32 128.937 C -41.164 129.014 -40.84 129.218 -40.615 129.218 C -40.469 129.218 -39.995 129.179 -39.911 129.264 C -39.907 129.27 -39.629 129.452 -39.675 129.452 C -40.147 129.452 -41.091 129.817 -41.46 130.063 C -41.69 130.217 -41.733 130.524 -41.927 130.719 C -42.183 130.974 -42.626 131.383 -42.961 131.517 C -43.342 131.669 -44.043 131.835 -44.462 131.75 C -45.069 131.63 -45.792 131.35 -46.432 131.565 C -47.06 131.772 -47.318 132.497 -47.746 132.923 C -48.774 133.952 -49.63 134.757 -51.029 135.316 C -51.365 135.451 -52.157 135.625 -52.53 135.551 C -52.904 135.475 -53.446 135.229 -53.844 135.364 C -54.446 135.563 -54.739 136.232 -55.251 136.488 C -55.669 136.698 -56.211 136.159 -56.565 136.631 C -56.793 136.932 -56.872 137.452 -57.129 137.709 C -57.169 137.75 -57.456 138.011 -57.456 138.037 C -57.456 138.401 -57.721 138.785 -57.831 139.117 C -57.953 139.478 -58.041 139.934 -58.253 140.289 C -58.449 140.616 -58.747 140.949 -58.909 141.273 C -59.051 141.555 -59.328 141.9 -59.238 142.259 C -59.235 142.27 -58.987 143.058 -59.098 143.058 C -59.211 143.058 -59.859 143.162 -59.942 143.244 C -60.003 143.305 -59.907 143.572 -59.895 143.62 C -59.869 143.722 -59.787 144.918 -59.942 144.84 C -60.536 144.543 -60.193 144.226 -60.365 143.713 C -60.606 142.987 -60.167 141.948 -59.942 141.273 C -59.807 140.865 -59.949 140.353 -59.754 139.96 C -59.695 139.842 -59.52 139.602 -59.52 139.491" style="fill: rgb(180, 180, 180);"></path>
    <circle style="fill: rgb(216, 216, 216); stroke-width: 2px;" cx="468.935" cy="135.694" r="8.188"></circle>
    <path style="fill: rgb(187, 187, 187);" transform="matrix(-0.983668, 0.179993, -0.179993, -0.983668, 638.955014, 362.310207)" d="M 124.383 245.598 A 8.181 8.181 0 1 1 124.383 261.402 A 8.16 8.16 0 0 0 124.383 245.598 Z" bx:shape="crescent 126.5 253.5 8.181 210 0.745 1@527a8a4f"></path>
    <circle style="fill: rgb(187, 187, 187); stroke: rgb(216, 216, 216); stroke-width: 0.4px;" cx="464.833" cy="135.39" r="1.954"></circle>
    <circle style="fill: rgb(197, 197, 197);" cx="467.289" cy="132.304" r="1.224"></circle>
    <circle style="fill: rgb(194, 194, 194);" cx="469.181" cy="139.368" r="2.248"></circle>
    <circle style="fill: rgb(189, 187, 187);" cx="475.304" cy="133.124" r="1.04"></circle>
    <circle style="fill: rgb(216, 216, 216);" cx="464.527" cy="140.346" r="0.785"></circle>
    <circle style="fill: rgb(216, 216, 216);" cx="468.445" cy="139.002" r="1.047"></circle>
    <circle style="fill: rgb(216, 216, 216);" cx="464.553" cy="131.439" r="0.289"></circle>
    <circle style="fill: rgb(216, 216, 216);" cx="464.621" cy="139.005" r="0.142"></circle>
    <circle style="fill: rgb(216, 216, 216);" cx="468.252" cy="132.247" r="0.191"></circle>
    <circle style="fill: rgb(209, 209, 209);" cx="471.615" cy="134.095" r="0.525"></circle>
    <circle style="fill: rgb(216, 216, 216); stroke-width: 2px;" cx="86.105" cy="134.106" r="5.207"></circle>
    <path style="fill: rgb(187, 187, 187);" transform="matrix(-0.983668, 0.179993, -0.179993, -0.983668, 256.1405, 360.712765)" d="M 125.154 248.477 A 5.2 5.2 0 1 1 125.154 258.523 A 5.186 5.186 0 0 0 125.154 248.477 Z" bx:shape="crescent 126.5 253.5 5.2 210 0.745 1@f1fab439"></path>
    <circle style="fill: rgb(187, 187, 187); stroke: rgb(216, 216, 216); stroke-width: 0.4px;" cx="83.497" cy="151.259" r="1.242"></circle>
    <circle style="fill: rgb(197, 197, 197);" cx="85.059" cy="149.297" r="0.778"></circle>
    <circle style="fill: rgb(194, 194, 194);" cx="86.261" cy="136.441" r="1.43"></circle>
    <circle style="fill: rgb(189, 187, 187);" cx="90.155" cy="149.816" r="0.661"></circle>
    <circle style="fill: rgb(216, 216, 216);" cx="83.303" cy="137.065" r="0.499"></circle>
    <circle style="fill: rgb(216, 216, 216);" cx="85.793" cy="136.208" r="0.666"></circle>
    <circle style="fill: rgb(216, 216, 216);" cx="83.32" cy="148.747" r="0.184"></circle>
    <circle style="fill: rgb(216, 216, 216);" cx="83.362" cy="136.21" r="0.089"></circle>
    <circle style="fill: rgb(216, 216, 216);" cx="85.67" cy="149.26" r="0.121"></circle>
    <circle style="fill: rgb(209, 209, 209);" cx="87.808" cy="150.435" r="0.334"></circle>
    <circle style="fill: rgb(216, 216, 216); stroke-width: 2px;" cx="3.496" cy="68.358" r="6.733"></circle>
    <path style="fill: rgb(187, 187, 187);" transform="matrix(-0.983668, 0.179993, -0.179993, -0.983668, 173.523435, 294.969997)" d="M 124.759 247.002 A 6.727 6.727 0 1 1 124.759 259.998 A 6.71 6.71 0 0 0 124.759 247.002 Z" bx:shape="crescent 126.5 253.5 6.727 210 0.745 1@809a4b51"></path>
    <circle style="fill: rgb(187, 187, 187); stroke: rgb(216, 216, 216); stroke-width: 0.4px;" cx="0.123" cy="68.109" r="1.606"></circle>
    <circle style="fill: rgb(197, 197, 197);" cx="2.142" cy="65.573" r="1.006"></circle>
    <circle style="fill: rgb(194, 194, 194);" cx="3.699" cy="71.382" r="1.848"></circle>
    <circle style="fill: rgb(189, 187, 187);" cx="8.734" cy="66.244" r="0.853"></circle>
    <circle style="fill: rgb(216, 216, 216);" cx="-0.129" cy="72.186" r="0.644"></circle>
    <circle style="fill: rgb(216, 216, 216);" cx="3.094" cy="71.076" r="0.861"></circle>
    <circle style="fill: rgb(216, 216, 216);" cx="-0.105" cy="64.862" r="0.237"></circle>
    <circle style="fill: rgb(216, 216, 216);" cx="-0.05" cy="71.079" r="0.117"></circle>
    <circle style="fill: rgb(216, 216, 216);" cx="2.934" cy="65.523" r="0.157"></circle>
    <circle style="fill: rgb(209, 209, 209);" cx="5.701" cy="67.043" r="0.431"></circle>
    <path d="M 249 658.459 L 250.303 662.207 L 254.27 662.288 L 251.108 664.685 L 252.257 668.483 L 249 666.216 L 245.743 668.483 L 246.892 664.685 L 243.73 662.288 L 247.697 662.207 Z" class="twingle3" style="fill: rgb(216, 216, 216);" transform="matrix(-0.737154, 0.675725, -0.675725, -0.737154, 674.380851, 362.110661)" bx:shape="star 249 664 5.541 5.541 0.4 5 1@c744d7af"></path>
    <path d="M 249 661.071 L 249.689 663.052 L 251.786 663.095 L 250.114 664.362 L 250.722 666.37 L 249 665.172 L 247.278 666.37 L 247.886 664.362 L 246.214 663.095 L 248.311 663.052 Z" class="twingle2" style="fill: rgb(216, 216, 216);" transform="matrix(-0.737154, 0.675725, -0.675725, -0.737154, 829.222648, 469.071843)" bx:shape="star 249 664 2.929 2.929 0.4 5 1@84fcf6f7"></path>
    <path d="M 249 658.459 L 250.303 662.207 L 254.27 662.288 L 251.108 664.685 L 252.257 668.483 L 249 666.216 L 245.743 668.483 L 246.892 664.685 L 243.73 662.288 L 247.697 662.207 Z" class="twingle1" style="fill: rgb(216, 216, 216);" transform="matrix(-0.737154, 0.675725, -0.675725, -0.737154, 621.161308, 461.698704)" bx:shape="star 249 664 5.541 5.541 0.4 5 1@c744d7af"></path>
    <path d="M 249 658.459 L 250.303 662.207 L 254.27 662.288 L 251.108 664.685 L 252.257 668.483 L 249 666.216 L 245.743 668.483 L 246.892 664.685 L 243.73 662.288 L 247.697 662.207 Z" class="twingle3" style="fill: rgb(216, 216, 216);" transform="matrix(-0.737154, 0.675725, -0.675725, -0.737154, 1071.348381, 351.547276)" bx:shape="star 249 664 5.541 5.541 0.4 5 1@c744d7af"></path>
    <path d="M 249 661.071 L 249.689 663.052 L 251.786 663.095 L 250.114 664.362 L 250.722 666.37 L 249 665.172 L 247.278 666.37 L 247.886 664.362 L 246.214 663.095 L 248.311 663.052 Z" class="twingle2" style="fill: rgb(216, 216, 216);" transform="matrix(-0.737154, 0.675725, -0.675725, -0.737154, 918.01049, 406.186955)" bx:shape="star 249 664 2.929 2.929 0.4 5 1@84fcf6f7"></path>
    <path d="M 200.455 197.755 C 208.338 184.945 209.681 170.254 215.967 157.68 C 218.869 151.878 234.668 151.259 239.882 146.045 C 244.276 141.651 236.914 132.592 239.237 127.948 C 241.059 124.302 245.508 126.105 248.285 124.714 C 252.655 122.532 251.069 113.98 252.811 110.496 C 255.132 105.851 261.609 107.12 263.798 102.741 C 266.549 97.235 263.282 87.7 267.03 82.702 C 271.926 76.173 283.263 73.006 290.947 73.006 C 291.474 73.006 299.996 72.149 299.996 72.361 C 299.996 79.056 293.118 90.486 297.41 96.92 C 301.725 103.394 319.386 109.822 319.386 117.605 C 319.386 122.74 319.028 127.083 317.447 131.827 C 317.187 132.607 314.914 136.403 316.154 137.643 C 320.771 142.257 324.229 148.302 329.082 153.155 C 329.554 153.628 333.256 158.032 333.605 157.68 C 337.672 153.615 346.427 149.243 352.352 151.218 C 353.343 151.547 360.363 155.486 361.4 154.448 C 362.764 153.083 364.957 149.117 367.218 147.984 C 380.545 141.321 397.84 150.263 412.463 147.339 C 418.733 146.084 428.142 137.08 435.733 140.875 C 441.37 143.694 444.65 148.327 449.954 151.863 C 456.815 156.438 468.988 156.322 471.929 162.206 C 472.63 163.604 477.099 165.056 477.099 166.084 C 477.099 175.671 464.04 181.783 457.063 186.769 C 439.162 199.555 421.115 215.083 401.476 224.904 C 396.607 227.337 388.857 236.641 382.732 234.599 C 374.561 231.875 368.107 226.52 360.754 222.318 C 358.885 221.249 352.805 217.889 350.412 219.086 C 342.16 223.212 335.419 232.656 329.726 239.77 C 326.213 244.163 323.653 251.489 318.094 253.343 C 299.974 259.383 277.328 241.665 265.738 230.073 C 258.674 223.011 246.984 223.604 239.237 217.793 C 233.048 213.151 229.383 207.94 223.723 202.28 C 218.102 196.658 207.279 201.995 200.455 195.171" style="fill: rgb(246, 246, 246);"></path>
    <path d="M -53.085 200.987 C -47.094 193.5 -41.219 183.492 -38.218 174.486 C -37.539 172.449 -39.673 165.601 -38.218 164.145 C -33.478 159.404 -16.521 170.242 -11.717 165.437 C -7.104 160.826 -1.303 151.182 5.087 147.984 C 8.703 146.178 14.516 147.383 18.662 146.693 C 21.533 146.214 23.834 143.977 26.417 143.461 C 37.621 141.221 40.731 156.079 50.335 157.68 C 57.016 158.793 61.88 158.59 69.079 159.619 C 69.219 159.64 73.802 159.171 74.25 159.619 C 75.603 160.972 76.24 163.299 78.774 164.145 C 83.07 165.576 90.774 162.569 94.288 166.084 C 96.183 167.978 96.849 171.868 98.813 174.486 C 100.389 176.59 105.275 176.381 105.275 179.011 C 105.275 183.283 106.595 190.74 107.861 195.171 C 108.761 198.316 114.972 205.116 114.972 207.45 C 114.972 209.092 112.057 205.834 110.446 205.512 C 107.927 205.009 105.279 204.865 102.691 204.865 C 92.572 204.865 81.722 204.69 71.666 203.573 C 66.408 202.988 56.604 201.086 51.627 203.573 C 48.946 204.914 48.107 208.409 45.165 209.39 C 39.408 211.309 28.693 211.452 22.539 210.682 C 8.798 208.966 -8.386 208.562 -21.411 204.219 C -34.027 200.017 -44.556 196.723 -56.963 202.925" style="fill: rgb(245, 245, 245);"></path>
    <path d="M -81.311 200.987 C -69.994 198.563 -56.124 195.652 -44.466 197.109 C -39.549 197.725 -30.298 200.142 -25.076 198.401 C -19.599 196.577 -8.982 186.088 -2.454 189.353 C 10.303 195.73 22.247 193.232 36.33 193.232 C 40.6 193.232 43.407 198.096 47.964 195.818 C 54.364 192.617 60.196 185.997 66.062 181.597 C 66.611 181.185 71.881 175.132 71.881 175.132 C 71.881 175.132 77.008 177.719 78.989 177.719 C 87.315 177.719 95.68 179.011 104.199 179.011 C 119.722 179.011 134.188 180.864 147.504 176.426 C 152.787 174.665 161.414 178.198 166.251 175.779 C 168.732 174.539 170.859 170.525 172.713 168.67 C 176.865 164.519 193.886 165.666 199.215 166.73 C 210.756 169.038 216.621 181.909 228.301 184.828 C 238.109 187.281 250.429 185.477 260.62 185.477 C 263.708 185.477 269.657 184.388 272.255 186.122 C 277.066 189.33 277.29 196.191 279.365 200.341 C 281.717 205.042 288.793 207.964 292.938 210.036 C 299.054 213.094 310.494 213.915 317.501 213.915 C 318.593 213.915 323.765 216.054 324.612 215.207 C 333.232 206.587 345.806 198.447 357.576 194.524 C 362.373 192.926 370.892 193.359 375.029 191.293 C 382.21 187.701 390.972 174.341 395.712 168.022 C 397.517 165.614 399.309 157.99 402.175 157.035 C 411.099 154.06 422.441 157.32 431.909 155.742 C 438.141 154.703 443.327 151.648 449.361 152.51 C 457.826 153.719 465.502 158.862 473.922 160.266 C 482.763 161.74 495.392 157.773 503.008 162.851 C 505.566 164.557 508.18 168.403 508.18 171.254 C 508.18 172.979 508.18 178.148 508.18 176.426 C 508.18 174.498 504.632 173.51 503.008 175.132 C 501.15 176.992 501.666 180.504 501.07 182.89 C 497.686 196.43 504.949 206.95 504.949 219.732 C 504.949 222.116 505.914 235.245 503.008 235.245 C 470.591 235.245 438.866 253.544 408.64 261.099 C 399.685 263.34 389.066 261.074 380.198 259.806 C 369.698 258.307 353.681 261.108 344.649 265.625 C 342.999 266.45 343.053 276.572 342.063 278.552 C 339.002 284.676 328.965 286.348 323.318 287.602 C 285.619 295.979 254.433 264.249 219.898 256.576 C 197.623 251.626 171.907 259.191 150.092 263.039 C 129.594 266.656 109.964 265.77 89.331 266.916 C 64.668 268.287 40.588 268.891 16.293 263.685 C 7.269 261.752 -3.747 262.07 -12.148 257.868 C -28.804 249.541 -39.578 232.343 -59.979 229.428 C -72.013 227.708 -84.631 226.935 -96.822 224.904 C -98.819 224.571 -109.388 226.636 -110.397 223.611 C -114.709 210.675 -90.441 211.02 -84.541 210.036 C -84.033 209.95 -76.14 208.098 -76.14 208.098 C -76.14 208.098 -80.664 206.437 -80.664 205.512 C -80.664 204.207 -79.371 201.732 -79.371 201.633" style="fill: rgb(235, 235, 235);"></path>
    <path d="M -78.006 226.843 C -66.908 223.672 -59.109 222.888 -50.213 218.441 C -43.614 215.142 -33.294 220.126 -26.296 217.793 C -22.693 216.593 -21.906 214.184 -20.479 211.329 C -19.403 209.181 -7.43 208.919 -4.967 208.098 C -3.664 207.663 -1.454 205.745 0.205 206.158 C 15.651 210.02 23.132 224.676 39.634 222.319 C 43.324 221.791 55.091 221.726 57.732 219.086 C 58.994 217.824 60.289 212.018 61.61 210.036 C 65.929 203.558 69.69 205.351 75.829 202.28 C 81.723 199.334 83.225 195.08 91.341 197.109 C 93.403 197.624 95.294 199.072 97.16 199.694 C 98.403 200.11 102.348 200.341 101.039 200.341 C 100.319 200.341 96.351 207.29 97.807 208.743 C 100.425 211.363 104.264 215.852 108.148 217.793 C 116.323 221.881 130.392 214.696 137.882 218.441 C 143.445 221.222 150.463 224.142 156.627 226.197 C 159.375 227.112 160.502 225.389 162.443 224.904 C 165.611 224.112 173.725 225.684 177.31 226.197 C 179.818 226.554 192.349 230.547 194.762 228.136 C 201.476 221.422 224.911 223.611 233.544 223.611 C 252.885 223.611 270.098 228.926 287.192 220.38 C 292.479 217.735 300.616 224.382 305.293 225.55 C 312.957 227.467 323.29 225.566 331.148 224.257 C 350.123 221.095 365.981 222.964 384.795 222.964 C 394.64 222.964 403.192 221.025 413.235 221.025 C 422.417 221.025 437.292 217.409 446.201 220.38 C 453.563 222.834 462.231 225.55 470.115 225.55 C 485.228 225.55 495.467 213.531 510.192 218.441 C 511.659 218.929 518.3 218.791 519.241 219.732 C 521.773 222.266 514.224 232.351 513.425 233.953 C 513.026 234.747 508.653 248.173 508.252 248.173 C 504.353 248.173 500.472 245.599 496.618 247.527 C 488.878 251.396 479.343 259.16 470.115 259.16 C 464.302 259.16 458.787 259.236 453.31 257.868 C 449.366 256.88 446.08 251.66 441.03 253.343 C 435.78 255.094 430.751 264.978 425.516 264.978 C 418.285 264.978 410.738 265.634 403.54 264.978 C 391.279 263.864 376.916 257.9 364.112 261.099 C 359.081 262.357 352.53 267.337 348.599 268.213 C 325.411 273.363 299.212 271.442 275.558 271.442 C 260.932 271.442 246.076 269.817 231.607 268.213 C 227.388 267.742 219.277 263.374 215.447 264.333 C 194.949 269.457 173.384 273.99 152.103 275.321 C 140.394 276.053 128.62 273.993 117.197 272.088 C 112.224 271.259 105.628 268.194 100.393 269.503 C 91.82 271.647 83.742 278.649 74.538 280.491 C 68.819 281.635 65.03 283.829 60.319 287.602 C 59.76 288.046 55.447 291.135 54.499 290.185 C 42.401 278.088 31.268 264.577 17.657 253.99 C 12.307 249.828 7.25 244.176 0.205 243.002 C -15.254 240.427 -21.401 250.505 -35.346 253.99 C -46.256 256.717 -59.479 255.281 -68.957 248.173 C -73.761 244.57 -80.39 241.265 -84.47 237.184 C -85.262 236.391 -83.569 233.699 -83.176 233.305 C -81.992 232.122 -77.898 233.845 -76.713 232.659 C -73.317 229.265 -73.97 225.55 -79.3 225.55" style="fill: rgb(216, 216, 216);"></path>
    <circle style="fill: rgb(216, 216, 216); stroke-width: 2px;" cx="311.894" cy="196.742" r="9.978"></circle>
    <path style="fill: rgb(187, 187, 187);" transform="matrix(-0.983668, 0.179993, -0.179993, -0.983668, 481.903257, 423.363094)" d="M 123.92 243.872 A 9.968 9.968 0 1 1 123.92 263.128 A 9.942 9.942 0 0 0 123.92 243.872 Z" bx:shape="crescent 126.5 253.5 9.968 210 0.745 1@3c6c7c16"></path>
    <circle style="fill: rgb(187, 187, 187); stroke: rgb(216, 216, 216); stroke-width: 0.4px;" cx="306.894" cy="196.372" r="2.38"></circle>
    <circle style="fill: rgb(197, 197, 197);" cx="309.886" cy="192.612" r="1.493"></circle>
    <circle style="fill: rgb(194, 194, 194);" cx="312.192" cy="201.218" r="2.741"></circle>
    <circle style="fill: rgb(189, 187, 187);" cx="319.655" cy="193.607" r="1.266"></circle>
    <circle style="fill: rgb(216, 216, 216);" cx="306.52" cy="202.411" r="0.955"></circle>
    <circle style="fill: rgb(216, 216, 216);" cx="311.295" cy="200.77" r="1.276"></circle>
    <circle style="fill: rgb(216, 216, 216);" cx="306.554" cy="191.556" r="0.351"></circle>
    <circle style="fill: rgb(216, 216, 216);" cx="306.636" cy="200.774" r="0.173"></circle>
    <circle style="fill: rgb(216, 216, 216);" cx="311.06" cy="192.54" r="0.232"></circle>
    <circle style="fill: rgb(209, 209, 209);" cx="315.158" cy="194.793" r="0.64"></circle>
    <circle style="fill: rgb(216, 216, 216); stroke-width: 2px;" cx="290.749" cy="65.316" r="5.207"></circle>
    <circle style="fill: rgb(187, 187, 187); stroke: rgb(216, 216, 216); stroke-width: 0.4px;" cx="288.141" cy="65.123" r="1.242"></circle>
    <circle style="fill: rgb(197, 197, 197);" cx="289.702" cy="63.16" r="0.778"></circle>
    <circle style="fill: rgb(194, 194, 194);" cx="290.906" cy="67.651" r="1.43"></circle>
    <circle style="fill: rgb(189, 187, 187);" cx="294.798" cy="63.681" r="0.661"></circle>
    <circle style="fill: rgb(216, 216, 216);" cx="287.946" cy="68.276" r="0.499"></circle>
    <circle style="fill: rgb(216, 216, 216);" cx="290.437" cy="67.418" r="0.666"></circle>
    <circle style="fill: rgb(216, 216, 216);" cx="287.964" cy="62.61" r="0.184"></circle>
    <circle style="fill: rgb(216, 216, 216);" cx="288.007" cy="67.42" r="0.089"></circle>
    <circle style="fill: rgb(216, 216, 216);" cx="290.316" cy="63.125" r="0.121"></circle>
    <circle style="fill: rgb(209, 209, 209);" cx="292.453" cy="64.299" r="0.334"></circle>
    <path d="M 249 658.459 L 250.303 662.207 L 254.27 662.288 L 251.108 664.685 L 252.257 668.483 L 249 666.216 L 245.743 668.483 L 246.892 664.685 L 243.73 662.288 L 247.697 662.207 Z" class="twingle3" style="fill: rgb(216, 216, 216);" transform="matrix(-0.737154, 0.675725, -0.675725, -0.737154, 970.325431, 360.451725)" bx:shape="star 249 664 5.541 5.541 0.4 5 1@c744d7af"></path>
    <path d="M 249 658.459 L 250.303 662.207 L 254.27 662.288 L 251.108 664.685 L 252.257 668.483 L 249 666.216 L 245.743 668.483 L 246.892 664.685 L 243.73 662.288 L 247.697 662.207 Z" class="twingle1" style="fill: rgb(216, 216, 216);" transform="matrix(-0.737154, 0.675725, -0.675725, -0.737154, 825.009452, 443.383976)" bx:shape="star 249 664 5.541 5.541 0.4 5 1@c744d7af"></path>
    <path d="M 249 661.071 L 249.689 663.052 L 251.786 663.095 L 250.114 664.362 L 250.722 666.37 L 249 665.172 L 247.278 666.37 L 247.886 664.362 L 246.214 663.095 L 248.311 663.052 Z" class="twingle2" style="fill: rgb(216, 216, 216);" transform="matrix(-0.737154, 0.675725, -0.675725, -0.737154, 888.298942, 333.750798)" bx:shape="star 249 664 2.929 2.929 0.4 5 1@84fcf6f7"></path>
    <path d="M 249 661.071 L 249.689 663.052 L 251.786 663.095 L 250.114 664.362 L 250.722 666.37 L 249 665.172 L 247.278 666.37 L 247.886 664.362 L 246.214 663.095 L 248.311 663.052 Z" class="twingle3" style="fill: rgb(216, 216, 216);" transform="matrix(-0.737154, 0.675725, -0.675725, -0.737154, 765.000541, 333.01688)" bx:shape="star 249 664 2.929 2.929 0.4 5 1@84fcf6f7"></path>
    <path d="M 249 661.071 L 249.689 663.052 L 251.786 663.095 L 250.114 664.362 L 250.722 666.37 L 249 665.172 L 247.278 666.37 L 247.886 664.362 L 246.214 663.095 L 248.311 663.052 Z" class="twingle1" style="fill: rgb(216, 216, 216);" transform="matrix(-0.737154, 0.675725, -0.675725, -0.737154, 985.176261, 314.668888)" bx:shape="star 249 664 2.929 2.929 0.4 5 1@84fcf6f7"></path>
    <path d="M 249 661.071 L 249.689 663.052 L 251.786 663.095 L 250.114 664.362 L 250.722 666.37 L 249 665.172 L 247.278 666.37 L 247.886 664.362 L 246.214 663.095 L 248.311 663.052 Z" class="twingle2" style="fill: rgb(216, 216, 216);" transform="matrix(-0.737154, 0.675725, -0.675725, -0.737154, 1119.483512, 317.604557)" bx:shape="star 249 664 2.929 2.929 0.4 5 1@84fcf6f7"></path>
    <path d="M 249 661.071 L 249.689 663.052 L 251.786 663.095 L 250.114 664.362 L 250.722 666.37 L 249 665.172 L 247.278 666.37 L 247.886 664.362 L 246.214 663.095 L 248.311 663.052 Z" class="twingle2" style="fill: rgb(216, 216, 216);" transform="matrix(-0.737154, 0.675725, -0.675725, -0.737154, 574.915458, 324.209843)" bx:shape="star 249 664 2.929 2.929 0.4 5 1@84fcf6f7"></path>
    <path d="M 249 661.071 L 249.689 663.052 L 251.786 663.095 L 250.114 664.362 L 250.722 666.37 L 249 665.172 L 247.278 666.37 L 247.886 664.362 L 246.214 663.095 L 248.311 663.052 Z" class="twingle1" style="fill: rgb(216, 216, 216);" transform="matrix(-0.737154, 0.675725, -0.675725, -0.737154, 579.318962, 415.215824)" bx:shape="star 249 664 2.929 2.929 0.4 5 1@84fcf6f7"></path>
    <path d="M 249 661.071 L 249.689 663.052 L 251.786 663.095 L 250.114 664.362 L 250.722 666.37 L 249 665.172 L 247.278 666.37 L 247.886 664.362 L 246.214 663.095 L 248.311 663.052 Z" class="twingle2" style="fill: rgb(216, 216, 216);" transform="matrix(-0.737154, 0.675725, -0.675725, -0.737154, 668.857109, 420.353276)" bx:shape="star 249 664 2.929 2.929 0.4 5 1@84fcf6f7"></path>
    <path d="M 249 661.071 L 249.689 663.052 L 251.786 663.095 L 250.114 664.362 L 250.722 666.37 L 249 665.172 L 247.278 666.37 L 247.886 664.362 L 246.214 663.095 L 248.311 663.052 Z" class="twingle3" style="fill: rgb(216, 216, 216);" transform="matrix(-0.737154, 0.675725, -0.675725, -0.737154, 708.488761, 316.87064)" bx:shape="star 249 664 2.929 2.929 0.4 5 1@84fcf6f7"></path>
    <path d="M 249 661.071 L 249.689 663.052 L 251.786 663.095 L 250.114 664.362 L 250.722 666.37 L 249 665.172 L 247.278 666.37 L 247.886 664.362 L 246.214 663.095 L 248.311 663.052 Z" class="twingle1" style="fill: rgb(216, 216, 216);" transform="matrix(-0.737154, 0.675725, -0.675725, -0.737154, 858.208305, 325.677647)" bx:shape="star 249 664 2.929 2.929 0.4 5 1@84fcf6f7"></path>
    <path d="M 249 661.071 L 249.689 663.052 L 251.786 663.095 L 250.114 664.362 L 250.722 666.37 L 249 665.172 L 247.278 666.37 L 247.886 664.362 L 246.214 663.095 L 248.311 663.052 Z" class="twingle3" style="fill: rgb(216, 216, 216);" transform="matrix(-0.737154, 0.675725, -0.675725, -0.737154, 882.427604, 357.970097)" bx:shape="star 249 664 2.929 2.929 0.4 5 1@84fcf6f7"></path>
    <path d="M 249 661.071 L 249.689 663.052 L 251.786 663.095 L 250.114 664.362 L 250.722 666.37 L 249 665.172 L 247.278 666.37 L 247.886 664.362 L 246.214 663.095 L 248.311 663.052 Z" class="twingle2" style="fill: rgb(216, 216, 216);" transform="matrix(-0.737154, 0.675725, -0.675725, -0.737154, 742.982902, 366.777134)" bx:shape="star 249 664 2.929 2.929 0.4 5 1@84fcf6f7"></path>
    <path d="M 249 661.071 L 249.689 663.052 L 251.786 663.095 L 250.114 664.362 L 250.722 666.37 L 249 665.172 L 247.278 666.37 L 247.886 664.362 L 246.214 663.095 L 248.311 663.052 Z" class="twingle3" style="fill: rgb(216, 216, 216);" transform="matrix(-0.737154, 0.675725, -0.675725, -0.737154, 927.930595, 347.695256)" bx:shape="star 249 664 2.929 2.929 0.4 5 1@84fcf6f7"></path>
    <path d="M 249 661.071 L 249.689 663.052 L 251.786 663.095 L 250.114 664.362 L 250.722 666.37 L 249 665.172 L 247.278 666.37 L 247.886 664.362 L 246.214 663.095 L 248.311 663.052 Z" class="twingle1" style="fill: rgb(216, 216, 216);" transform="matrix(-0.737154, 0.675725, -0.675725, -0.737154, 1032.880973, 351.364842)" bx:shape="star 249 664 2.929 2.929 0.4 5 1@84fcf6f7"></path>
    <path d="M 249 661.071 L 249.689 663.052 L 251.786 663.095 L 250.114 664.362 L 250.722 666.37 L 249 665.172 L 247.278 666.37 L 247.886 664.362 L 246.214 663.095 L 248.311 663.052 Z" class="twingle3" style="fill: rgb(216, 216, 216);" transform="matrix(-0.737154, 0.675725, -0.675725, -0.737154, 1063.705558, 421.82108)" bx:shape="star 249 664 2.929 2.929 0.4 5 1@84fcf6f7"></path>
    <path d="M 249 661.071 L 249.689 663.052 L 251.786 663.095 L 250.114 664.362 L 250.722 666.37 L 249 665.172 L 247.278 666.37 L 247.886 664.362 L 246.214 663.095 L 248.311 663.052 Z" class="twingle3" style="fill: rgb(216, 216, 216);" transform="matrix(-0.737154, 0.675725, -0.675725, -0.737154, 1038.752311, 443.838688)" bx:shape="star 249 664 2.929 2.929 0.4 5 1@84fcf6f7"></path>
    <path d="M 249 661.071 L 249.689 663.052 L 251.786 663.095 L 250.114 664.362 L 250.722 666.37 L 249 665.172 L 247.278 666.37 L 247.886 664.362 L 246.214 663.095 L 248.311 663.052 Z" class="twingle2" style="fill: rgb(216, 216, 216);" transform="matrix(-0.737154, 0.675725, -0.675725, -0.737154, 1042.421989, 403.473088)" bx:shape="star 249 664 2.929 2.929 0.4 5 1@84fcf6f7"></path>
    <path d="M 249 661.071 L 249.689 663.052 L 251.786 663.095 L 250.114 664.362 L 250.722 666.37 L 249 665.172 L 247.278 666.37 L 247.886 664.362 L 246.214 663.095 L 248.311 663.052 Z" class="twingle3" style="fill: rgb(216, 216, 216);" transform="matrix(-0.737154, 0.675725, -0.675725, -0.737154, 1016.734855, 391.730412)" bx:shape="star 249 664 2.929 2.929 0.4 5 1@84fcf6f7"></path>
    <path d="M 249 661.071 L 249.689 663.052 L 251.786 663.095 L 250.114 664.362 L 250.722 666.37 L 249 665.172 L 247.278 666.37 L 247.886 664.362 L 246.214 663.095 L 248.311 663.052 Z" class="twingle1" style="fill: rgb(216, 216, 216);" transform="matrix(-0.737154, 0.675725, -0.675725, -0.737154, 1120.951286, 413.014042)" bx:shape="star 249 664 2.929 2.929 0.4 5 1@84fcf6f7"></path>
  </svg>