<svg viewBox="72.203 32.524 209.988 210.375" width="209.988" height="210.375" xmlns="http://www.w3.org/2000/svg" xmlns:bx="https://boxy-svg.com">
    <defs></defs>
    <circle style="fill: rgb(188, 236, 255);" cx="177.442" cy="137.15" r="103.749"></circle>
    <path d="M 123.248 220.892 C 122.448 217.694 119.673 214.394 118.038 211.124 C 117.319 209.686 114.809 209.197 114.131 208.519 C 113.781 208.169 114.226 205.739 114.131 205.263 C 113.53 202.261 113.805 198.949 113.805 195.82 C 113.805 189.742 110.188 181.925 112.177 175.959 C 113.529 171.902 116.111 165.945 114.456 160.981 C 113.801 159.014 110.295 158.122 108.921 156.748 C 105.48 153.307 104.485 151.58 103.06 147.306 C 102.318 145.08 103.507 139.9 104.363 138.189 C 105.301 136.312 103.386 133.861 103.386 132.328 C 103.386 129.731 104.903 127.015 105.991 124.839 C 107.067 122.687 102.881 119.988 104.037 117.676 C 104.383 116.984 105.93 115.427 106.642 115.071 C 107.042 114.871 107.944 115.193 107.944 114.745 C 107.944 114.089 105.184 111.83 104.688 110.838 C 104.405 110.272 103.079 109.21 103.712 109.21 C 105.132 109.21 106.968 104.652 106.968 104.652 C 106.968 104.652 106.73 108.647 106.968 108.885 C 109.758 111.675 108.15 114.848 111.852 116.699 C 114.787 118.167 114.952 109.295 119.34 111.489 C 122.638 113.138 124.202 117.451 127.806 118.653 C 129.328 119.16 131.266 118.266 132.69 118.978 C 136.322 120.794 138.436 123.642 142.133 125.49 C 145.945 127.397 149.629 124.846 153.203 128.421 C 155.124 130.341 154.665 132.647 155.808 134.933 C 156.723 136.764 158.978 138.017 159.715 139.491 C 160.993 142.048 165.821 141.73 167.855 142.747 C 169.792 143.716 171.692 146.386 172.739 147.957 C 173.151 148.574 174.367 149.541 174.367 150.236 C 174.367 153.792 169.97 153.334 168.832 156.748 C 166.952 162.387 163.69 170.03 159.389 174.331 C 157.665 176.055 157.807 180.494 155.157 181.82 C 151.866 183.465 148.937 181.397 145.714 182.471 C 143.079 183.349 141.251 184.795 138.877 186.378 C 138.115 186.886 137.005 187.192 136.597 188.006 C 135.306 190.588 135.469 193.844 134.318 196.146 C 133.6 197.582 128.132 198.554 128.132 200.053 C 128.132 204.821 128.829 212.705 125.527 216.008 C 124.788 216.747 123.18 217.378 122.596 217.961 C 121.663 218.895 123.248 221.869 123.248 221.869" style="fill: rgb(152, 226, 165);"></path>
    <path d="M 227.115 150.887 C 222.68 151.442 213.742 153.771 211.16 148.608 C 209.97 146.228 208.141 142.451 208.881 139.491 C 209.389 137.459 210.835 134.617 210.835 132.654 C 210.835 127.739 210.65 123.114 212.137 118.653 C 213.047 115.923 210.104 114.007 210.835 111.815 C 211.272 110.503 212.296 109.786 213.114 108.559 C 215.85 104.454 220.894 100.865 225.161 99.442 C 226.869 98.873 229.426 99.589 231.022 98.791 C 232.096 98.254 236.634 97.527 237.86 98.14 C 240.311 99.366 242.011 102.779 244.697 103.675 C 250.038 105.455 256.006 98.259 260.977 100.745 C 262.454 101.483 265.603 106.605 267.164 106.605 C 268.706 106.605 273.979 105.258 274.001 105.303 C 275.76 108.819 275.888 112.333 277.583 115.722 C 278.399 117.354 277.402 119.918 278.234 121.583 C 279.612 124.34 276.419 129.674 277.909 132.654 C 281.584 140.004 277.909 146.124 277.909 153.492 C 277.909 165.072 274.618 171.143 269.769 180.843 C 268.975 182.429 269.558 184.846 268.792 186.378 C 266.747 190.467 265.766 195.035 263.582 199.402 C 262.255 202.057 258.386 203.947 256.745 205.589 C 254.879 207.454 253.182 211.603 250.233 213.077 C 245.465 215.461 241.047 219.658 237.534 223.171 C 236.706 223.999 234.002 223.96 232.976 224.473 C 231.769 225.077 230.725 224.092 231.348 222.845 C 233.08 219.38 232.739 215.179 234.604 211.449 C 235.375 209.906 237.027 208.555 237.86 206.891 C 238.845 204.919 238.166 202.389 238.836 200.379 C 240.381 195.744 241.313 191.518 243.395 187.355 C 243.861 186.422 242.744 185.075 242.418 184.424 C 241.346 182.28 242.569 178.865 241.441 176.61 C 240.259 174.245 241.766 168.798 242.744 166.842 C 243.861 164.607 241.342 161.506 242.418 159.353 C 244.483 155.224 245.596 151.011 240.79 148.608 C 238.623 147.525 235.88 148.295 233.952 149.259 C 232.891 149.79 232.273 151.864 230.696 151.864 C 228.441 151.864 226.474 150.562 224.51 150.562" style="fill: rgb(152, 226, 165);"></path>
    <path d="M 274.327 103.024 C 272.724 103.024 269.228 103.603 267.489 103.024 C 262.347 101.309 259.023 96.349 254.14 93.907 C 252.553 93.114 248.274 92.93 246.325 92.93 C 245.903 92.93 243.173 93.789 243.069 93.581 C 242.101 91.645 243.063 89.129 240.79 88.372 C 237.202 87.176 237.205 89.032 236.557 90.977 C 236.253 91.89 234.457 92.425 233.952 92.93 C 230.894 95.989 227.866 96.287 224.51 92.93 C 223.687 92.107 222.716 91.296 222.231 90.325 C 220.429 86.721 227.774 82.344 230.045 81.208 C 230.95 80.756 234.929 81.719 234.929 79.906 C 234.929 75.548 235.547 72.677 233.627 68.836 C 233.105 67.793 230.789 64.649 229.394 63.952 C 228.491 63.5 226.67 63.062 226.138 61.998 C 224.067 57.856 228.38 52.737 231.348 51.253 C 232.42 50.717 235.012 52.109 235.906 52.555 C 239.625 54.415 242.601 56.554 246.325 58.416 C 250.055 60.281 250.851 63.267 253.814 66.231 C 256.245 68.662 260.133 72.681 261.629 75.673 C 262.624 77.663 263.606 81.558 265.21 83.162 C 267.515 85.467 269.18 88.822 270.745 91.953 C 271.627 93.717 271.279 97.371 272.373 98.465 C 273.066 99.158 274.001 102.099 274.001 103.024" style="fill: rgb(152, 226, 165);"></path>
    <path d="M 229.394 75.348 C 228.506 75.94 224.05 78.795 222.556 77.301 C 221.473 76.218 223.34 72.87 223.859 72.092 C 224.21 71.565 225.468 70.464 224.836 70.464 C 222.58 70.464 219.335 70.241 218.649 68.184 C 218.543 67.867 217.509 66.394 217.998 65.905 C 220.191 63.712 228.745 67.209 230.696 69.161 C 231.71 70.175 228.092 74.385 228.092 75.673" style="fill: rgb(152, 226, 165);"></path>
    <path d="M 201.392 56.788 C 198.13 57.72 196.353 58.176 193.578 56.788 C 191.781 55.89 188.993 50.289 191.624 48.974 C 194.754 47.409 205.516 47.564 202.369 53.858 C 201.722 55.151 199.796 53.826 199.113 54.509 C 198.152 55.47 199.764 56.586 199.764 57.439" style="fill: rgb(152, 226, 165);"></path>
    <path d="M 180.554 33.345 C 178.834 38.504 178.882 45.154 176.646 49.625 C 175.893 51.131 173.978 54.057 175.018 56.137 C 176.143 58.386 179.307 59.505 180.228 61.347 C 180.439 61.768 181.082 64.726 181.205 64.603 C 182.624 63.184 181.69 59.233 182.833 58.091 C 184.07 56.854 185.41 54.537 186.74 53.207 C 187.169 52.778 187.443 50.602 188.368 50.602 C 190.638 50.602 194.43 52.029 195.857 50.602 C 198.538 47.921 200.534 45.038 201.718 41.485 C 201.842 41.112 204.43 37.36 203.671 36.601 C 201.975 34.904 198.611 36.325 196.508 35.624 C 191.913 34.092 185.738 33.019 180.554 33.019" style="fill: rgb(152, 226, 165);"></path>
    <path d="M 101.107 107.908 C 100.271 106.794 99.499 104.499 98.502 104.001 C 96.876 103.188 93.553 100.876 92.967 99.117 C 92.422 97.482 93.798 91.157 92.641 90 C 92.162 89.521 88.881 85.709 89.059 85.441 C 91.459 81.842 93.957 77.614 96.874 74.696 C 98.719 72.851 101.522 71.17 102.409 68.51 C 103.092 66.461 103.761 64.504 104.688 62.649 C 105.22 61.586 108.387 59.532 109.572 58.742 C 112.218 56.978 114.626 53.688 116.736 51.579 C 118.58 49.734 122.192 49.434 124.55 48.648 C 126.717 47.926 129.077 46.385 131.062 45.392 C 133.103 44.372 136.331 44.386 138.225 43.439 C 141.211 41.946 143.643 38.776 146.691 37.252 C 149.674 35.761 153.667 37.508 156.785 35.95 C 161.159 33.762 174.639 31.338 178.274 34.973 C 178.584 35.282 175.748 40.676 175.344 41.485 C 174.873 42.426 172.599 46.927 171.111 47.671 C 170.359 48.047 163.782 47.1 162.971 46.695 C 160.857 45.638 151.55 46.394 149.947 47.997 C 149.331 48.613 149.383 49.863 148.97 50.276 C 148.116 51.13 151.093 51.735 151.575 51.253 C 153.957 48.871 160.105 49.625 163.622 49.625 C 164.252 49.625 166.827 49.248 167.204 49.625 C 169.333 51.754 169.125 54.444 170.46 57.114 C 170.752 57.697 174.042 58.651 174.042 59.068 C 174.042 60.5 173.706 64.938 172.739 65.905 C 171.046 67.598 166.63 66.029 164.274 67.208 C 160.144 69.272 154.534 66.542 150.598 68.51 C 149.486 69.066 145.193 73.394 144.086 73.394 C 142.3 73.394 140.583 71.631 138.225 72.417 C 137.35 72.709 132.039 74.393 132.039 75.348 C 132.039 76.355 130.876 78.325 130.411 79.255 C 128.457 83.162 127.974 88.53 124.876 91.628 C 124.462 92.041 123.421 89.542 123.248 89.023 C 122.788 87.645 124.692 84.281 123.899 83.488 C 121.89 81.479 116.1 76.968 112.828 78.604 C 111.151 79.442 107.371 82.68 106.316 84.79 C 106.076 85.271 104.279 86.297 104.037 86.418 C 103.747 86.563 103.545 87.72 103.712 87.72 C 106.795 87.72 110.549 88.639 110.549 92.605 C 110.549 92.921 110.804 94.954 110.549 95.209 C 109.182 96.576 106.309 95.217 105.34 96.186 C 104.728 96.798 103.073 101.083 104.037 102.047 C 104.617 102.627 105.985 101.739 105.34 103.675 C 104.539 106.077 101.107 106.986 101.107 108.885" style="fill: rgb(152, 226, 165);"></path>
    <path d="M 129.108 99.442 C 126.778 100.607 120.45 104.555 117.387 103.024 C 112.562 100.611 111.775 97.24 116.084 92.93 C 118.623 90.391 119.594 98.14 120.968 98.14 C 121.824 98.14 127.565 97.247 127.806 97.489 C 127.962 97.645 129.76 101.396 129.76 101.396" style="fill: rgb(152, 226, 165);"></path>
    <path d="M 136.597 103.349 C 134.644 103.349 132.69 103.349 130.737 103.349 C 130.104 103.349 129.556 104.774 129.108 104.326 C 127.756 102.974 131.78 100.352 132.039 100.093 C 132.592 99.54 133.993 98.008 133.993 98.791 C 133.993 99.471 136.272 103.024 136.272 103.024" style="fill: rgb(152, 226, 165);"></path>
    <path style="fill: rgba(0, 0, 0, 0.06);" transform="matrix(-1, 0, 0, -1, 0, 0)" d="M -194.767 -239.713 A 103.886 103.886 0 1 1 -194.767 -34.791 A 107.995 107.995 0 0 0 -194.767 -239.713 Z" bx:shape="crescent -177.621 -137.252 103.886 199 0.773 1@465d10e5"></path>
  </svg>