<svg viewBox="-36.225 114.676 576.519 188.893" width="576.519" height="188.893" xmlns="http://www.w3.org/2000/svg" xmlns:bx="https://boxy-svg.com">
    <defs></defs>
    <circle style="fill: rgb(224, 224, 224);" cx="253.813" cy="196.832" r="73.628"></circle>
    <path d="M 186.919 230.099 C 210.7 224.234 234.04 217.195 256.25 208.431 C 260.545 206.736 273.078 206.967 277.53 208.431 C 279.433 209.057 283.827 210.911 286.11 209.785 C 291.284 207.234 295.772 203.158 300.869 200.644 C 306.645 197.795 315.727 201.272 321.118 198.612 C 323.511 197.433 326.396 195.904 329.013 195.904" style="fill: none; stroke-width: 3px; stroke: rgb(255, 255, 255);"></path>
    <path d="M 209.163 256.991 C 224.219 246.703 240.966 237.918 255.3 227.307 C 261.064 223.041 268.497 216.539 275.464 215.165 C 282.669 213.742 288.829 217.713 294.602 220.561 C 300.963 223.7 315.566 213.256 319.21 216.851 C 319.687 217.323 325.361 217.189 325.361 217.189" style="fill: none; stroke-width: 3px; stroke: rgb(255, 255, 255);"></path>
    <path d="M 247.674 272.263 C 262.044 265.703 275.341 256.291 287.701 246.619 C 290.894 244.12 298.885 247.407 301.044 245.153 C 303.792 242.285 311.474 240.391 314.737 240.391" style="fill: none; stroke-width: 3px; stroke: rgb(255, 255, 255);"></path>
    <path d="M 169.333 516 m -66.024 0 a 66.024 132.284 0 1 0 132.048 0 a 66.024 132.284 0 1 0 -132.048 0 Z M 169.333 516 m -53.027 0 a 53.027 116.472 0 0 1 106.054 0 a 53.027 116.472 0 0 1 -106.054 0 Z" style="fill: rgb(209, 209, 209);" transform="matrix(-0.839379, 0.543547, -1.760153, -0.051555, 1302.40812, 137.253575)" bx:shape="ring 169.333 516 53.027 116.472 66.024 132.284 1@48c56863"></path>
    <path d="M 169.333 516 m -46.215 0 a 46.215 113.633 0 1 0 92.43 0 a 46.215 113.633 0 1 0 -92.43 0 Z M 169.333 516 m -40.353 0 a 40.353 100.051 0 0 1 80.706 0 a 40.353 100.051 0 0 1 -80.706 0 Z" style="fill: rgb(211, 211, 211);" transform="matrix(-0.839379, 0.543547, -1.760153, -0.051555, 1304.185342, 136.300709)" bx:shape="ring 169.333 516 40.353 100.051 46.215 113.633 1@a462af8a"></path>
    <circle style="fill: rgb(177, 177, 177);" cx="213.6" cy="178.8" r="18.195" transform="matrix(0.999963, -0.008641, 0.008641, 0.999963, 7.840736, -3.241089)"></circle>
    <path style="fill: rgb(255, 255, 255);" transform="matrix(0, 0.383023, -0.393183, 0, 352.88858, 6.638453)" d="M 494 449 A 196.003 196.003 0 0 1 495 56.997 L 495 253 Z" bx:shape="pie 495 253 0 196.003 180.292 360 1@6dd23368"></path>
    <path style="fill: rgb(224, 224, 224);" transform="matrix(0, 0.374317, -0.374317, 0, 348.701965, 11.987968)" d="M 494 449 A 196.003 196.003 0 0 1 495 56.997 L 495 253 Z" bx:shape="pie 495 253 0 196.003 180.292 360 1@6dd23368"></path>
    <path style="fill: rgb(217, 217, 217);" transform="matrix(-0.724721, -0.689042, 0.689042, -0.724721, 289.92051, 981.502678)" d="M 597.532 477.983 A 73.451 73.451 0 0 1 597.532 610.017 A 107.189 107.189 0 0 0 597.532 477.983 Z" bx:shape="crescent 565.333 544 73.451 128 0.874 1@be849166"></path>
    <path d="M 181.607 213.168 C 183.642 209.356 185.388 205.141 188.034 201.76 C 191.911 196.808 200.201 187.469 207.653 190.007 C 222.16 194.95 225.243 206.426 242.83 204.18 C 252.672 202.923 264.555 194.036 269.889 185.859 C 272.338 182.105 273.697 175.963 278.007 173.76 C 290.625 167.313 297.689 174.657 307.434 179.637 C 313.925 182.954 320.832 177.217 325.361 177.217" style="fill: none; stroke-width: 3px; stroke: rgb(255, 255, 255);"></path>
    <path d="M 187.5833368424752 165.0284316478793 C 192.78988222132662 166.0697348671169 201.59338951235662 166.59538380490906 206.1750030517578 169.3443603515625 C 216.49996456432407 175.5393562409045 222.79724039486288 187.77577360312307 235.3905029296875 190.92398071289062 C 239.237690728016 191.88574450887404 242.65673297607788 197.25074313645052 248.0062713623047 194.57591247558594 C 249.76320907711846 193.69742343045397 251.67096403720572 189.35767010208508 252.98619079589844 187.60403442382812 C 260.42685736733074 177.68314566191836 262.5777657557123 163.07273168081116 271.2458801269531 154.4046173095703 C 276.0994504658364 149.55104697068703 279.54824803940807 149.09156806427006 284.8576354980469 146.43675231933594 C 286.18668017808113 145.77219943639744 289.4236812704639 147.18261145414547 290.50152587890625 146.10476684570312 C 291.48668518028074 145.11960754432863 296.2185977940665 137.80491638183594 296.4774169921875 137.80491638183594" style="fill: none; stroke-width: 3px; stroke: rgb(255, 255, 255);"></path>
    <path d="M 265.6019645284331 124.85713824362014 C 262.800096830964 130.1806665528869 259.7509318903612 144.51377026077057 252.98619079589844 146.7687530517578 C 244.1672319349096 149.70849607935608 241.42812339741994 136.87065879781056 237.71446228027344 133.15699768066406 C 235.9451349876446 131.38767038803522 230.19853468540043 141.45684814453125 228.4186248779297 141.45684814453125 C 226.2917311395891 141.45684814453125 222.2124642939212 135.88967473981822 217.4628143310547 137.47291564941406 C 215.27577239202526 138.20194079778173 211.05026912068632 143.7808074951172 209.4949493408203 143.7808074951172 C 208.00610938774926 143.7808074951172 202.85507202148438 142.34012183126657 202.85507202148438 145.10877990722656" style="fill: none; stroke-width: 3px; stroke: rgb(255, 255, 255);"></path>
    <circle style="fill: rgb(216, 216, 216); stroke: rgb(255, 255, 255); stroke-width: 2px;" cx="24.564" cy="212.592" r="13.609"></circle>
    <path style="fill: rgb(187, 187, 187);" transform="matrix(-0.983668, 0.179993, -0.179993, -0.983668, 194.488852, 439.325407)" d="M 123.003 240.449 A 13.511 13.511 0 1 1 123.003 266.551 A 13.476 13.476 0 0 0 123.003 240.449 Z" bx:shape="crescent 126.5 253.5 13.511 210 0.745 1@6aef6aac"></path>
    <circle style="fill: rgb(187, 187, 187); stroke: rgb(216, 216, 216);" cx="17.747" cy="212.086" r="3.248"></circle>
    <circle style="fill: rgb(197, 197, 197);" cx="21.714" cy="205.06" r="2.035"></circle>
    <circle style="fill: rgb(194, 194, 194);" cx="24.972" cy="218.699" r="3.738"></circle>
    <circle style="fill: rgb(189, 187, 187);" cx="35.15" cy="208.318" r="1.728"></circle>
    <circle style="fill: rgb(216, 216, 216);" cx="17.236" cy="220.328" r="1.303"></circle>
    <circle style="fill: rgb(216, 216, 216);" cx="23.75" cy="218.088" r="1.74"></circle>
    <circle style="fill: rgb(216, 216, 216); stroke: rgb(255, 255, 255); stroke-width: 2px;" cx="63.922" cy="242.808" r="7.885"></circle>
    <path style="fill: rgb(187, 187, 187);" transform="matrix(-0.983668, 0.179993, -0.179993, -0.983668, 233.843512, 469.748563)" d="M 124.71 246.819 A 6.917 6.917 0 1 1 124.71 260.181 A 6.899 6.899 0 0 0 124.71 246.819 Z" bx:shape="crescent 126.5 253.5 6.917 210 0.745 1@cf96e6c5"></path>
    <circle style="fill: rgb(187, 187, 187); stroke: rgb(216, 216, 216);" cx="60.972" cy="242.515" r="1.882"></circle>
    <circle style="fill: rgb(197, 197, 197);" cx="62.27" cy="238.444" r="1.179"></circle>
    <circle style="fill: rgb(194, 194, 194);" cx="64.158" cy="246.346" r="2.166"></circle>
    <circle style="fill: rgb(189, 187, 187);" cx="70.055" cy="240.331" r="1.001"></circle>
    <circle style="fill: rgb(216, 216, 216);" cx="59.676" cy="247.29" r="0.755"></circle>
    <circle style="fill: rgb(216, 216, 216);" cx="63.45" cy="245.992" r="1.008"></circle>
    <circle style="fill: rgb(216, 216, 216); stroke: rgb(255, 255, 255); stroke-width: 2px;" cx="382.543" cy="201.756" r="10.338"></circle>
    <circle style="fill: rgb(187, 187, 187); stroke: rgb(216, 216, 216);" cx="377.365" cy="201.371" r="2.467"></circle>
    <circle style="fill: rgb(197, 197, 197);" cx="380.378" cy="196.034" r="1.546"></circle>
    <circle style="fill: rgb(194, 194, 194);" cx="382.853" cy="206.395" r="2.84"></circle>
    <circle style="fill: rgb(189, 187, 187);" cx="390.585" cy="198.509" r="1.313"></circle>
    <circle style="fill: rgb(216, 216, 216);" cx="376.977" cy="207.632" r="0.99"></circle>
    <circle style="fill: rgb(216, 216, 216);" cx="381.925" cy="205.931" r="1.322"></circle>
  </svg>