<svg viewBox="8.706 198.815 29.467 29.642" width="29.467" height="29.642" xmlns="http://www.w3.org/2000/svg" xmlns:bx="https://boxy-svg.com">
  <defs></defs>
  <circle style="fill: rgb(216, 216, 216); stroke-width: 2px;" cx="29.049" cy="202.268" r="1.497"></circle>
  <path style="fill: rgb(187, 187, 187);" transform="matrix(-0.983668, 0.179993, -0.179993, -0.983668, 199.103018, 428.864347)" d="M 126.113 252.056 A 1.495 1.495 0 1 1 126.113 254.944 A 1.491 1.491 0 0 0 126.113 252.056 Z" bx:shape="crescent 126.5 253.5 1.495 210 0.745 1@f0d9ce2c"></path>
  <circle style="fill: rgb(187, 187, 187); stroke: rgb(216, 216, 216); stroke-width: 0.4px;" cx="28.299" cy="202.213" r="0.357"></circle>
  <circle style="fill: rgb(197, 197, 197);" cx="28.748" cy="201.649" r="0.224"></circle>
  <circle style="fill: rgb(194, 194, 194);" cx="29.094" cy="202.94" r="0.411"></circle>
  <circle style="fill: rgb(189, 187, 187);" cx="30.213" cy="201.799" r="0.19"></circle>
  <circle style="fill: rgb(216, 216, 216);" cx="28.243" cy="203.12" r="0.143"></circle>
  <circle style="fill: rgb(216, 216, 216);" cx="28.96" cy="202.873" r="0.191"></circle>
  <circle style="fill: rgb(216, 216, 216);" cx="28.248" cy="201.491" r="0.053"></circle>
  <circle style="fill: rgb(216, 216, 216);" cx="28.26" cy="202.874" r="0.026"></circle>
  <circle style="fill: rgb(216, 216, 216);" cx="28.924" cy="201.638" r="0.035"></circle>
  <circle style="fill: rgb(209, 209, 209);" cx="29.539" cy="201.976" r="0.096"></circle>
  <circle style="fill: rgb(216, 216, 216); stroke-width: 2px;" cx="33.455" cy="202.421" r="0.588"></circle>
  <circle style="fill: rgb(197, 197, 197);" cx="33.336" cy="202.178" r="0.088"></circle>
  <circle style="fill: rgb(194, 194, 194);" cx="33.472" cy="202.685" r="0.162"></circle>
  <circle style="fill: rgb(189, 187, 187);" cx="33.912" cy="202.236" r="0.074"></circle>
  <circle style="fill: rgb(216, 216, 216);" cx="33.138" cy="202.756" r="0.056"></circle>
  <circle style="fill: rgb(216, 216, 216);" cx="33.419" cy="202.658" r="0.075"></circle>
  <circle style="fill: rgb(216, 216, 216);" cx="33.14" cy="202.115" r="0.021"></circle>
  <circle style="fill: rgb(216, 216, 216);" cx="33.144" cy="202.659" r="0.01"></circle>
  <circle style="fill: rgb(216, 216, 216);" cx="33.405" cy="202.173" r="0.014"></circle>
  <circle style="fill: rgb(209, 209, 209);" cx="33.647" cy="202.305" r="0.038"></circle>
  <circle style="fill: rgb(216, 216, 216);" cx="21.611" cy="214.861" r="12.287"></circle>
  <circle style="fill: rgb(216, 216, 216); stroke: rgb(255, 255, 255); stroke-width: 0.3px;" cx="33.244" cy="210.017" r="0.935"></circle>
  <path style="fill: rgb(187, 187, 187);" transform="matrix(-0.983668, 0.179993, -0.179993, -0.983668, 203.248633, 436.611387)" d="M 126.299 252.749 A 0.777 0.777 0 1 1 126.299 254.251 A 0.775 0.775 0 0 0 126.299 252.749 Z" bx:shape="crescent 126.5 253.5 0.777 210 0.745 1@ecc9a79e"></path>
  <circle style="fill: rgb(187, 187, 187); stroke: rgb(216, 216, 216); stroke-width: 0.4px;" cx="32.775" cy="209.982" r="0.223"></circle>
  <circle style="fill: rgb(197, 197, 197);" cx="33.056" cy="209.63" r="0.14"></circle>
  <circle style="fill: rgb(194, 194, 194);" cx="33.272" cy="210.365" r="0.257"></circle>
  <circle style="fill: rgb(189, 187, 187);" cx="33.971" cy="209.724" r="0.119"></circle>
  <circle style="fill: rgb(216, 216, 216);" cx="32.74" cy="210.549" r="0.089"></circle>
  <circle style="fill: rgb(216, 216, 216);" cx="33.188" cy="210.395" r="0.119"></circle>
  <circle style="fill: rgb(216, 216, 216);" cx="32.744" cy="209.531" r="0.033"></circle>
  <circle style="fill: rgb(216, 216, 216);" cx="32.751" cy="210.395" r="0.016"></circle>
  <circle style="fill: rgb(216, 216, 216);" cx="33.166" cy="209.623" r="0.022"></circle>
  <circle style="fill: rgb(209, 209, 209);" cx="33.55" cy="209.834" r="0.06"></circle>
  <path style="fill: rgb(197, 197, 197);" transform="matrix(-1, 0, 0, -1, 0, 0)" d="M -24.664 -226.709 A 12.28 12.28 0 1 1 -24.664 -202.985 A 12.741 12.741 0 0 0 -24.664 -226.709 Z" bx:shape="crescent -21.486 -214.847 12.28 210 0.7 1@e2a83f41"></path>
  <path d="M 11.795085805802625 211.4971938679679 C 11.915563125144574 211.0956044768546 12.076163151399086 210.035311937069 12.482891082763672 209.8319854736328 C 12.86397630696296 209.64147799939994 13.328866874458985 209.77104715350296 13.713699340820312 209.57858276367188 C 14.135631658181582 209.36756380578927 14.068225317080804 208.65918003418133 14.473904609680176 208.4563751220703 C 14.979506444799226 208.20361749404972 15.553325523711809 208.64724818550118 15.668512344360352 209.10797119140625 C 15.696290999785264 209.21907995849702 15.804323019656593 209.41554915178747 15.740912437438965 209.54237365722656 C 15.357709672397313 210.30879937766076 14.482018089430143 210.5699421805901 13.786099433898926 210.91798400878906 C 13.590514052159605 211.01579988610246 13.622165494231055 211.49924707734894 13.532697677612305 211.67819213867188 C 13.377779899752097 211.98804401957042 12.409366043670067 212.31111484058957 12.084688186645508 212.1488037109375 C 12.049101532985372 212.13101343103037 11.893245869522302 212.1383494485816 11.867486953735352 212.1125946044922 C 11.795097845478077 212.04021693874108 11.758886337280273 211.52505304496975 11.758886337280273 211.42478942871094" style="fill: rgb(176, 176, 176);"></path>
  <path d="M 16.56 221.077 C 16.428 220.846 16.26 220.649 16.126 220.425 C 15.77 219.833 15.86 218.923 16.415 218.506 C 16.772 218.239 17.158 218.107 17.429 217.746 C 17.69 217.397 17.331 216.769 17.718 216.479 C 17.919 216.329 18.182 216.403 18.406 216.371 C 18.873 216.304 20.071 216.298 20.433 216.66 C 20.968 217.195 20.065 218.266 20.47 218.941 C 20.759 219.424 21.313 219.428 21.845 219.375 C 22.319 219.328 22.75 219.03 22.75 219.665 C 22.75 219.752 22.764 219.869 22.75 219.954 C 22.728 220.087 22.703 220.23 22.642 220.353 C 22.533 220.571 22.399 220.758 22.28 220.968 C 22.119 221.249 21.956 221.573 21.7 221.764 C 21.258 222.096 20.493 222.341 19.927 222.199 C 19.775 222.161 19.629 222.1 19.492 222.054 C 19.479 222.05 19.251 221.898 19.239 221.945 C 19.131 222.378 19.202 222.852 19.094 223.285 C 19.076 223.357 19.055 223.756 18.913 223.756 C 18.665 223.756 18.428 223.749 18.189 223.719 C 17.391 223.62 16.415 222.981 16.415 222.126 C 16.415 222.037 16.374 221.811 16.415 221.728 C 16.564 221.431 16.712 221.092 16.813 220.787 C 16.843 220.699 16.799 220.563 16.741 220.534" style="fill: rgb(176, 176, 176);"></path>
  <path d="M 23.41536397130519 213.5606077478235 C 23.346846774879342 212.6698893204855 23.30185752661552 211.46346218380967 24.247970581054688 210.99038696289062 C 24.680681523458535 210.774022942004 25.253947653145083 211.09135742538498 25.551177978515625 211.3885955810547 C 25.572323461930672 211.40974162153086 25.843958364276865 211.67819213867188 25.91318130493164 211.67819213867188 C 26.14083328031404 211.67819213867188 26.27392892358841 211.21571290647705 26.60098648071289 211.46099853515625 C 26.831666780818534 211.63400344271074 26.896783895255535 211.98736692267133 26.926788330078125 212.2574005126953 C 27.004436983308306 212.95622202745645 26.606765366854045 213.77203527692407 26.130382537841797 214.2484130859375 C 25.918563396144027 214.46022999554003 25.489167529392414 214.5688676558411 25.4063777923584 214.90000915527344 C 25.312806602229273 215.27427419479514 25.611060669874192 215.44673650011396 25.876981735229492 215.6240234375 C 25.900306765587246 215.63957400394736 26.275184631347656 215.84121704101562 26.275184631347656 215.84121704101562 C 26.275184631347656 215.84121704101562 25.674912937918776 215.9498291015625 25.623579025268555 215.9498291015625 C 25.07422046264105 215.9498291015625 24.517151508637433 216.02223205566406 23.9583683013916 216.02223205566406 C 23.7626955765653 216.02223205566406 23.483218466706916 216.0538779843499 23.34296417236328 215.9136199951172 C 23.305717049510665 215.8763718910184 23.189293337298693 215.48809627499162 23.234363555908203 215.44302368164062 C 23.338683499167505 215.3386982417828 23.34374982149265 215.18647820957938 23.37916374206543 215.04481506347656 C 23.444827885230552 214.78214465148983 23.711521906668196 214.26152953110983 23.560165405273438 213.9588165283203 C 23.4675161826751 213.77351808312363 23.37916374206543 213.39603509996215 23.37916374206543 213.1986083984375" style="fill: rgb(176, 176, 176);"></path>
  <path d="M 20.555545286684225 206.79116193597093 C 21.086362071815156 206.08338833243266 21.70355859310415 205.3793487548828 22.65515899658203 205.3793487548828 C 22.76884692215852 205.3793487548828 22.849185462838175 205.29923749407754 22.980960845947266 205.34315490722656 C 23.241130581479158 205.4298629212322 23.58181320249521 205.92236328125 23.849767684936523 205.92236328125 C 24.70567526938009 205.92236328125 25.468426698061688 205.61204718274448 25.91318130493164 206.50155639648438 C 25.982745294118967 206.64068437485903 26.15265414562641 206.85522942847373 26.0579833984375 207.04457092285156 C 25.77713669535769 207.6062643290112 25.051318003196414 207.93229741798342 24.465171813964844 208.16676330566406 C 24.1994692429866 208.27304769394118 23.963439627621216 208.47879272710463 23.704965591430664 208.56497192382812 C 23.602062226602282 208.5992814794483 23.47528432433658 208.7543055000233 23.37916374206543 208.81837463378906 C 22.701844505907022 209.26984148634244 22.150050396050766 210.03029827248065 21.46055030822754 210.37498474121094 C 21.24930666690121 210.48058708420754 20.752082472789915 210.3517276031944 20.555545806884766 210.30258178710938 C 20.37783399834606 210.2581433011996 20.212968980900985 210.26728071277506 20.04874038696289 210.1577911376953 C 19.842215641470375 210.02010313778496 19.6048356932331 209.8225284265885 19.433338165283203 209.65098571777344 C 19.34611910505673 209.5637436797662 19.59965620267824 209.3868215312747 19.65053939819336 209.3613739013672 C 19.77197924256659 209.30063958261323 20.374544143676758 208.87989867361816 20.374544143676758 208.7459716796875 C 20.374544143676758 208.5774429331204 20.038409119359752 208.5235679501288 20.084941864013672 208.38397216796875 C 20.169546843673167 208.130161686811 20.254883655974275 207.92994967416521 20.41074562072754 207.6961669921875 C 20.454716535686885 207.6302135156964 20.591745376586914 207.5737429896462 20.591745376586914 207.47897338867188 C 20.591745376586914 207.32269405376547 20.327279006169817 207.06669824376388 20.374544143676758 206.97216796875 C 20.452788946116005 206.8156783638715 20.664146423339844 206.70464987684426 20.664146423339844 206.57395935058594" style="fill: rgb(176, 176, 176);"></path>
  <path d="M 26.519 222.914 C 26.829 222.604 27.186 222.293 27.533 222.045 C 27.785 221.865 28 221.585 28.329 221.538 C 28.83 221.467 29.471 221.583 29.922 221.357 C 30.843 220.897 30.815 219.41 31.297 218.606 C 31.417 218.407 31.851 218.092 32.058 217.955 C 32.175 217.876 32.385 217.88 32.456 217.737 C 32.885 216.878 31.649 216.285 31.949 215.384 C 32.073 215.011 32.353 214.727 32.601 214.479 C 32.695 214.385 32.883 214.421 32.963 214.262 C 33.046 214.095 33.382 213.502 33.506 213.502 C 33.597 213.502 33.548 213.726 33.578 213.755 C 33.706 213.883 33.65 214.23 33.65 214.407 C 33.65 214.867 33.743 215.779 33.542 216.181 C 33.373 216.518 33.642 217.067 33.469 217.412 C 33.345 217.66 33.485 218.016 33.397 218.28 C 33.241 218.748 33.112 219.177 32.89 219.62 C 32.856 219.687 32.924 219.806 32.89 219.873 C 32.806 220.041 32.76 220.205 32.673 220.38 C 32.576 220.574 32.659 220.879 32.564 221.068 C 32.437 221.322 32.371 221.6 32.239 221.864 C 31.814 222.713 31.234 223.521 30.573 224.181 C 30.057 224.698 29.306 225.051 28.8 225.557 C 28.547 225.809 28.109 225.836 27.822 226.027 C 27.657 226.138 27.332 225.909 27.207 225.846 C 26.942 225.714 26.508 225.265 26.628 224.905 C 26.733 224.588 27.012 224.214 26.881 223.819 C 26.767 223.478 26.409 223.292 26.229 223.023 C 26.195 222.972 26.049 222.732 26.121 222.661 C 26.24 222.542 26.648 222.533 26.809 222.48 C 26.837 222.47 27.062 222.335 27.062 222.335" style="fill: rgb(176, 176, 176);" transform="matrix(0.998619, 0.052532, -0.052532, 0.998619, 11.586726, -1.26653)"></path>
  <path d="M 29.859008420159398 209.86818291018716 C 30.49673190612291 209.86817932128906 30.46967600205865 210.10435010896657 30.32961082458496 210.66458129882812 C 30.31807671113578 210.71071532170362 30.32446959140768 210.9593351718529 30.293411254882812 210.99038696289062 C 30.24810937206489 211.0356792984203 30.080514968314997 210.96431798700627 30.040008544921875 210.95419311523438 C 29.776861249484316 210.88841755668724 29.544775719503928 210.74471230249927 29.31600570678711 210.59219360351562 C 29.27845249877844 210.5671572521157 29.074395860254082 210.4600098321744 29.09880256652832 210.41119384765625 C 29.237318789085613 210.13414680575337 29.8590087890625 209.91910663192573 29.8590087890625 209.57858276367188" style="fill: rgb(176, 176, 176);"></path>
  <path d="M 10.166 217.194 C 10.341 217.405 10.544 217.71 10.6 217.991 C 10.607 218.025 10.563 218.479 10.6 218.497 C 10.709 218.552 11.009 218.494 11.107 218.461 C 11.126 218.455 11.336 218.303 11.361 218.353 C 11.537 218.706 11.433 219.286 11.433 219.692 C 11.433 219.772 11.38 220.145 11.433 220.199 C 11.683 220.449 12.071 220.511 12.302 220.742 C 12.354 220.794 12.282 221.026 12.302 221.104 C 12.396 221.48 12.266 221.749 12.266 222.081 C 12.266 222.298 12.266 222.516 12.266 222.733 C 12.266 222.83 12.399 223.022 12.302 223.022 C 11.967 223.022 11.752 222.437 11.542 222.226 C 11.504 222.188 11.526 222.029 11.469 221.973 C 11.277 221.78 11.208 221.422 11.035 221.249 C 10.674 220.888 10.482 220.241 10.311 219.728 C 10.177 219.325 9.868 218.951 9.695 218.606 C 9.56 218.335 9.688 217.572 9.804 217.339 C 9.876 217.195 10.13 217.108 10.13 217.339" style="fill: rgb(176, 176, 176);"></path>
  <path d="M 10.125667671321136 210.4091326334903 C 10.274687816227228 210.11108086007164 10.331564923330564 209.75748857321372 10.431107521057129 209.45887756347656 C 10.534963966108963 209.14732573910254 10.821398896541856 208.83098840063855 10.940173149108887 208.4746856689453 C 11.044315049956866 208.16227752531233 10.993888332481308 207.75641641921516 11.143799781799316 207.45654296875 C 11.346079303315262 207.0519157147852 11.627544577221112 206.7944652166123 11.822553634643555 206.40447998046875 C 11.963643701971659 206.12232363372397 11.602533628950138 205.6402966797143 11.856492042541504 205.3863525390625 C 12.336417532302862 204.90645402201454 12.68871034929583 204.63919792681514 13.247939109802246 204.2664031982422 C 13.590929516555276 204.0377579199256 13.71602359145636 203.70994130510087 14.096382141113281 203.519775390625 C 14.536151510986898 203.29990615288622 15.1937336557718 203.63286306392118 15.623579978942871 203.41795349121094 C 16.371126575894706 203.04420382517512 16.8487073028643 202.36434579085073 17.591968536376953 201.99256896972656 C 18.087755129426693 201.74457814872153 18.643707903388847 202.04903242687783 19.085227966308594 202.19619750976562 C 19.22186709774685 202.24174132711983 19.63561391001771 202.34526894754015 19.79792022705078 202.2640838623047 C 19.820545196533203 202.25276692708334 19.712158810074193 202.21224353234524 19.730045318603516 202.23013305664062 C 20.016845846373116 202.5169819405943 20.692410917625068 202.3998260498047 21.087553024291992 202.3998260498047 C 21.521571321350297 202.3998260498047 22.12116382945423 202.3135095325649 22.41112518310547 202.60345458984375 C 22.481402249323533 202.67372770635876 22.7207957649698 202.63739013671875 22.818378448486328 202.63739013671875 C 22.95598983199003 202.63739013671875 23.240288952879567 202.57684725059278 23.36138153076172 202.63739013671875 C 23.47388468369694 202.69363855174217 23.70692371176121 202.8410186767578 23.870447158813477 202.8410186767578 C 23.975841647908453 202.8410186767578 24.318552256717197 202.81400054529215 24.379512786865234 202.8749542236328 C 24.381654088862472 202.87709528495319 24.583527178101754 203.01071166992188 24.54920196533203 203.01071166992188 C 24.207560014545248 203.01071166992188 23.52595710338627 203.2743223210127 23.25956916809082 203.451904296875 C 23.09210209581137 203.5635427370854 23.061861810452694 203.78533758487936 22.920190811157227 203.92703247070312 C 22.734815784381887 204.1124387527519 22.415283267146187 204.40728385087024 22.173561096191406 204.50396728515625 C 21.897384885616756 204.61443156073753 21.391093690628058 204.7343643173403 21.087553024291992 204.6736602783203 C 20.64829167319827 204.58581393298996 20.124682100604947 204.38374318549677 19.662168502807617 204.53790283203125 C 19.207470505258314 204.68945747370225 19.02083328496608 205.2131967455773 18.711912155151367 205.5220947265625 C 17.967456866637193 206.2664942297422 17.347603312295007 206.84833321829257 16.336271286010742 207.2529296875 C 16.092737277336234 207.35035862031415 15.520292955900008 207.47660984076919 15.250264167785645 207.422607421875 C 14.97987946594604 207.36853382463642 14.587801274359654 207.19094037300192 14.300007820129395 207.286865234375 C 13.863621711272836 207.43231773297046 13.652388253382291 207.91611870279021 13.281876564025879 208.1013641357422 C 12.978793717746626 208.25289704196936 12.587168773653227 207.86243866747358 12.331620216369629 208.20318603515625 C 12.16752124801452 208.42199490694492 12.110474647473803 208.797653895918 11.92436695098877 208.98374938964844 C 11.894667952652421 209.01344644067368 11.686802864074707 209.20184972696921 11.686802864074707 209.2213134765625 C 11.686802864074707 209.48502658736828 11.494869503815567 209.7631857040624 11.415301322937012 210.0018768310547 C 11.327766079048965 210.26446780378376 11.263713501402512 210.59390008074703 11.109861373901367 210.85032653808594 C 10.968180107338036 211.08646773318156 10.75232721566507 211.32785059410057 10.634733200073242 211.56301879882812 C 10.533148859400288 211.76617035296343 10.332082647206374 212.01535788000155 10.39716911315918 212.2757110595703 C 10.399365775988544 212.28449795779397 10.578184274492985 212.85264587402344 10.498982429504395 212.85264587402344 C 10.416756743163015 212.85264587402344 9.948198383190572 212.92831179967544 9.888103485107422 212.9884033203125 C 9.844019401937995 213.0324849258737 9.913417426024555 213.2254108395061 9.922040939331055 213.25990295410156 C 9.94083230492291 213.3350641920289 10.000147067170543 214.19833203874808 9.888103485107422 214.1422882080078 C 9.458786610393899 213.9275453212012 9.706543796115966 213.69938063771855 9.582664489746094 213.32777404785156 C 9.407677606785324 212.8028576533865 9.725539822302787 212.050682378093 9.888103485107422 211.56301879882812 C 9.986506667747125 211.26782584223974 9.882339450907393 210.89576820118708 10.02385425567627 210.61276245117188 C 10.066845063912167 210.52678808298876 10.193543434143066 210.35301267801526 10.193543434143066 210.27337646484375" style="fill: rgb(180, 180, 180);"></path>
</svg>