<svg viewBox="71.545 31.584 210.646 211.315" xmlns="http://www.w3.org/2000/svg">
  <style>
    :root{
      --border-color: rgba(133, 167, 130, 0.5);
      --back-color: rgb(194, 228, 191);
  }
  </style>
  <defs></defs>
  <circle style="fill: var(--back-color);" cx="177.515" cy="136.577" r="103.323"></circle>
  <path style="fill: rgba(0, 0, 0, 0.06);" transform="matrix(-1, 0, 0, -1, 0, 0)" d="M -180.105 -240.233 A 103.876 103.876 0 1 1 -180.105 -32.513 A 127.217 127.217 0 0 0 -180.105 -240.233 Z"></path>
  <path d="M 110.341 58.554 C 129.224 49.112 144.88 57.355 162.483 63.223 C 166.233 64.473 170.257 60.764 172.989 58.943 C 174.184 58.146 176.015 58.403 177.269 57.775 C 183.054 54.883 192.561 60.946 197.114 63.223 C 199.791 64.562 203.79 58.882 205.286 57.386 C 208.625 54.048 217.29 52.308 222.018 53.884 C 226.096 55.244 228.928 58.701 232.524 60.499 C 235.767 62.121 240.123 58.943 243.03 58.943 C 243.722 58.943 245.387 58.187 245.754 58.554 C 247.062 59.861 247.676 62.032 248.867 63.223 C 251.871 66.227 253.227 66.495 255.093 70.227 C 255.604 71.249 257.359 73.478 256.65 74.897 C 254.159 79.877 246.419 79.315 242.252 77.231 C 234.422 73.316 229.084 62.721 219.294 65.169 C 216.135 65.958 213.875 68.781 211.123 70.616 C 201.576 76.981 196.008 91.219 184.274 95.131 C 180.103 96.521 177.343 100.305 172.211 99.022 C 164.332 97.052 169.365 86.938 171.044 81.901 C 171.657 80.06 172.186 78.838 172.989 77.231 C 173.182 76.846 173.68 74.595 173.378 74.897 C 172.35 75.925 176.348 76.822 176.491 76.842 C 178.034 77.063 189.92 78.207 186.997 76.453 C 184.951 75.226 181.9 75.279 179.604 74.897 C 176.155 74.322 168.83 71.274 165.596 74.508 C 162.404 77.7 159.465 80.759 155.868 83.457 C 155.463 83.761 152.977 86.403 152.366 85.792 C 149.358 82.784 147.565 78.268 144.583 75.286 C 143.335 74.037 139.051 78.551 137.19 77.621 C 135.162 76.607 136.652 74.748 135.634 73.729 C 134.436 72.532 130.345 73.398 129.019 73.729 C 124.832 74.776 121.677 78.641 117.734 79.955 C 112.124 81.826 106.755 79.025 101.002 81.901 C 97.545 83.629 96.13 87.552 93.998 89.683 C 93.631 90.051 91.422 89.441 91.274 89.294 C 90.378 88.398 87.968 85.79 88.94 83.846 C 90.282 81.162 94.34 82.166 96.333 79.177 C 98.086 76.547 98.07 73.369 99.446 70.616 C 101.239 67.03 103.236 64.88 105.672 62.445 C 107.53 60.587 108.285 57.386 111.508 57.386" style="fill: var(--border-color);"></path>
  <path d="M 76.488 120.424 C 90.464 116.93 108.14 113.809 122.404 117.7 C 126.064 118.698 129.371 121.042 132.91 122.369 C 143.844 126.469 154.386 130.377 165.985 132.486 C 172.726 133.712 178.992 132.792 185.052 129.762 C 186.836 128.871 188.484 127.734 190.11 126.649 C 190.231 126.569 191.195 125.441 191.278 125.482 C 192.75 126.218 193.66 129.556 195.947 128.984 C 205.773 126.528 207.012 113.25 213.068 107.194 C 216.478 103.784 224.078 103.964 228.633 104.47 C 230.961 104.728 235.61 106.429 237.972 105.248 C 240.527 103.971 242.872 100.631 245.365 99.8 C 248.962 98.601 253.806 98.633 257.817 98.633 C 260.782 98.633 264.175 97.855 266.767 97.855 C 267.337 97.855 269.38 96.966 269.88 97.466 C 271.557 99.143 272.656 101.513 273.382 103.691 C 273.694 104.629 275.537 106.415 274.549 106.415 C 271.381 106.415 268.341 111.085 265.21 111.085 C 260.865 111.085 256.645 112.953 252.369 113.809 C 245.414 115.2 236.34 113.767 230.579 118.089 C 227.388 120.482 218.848 127.702 221.24 132.486 C 223.052 136.11 227.457 136.377 230.968 136.377 C 231.299 136.377 233.811 136.647 234.081 136.377 C 235.285 135.173 237.761 133.896 238.361 132.097 C 238.782 130.833 239.763 128.309 241.085 127.428 C 245.59 124.424 254.675 123.397 259.762 125.093 C 265.521 127.012 259.893 135.858 257.817 137.934 C 254.656 141.095 241.815 139.121 247.311 145.716 C 257.727 158.215 233.276 129.732 249.645 148.44 C 251.05 150.045 253.04 151.84 255.093 152.72 C 256.23 153.208 258.139 153.711 259.373 153.888 C 260.7 154.077 264.606 154.968 265.988 154.277 C 267.185 153.678 266.31 149.969 266.767 148.829 C 268.145 145.383 267.934 141.383 267.934 137.545 C 267.934 136.332 267.393 133.567 267.934 132.486 C 268.658 131.039 268.673 129.023 269.88 127.817 C 270.818 126.878 275.657 127.368 276.495 128.206 C 284.431 136.143 277.483 146.254 274.549 155.055 C 272.777 160.371 272.502 166.805 267.934 170.231 C 263.827 173.311 258.112 172.414 253.926 170.62 C 244.889 166.747 241.631 159.765 236.415 151.942 C 233.12 147 230.982 140.816 224.353 139.49 C 220.906 138.801 215.013 138.323 211.901 139.879 C 209.026 141.317 204.24 143.422 200.617 142.214 C 197.614 141.213 195.014 137.895 192.056 137.156 C 189.849 136.604 186.418 137.116 184.274 137.545 C 181.153 138.169 178.917 143.13 177.269 145.327 C 175.328 147.915 167.273 150.685 164.039 149.607 C 160.119 148.301 159.195 144.5 157.814 141.047 C 157.237 139.605 157.027 136.762 155.479 135.988 C 153.609 135.053 147.714 140.06 146.529 141.047 C 143.26 143.771 138.396 149.133 134.077 149.997 C 130.103 150.792 125.972 150.762 122.015 151.553 C 114.594 153.037 109.194 151.061 104.893 145.327 C 103.763 143.82 99.055 136.378 97.5 137.156 C 91.504 140.154 87.007 148.024 84.659 152.72 C 83.264 155.512 85.269 160.062 83.881 162.837 C 83.329 163.941 80.268 167.785 78.433 165.95 C 76.615 164.132 77.738 159.5 76.488 157.001 C 73.79 151.605 76.509 144.611 74.542 138.712 C 73.984 137.038 73.142 134.352 73.764 132.486 C 74.807 129.358 75.068 125.597 76.488 122.758 C 76.568 122.598 78.433 119.645 78.433 119.645" style="fill: var(--border-color);"></path>
  <path d="M 95.555 198.247 C 97.785 194.678 99.852 191.223 102.559 188.13 C 103.918 186.576 106.322 185.751 108.006 184.628 C 123.65 174.199 142.399 185.12 158.981 178.013 C 162.164 176.649 163.339 173.265 165.596 171.009 C 170.035 166.57 173.919 160.503 180.771 160.503 C 194.59 160.503 205.734 173.305 218.127 176.846 C 221.849 177.909 230.747 180.67 234.47 179.18 C 238.216 177.682 241.817 174.704 244.976 172.176 C 245.954 171.394 247.993 169.129 249.645 170.231 C 254.269 173.313 254.37 182.516 259.373 185.017 C 261.152 185.906 264.691 184.628 266.377 184.628 C 267.322 184.628 269.769 183.182 269.101 183.85 C 265.458 187.492 259.35 190.351 255.093 193.189 C 251.261 195.743 249.07 199.668 245.365 202.138 C 243.597 203.317 241.112 202.67 239.139 202.917 C 236.304 203.271 234.062 203.298 231.357 202.138 C 224.091 199.024 220.001 193.506 214.625 188.13 C 213.265 186.77 208.998 183.55 206.842 184.628 C 200.249 187.925 197.361 197.108 189.721 198.636 C 177.77 201.027 168.643 186.396 157.035 189.297 C 155.15 189.769 153.454 191.738 152.366 193.189 C 149.437 197.094 144.103 204.587 139.525 206.419 C 132.98 209.036 120.303 207.508 114.232 204.473 C 112.191 203.452 107.356 199.804 105.283 199.804 C 101.779 199.804 95.944 202.785 95.944 197.858" style="fill: var(--border-color);"></path>
  <path d="M 131.743 227.042 C 147.175 221.898 161.758 217.321 178.047 219.649 C 182.621 220.302 187.26 220.141 191.667 219.26 C 194.29 218.735 196.122 216.059 198.282 214.979 C 200.934 213.653 204.178 213.422 207.231 213.422 C 212.555 213.422 216.939 216.216 221.629 218.092 C 224.026 219.051 229.594 222.281 232.524 220.816 C 233.376 220.391 234.308 219.649 235.248 219.649 C 236.893 219.649 238.347 218.481 239.918 218.481 C 240.696 218.481 242.803 217.931 242.252 218.481 C 235.595 225.138 227.129 226.237 218.516 230.544 C 216.162 231.721 214.246 233.363 211.512 234.046 C 206.382 235.329 199.764 232.773 194.78 234.435 C 191.898 235.396 189.879 237.755 186.998 238.715 C 185.367 239.258 183.22 238.298 181.55 238.715 C 175.221 240.298 162.114 240.282 156.647 237.548 C 154.97 236.71 152.604 237.368 150.809 236.77 C 146.6 235.366 139.744 234.265 136.801 231.322 C 135.813 230.334 132.521 229.307 132.521 228.209" style="fill: var(--border-color);"></path>
  <path d="M 216.57 41.433 C 210.572 44.098 204.922 44.073 198.671 45.324 C 197.514 45.555 194.785 46.299 193.612 45.713 C 190.031 43.922 186.328 41.682 182.717 39.876 C 180.072 38.553 174.565 40.265 171.822 40.265 C 166.022 40.265 159.991 40.861 154.701 39.098 C 152.82 38.471 151.433 38.555 150.031 37.152 C 149.563 36.685 147.424 36.763 148.086 36.763 C 152.998 36.763 155.196 35.949 159.759 34.428 C 161.518 33.842 166.351 35.619 167.541 34.428 C 170.268 31.702 177.66 32.483 181.939 32.483 C 184.541 32.483 190.818 31.28 193.223 32.483 C 197.558 34.65 206.456 33.652 209.955 37.152 C 210.457 37.654 217.917 41.433 216.57 41.433" style="fill: var(--border-color);"></path>
</svg>