<svg viewBox="17.429 38.529 448.767 366.553" xmlns="http://www.w3.org/2000/svg">
  <style>
    :root{
      --border-color: rgba(133, 167, 130, 0.5);
      --back-color: rgb(194, 228, 191);
  }
  </style>
  <defs></defs>
  <circle style="fill: var(--back-color);" cx="258.999" cy="208.846" r="107.499" transform="matrix(0.774378, 0.632723, -0.632723, 0.774378, 188.344907, -121.147441)"></circle>
  <circle style="fill: rgba(255, 255, 255, 0.47);" cx="258.999" cy="208.846" r="107.499" transform="matrix(0.774378, 0.632723, -0.632723, 0.774378, 187.816357, -119.992374)"></circle>
  <path d="M 169.333 516 m -77.405 0 a 77.405 155.088 0 1 0 154.81 0 a 77.405 155.088 0 1 0 -154.81 0 Z M 169.333 516 m -62.168 0 a 62.168 136.55 0 0 1 124.336 0 a 62.168 136.55 0 0 1 -124.336 0 Z" style="fill: var(--border-color);" transform="matrix(-0.993911, -0.110183, -1.330404, -1.153612, 1096.684073, 836.642594)" ></path>
  <path d="M 169.333 516 m -54.182 0 a 54.182 133.223 0 1 0 108.364 0 a 54.182 133.223 0 1 0 -108.364 0 Z M 169.333 516 m -47.309 0 a 47.309 117.299 0 0 1 94.618 0 a 47.309 117.299 0 0 1 -94.618 0 Z" style="fill: var(--back-color);" transform="matrix(-0.993911, -0.110183, -1.330404, -1.153612, 1099.004385, 837.095902)" ></path>
  <path d="M 169.333 516 m -46.534 0 a 46.534 116.32 0 1 0 93.068 0 a 46.534 116.32 0 1 0 -93.068 0 Z M 169.333 516 m -37.373 0 a 37.373 96.95 0 0 1 74.746 0 a 37.373 96.95 0 0 1 -74.746 0 Z" style="fill: var(--border-color);" transform="matrix(-0.993911, -0.110183, -1.330404, -1.153612, 1099.50878, 837.351274)" ></path>
  <path d="M 169.333 516 m -46.534 0 a 46.534 116.32 0 1 0 93.068 0 a 46.534 116.32 0 1 0 -93.068 0 Z M 169.333 516 m -37.373 0 a 37.373 96.95 0 0 1 74.746 0 a 37.373 96.95 0 0 1 -74.746 0 Z" style="fill: rgba(255, 255, 255, 0.33);" transform="matrix(-0.993911, -0.110183, -1.330404, -1.153612, 1099.331289, 837.262345)"></path>
  <circle style="fill: rgb(177, 177, 177);" cx="213.6" cy="178.8" r="26.564" transform="matrix(0.779817, 0.626008, -0.626008, 0.779817, 188.629162, -123.319718)"></circle>
  <path style="fill: rgb(255, 255, 255);" transform="matrix(-0.410763, 0.502725, -0.460152, -0.375977, 571.142273, 58.780693)" d="M 494 449 A 196.003 196.003 0 0 1 495 56.997 L 495 253 Z" ></path>
  <path style="fill: rgb(224, 224, 224);" transform="matrix(-0.345794, 0.42321, -0.42321, -0.345794, 534.809387, 83.125061)" d="M 494 449 A 196.003 196.003 0 0 1 495 56.997 L 495 253 Z" ></path>
  <circle style="fill: rgb(216, 216, 216);" cx="245.045" cy="143.899" r="8.916" transform="matrix(0.774378, 0.632723, -0.632723, 0.774378, 193.566105, -131.339396)"></circle>
  <path style="fill: rgb(243, 243, 243);" transform="matrix(0.632723, -0.774378, 0.774378, 0.632723, -522.671411, 298.947474)" d="M 538.386 439.805 A 107.623 107.623 0 1 1 538.386 648.195 A 1019.156 1019.156 0 0 1 538.386 439.805 Z" ></path>
  <path style="fill: var(--back-color);" transform="matrix(0.632723, -0.774378, 0.774378, 0.632723, -522.668116, 299.945521)" d="M 562.516 436.414 A 107.623 107.623 0 1 1 562.516 651.586 A 434.154 434.154 0 0 1 562.516 436.414 Z"></path>
  <path style="fill: var(--back-color);" transform="matrix(0.632723, -0.774378, 0.774378, 0.632723, -522.304712, 299.500574)" d="M 578.449 437.179 A 107.623 107.623 0 0 1 578.449 650.821 A 415.186 415.186 0 0 1 578.449 437.179 Z" ></path>
  <path style="fill: rgba(255, 255, 255, 0.55);" transform="matrix(0.632723, -0.774378, 0.774378, 0.632723, -522.392847, 298.993769)" d="M 578.449 437.179 A 107.623 107.623 0 0 1 578.449 650.821 A 415.186 415.186 0 0 1 578.449 437.179 Z" ></path>
  <path style="fill: rgb(248, 248, 248);" transform="matrix(0.632723, -0.774378, 0.774378, 0.632723, -521.596826, 298.634241)" d="M 623.159 453.232 A 107.623 107.623 0 0 1 623.159 634.768 A 202.78 202.78 0 0 1 623.159 453.232 Z"></path>
  <path style="fill: var(--border-color);" transform="matrix(0.632723, -0.774378, 0.774378, 0.632723, -522.959253, 299.234766)" d="M 635.229 462.163 A 107.623 107.623 0 0 1 635.229 625.837 A 188.723 188.723 0 0 1 635.229 462.163 Z"></path>
  <path style="fill: var(--back-color);" transform="matrix(0.632723, -0.774378, 0.774378, 0.632723, -521.914698, 299.02334)" d="M 640.094 466.582 A 107.623 107.623 0 0 1 640.094 621.418 A 170.562 170.562 0 0 1 640.094 466.582 Z"></path>
  <path style="fill: var(--border-color);" transform="matrix(-0.632723, 0.774378, -0.774378, -0.632723, 1036.418421, 111.359258)" d="M 640.094 466.582 A 107.623 107.623 0 0 1 640.094 621.418 A 228.896 228.896 0 0 0 640.094 466.582 Z"></path>
</svg>