<svg viewBox="-36.225 114.676 576.519 188.893" xmlns="http://www.w3.org/2000/svg">
  <style>
    :root{
      --border-color: rgb(133, 167, 130);
      --back-color: rgb(194, 228, 191);
  }
  </style>
  <defs></defs>
  <circle style="fill: var(--back-color);" cx="258.486" cy="214.282" r="90.139" transform="matrix(0.970428, -0.241389, 0.241389, 0.970428, -50.215284, 62.649781)"></circle>
  <path d="M 175.085 247.114 C 204.198 239.933 232.773 231.316 259.962 220.587 C 265.221 218.512 280.564 218.795 286.014 220.587 C 288.344 221.353 293.724 223.622 296.519 222.244 C 302.853 219.12 308.348 214.131 314.587 211.053 C 321.658 207.566 332.777 211.822 339.377 208.565 C 342.307 207.122 345.839 205.251 349.042 205.251" style="fill: none; stroke-width: 3px; stroke: rgb(255, 255, 255);" transform="matrix(0.970428, -0.241389, 0.241389, 0.970428, -46.848359, 69.947852)"></path>
  <path d="M 208.756 276.459 C 227.189 263.864 247.691 253.108 265.239 240.118 C 272.296 234.894 281.396 226.935 289.925 225.254 C 298.746 223.511 306.287 228.372 313.354 231.859 C 321.142 235.701 339.019 222.915 343.481 227.317 C 344.064 227.895 351.011 227.731 351.011 227.731" style="fill: none; stroke-width: 3px; stroke: rgb(255, 255, 255);" transform="matrix(0.970428, -0.241389, 0.241389, 0.970428, -52.233257, 74.973642)"></path>
  <path d="M 261.427 290.296 C 279.018 282.264 295.298 270.743 310.429 258.902 C 314.338 255.841 324.121 259.865 326.764 257.107 C 330.128 253.595 339.533 251.277 343.527 251.277" style="fill: none; stroke-width: 3px; stroke: rgb(255, 255, 255);" transform="matrix(0.970428, -0.241389, 0.241389, 0.970428, -56.420184, 81.022243)"></path>
  <path d="M 169.333 516 m -80.83 0 a 80.83 161.948 0 1 0 161.66 0 a 80.83 161.948 0 1 0 -161.66 0 Z M 169.333 516 m -64.918 0 a 64.918 142.59 0 0 1 129.836 0 a 64.918 142.59 0 0 1 -129.836 0 Z" style="fill: var(--border-color);" transform="matrix(-0.683351, 0.73009, -1.720548, 0.374851, 1255.488617, -101.365033)"></path>
  <circle style="fill: rgb(177, 177, 177);" cx="213.6" cy="178.8" r="22.275" transform="matrix(0.968306, -0.249765, 0.249765, 0.968306, -42.603818, 70.054372)"></circle>
  <path style="fill: rgb(255, 255, 255);" transform="matrix(0.113191, 0.455047, -0.467118, 0.116193, 313.852356, -47.036919)" d="M 494 449 A 196.003 196.003 0 0 1 495 56.997 L 495 253 Z"></path>
  <path style="fill: var(--back-color);" transform="matrix(0.110617, 0.444703, -0.444703, 0.110617, 310.459381, -39.444248)" d="M 494 449 A 196.003 196.003 0 0 1 495 56.997 L 495 253 Z" ></path>
  <path style="fill: rgba(0, 0, 0, 0.1);" transform="matrix(-0.869617, -0.493726, 0.493726, -0.869617, 477.120956, 961.078971)" d="M 604.752 463.179 A 89.922 89.922 0 0 1 604.752 624.821 A 131.226 131.226 0 0 0 604.752 463.179 Z"></path>
  <path d="M 162.597 228.463 C 165.089 223.796 167.227 218.635 170.465 214.497 C 175.212 208.434 185.361 197.001 194.485 200.108 C 212.245 206.16 216.019 220.209 237.549 217.459 C 249.598 215.92 264.146 205.041 270.677 195.03 C 273.674 190.435 275.337 182.915 280.614 180.218 C 296.062 172.325 304.711 181.315 316.64 187.412 C 324.587 191.474 333.043 184.451 338.587 184.451" style="fill: none; stroke-width: 3px; stroke: rgb(255, 255, 255);" transform="matrix(0.970428, -0.241389, 0.241389, 0.970428, -41.541815, 66.487116)"></path>
  <path d="M 162.752 173.841 C 169.126 175.115 179.902 175.759 185.512 179.125 C 198.153 186.709 205.862 201.689 221.279 205.544 C 225.988 206.722 230.175 213.289 236.723 210.015 C 238.875 208.939 241.21 203.627 242.821 201.479 C 251.929 189.334 254.563 171.447 265.175 160.835 C 271.117 154.893 275.339 154.331 281.839 151.08 C 283.466 150.267 287.429 151.994 288.748 150.674 C 289.955 149.468 295.747 140.513 296.064 140.513" style="fill: none; stroke-width: 3px; stroke: rgb(255, 255, 255);" transform="matrix(0.970428, -0.241389, 0.241389, 0.970428, -35.632166, 60.572818)"></path>
  <path d="M 249.525 128.072 C 246.095 134.589 242.363 152.138 234.08 154.899 C 223.284 158.497 219.931 142.78 215.384 138.234 C 213.218 136.067 206.183 148.395 204.004 148.395 C 201.399 148.395 196.405 141.58 190.592 143.517 C 187.914 144.411 182.74 151.241 180.836 151.241 C 179.013 151.241 172.708 149.478 172.708 152.866" style="fill: none; stroke-width: 3px; stroke: rgb(255, 255, 255);" transform="matrix(0.970428, -0.241389, 0.241389, 0.970428, -27.974038, 55.153018)"></path>
</svg>